<?xml version="1.0" encoding="utf-8" standalone="no"?>
<!DOCTYPE svg PUBLIC "-//W3C//DTD SVG 1.1//EN"
  "http://www.w3.org/Graphics/SVG/1.1/DTD/svg11.dtd">
<!-- Created with matplotlib (http://matplotlib.org/) -->
<svg height="208.8pt" version="1.1" viewBox="0 0 496.8 208.8" width="496.8pt" xmlns="http://www.w3.org/2000/svg" xmlns:xlink="http://www.w3.org/1999/xlink">
 <defs>
  <style type="text/css">
*{stroke-linecap:butt;stroke-linejoin:round;}
  </style>
 </defs>
 <g id="figure_1">
  <g id="patch_1">
   <path d="M 0 208.8 
L 496.8 208.8 
L 496.8 0 
L 0 0 
z
" style="fill:#ffffff;"/>
  </g>
  <g id="axes_1">
   <g id="patch_2">
    <path d="M 51.364063 174.35 
L 450.396875 174.35 
L 450.396875 10.7 
L 51.364063 10.7 
z
" style="fill:#ffffff;"/>
   </g>
   <g id="matplotlib.axis_1">
    <g id="xtick_1">
     <g id="line2d_1">
      <defs>
       <path d="M 0 0 
L 0 3.5 
" id="m74f460aef4" style="stroke:#000000;stroke-width:0.8;"/>
      </defs>
      <g>
       <use style="stroke:#000000;stroke-width:0.8;" x="69.501918" xlink:href="#m74f460aef4" y="174.35"/>
      </g>
     </g>
     <g id="text_1">
      <!-- 2021-01-28 -->
      <defs>
       <path d="M 4.6875 3.90625 
Q 5.078125 9.765625 10.15625 14.453125 
Q 15.234375 19.140625 23.046875 29.09375 
Q 30.859375 39.0625 33.203125 44.53125 
Q 35.546875 50 34.953125 53.90625 
Q 34.375 57.8125 31.25 60.34375 
Q 28.125 62.890625 24.015625 62.5 
Q 19.921875 62.109375 16.203125 59.375 
Q 12.5 56.640625 10.546875 51.171875 
L 3.125 52.34375 
Q 6.25 61.328125 11.125 65.421875 
Q 16.015625 69.53125 22.65625 69.921875 
Q 26.5625 70.3125 29.6875 69.71875 
Q 32.8125 69.140625 36.125 66.984375 
Q 39.453125 64.84375 41.59375 60.546875 
Q 43.75 56.25 43.15625 50.1875 
Q 42.578125 44.140625 37.109375 35.734375 
Q 31.640625 27.34375 16.015625 9.375 
L 44.140625 9.375 
L 44.140625 2.34375 
L 4.6875 2.34375 
z
" id="SimHei-32"/>
       <path d="M 3.125 29.296875 
Q 3.90625 50 6.4375 56.046875 
Q 8.984375 62.109375 13.671875 66.015625 
Q 18.359375 69.921875 25.1875 69.921875 
Q 32.03125 69.921875 37.109375 64.25 
Q 42.1875 58.59375 43.75 50 
Q 45.3125 41.40625 44.71875 30.265625 
Q 44.140625 19.140625 40.8125 12.109375 
Q 37.5 5.078125 30.859375 2.34375 
Q 24.21875 -0.390625 17.578125 2.921875 
Q 10.9375 6.25 8.203125 11.71875 
Q 5.46875 17.1875 4.296875 23.234375 
Q 3.125 29.296875 3.90625 50 
z
M 12.890625 52.734375 
Q 10.546875 31.25 12.5 22.84375 
Q 14.453125 14.453125 18.9375 10.9375 
Q 23.4375 7.421875 28.125 9.5625 
Q 32.8125 11.71875 34.953125 18.15625 
Q 37.109375 24.609375 37.109375 32.21875 
Q 37.109375 39.84375 36.515625 46.09375 
Q 35.9375 52.34375 33 57.421875 
Q 30.078125 62.5 25.1875 62.6875 
Q 20.3125 62.890625 16.59375 57.8125 
Q 12.890625 52.734375 10.546875 31.25 
z
" id="SimHei-30"/>
       <path d="M 21.875 56.25 
Q 16.796875 51.171875 8.984375 46.484375 
L 8.984375 53.90625 
Q 18.75 60.546875 25 69.53125 
L 29.6875 69.53125 
L 29.6875 2.34375 
L 21.875 2.34375 
z
" id="SimHei-31"/>
       <path d="M 46.484375 33.203125 
L 1.953125 33.203125 
L 1.953125 39.453125 
L 46.484375 39.453125 
z
" id="SimHei-2d"/>
       <path d="M 2.734375 16.796875 
Q 2.734375 26.171875 5.078125 30.65625 
Q 7.421875 35.15625 12.890625 37.890625 
Q 8.203125 40.625 6.640625 43.9375 
Q 5.078125 47.265625 4.875 51.5625 
Q 4.6875 55.859375 6.046875 58.984375 
Q 7.421875 62.109375 10.15625 64.84375 
Q 12.890625 67.578125 16.203125 68.546875 
Q 19.53125 69.53125 23.4375 69.53125 
Q 27.34375 69.53125 30.46875 68.75 
Q 33.59375 67.96875 37.109375 65.421875 
Q 40.625 62.890625 42.1875 58.203125 
Q 43.75 53.515625 41.984375 47.265625 
Q 40.234375 41.015625 32.8125 37.5 
Q 39.453125 35.546875 42.1875 31.4375 
Q 44.921875 27.34375 44.921875 21.484375 
Q 44.921875 15.625 43.15625 12.109375 
Q 41.40625 8.59375 39.25 6.25 
Q 37.109375 3.90625 33.390625 2.53125 
Q 29.6875 1.171875 24.015625 1.171875 
Q 18.359375 1.171875 14.25 2.53125 
Q 10.15625 3.90625 7.421875 6.640625 
Q 4.6875 9.375 3.703125 13.078125 
Q 2.734375 16.796875 2.734375 26.171875 
z
M 10.9375 26.5625 
Q 10.546875 17.1875 12.296875 13.671875 
Q 14.0625 10.15625 18.75 9.171875 
Q 23.4375 8.203125 28.515625 9.375 
Q 33.59375 10.546875 35.546875 14.84375 
Q 37.5 19.140625 36.90625 23.4375 
Q 36.328125 27.734375 32.03125 30.65625 
Q 27.734375 33.59375 22.65625 33.203125 
Q 17.578125 32.8125 14.25 29.6875 
Q 10.9375 26.5625 10.546875 17.1875 
z
M 12.109375 56.25 
Q 12.109375 48.4375 14.84375 44.921875 
Q 17.578125 41.40625 23.4375 41.40625 
Q 29.296875 41.40625 32.21875 44.921875 
Q 35.15625 48.4375 34.953125 53.3125 
Q 34.765625 58.203125 31.4375 60.546875 
Q 28.125 62.890625 22.453125 62.5 
Q 16.796875 62.109375 14.453125 59.171875 
Q 12.109375 56.25 12.109375 48.4375 
z
" id="SimHei-38"/>
      </defs>
      <g transform="translate(44.501918 188.225)scale(0.1 -0.1)">
       <use xlink:href="#SimHei-32"/>
       <use x="50" xlink:href="#SimHei-30"/>
       <use x="100" xlink:href="#SimHei-32"/>
       <use x="150" xlink:href="#SimHei-31"/>
       <use x="200" xlink:href="#SimHei-2d"/>
       <use x="250" xlink:href="#SimHei-30"/>
       <use x="300" xlink:href="#SimHei-31"/>
       <use x="350" xlink:href="#SimHei-2d"/>
       <use x="400" xlink:href="#SimHei-32"/>
       <use x="450" xlink:href="#SimHei-38"/>
      </g>
     </g>
    </g>
    <g id="xtick_2">
     <g id="line2d_2">
      <g>
       <use style="stroke:#000000;stroke-width:0.8;" x="119.53738" xlink:href="#m74f460aef4" y="174.35"/>
      </g>
     </g>
     <g id="text_2">
      <!-- 2021-02-01 -->
      <g transform="translate(94.53738 188.225)scale(0.1 -0.1)">
       <use xlink:href="#SimHei-32"/>
       <use x="50" xlink:href="#SimHei-30"/>
       <use x="100" xlink:href="#SimHei-32"/>
       <use x="150" xlink:href="#SimHei-31"/>
       <use x="200" xlink:href="#SimHei-2d"/>
       <use x="250" xlink:href="#SimHei-30"/>
       <use x="300" xlink:href="#SimHei-32"/>
       <use x="350" xlink:href="#SimHei-2d"/>
       <use x="400" xlink:href="#SimHei-30"/>
       <use x="450" xlink:href="#SimHei-31"/>
      </g>
     </g>
    </g>
    <g id="xtick_3">
     <g id="line2d_3">
      <g>
       <use style="stroke:#000000;stroke-width:0.8;" x="169.572842" xlink:href="#m74f460aef4" y="174.35"/>
      </g>
     </g>
     <g id="text_3">
      <!-- 2021-02-05 -->
      <defs>
       <path d="M 8.59375 20.703125 
Q 11.328125 10.15625 17.96875 8.984375 
Q 24.609375 7.8125 28.703125 10.34375 
Q 32.8125 12.890625 34.5625 16.984375 
Q 36.328125 21.09375 36.125 26.171875 
Q 35.9375 31.25 33.390625 34.765625 
Q 30.859375 38.28125 26.953125 39.453125 
Q 23.046875 40.625 18.15625 39.453125 
Q 13.28125 38.28125 10.15625 33.984375 
L 3.515625 34.765625 
Q 4.296875 37.109375 10.9375 68.359375 
L 41.796875 68.359375 
L 41.796875 61.328125 
L 16.796875 61.328125 
Q 14.84375 50.78125 12.890625 44.53125 
Q 18.75 47.265625 23.828125 47.0625 
Q 28.90625 46.875 33.59375 44.71875 
Q 38.28125 42.578125 40.421875 38.859375 
Q 42.578125 35.15625 43.546875 31.4375 
Q 44.53125 27.734375 44.328125 23.4375 
Q 44.140625 19.140625 42.578125 14.640625 
Q 41.015625 10.15625 37.890625 7.21875 
Q 34.765625 4.296875 30.265625 2.53125 
Q 25.78125 0.78125 19.921875 1.171875 
Q 14.0625 1.5625 8.78125 5.46875 
Q 3.515625 9.375 1.5625 18.75 
z
" id="SimHei-35"/>
      </defs>
      <g transform="translate(144.572842 188.225)scale(0.1 -0.1)">
       <use xlink:href="#SimHei-32"/>
       <use x="50" xlink:href="#SimHei-30"/>
       <use x="100" xlink:href="#SimHei-32"/>
       <use x="150" xlink:href="#SimHei-31"/>
       <use x="200" xlink:href="#SimHei-2d"/>
       <use x="250" xlink:href="#SimHei-30"/>
       <use x="300" xlink:href="#SimHei-32"/>
       <use x="350" xlink:href="#SimHei-2d"/>
       <use x="400" xlink:href="#SimHei-30"/>
       <use x="450" xlink:href="#SimHei-35"/>
      </g>
     </g>
    </g>
    <g id="xtick_4">
     <g id="line2d_4">
      <g>
       <use style="stroke:#000000;stroke-width:0.8;" x="219.608305" xlink:href="#m74f460aef4" y="174.35"/>
      </g>
     </g>
     <g id="text_4">
      <!-- 2021-02-09 -->
      <defs>
       <path d="M 12.5 1.171875 
Q 21.09375 15.625 26.5625 27.34375 
Q 16.796875 25.78125 10.34375 29.875 
Q 3.90625 33.984375 2.53125 41.015625 
Q 1.171875 48.046875 2.734375 53.703125 
Q 4.296875 59.375 7.609375 63.078125 
Q 10.9375 66.796875 15.625 68.359375 
Q 20.3125 69.921875 24.015625 69.921875 
Q 27.734375 69.921875 31.640625 68.359375 
Q 35.546875 66.796875 38.671875 63.671875 
Q 41.796875 60.546875 42.96875 57.21875 
Q 44.140625 53.90625 44.140625 48.625 
Q 44.140625 43.359375 40.234375 35.15625 
Q 36.328125 26.953125 21.09375 1.171875 
z
M 9.765625 50 
Q 10.9375 39.84375 14.640625 36.515625 
Q 18.359375 33.203125 22.65625 33.59375 
Q 26.953125 33.984375 29.484375 35.9375 
Q 32.03125 37.890625 34.375 42.578125 
Q 35.9375 48.4375 35.15625 52.53125 
Q 34.375 56.640625 31.046875 59.375 
Q 27.734375 62.109375 23.828125 62.109375 
Q 21.484375 62.5 17.765625 60.9375 
Q 14.0625 59.375 11.90625 54.6875 
Q 9.765625 50 10.9375 39.84375 
z
" id="SimHei-39"/>
      </defs>
      <g transform="translate(194.608305 188.225)scale(0.1 -0.1)">
       <use xlink:href="#SimHei-32"/>
       <use x="50" xlink:href="#SimHei-30"/>
       <use x="100" xlink:href="#SimHei-32"/>
       <use x="150" xlink:href="#SimHei-31"/>
       <use x="200" xlink:href="#SimHei-2d"/>
       <use x="250" xlink:href="#SimHei-30"/>
       <use x="300" xlink:href="#SimHei-32"/>
       <use x="350" xlink:href="#SimHei-2d"/>
       <use x="400" xlink:href="#SimHei-30"/>
       <use x="450" xlink:href="#SimHei-39"/>
      </g>
     </g>
    </g>
    <g id="xtick_5">
     <g id="line2d_5">
      <g>
       <use style="stroke:#000000;stroke-width:0.8;" x="269.643767" xlink:href="#m74f460aef4" y="174.35"/>
      </g>
     </g>
     <g id="text_5">
      <!-- 2021-02-13 -->
      <defs>
       <path d="M 3.90625 19.140625 
L 10.9375 20.3125 
Q 12.5 15.234375 16.015625 11.90625 
Q 19.53125 8.59375 24.796875 8.78125 
Q 30.078125 8.984375 33.203125 13.078125 
Q 36.328125 17.1875 35.9375 22.453125 
Q 35.546875 27.734375 31.828125 30.65625 
Q 28.125 33.59375 19.921875 34.765625 
L 19.921875 39.84375 
Q 28.125 40.625 31.828125 44.140625 
Q 35.546875 47.65625 35.15625 53.3125 
Q 34.765625 58.984375 30.078125 61.515625 
Q 25.390625 64.0625 20.109375 62.109375 
Q 14.84375 60.15625 11.71875 51.171875 
L 4.6875 52.34375 
Q 7.03125 59.375 11.125 64.0625 
Q 15.234375 68.75 22.265625 69.53125 
Q 29.296875 70.3125 34.5625 67.765625 
Q 39.84375 65.234375 41.984375 59.953125 
Q 44.140625 54.6875 42.578125 48.4375 
Q 41.015625 42.1875 33.59375 37.5 
Q 39.0625 35.15625 41.984375 30.46875 
Q 44.921875 25.78125 43.9375 18.15625 
Q 42.96875 10.546875 37.109375 5.859375 
Q 31.25 1.171875 23.828125 1.359375 
Q 16.40625 1.5625 10.9375 6.046875 
Q 5.46875 10.546875 3.90625 19.140625 
z
" id="SimHei-33"/>
      </defs>
      <g transform="translate(244.643767 188.225)scale(0.1 -0.1)">
       <use xlink:href="#SimHei-32"/>
       <use x="50" xlink:href="#SimHei-30"/>
       <use x="100" xlink:href="#SimHei-32"/>
       <use x="150" xlink:href="#SimHei-31"/>
       <use x="200" xlink:href="#SimHei-2d"/>
       <use x="250" xlink:href="#SimHei-30"/>
       <use x="300" xlink:href="#SimHei-32"/>
       <use x="350" xlink:href="#SimHei-2d"/>
       <use x="400" xlink:href="#SimHei-31"/>
       <use x="450" xlink:href="#SimHei-33"/>
      </g>
     </g>
    </g>
    <g id="xtick_6">
     <g id="line2d_6">
      <g>
       <use style="stroke:#000000;stroke-width:0.8;" x="319.67923" xlink:href="#m74f460aef4" y="174.35"/>
      </g>
     </g>
     <g id="text_6">
      <!-- 2021-02-17 -->
      <defs>
       <path d="M 13.28125 2.34375 
Q 20.3125 32.03125 37.890625 61.328125 
L 4.296875 61.328125 
L 4.296875 68.359375 
L 46.09375 68.359375 
L 46.09375 61.71875 
Q 27.734375 32.03125 21.875 2.34375 
L 13.28125 2.34375 
z
" id="SimHei-37"/>
      </defs>
      <g transform="translate(294.67923 188.225)scale(0.1 -0.1)">
       <use xlink:href="#SimHei-32"/>
       <use x="50" xlink:href="#SimHei-30"/>
       <use x="100" xlink:href="#SimHei-32"/>
       <use x="150" xlink:href="#SimHei-31"/>
       <use x="200" xlink:href="#SimHei-2d"/>
       <use x="250" xlink:href="#SimHei-30"/>
       <use x="300" xlink:href="#SimHei-32"/>
       <use x="350" xlink:href="#SimHei-2d"/>
       <use x="400" xlink:href="#SimHei-31"/>
       <use x="450" xlink:href="#SimHei-37"/>
      </g>
     </g>
    </g>
    <g id="xtick_7">
     <g id="line2d_7">
      <g>
       <use style="stroke:#000000;stroke-width:0.8;" x="369.714692" xlink:href="#m74f460aef4" y="174.35"/>
      </g>
     </g>
     <g id="text_7">
      <!-- 2021-02-21 -->
      <g transform="translate(344.714692 188.225)scale(0.1 -0.1)">
       <use xlink:href="#SimHei-32"/>
       <use x="50" xlink:href="#SimHei-30"/>
       <use x="100" xlink:href="#SimHei-32"/>
       <use x="150" xlink:href="#SimHei-31"/>
       <use x="200" xlink:href="#SimHei-2d"/>
       <use x="250" xlink:href="#SimHei-30"/>
       <use x="300" xlink:href="#SimHei-32"/>
       <use x="350" xlink:href="#SimHei-2d"/>
       <use x="400" xlink:href="#SimHei-32"/>
       <use x="450" xlink:href="#SimHei-31"/>
      </g>
     </g>
    </g>
    <g id="xtick_8">
     <g id="line2d_8">
      <g>
       <use style="stroke:#000000;stroke-width:0.8;" x="419.750154" xlink:href="#m74f460aef4" y="174.35"/>
      </g>
     </g>
     <g id="text_8">
      <!-- 2021-02-25 -->
      <g transform="translate(394.750154 188.225)scale(0.1 -0.1)">
       <use xlink:href="#SimHei-32"/>
       <use x="50" xlink:href="#SimHei-30"/>
       <use x="100" xlink:href="#SimHei-32"/>
       <use x="150" xlink:href="#SimHei-31"/>
       <use x="200" xlink:href="#SimHei-2d"/>
       <use x="250" xlink:href="#SimHei-30"/>
       <use x="300" xlink:href="#SimHei-32"/>
       <use x="350" xlink:href="#SimHei-2d"/>
       <use x="400" xlink:href="#SimHei-32"/>
       <use x="450" xlink:href="#SimHei-35"/>
      </g>
     </g>
    </g>
    <g id="text_9">
     <!-- Decade -->
     <defs>
      <path d="M 45.703125 35.15625 
Q 45.703125 17.1875 38.078125 9.5625 
Q 30.46875 1.953125 17.578125 1.953125 
L 4.296875 1.953125 
L 4.296875 68.75 
L 17.578125 68.75 
Q 32.03125 68.75 38.859375 60.9375 
Q 45.703125 53.125 45.703125 35.15625 
z
M 36.328125 35.15625 
Q 36.328125 49.609375 31.640625 55.46875 
Q 26.953125 61.328125 17.578125 61.328125 
L 13.28125 61.328125 
L 13.28125 9.375 
L 17.578125 9.375 
Q 26.953125 9.375 31.640625 15.03125 
Q 36.328125 20.703125 36.328125 35.15625 
z
" id="SimHei-44"/>
      <path d="M 44.53125 16.796875 
Q 43.75 9.765625 38.28125 5.46875 
Q 32.8125 1.171875 25.390625 1.171875 
Q 16.015625 1.171875 9.953125 7.21875 
Q 3.90625 13.28125 3.90625 23.828125 
Q 3.90625 34.375 9.953125 40.421875 
Q 16.015625 46.484375 25.390625 46.484375 
Q 33.59375 46.484375 38.859375 41.203125 
Q 44.140625 35.9375 44.140625 23.828125 
L 12.5 23.828125 
Q 12.5 15.234375 16.203125 11.71875 
Q 19.921875 8.203125 25.390625 8.203125 
Q 29.6875 8.203125 32.421875 10.34375 
Q 35.15625 12.5 35.9375 16.796875 
z
M 35.15625 30.078125 
Q 34.375 35.546875 31.640625 37.6875 
Q 28.90625 39.84375 24.609375 39.84375 
Q 20.703125 39.84375 17.578125 37.6875 
Q 14.453125 35.546875 12.890625 30.078125 
z
" id="SimHei-65"/>
      <path d="M 44.53125 19.53125 
Q 44.53125 11.328125 38.859375 6.25 
Q 33.203125 1.171875 24.609375 1.171875 
Q 16.015625 1.171875 9.765625 7.21875 
Q 3.515625 13.28125 3.515625 23.828125 
Q 3.515625 34.375 9.765625 40.421875 
Q 16.015625 46.484375 24.609375 46.484375 
Q 33.203125 46.484375 38.28125 41.984375 
Q 43.359375 37.5 43.359375 31.25 
L 34.765625 31.25 
Q 34.375 35.9375 31.4375 37.6875 
Q 28.515625 39.453125 24.609375 39.453125 
Q 19.921875 39.453125 16.015625 35.734375 
Q 12.109375 32.03125 12.109375 23.828125 
Q 12.109375 15.625 16.015625 11.90625 
Q 19.921875 8.203125 24.609375 8.203125 
Q 29.6875 8.203125 32.8125 10.9375 
Q 35.9375 13.671875 35.9375 19.53125 
z
" id="SimHei-63"/>
      <path d="M 44.921875 1.953125 
L 35.546875 1.953125 
Q 34.765625 2.734375 34.375 4.09375 
Q 33.984375 5.46875 33.984375 7.421875 
Q 31.25 4.296875 27.34375 2.734375 
Q 23.4375 1.171875 19.140625 1.171875 
Q 12.890625 1.171875 8.59375 4.296875 
Q 4.296875 7.421875 4.296875 13.28125 
Q 4.296875 19.140625 8.203125 22.65625 
Q 12.109375 26.171875 20.3125 27.34375 
Q 25.78125 28.125 29.875 29.296875 
Q 33.984375 30.46875 33.984375 32.421875 
Q 33.984375 34.765625 32.21875 37.109375 
Q 30.46875 39.453125 24.609375 39.453125 
Q 19.921875 39.453125 17.765625 37.6875 
Q 15.625 35.9375 14.84375 32.8125 
L 6.25 32.8125 
Q 7.03125 39.0625 11.90625 42.765625 
Q 16.796875 46.484375 24.609375 46.484375 
Q 33.203125 46.484375 37.5 42.578125 
Q 41.796875 38.671875 41.796875 31.640625 
L 41.796875 10.15625 
Q 41.796875 7.8125 42.578125 5.859375 
Q 43.359375 3.90625 44.921875 1.953125 
z
M 33.984375 16.40625 
L 33.984375 24.21875 
Q 31.640625 23.4375 29.484375 22.84375 
Q 27.34375 22.265625 22.265625 21.484375 
Q 16.40625 20.703125 14.640625 18.75 
Q 12.890625 16.796875 12.890625 14.0625 
Q 12.890625 11.71875 14.640625 9.953125 
Q 16.40625 8.203125 19.921875 8.203125 
Q 23.4375 8.203125 27.53125 10.15625 
Q 31.640625 12.109375 33.984375 16.40625 
z
" id="SimHei-61"/>
      <path d="M 42.96875 1.953125 
L 35.15625 1.953125 
L 35.15625 7.8125 
Q 32.8125 4.296875 29.6875 2.734375 
Q 26.5625 1.171875 22.265625 1.171875 
Q 14.453125 1.171875 8.984375 6.828125 
Q 3.515625 12.5 3.515625 23.828125 
Q 3.515625 35.15625 8.984375 41.015625 
Q 14.453125 46.875 22.265625 46.875 
Q 26.5625 46.875 29.6875 45.109375 
Q 32.8125 43.359375 35.15625 39.84375 
L 35.15625 68.75 
L 42.96875 68.75 
z
M 35.15625 23.828125 
Q 35.15625 31.25 31.828125 35.546875 
Q 28.515625 39.84375 23.828125 39.84375 
Q 17.96875 39.84375 15.03125 35.546875 
Q 12.109375 31.25 12.109375 23.828125 
Q 12.109375 16.40625 15.03125 12.296875 
Q 17.96875 8.203125 23.828125 8.203125 
Q 28.515625 8.203125 31.828125 12.296875 
Q 35.15625 16.40625 35.15625 23.828125 
z
" id="SimHei-64"/>
     </defs>
     <g transform="translate(235.880469 200.35)scale(0.1 -0.1)">
      <use xlink:href="#SimHei-44"/>
      <use x="50" xlink:href="#SimHei-65"/>
      <use x="100" xlink:href="#SimHei-63"/>
      <use x="150" xlink:href="#SimHei-61"/>
      <use x="200" xlink:href="#SimHei-64"/>
      <use x="250" xlink:href="#SimHei-65"/>
     </g>
    </g>
   </g>
   <g id="matplotlib.axis_2">
    <g id="ytick_1">
     <g id="line2d_9">
      <defs>
       <path d="M 0 0 
L -3.5 0 
" id="mebd6a33852" style="stroke:#000000;stroke-width:0.8;"/>
      </defs>
      <g>
       <use style="stroke:#000000;stroke-width:0.8;" x="51.364063" xlink:href="#mebd6a33852" y="173.493503"/>
      </g>
     </g>
     <g id="text_10">
      <!-- 30000 -->
      <g transform="translate(19.364063 176.931003)scale(0.1 -0.1)">
       <use xlink:href="#SimHei-33"/>
       <use x="50" xlink:href="#SimHei-30"/>
       <use x="100" xlink:href="#SimHei-30"/>
       <use x="150" xlink:href="#SimHei-30"/>
       <use x="200" xlink:href="#SimHei-30"/>
      </g>
     </g>
    </g>
    <g id="ytick_2">
     <g id="line2d_10">
      <g>
       <use style="stroke:#000000;stroke-width:0.8;" x="51.364063" xlink:href="#mebd6a33852" y="142.456574"/>
      </g>
     </g>
     <g id="text_11">
      <!-- 35000 -->
      <g transform="translate(19.364063 145.894074)scale(0.1 -0.1)">
       <use xlink:href="#SimHei-33"/>
       <use x="50" xlink:href="#SimHei-35"/>
       <use x="100" xlink:href="#SimHei-30"/>
       <use x="150" xlink:href="#SimHei-30"/>
       <use x="200" xlink:href="#SimHei-30"/>
      </g>
     </g>
    </g>
    <g id="ytick_3">
     <g id="line2d_11">
      <g>
       <use style="stroke:#000000;stroke-width:0.8;" x="51.364063" xlink:href="#mebd6a33852" y="111.419644"/>
      </g>
     </g>
     <g id="text_12">
      <!-- 40000 -->
      <defs>
       <path d="M 31.25 17.1875 
L 1.171875 17.1875 
L 1.171875 23.828125 
L 32.8125 69.53125 
L 38.671875 69.53125 
L 38.671875 23.828125 
L 48.046875 23.828125 
L 48.046875 17.1875 
L 38.671875 17.1875 
L 38.671875 2.34375 
L 31.25 2.34375 
z
M 31.25 23.828125 
L 31.25 54.6875 
L 9.375 23.828125 
z
" id="SimHei-34"/>
      </defs>
      <g transform="translate(19.364063 114.857144)scale(0.1 -0.1)">
       <use xlink:href="#SimHei-34"/>
       <use x="50" xlink:href="#SimHei-30"/>
       <use x="100" xlink:href="#SimHei-30"/>
       <use x="150" xlink:href="#SimHei-30"/>
       <use x="200" xlink:href="#SimHei-30"/>
      </g>
     </g>
    </g>
    <g id="ytick_4">
     <g id="line2d_12">
      <g>
       <use style="stroke:#000000;stroke-width:0.8;" x="51.364063" xlink:href="#mebd6a33852" y="80.382714"/>
      </g>
     </g>
     <g id="text_13">
      <!-- 45000 -->
      <g transform="translate(19.364063 83.820214)scale(0.1 -0.1)">
       <use xlink:href="#SimHei-34"/>
       <use x="50" xlink:href="#SimHei-35"/>
       <use x="100" xlink:href="#SimHei-30"/>
       <use x="150" xlink:href="#SimHei-30"/>
       <use x="200" xlink:href="#SimHei-30"/>
      </g>
     </g>
    </g>
    <g id="ytick_5">
     <g id="line2d_13">
      <g>
       <use style="stroke:#000000;stroke-width:0.8;" x="51.364063" xlink:href="#mebd6a33852" y="49.345785"/>
      </g>
     </g>
     <g id="text_14">
      <!-- 50000 -->
      <g transform="translate(19.364063 52.783285)scale(0.1 -0.1)">
       <use xlink:href="#SimHei-35"/>
       <use x="50" xlink:href="#SimHei-30"/>
       <use x="100" xlink:href="#SimHei-30"/>
       <use x="150" xlink:href="#SimHei-30"/>
       <use x="200" xlink:href="#SimHei-30"/>
      </g>
     </g>
    </g>
    <g id="ytick_6">
     <g id="line2d_14">
      <g>
       <use style="stroke:#000000;stroke-width:0.8;" x="51.364063" xlink:href="#mebd6a33852" y="18.308855"/>
      </g>
     </g>
     <g id="text_15">
      <!-- 55000 -->
      <g transform="translate(19.364063 21.746355)scale(0.1 -0.1)">
       <use xlink:href="#SimHei-35"/>
       <use x="50" xlink:href="#SimHei-35"/>
       <use x="100" xlink:href="#SimHei-30"/>
       <use x="150" xlink:href="#SimHei-30"/>
       <use x="200" xlink:href="#SimHei-30"/>
      </g>
     </g>
    </g>
    <g id="text_16">
     <!-- 5_mean -->
     <defs>
      <path d="M 49.21875 -13.28125 
L 0 -13.28125 
L 0 -8.59375 
L 49.21875 -8.59375 
z
" id="SimHei-5f"/>
      <path d="M 47.65625 1.953125 
L 39.84375 1.953125 
L 39.84375 33.59375 
Q 39.84375 35.9375 39.0625 37.5 
Q 38.28125 39.0625 35.9375 39.0625 
Q 33.203125 39.0625 30.859375 36.125 
Q 28.515625 33.203125 28.515625 28.515625 
L 28.515625 1.953125 
L 20.703125 1.953125 
L 20.703125 33.59375 
Q 20.703125 35.9375 19.921875 37.5 
Q 19.140625 39.0625 16.796875 39.0625 
Q 14.0625 39.0625 11.71875 36.125 
Q 9.375 33.203125 9.375 28.515625 
L 9.375 1.953125 
L 1.5625 1.953125 
L 1.5625 45.703125 
L 9.375 45.703125 
L 9.375 39.84375 
Q 11.328125 42.96875 14.0625 44.71875 
Q 16.796875 46.484375 19.921875 46.484375 
Q 23.046875 46.484375 25.1875 44.71875 
Q 27.34375 42.96875 28.125 39.84375 
Q 30.078125 42.96875 32.609375 44.71875 
Q 35.15625 46.484375 38.28125 46.484375 
Q 42.96875 46.484375 45.3125 43.9375 
Q 47.65625 41.40625 47.65625 36.71875 
z
" id="SimHei-6d"/>
      <path d="M 43.75 1.953125 
L 35.9375 1.953125 
L 35.9375 30.078125 
Q 35.9375 34.765625 33.59375 37.5 
Q 31.25 40.234375 27.34375 40.234375 
Q 22.265625 40.234375 17.765625 34.953125 
Q 13.28125 29.6875 13.28125 21.875 
L 13.28125 1.953125 
L 5.46875 1.953125 
L 5.46875 45.703125 
L 13.28125 45.703125 
L 13.28125 37.5 
Q 16.40625 41.796875 20.109375 44.140625 
Q 23.828125 46.484375 29.6875 46.484375 
Q 36.71875 46.484375 40.234375 42.578125 
Q 43.75 38.671875 43.75 32.8125 
z
" id="SimHei-6e"/>
     </defs>
     <g transform="translate(14.035938 107.525)rotate(-90)scale(0.1 -0.1)">
      <use xlink:href="#SimHei-35"/>
      <use x="50" xlink:href="#SimHei-5f"/>
      <use x="100" xlink:href="#SimHei-6d"/>
      <use x="150" xlink:href="#SimHei-65"/>
      <use x="200" xlink:href="#SimHei-61"/>
      <use x="250" xlink:href="#SimHei-6e"/>
     </g>
    </g>
   </g>
   <g id="line2d_15">
    <path clip-path="url(#p9e6bd54afd)" d="M 69.501918 158.587089 
L 82.010783 166.911364 
L 94.519649 152.115645 
L 107.028514 149.709385 
L 119.53738 149.566849 
L 132.046246 141.273772 
L 144.555111 132.202867 
L 157.063977 121.172664 
L 169.572842 114.183778 
L 182.081708 114.127244 
L 194.590574 104.967088 
L 207.099439 96.85454 
L 219.608305 98.938888 
L 232.11717 67.324091 
L 244.626036 69.970902 
L 257.134902 75.062937 
L 269.643767 53.729304 
L 282.152633 56.108395 
L 294.661498 58.755843 
L 307.170364 58.677909 
L 319.67923 62.13222 
L 332.188095 55.860065 
L 344.696961 45.056059 
L 357.205826 49.802553 
L 369.714692 36.084382 
L 382.223558 41.281981 
L 394.732423 30.497021 
L 407.241289 46.602037 
L 419.750154 70.200613 
L 432.25902 59.006234 
" style="fill:none;stroke:#0000ff;stroke-dasharray:7.4,3.2;stroke-dashoffset:0;stroke-width:2;"/>
    <defs>
     <path d="M 0 2.5 
C 0.663008 2.5 1.29895 2.236584 1.767767 1.767767 
C 2.236584 1.29895 2.5 0.663008 2.5 0 
C 2.5 -0.663008 2.236584 -1.29895 1.767767 -1.767767 
C 1.29895 -2.236584 0.663008 -2.5 0 -2.5 
C -0.663008 -2.5 -1.29895 -2.236584 -1.767767 -1.767767 
C -2.236584 -1.29895 -2.5 -0.663008 -2.5 0 
C -2.5 0.663008 -2.236584 1.29895 -1.767767 1.767767 
C -1.29895 2.236584 -0.663008 2.5 0 2.5 
z
" id="m111b9f26dc" style="stroke:#0000ff;"/>
    </defs>
    <g clip-path="url(#p9e6bd54afd)">
     <use style="fill:#0000ff;stroke:#0000ff;" x="69.501918" xlink:href="#m111b9f26dc" y="158.587089"/>
     <use style="fill:#0000ff;stroke:#0000ff;" x="82.010783" xlink:href="#m111b9f26dc" y="166.911364"/>
     <use style="fill:#0000ff;stroke:#0000ff;" x="94.519649" xlink:href="#m111b9f26dc" y="152.115645"/>
     <use style="fill:#0000ff;stroke:#0000ff;" x="107.028514" xlink:href="#m111b9f26dc" y="149.709385"/>
     <use style="fill:#0000ff;stroke:#0000ff;" x="119.53738" xlink:href="#m111b9f26dc" y="149.566849"/>
     <use style="fill:#0000ff;stroke:#0000ff;" x="132.046246" xlink:href="#m111b9f26dc" y="141.273772"/>
     <use style="fill:#0000ff;stroke:#0000ff;" x="144.555111" xlink:href="#m111b9f26dc" y="132.202867"/>
     <use style="fill:#0000ff;stroke:#0000ff;" x="157.063977" xlink:href="#m111b9f26dc" y="121.172664"/>
     <use style="fill:#0000ff;stroke:#0000ff;" x="169.572842" xlink:href="#m111b9f26dc" y="114.183778"/>
     <use style="fill:#0000ff;stroke:#0000ff;" x="182.081708" xlink:href="#m111b9f26dc" y="114.127244"/>
     <use style="fill:#0000ff;stroke:#0000ff;" x="194.590574" xlink:href="#m111b9f26dc" y="104.967088"/>
     <use style="fill:#0000ff;stroke:#0000ff;" x="207.099439" xlink:href="#m111b9f26dc" y="96.85454"/>
     <use style="fill:#0000ff;stroke:#0000ff;" x="219.608305" xlink:href="#m111b9f26dc" y="98.938888"/>
     <use style="fill:#0000ff;stroke:#0000ff;" x="232.11717" xlink:href="#m111b9f26dc" y="67.324091"/>
     <use style="fill:#0000ff;stroke:#0000ff;" x="244.626036" xlink:href="#m111b9f26dc" y="69.970902"/>
     <use style="fill:#0000ff;stroke:#0000ff;" x="257.134902" xlink:href="#m111b9f26dc" y="75.062937"/>
     <use style="fill:#0000ff;stroke:#0000ff;" x="269.643767" xlink:href="#m111b9f26dc" y="53.729304"/>
     <use style="fill:#0000ff;stroke:#0000ff;" x="282.152633" xlink:href="#m111b9f26dc" y="56.108395"/>
     <use style="fill:#0000ff;stroke:#0000ff;" x="294.661498" xlink:href="#m111b9f26dc" y="58.755843"/>
     <use style="fill:#0000ff;stroke:#0000ff;" x="307.170364" xlink:href="#m111b9f26dc" y="58.677909"/>
     <use style="fill:#0000ff;stroke:#0000ff;" x="319.67923" xlink:href="#m111b9f26dc" y="62.13222"/>
     <use style="fill:#0000ff;stroke:#0000ff;" x="332.188095" xlink:href="#m111b9f26dc" y="55.860065"/>
     <use style="fill:#0000ff;stroke:#0000ff;" x="344.696961" xlink:href="#m111b9f26dc" y="45.056059"/>
     <use style="fill:#0000ff;stroke:#0000ff;" x="357.205826" xlink:href="#m111b9f26dc" y="49.802553"/>
     <use style="fill:#0000ff;stroke:#0000ff;" x="369.714692" xlink:href="#m111b9f26dc" y="36.084382"/>
     <use style="fill:#0000ff;stroke:#0000ff;" x="382.223558" xlink:href="#m111b9f26dc" y="41.281981"/>
     <use style="fill:#0000ff;stroke:#0000ff;" x="394.732423" xlink:href="#m111b9f26dc" y="30.497021"/>
     <use style="fill:#0000ff;stroke:#0000ff;" x="407.241289" xlink:href="#m111b9f26dc" y="46.602037"/>
     <use style="fill:#0000ff;stroke:#0000ff;" x="419.750154" xlink:href="#m111b9f26dc" y="70.200613"/>
     <use style="fill:#0000ff;stroke:#0000ff;" x="432.25902" xlink:href="#m111b9f26dc" y="59.006234"/>
    </g>
   </g>
   <g id="line2d_16">
    <path clip-path="url(#p9e6bd54afd)" d="M 69.501918 154.137434 
L 82.010783 150.284224 
L 94.519649 147.644235 
L 107.028514 143.470401 
L 119.53738 140.138289 
L 132.046246 133.754427 
L 144.555111 126.553412 
L 157.063977 122.334326 
L 169.572842 111.548311 
L 182.081708 99.645661 
L 194.590574 91.452457 
L 207.099439 80.663872 
L 219.608305 70.05756 
L 232.11717 69.038444 
L 244.626036 66.393116 
L 257.134902 62.577213 
L 269.643767 61.153586 
L 282.152633 55.384653 
L 294.661498 49.893649 
L 307.170364 40.959818 
L 319.67923 30.966733 
L 332.188095 20.628009 
L 344.696961 18.138636 
L 357.205826 21.525039 
L 369.714692 28.094514 
L 382.223558 39.517072 
L 394.732423 53.356501 
L 407.241289 63.248008 
L 419.750154 67.924044 
L 432.25902 69.173479 
" style="fill:none;stroke:#4169e1;stroke-dasharray:7.4,3.2;stroke-dashoffset:0;stroke-width:2;"/>
    <defs>
     <path d="M 0 2.5 
C 0.663008 2.5 1.29895 2.236584 1.767767 1.767767 
C 2.236584 1.29895 2.5 0.663008 2.5 0 
C 2.5 -0.663008 2.236584 -1.29895 1.767767 -1.767767 
C 1.29895 -2.236584 0.663008 -2.5 0 -2.5 
C -0.663008 -2.5 -1.29895 -2.236584 -1.767767 -1.767767 
C -2.236584 -1.29895 -2.5 -0.663008 -2.5 0 
C -2.5 0.663008 -2.236584 1.29895 -1.767767 1.767767 
C -1.29895 2.236584 -0.663008 2.5 0 2.5 
z
" id="mb4831d1ef4" style="stroke:#4169e1;"/>
    </defs>
    <g clip-path="url(#p9e6bd54afd)">
     <use style="fill:#4169e1;stroke:#4169e1;" x="69.501918" xlink:href="#mb4831d1ef4" y="154.137434"/>
     <use style="fill:#4169e1;stroke:#4169e1;" x="82.010783" xlink:href="#mb4831d1ef4" y="150.284224"/>
     <use style="fill:#4169e1;stroke:#4169e1;" x="94.519649" xlink:href="#mb4831d1ef4" y="147.644235"/>
     <use style="fill:#4169e1;stroke:#4169e1;" x="107.028514" xlink:href="#mb4831d1ef4" y="143.470401"/>
     <use style="fill:#4169e1;stroke:#4169e1;" x="119.53738" xlink:href="#mb4831d1ef4" y="140.138289"/>
     <use style="fill:#4169e1;stroke:#4169e1;" x="132.046246" xlink:href="#mb4831d1ef4" y="133.754427"/>
     <use style="fill:#4169e1;stroke:#4169e1;" x="144.555111" xlink:href="#mb4831d1ef4" y="126.553412"/>
     <use style="fill:#4169e1;stroke:#4169e1;" x="157.063977" xlink:href="#mb4831d1ef4" y="122.334326"/>
     <use style="fill:#4169e1;stroke:#4169e1;" x="169.572842" xlink:href="#mb4831d1ef4" y="111.548311"/>
     <use style="fill:#4169e1;stroke:#4169e1;" x="182.081708" xlink:href="#mb4831d1ef4" y="99.645661"/>
     <use style="fill:#4169e1;stroke:#4169e1;" x="194.590574" xlink:href="#mb4831d1ef4" y="91.452457"/>
     <use style="fill:#4169e1;stroke:#4169e1;" x="207.099439" xlink:href="#mb4831d1ef4" y="80.663872"/>
     <use style="fill:#4169e1;stroke:#4169e1;" x="219.608305" xlink:href="#mb4831d1ef4" y="70.05756"/>
     <use style="fill:#4169e1;stroke:#4169e1;" x="232.11717" xlink:href="#mb4831d1ef4" y="69.038444"/>
     <use style="fill:#4169e1;stroke:#4169e1;" x="244.626036" xlink:href="#mb4831d1ef4" y="66.393116"/>
     <use style="fill:#4169e1;stroke:#4169e1;" x="257.134902" xlink:href="#mb4831d1ef4" y="62.577213"/>
     <use style="fill:#4169e1;stroke:#4169e1;" x="269.643767" xlink:href="#mb4831d1ef4" y="61.153586"/>
     <use style="fill:#4169e1;stroke:#4169e1;" x="282.152633" xlink:href="#mb4831d1ef4" y="55.384653"/>
     <use style="fill:#4169e1;stroke:#4169e1;" x="294.661498" xlink:href="#mb4831d1ef4" y="49.893649"/>
     <use style="fill:#4169e1;stroke:#4169e1;" x="307.170364" xlink:href="#mb4831d1ef4" y="40.959818"/>
     <use style="fill:#4169e1;stroke:#4169e1;" x="319.67923" xlink:href="#mb4831d1ef4" y="30.966733"/>
     <use style="fill:#4169e1;stroke:#4169e1;" x="332.188095" xlink:href="#mb4831d1ef4" y="20.628009"/>
     <use style="fill:#4169e1;stroke:#4169e1;" x="344.696961" xlink:href="#mb4831d1ef4" y="18.138636"/>
     <use style="fill:#4169e1;stroke:#4169e1;" x="357.205826" xlink:href="#mb4831d1ef4" y="21.525039"/>
     <use style="fill:#4169e1;stroke:#4169e1;" x="369.714692" xlink:href="#mb4831d1ef4" y="28.094514"/>
     <use style="fill:#4169e1;stroke:#4169e1;" x="382.223558" xlink:href="#mb4831d1ef4" y="39.517072"/>
     <use style="fill:#4169e1;stroke:#4169e1;" x="394.732423" xlink:href="#mb4831d1ef4" y="53.356501"/>
     <use style="fill:#4169e1;stroke:#4169e1;" x="407.241289" xlink:href="#mb4831d1ef4" y="63.248008"/>
     <use style="fill:#4169e1;stroke:#4169e1;" x="419.750154" xlink:href="#mb4831d1ef4" y="67.924044"/>
     <use style="fill:#4169e1;stroke:#4169e1;" x="432.25902" xlink:href="#mb4831d1ef4" y="69.173479"/>
    </g>
   </g>
   <g id="patch_3">
    <path d="M 51.364063 174.35 
L 51.364063 10.7 
" style="fill:none;stroke:#000000;stroke-linecap:square;stroke-linejoin:miter;stroke-width:0.8;"/>
   </g>
   <g id="patch_4">
    <path d="M 450.396875 174.35 
L 450.396875 10.7 
" style="fill:none;stroke:#000000;stroke-linecap:square;stroke-linejoin:miter;stroke-width:0.8;"/>
   </g>
   <g id="patch_5">
    <path d="M 51.364063 174.35 
L 450.396875 174.35 
" style="fill:none;stroke:#000000;stroke-linecap:square;stroke-linejoin:miter;stroke-width:0.8;"/>
   </g>
   <g id="patch_6">
    <path d="M 51.364063 10.7 
L 450.396875 10.7 
" style="fill:none;stroke:#000000;stroke-linecap:square;stroke-linejoin:miter;stroke-width:0.8;"/>
   </g>
   <g id="legend_1">
    <g id="patch_7">
     <path d="M 57.664062 41.890625 
L 126.964063 41.890625 
Q 128.764063 41.890625 128.764063 40.090625 
L 128.764063 17 
Q 128.764063 15.2 126.964063 15.2 
L 57.664062 15.2 
Q 55.864063 15.2 55.864063 17 
L 55.864063 40.090625 
Q 55.864063 41.890625 57.664062 41.890625 
z
" style="fill:#ffffff;opacity:0.8;stroke:#cccccc;stroke-linejoin:miter;"/>
    </g>
    <g id="line2d_17">
     <path d="M 59.464063 21.95 
L 77.464063 21.95 
" style="fill:none;stroke:#0000ff;stroke-dasharray:7.4,3.2;stroke-dashoffset:0;stroke-width:2;"/>
    </g>
    <g id="line2d_18">
     <g>
      <use style="fill:#0000ff;stroke:#0000ff;" x="68.464063" xlink:href="#m111b9f26dc" y="21.95"/>
     </g>
    </g>
    <g id="text_17">
     <!-- pre_5mean -->
     <defs>
      <path d="M 44.140625 23.828125 
Q 44.140625 12.5 38.671875 6.640625 
Q 33.203125 0.78125 25.390625 0.78125 
Q 21.09375 0.78125 17.96875 2.53125 
Q 14.84375 4.296875 12.5 7.8125 
L 12.5 -12.5 
L 4.6875 -12.5 
L 4.6875 45.703125 
L 12.5 45.703125 
L 12.5 39.84375 
Q 14.84375 43.359375 17.96875 44.921875 
Q 21.09375 46.484375 25.390625 46.484375 
Q 33.203125 46.484375 38.671875 40.8125 
Q 44.140625 35.15625 44.140625 23.828125 
z
M 35.546875 23.828125 
Q 35.546875 31.25 32.609375 35.34375 
Q 29.6875 39.453125 23.828125 39.453125 
Q 19.140625 39.453125 15.8125 35.34375 
Q 12.5 31.25 12.5 23.828125 
Q 12.5 16.40625 15.8125 12.109375 
Q 19.140625 7.8125 23.828125 7.8125 
Q 29.6875 7.8125 32.609375 12.109375 
Q 35.546875 16.40625 35.546875 23.828125 
z
" id="SimHei-70"/>
      <path d="M 39.0625 37.890625 
Q 31.640625 39.0625 26.5625 35.734375 
Q 21.484375 32.421875 17.96875 24.21875 
L 17.96875 1.953125 
L 10.15625 1.953125 
L 10.15625 45.703125 
L 17.96875 45.703125 
L 17.96875 34.375 
Q 21.484375 40.625 26.75 43.546875 
Q 32.03125 46.484375 39.0625 46.484375 
z
" id="SimHei-72"/>
     </defs>
     <g transform="translate(84.664062 25.1)scale(0.09 -0.09)">
      <use xlink:href="#SimHei-70"/>
      <use x="50" xlink:href="#SimHei-72"/>
      <use x="100" xlink:href="#SimHei-65"/>
      <use x="150" xlink:href="#SimHei-5f"/>
      <use x="200" xlink:href="#SimHei-35"/>
      <use x="250" xlink:href="#SimHei-6d"/>
      <use x="300" xlink:href="#SimHei-65"/>
      <use x="350" xlink:href="#SimHei-61"/>
      <use x="400" xlink:href="#SimHei-6e"/>
     </g>
    </g>
    <g id="line2d_19">
     <path d="M 59.464063 33.945312 
L 77.464063 33.945312 
" style="fill:none;stroke:#4169e1;stroke-dasharray:7.4,3.2;stroke-dashoffset:0;stroke-width:2;"/>
    </g>
    <g id="line2d_20">
     <g>
      <use style="fill:#4169e1;stroke:#4169e1;" x="68.464063" xlink:href="#mb4831d1ef4" y="33.945312"/>
     </g>
    </g>
    <g id="text_18">
     <!-- re_5mean -->
     <g transform="translate(84.664062 37.095312)scale(0.09 -0.09)">
      <use xlink:href="#SimHei-72"/>
      <use x="50" xlink:href="#SimHei-65"/>
      <use x="100" xlink:href="#SimHei-5f"/>
      <use x="150" xlink:href="#SimHei-35"/>
      <use x="200" xlink:href="#SimHei-6d"/>
      <use x="250" xlink:href="#SimHei-65"/>
      <use x="300" xlink:href="#SimHei-61"/>
      <use x="350" xlink:href="#SimHei-6e"/>
     </g>
    </g>
   </g>
  </g>
  <g id="axes_2">
   <g id="matplotlib.axis_3">
    <g id="ytick_7">
     <g id="line2d_21">
      <path clip-path="url(#p9e6bd54afd)" d="M 51.364063 153.049237 
L 450.396875 153.049237 
" style="fill:none;stroke:#b0b0b0;stroke-dasharray:2.96,1.28;stroke-dashoffset:0;stroke-width:0.8;"/>
     </g>
     <g id="line2d_22">
      <defs>
       <path d="M 0 0 
L 3.5 0 
" id="m19ac6cf08f" style="stroke:#000000;stroke-width:0.8;"/>
      </defs>
      <g>
       <use style="stroke:#000000;stroke-width:0.8;" x="450.396875" xlink:href="#m19ac6cf08f" y="153.049237"/>
      </g>
     </g>
     <g id="text_19">
      <!-- 500 -->
      <g transform="translate(457.396875 156.486737)scale(0.1 -0.1)">
       <use xlink:href="#SimHei-35"/>
       <use x="50" xlink:href="#SimHei-30"/>
       <use x="100" xlink:href="#SimHei-30"/>
      </g>
     </g>
    </g>
    <g id="ytick_8">
     <g id="line2d_23">
      <path clip-path="url(#p9e6bd54afd)" d="M 51.364063 123.00539 
L 450.396875 123.00539 
" style="fill:none;stroke:#b0b0b0;stroke-dasharray:2.96,1.28;stroke-dashoffset:0;stroke-width:0.8;"/>
     </g>
     <g id="line2d_24">
      <g>
       <use style="stroke:#000000;stroke-width:0.8;" x="450.396875" xlink:href="#m19ac6cf08f" y="123.00539"/>
      </g>
     </g>
     <g id="text_20">
      <!-- 1000 -->
      <g transform="translate(457.396875 126.44289)scale(0.1 -0.1)">
       <use xlink:href="#SimHei-31"/>
       <use x="50" xlink:href="#SimHei-30"/>
       <use x="100" xlink:href="#SimHei-30"/>
       <use x="150" xlink:href="#SimHei-30"/>
      </g>
     </g>
    </g>
    <g id="ytick_9">
     <g id="line2d_25">
      <path clip-path="url(#p9e6bd54afd)" d="M 51.364063 92.961543 
L 450.396875 92.961543 
" style="fill:none;stroke:#b0b0b0;stroke-dasharray:2.96,1.28;stroke-dashoffset:0;stroke-width:0.8;"/>
     </g>
     <g id="line2d_26">
      <g>
       <use style="stroke:#000000;stroke-width:0.8;" x="450.396875" xlink:href="#m19ac6cf08f" y="92.961543"/>
      </g>
     </g>
     <g id="text_21">
      <!-- 1500 -->
      <g transform="translate(457.396875 96.399043)scale(0.1 -0.1)">
       <use xlink:href="#SimHei-31"/>
       <use x="50" xlink:href="#SimHei-35"/>
       <use x="100" xlink:href="#SimHei-30"/>
       <use x="150" xlink:href="#SimHei-30"/>
      </g>
     </g>
    </g>
    <g id="ytick_10">
     <g id="line2d_27">
      <path clip-path="url(#p9e6bd54afd)" d="M 51.364063 62.917696 
L 450.396875 62.917696 
" style="fill:none;stroke:#b0b0b0;stroke-dasharray:2.96,1.28;stroke-dashoffset:0;stroke-width:0.8;"/>
     </g>
     <g id="line2d_28">
      <g>
       <use style="stroke:#000000;stroke-width:0.8;" x="450.396875" xlink:href="#m19ac6cf08f" y="62.917696"/>
      </g>
     </g>
     <g id="text_22">
      <!-- 2000 -->
      <g transform="translate(457.396875 66.355196)scale(0.1 -0.1)">
       <use xlink:href="#SimHei-32"/>
       <use x="50" xlink:href="#SimHei-30"/>
       <use x="100" xlink:href="#SimHei-30"/>
       <use x="150" xlink:href="#SimHei-30"/>
      </g>
     </g>
    </g>
    <g id="ytick_11">
     <g id="line2d_29">
      <path clip-path="url(#p9e6bd54afd)" d="M 51.364063 32.87385 
L 450.396875 32.87385 
" style="fill:none;stroke:#b0b0b0;stroke-dasharray:2.96,1.28;stroke-dashoffset:0;stroke-width:0.8;"/>
     </g>
     <g id="line2d_30">
      <g>
       <use style="stroke:#000000;stroke-width:0.8;" x="450.396875" xlink:href="#m19ac6cf08f" y="32.87385"/>
      </g>
     </g>
     <g id="text_23">
      <!-- 2500 -->
      <g transform="translate(457.396875 36.31135)scale(0.1 -0.1)">
       <use xlink:href="#SimHei-32"/>
       <use x="50" xlink:href="#SimHei-35"/>
       <use x="100" xlink:href="#SimHei-30"/>
       <use x="150" xlink:href="#SimHei-30"/>
      </g>
     </g>
    </g>
    <g id="text_24">
     <!-- 5_std -->
     <defs>
      <path d="M 42.96875 14.0625 
Q 42.96875 7.8125 38.078125 4.484375 
Q 33.203125 1.171875 25.78125 1.171875 
Q 16.40625 1.171875 11.328125 4.875 
Q 6.25 8.59375 6.25 15.625 
L 14.0625 15.625 
Q 14.0625 10.9375 17.375 9.375 
Q 20.703125 7.8125 25.390625 7.8125 
Q 30.078125 7.8125 32.421875 9.5625 
Q 34.765625 11.328125 34.765625 14.0625 
Q 34.765625 16.015625 32.8125 17.96875 
Q 30.859375 19.921875 23.046875 21.09375 
Q 14.0625 22.265625 10.734375 25.578125 
Q 7.421875 28.90625 7.421875 34.375 
Q 7.421875 39.0625 11.90625 42.765625 
Q 16.40625 46.484375 25 46.484375 
Q 32.8125 46.484375 37.296875 42.96875 
Q 41.796875 39.453125 41.796875 33.59375 
L 33.984375 33.59375 
Q 33.984375 37.109375 31.4375 38.46875 
Q 28.90625 39.84375 25 39.84375 
Q 19.921875 39.84375 17.765625 38.078125 
Q 15.625 36.328125 15.625 33.984375 
Q 15.625 31.25 17.578125 29.6875 
Q 19.53125 28.125 25.78125 27.34375 
Q 35.9375 25.78125 39.453125 22.453125 
Q 42.96875 19.140625 42.96875 14.0625 
z
" id="SimHei-73"/>
      <path d="M 42.96875 3.125 
Q 41.015625 2.34375 38.46875 1.75 
Q 35.9375 1.171875 31.640625 1.171875 
Q 24.609375 1.171875 20.3125 5.078125 
Q 16.015625 8.984375 16.015625 16.015625 
L 16.015625 39.453125 
L 2.734375 39.453125 
L 2.734375 45.703125 
L 16.015625 45.703125 
L 16.015625 60.9375 
L 23.828125 60.9375 
L 23.828125 45.703125 
L 39.84375 45.703125 
L 39.84375 39.453125 
L 23.828125 39.453125 
L 23.828125 15.625 
Q 23.828125 12.5 25.390625 10.34375 
Q 26.953125 8.203125 31.25 8.203125 
Q 35.546875 8.203125 38.28125 8.984375 
Q 41.015625 9.765625 42.96875 10.9375 
z
" id="SimHei-74"/>
     </defs>
     <g transform="translate(488.271875 105.025)rotate(-90)scale(0.1 -0.1)">
      <use xlink:href="#SimHei-35"/>
      <use x="50" xlink:href="#SimHei-5f"/>
      <use x="100" xlink:href="#SimHei-73"/>
      <use x="150" xlink:href="#SimHei-74"/>
      <use x="200" xlink:href="#SimHei-64"/>
     </g>
    </g>
   </g>
   <g id="line2d_31">
    <path clip-path="url(#p9e6bd54afd)" d="M 69.501918 155.223639 
L 82.010783 144.256231 
L 94.519649 136.236749 
L 107.028514 117.792967 
L 119.53738 93.709038 
L 132.046246 83.24539 
L 144.555111 102.47009 
L 157.063977 131.431121 
L 169.572842 117.006301 
L 182.081708 86.051826 
L 194.590574 82.945124 
L 207.099439 102.634113 
L 219.608305 123.002117 
L 232.11717 148.513146 
L 244.626036 112.117437 
L 257.134902 89.484587 
L 269.643767 141.370497 
L 282.152633 149.524667 
L 294.661498 166.911364 
L 307.170364 165.524595 
L 319.67923 154.817371 
L 332.188095 143.329469 
L 344.696961 117.687743 
L 357.205826 112.836294 
L 369.714692 63.296879 
L 382.223558 106.374907 
L 394.732423 65.042212 
L 407.241289 77.07797 
L 419.750154 116.417223 
L 432.25902 59.2725 
" style="fill:none;stroke:#ff0000;stroke-dasharray:7.4,3.2;stroke-dashoffset:0;stroke-width:2;"/>
    <defs>
     <path d="M 0 2.5 
C 0.663008 2.5 1.29895 2.236584 1.767767 1.767767 
C 2.236584 1.29895 2.5 0.663008 2.5 0 
C 2.5 -0.663008 2.236584 -1.29895 1.767767 -1.767767 
C 1.29895 -2.236584 0.663008 -2.5 0 -2.5 
C -0.663008 -2.5 -1.29895 -2.236584 -1.767767 -1.767767 
C -2.236584 -1.29895 -2.5 -0.663008 -2.5 0 
C -2.5 0.663008 -2.236584 1.29895 -1.767767 1.767767 
C -1.29895 2.236584 -0.663008 2.5 0 2.5 
z
" id="m6366a8abb8" style="stroke:#ff0000;"/>
    </defs>
    <g clip-path="url(#p9e6bd54afd)">
     <use style="fill:#ff0000;stroke:#ff0000;" x="69.501918" xlink:href="#m6366a8abb8" y="155.223639"/>
     <use style="fill:#ff0000;stroke:#ff0000;" x="82.010783" xlink:href="#m6366a8abb8" y="144.256231"/>
     <use style="fill:#ff0000;stroke:#ff0000;" x="94.519649" xlink:href="#m6366a8abb8" y="136.236749"/>
     <use style="fill:#ff0000;stroke:#ff0000;" x="107.028514" xlink:href="#m6366a8abb8" y="117.792967"/>
     <use style="fill:#ff0000;stroke:#ff0000;" x="119.53738" xlink:href="#m6366a8abb8" y="93.709038"/>
     <use style="fill:#ff0000;stroke:#ff0000;" x="132.046246" xlink:href="#m6366a8abb8" y="83.24539"/>
     <use style="fill:#ff0000;stroke:#ff0000;" x="144.555111" xlink:href="#m6366a8abb8" y="102.47009"/>
     <use style="fill:#ff0000;stroke:#ff0000;" x="157.063977" xlink:href="#m6366a8abb8" y="131.431121"/>
     <use style="fill:#ff0000;stroke:#ff0000;" x="169.572842" xlink:href="#m6366a8abb8" y="117.006301"/>
     <use style="fill:#ff0000;stroke:#ff0000;" x="182.081708" xlink:href="#m6366a8abb8" y="86.051826"/>
     <use style="fill:#ff0000;stroke:#ff0000;" x="194.590574" xlink:href="#m6366a8abb8" y="82.945124"/>
     <use style="fill:#ff0000;stroke:#ff0000;" x="207.099439" xlink:href="#m6366a8abb8" y="102.634113"/>
     <use style="fill:#ff0000;stroke:#ff0000;" x="219.608305" xlink:href="#m6366a8abb8" y="123.002117"/>
     <use style="fill:#ff0000;stroke:#ff0000;" x="232.11717" xlink:href="#m6366a8abb8" y="148.513146"/>
     <use style="fill:#ff0000;stroke:#ff0000;" x="244.626036" xlink:href="#m6366a8abb8" y="112.117437"/>
     <use style="fill:#ff0000;stroke:#ff0000;" x="257.134902" xlink:href="#m6366a8abb8" y="89.484587"/>
     <use style="fill:#ff0000;stroke:#ff0000;" x="269.643767" xlink:href="#m6366a8abb8" y="141.370497"/>
     <use style="fill:#ff0000;stroke:#ff0000;" x="282.152633" xlink:href="#m6366a8abb8" y="149.524667"/>
     <use style="fill:#ff0000;stroke:#ff0000;" x="294.661498" xlink:href="#m6366a8abb8" y="166.911364"/>
     <use style="fill:#ff0000;stroke:#ff0000;" x="307.170364" xlink:href="#m6366a8abb8" y="165.524595"/>
     <use style="fill:#ff0000;stroke:#ff0000;" x="319.67923" xlink:href="#m6366a8abb8" y="154.817371"/>
     <use style="fill:#ff0000;stroke:#ff0000;" x="332.188095" xlink:href="#m6366a8abb8" y="143.329469"/>
     <use style="fill:#ff0000;stroke:#ff0000;" x="344.696961" xlink:href="#m6366a8abb8" y="117.687743"/>
     <use style="fill:#ff0000;stroke:#ff0000;" x="357.205826" xlink:href="#m6366a8abb8" y="112.836294"/>
     <use style="fill:#ff0000;stroke:#ff0000;" x="369.714692" xlink:href="#m6366a8abb8" y="63.296879"/>
     <use style="fill:#ff0000;stroke:#ff0000;" x="382.223558" xlink:href="#m6366a8abb8" y="106.374907"/>
     <use style="fill:#ff0000;stroke:#ff0000;" x="394.732423" xlink:href="#m6366a8abb8" y="65.042212"/>
     <use style="fill:#ff0000;stroke:#ff0000;" x="407.241289" xlink:href="#m6366a8abb8" y="77.07797"/>
     <use style="fill:#ff0000;stroke:#ff0000;" x="419.750154" xlink:href="#m6366a8abb8" y="116.417223"/>
     <use style="fill:#ff0000;stroke:#ff0000;" x="432.25902" xlink:href="#m6366a8abb8" y="59.2725"/>
    </g>
   </g>
   <g id="line2d_32">
    <path clip-path="url(#p9e6bd54afd)" d="M 69.501918 123.883076 
L 82.010783 151.179511 
L 94.519649 136.740437 
L 107.028514 101.924153 
L 119.53738 86.489703 
L 132.046246 85.842504 
L 144.555111 108.163313 
L 157.063977 134.33029 
L 169.572842 46.209163 
L 182.081708 18.138636 
L 194.590574 29.030314 
L 207.099439 44.32676 
L 219.608305 123.012637 
L 232.11717 133.066832 
L 244.626036 111.104389 
L 257.134902 128.0143 
L 269.643767 141.435958 
L 282.152633 113.027583 
L 294.661498 121.279542 
L 307.170364 83.643835 
L 319.67923 82.956219 
L 332.188095 88.924806 
L 344.696961 89.246996 
L 357.205826 54.324275 
L 369.714692 26.719433 
L 382.223558 24.572837 
L 394.732423 40.640876 
L 407.241289 82.561283 
L 419.750154 92.895646 
L 432.25902 82.817279 
" style="fill:none;stroke:#8b0000;stroke-dasharray:7.4,3.2;stroke-dashoffset:0;stroke-width:2;"/>
    <defs>
     <path d="M 0 2.5 
C 0.663008 2.5 1.29895 2.236584 1.767767 1.767767 
C 2.236584 1.29895 2.5 0.663008 2.5 0 
C 2.5 -0.663008 2.236584 -1.29895 1.767767 -1.767767 
C 1.29895 -2.236584 0.663008 -2.5 0 -2.5 
C -0.663008 -2.5 -1.29895 -2.236584 -1.767767 -1.767767 
C -2.236584 -1.29895 -2.5 -0.663008 -2.5 0 
C -2.5 0.663008 -2.236584 1.29895 -1.767767 1.767767 
C -1.29895 2.236584 -0.663008 2.5 0 2.5 
z
" id="m32e88d4288" style="stroke:#8b0000;"/>
    </defs>
    <g clip-path="url(#p9e6bd54afd)">
     <use style="fill:#8b0000;stroke:#8b0000;" x="69.501918" xlink:href="#m32e88d4288" y="123.883076"/>
     <use style="fill:#8b0000;stroke:#8b0000;" x="82.010783" xlink:href="#m32e88d4288" y="151.179511"/>
     <use style="fill:#8b0000;stroke:#8b0000;" x="94.519649" xlink:href="#m32e88d4288" y="136.740437"/>
     <use style="fill:#8b0000;stroke:#8b0000;" x="107.028514" xlink:href="#m32e88d4288" y="101.924153"/>
     <use style="fill:#8b0000;stroke:#8b0000;" x="119.53738" xlink:href="#m32e88d4288" y="86.489703"/>
     <use style="fill:#8b0000;stroke:#8b0000;" x="132.046246" xlink:href="#m32e88d4288" y="85.842504"/>
     <use style="fill:#8b0000;stroke:#8b0000;" x="144.555111" xlink:href="#m32e88d4288" y="108.163313"/>
     <use style="fill:#8b0000;stroke:#8b0000;" x="157.063977" xlink:href="#m32e88d4288" y="134.33029"/>
     <use style="fill:#8b0000;stroke:#8b0000;" x="169.572842" xlink:href="#m32e88d4288" y="46.209163"/>
     <use style="fill:#8b0000;stroke:#8b0000;" x="182.081708" xlink:href="#m32e88d4288" y="18.138636"/>
     <use style="fill:#8b0000;stroke:#8b0000;" x="194.590574" xlink:href="#m32e88d4288" y="29.030314"/>
     <use style="fill:#8b0000;stroke:#8b0000;" x="207.099439" xlink:href="#m32e88d4288" y="44.32676"/>
     <use style="fill:#8b0000;stroke:#8b0000;" x="219.608305" xlink:href="#m32e88d4288" y="123.012637"/>
     <use style="fill:#8b0000;stroke:#8b0000;" x="232.11717" xlink:href="#m32e88d4288" y="133.066832"/>
     <use style="fill:#8b0000;stroke:#8b0000;" x="244.626036" xlink:href="#m32e88d4288" y="111.104389"/>
     <use style="fill:#8b0000;stroke:#8b0000;" x="257.134902" xlink:href="#m32e88d4288" y="128.0143"/>
     <use style="fill:#8b0000;stroke:#8b0000;" x="269.643767" xlink:href="#m32e88d4288" y="141.435958"/>
     <use style="fill:#8b0000;stroke:#8b0000;" x="282.152633" xlink:href="#m32e88d4288" y="113.027583"/>
     <use style="fill:#8b0000;stroke:#8b0000;" x="294.661498" xlink:href="#m32e88d4288" y="121.279542"/>
     <use style="fill:#8b0000;stroke:#8b0000;" x="307.170364" xlink:href="#m32e88d4288" y="83.643835"/>
     <use style="fill:#8b0000;stroke:#8b0000;" x="319.67923" xlink:href="#m32e88d4288" y="82.956219"/>
     <use style="fill:#8b0000;stroke:#8b0000;" x="332.188095" xlink:href="#m32e88d4288" y="88.924806"/>
     <use style="fill:#8b0000;stroke:#8b0000;" x="344.696961" xlink:href="#m32e88d4288" y="89.246996"/>
     <use style="fill:#8b0000;stroke:#8b0000;" x="357.205826" xlink:href="#m32e88d4288" y="54.324275"/>
     <use style="fill:#8b0000;stroke:#8b0000;" x="369.714692" xlink:href="#m32e88d4288" y="26.719433"/>
     <use style="fill:#8b0000;stroke:#8b0000;" x="382.223558" xlink:href="#m32e88d4288" y="24.572837"/>
     <use style="fill:#8b0000;stroke:#8b0000;" x="394.732423" xlink:href="#m32e88d4288" y="40.640876"/>
     <use style="fill:#8b0000;stroke:#8b0000;" x="407.241289" xlink:href="#m32e88d4288" y="82.561283"/>
     <use style="fill:#8b0000;stroke:#8b0000;" x="419.750154" xlink:href="#m32e88d4288" y="92.895646"/>
     <use style="fill:#8b0000;stroke:#8b0000;" x="432.25902" xlink:href="#m32e88d4288" y="82.817279"/>
    </g>
   </g>
   <g id="patch_8">
    <path d="M 51.364063 174.35 
L 51.364063 10.7 
" style="fill:none;stroke:#000000;stroke-linecap:square;stroke-linejoin:miter;stroke-width:0.8;"/>
   </g>
   <g id="patch_9">
    <path d="M 450.396875 174.35 
L 450.396875 10.7 
" style="fill:none;stroke:#000000;stroke-linecap:square;stroke-linejoin:miter;stroke-width:0.8;"/>
   </g>
   <g id="patch_10">
    <path d="M 51.364063 174.35 
L 450.396875 174.35 
" style="fill:none;stroke:#000000;stroke-linecap:square;stroke-linejoin:miter;stroke-width:0.8;"/>
   </g>
   <g id="patch_11">
    <path d="M 51.364063 10.7 
L 450.396875 10.7 
" style="fill:none;stroke:#000000;stroke-linecap:square;stroke-linejoin:miter;stroke-width:0.8;"/>
   </g>
   <g id="legend_2">
    <g id="patch_12">
     <path d="M 57.664062 69.711125 
L 122.464063 69.711125 
Q 124.264063 69.711125 124.264063 67.911125 
L 124.264063 44.8205 
Q 124.264063 43.0205 122.464063 43.0205 
L 57.664062 43.0205 
Q 55.864063 43.0205 55.864063 44.8205 
L 55.864063 67.911125 
Q 55.864063 69.711125 57.664062 69.711125 
z
" style="fill:#ffffff;opacity:0.8;stroke:#cccccc;stroke-linejoin:miter;"/>
    </g>
    <g id="line2d_33">
     <path d="M 59.464063 49.7705 
L 77.464063 49.7705 
" style="fill:none;stroke:#ff0000;stroke-dasharray:7.4,3.2;stroke-dashoffset:0;stroke-width:2;"/>
    </g>
    <g id="line2d_34">
     <g>
      <use style="fill:#ff0000;stroke:#ff0000;" x="68.464063" xlink:href="#m6366a8abb8" y="49.7705"/>
     </g>
    </g>
    <g id="text_25">
     <!-- pre_5std -->
     <g transform="translate(84.664062 52.9205)scale(0.09 -0.09)">
      <use xlink:href="#SimHei-70"/>
      <use x="50" xlink:href="#SimHei-72"/>
      <use x="100" xlink:href="#SimHei-65"/>
      <use x="150" xlink:href="#SimHei-5f"/>
      <use x="200" xlink:href="#SimHei-35"/>
      <use x="250" xlink:href="#SimHei-73"/>
      <use x="300" xlink:href="#SimHei-74"/>
      <use x="350" xlink:href="#SimHei-64"/>
     </g>
    </g>
    <g id="line2d_35">
     <path d="M 59.464063 61.765812 
L 77.464063 61.765812 
" style="fill:none;stroke:#8b0000;stroke-dasharray:7.4,3.2;stroke-dashoffset:0;stroke-width:2;"/>
    </g>
    <g id="line2d_36">
     <g>
      <use style="fill:#8b0000;stroke:#8b0000;" x="68.464063" xlink:href="#m32e88d4288" y="61.765812"/>
     </g>
    </g>
    <g id="text_26">
     <!-- re_5std -->
     <g transform="translate(84.664062 64.915812)scale(0.09 -0.09)">
      <use xlink:href="#SimHei-72"/>
      <use x="50" xlink:href="#SimHei-65"/>
      <use x="100" xlink:href="#SimHei-5f"/>
      <use x="150" xlink:href="#SimHei-35"/>
      <use x="200" xlink:href="#SimHei-73"/>
      <use x="250" xlink:href="#SimHei-74"/>
      <use x="300" xlink:href="#SimHei-64"/>
     </g>
    </g>
   </g>
  </g>
 </g>
 <defs>
  <clipPath id="p9e6bd54afd">
   <rect height="163.65" width="399.032812" x="51.364063" y="10.7"/>
  </clipPath>
 </defs>
</svg>
