<?xml version="1.0" encoding="utf-8" standalone="no"?>
<!DOCTYPE svg PUBLIC "-//W3C//DTD SVG 1.1//EN"
  "http://www.w3.org/Graphics/SVG/1.1/DTD/svg11.dtd">
<!-- Created with matplotlib (http://matplotlib.org/) -->
<svg height="288pt" version="1.1" viewBox="0 0 1152 288" width="1152pt" xmlns="http://www.w3.org/2000/svg" xmlns:xlink="http://www.w3.org/1999/xlink">
 <defs>
  <style type="text/css">
*{stroke-linecap:butt;stroke-linejoin:round;}
  </style>
 </defs>
 <g id="figure_1">
  <g id="patch_1">
   <path d="M 0 288 
L 1152 288 
L 1152 0 
L 0 0 
z
" style="fill:#ffffff;"/>
  </g>
  <g id="axes_1">
   <g id="patch_2">
    <path d="M 144 252 
L 1036.8 252 
L 1036.8 34.56 
L 144 34.56 
z
" style="fill:#ffffff;"/>
   </g>
   <g id="matplotlib.axis_1">
    <g id="xtick_1">
     <g id="line2d_1">
      <defs>
       <path d="M 0 0 
L 0 3.5 
" id="m017285a40c" style="stroke:#000000;stroke-width:0.8;"/>
      </defs>
      <g>
       <use style="stroke:#000000;stroke-width:0.8;" x="184.581818" xlink:href="#m017285a40c" y="252"/>
      </g>
     </g>
     <g id="text_1">
      <!-- 2019-01 -->
      <defs>
       <path d="M 19.1875 8.296875 
L 53.609375 8.296875 
L 53.609375 0 
L 7.328125 0 
L 7.328125 8.296875 
Q 12.9375 14.109375 22.625 23.890625 
Q 32.328125 33.6875 34.8125 36.53125 
Q 39.546875 41.84375 41.421875 45.53125 
Q 43.3125 49.21875 43.3125 52.78125 
Q 43.3125 58.59375 39.234375 62.25 
Q 35.15625 65.921875 28.609375 65.921875 
Q 23.96875 65.921875 18.8125 64.3125 
Q 13.671875 62.703125 7.8125 59.421875 
L 7.8125 69.390625 
Q 13.765625 71.78125 18.9375 73 
Q 24.125 74.21875 28.421875 74.21875 
Q 39.75 74.21875 46.484375 68.546875 
Q 53.21875 62.890625 53.21875 53.421875 
Q 53.21875 48.921875 51.53125 44.890625 
Q 49.859375 40.875 45.40625 35.40625 
Q 44.1875 33.984375 37.640625 27.21875 
Q 31.109375 20.453125 19.1875 8.296875 
z
" id="DejaVuSans-32"/>
       <path d="M 31.78125 66.40625 
Q 24.171875 66.40625 20.328125 58.90625 
Q 16.5 51.421875 16.5 36.375 
Q 16.5 21.390625 20.328125 13.890625 
Q 24.171875 6.390625 31.78125 6.390625 
Q 39.453125 6.390625 43.28125 13.890625 
Q 47.125 21.390625 47.125 36.375 
Q 47.125 51.421875 43.28125 58.90625 
Q 39.453125 66.40625 31.78125 66.40625 
z
M 31.78125 74.21875 
Q 44.046875 74.21875 50.515625 64.515625 
Q 56.984375 54.828125 56.984375 36.375 
Q 56.984375 17.96875 50.515625 8.265625 
Q 44.046875 -1.421875 31.78125 -1.421875 
Q 19.53125 -1.421875 13.0625 8.265625 
Q 6.59375 17.96875 6.59375 36.375 
Q 6.59375 54.828125 13.0625 64.515625 
Q 19.53125 74.21875 31.78125 74.21875 
z
" id="DejaVuSans-30"/>
       <path d="M 12.40625 8.296875 
L 28.515625 8.296875 
L 28.515625 63.921875 
L 10.984375 60.40625 
L 10.984375 69.390625 
L 28.421875 72.90625 
L 38.28125 72.90625 
L 38.28125 8.296875 
L 54.390625 8.296875 
L 54.390625 0 
L 12.40625 0 
z
" id="DejaVuSans-31"/>
       <path d="M 10.984375 1.515625 
L 10.984375 10.5 
Q 14.703125 8.734375 18.5 7.8125 
Q 22.3125 6.890625 25.984375 6.890625 
Q 35.75 6.890625 40.890625 13.453125 
Q 46.046875 20.015625 46.78125 33.40625 
Q 43.953125 29.203125 39.59375 26.953125 
Q 35.25 24.703125 29.984375 24.703125 
Q 19.046875 24.703125 12.671875 31.3125 
Q 6.296875 37.9375 6.296875 49.421875 
Q 6.296875 60.640625 12.9375 67.421875 
Q 19.578125 74.21875 30.609375 74.21875 
Q 43.265625 74.21875 49.921875 64.515625 
Q 56.59375 54.828125 56.59375 36.375 
Q 56.59375 19.140625 48.40625 8.859375 
Q 40.234375 -1.421875 26.421875 -1.421875 
Q 22.703125 -1.421875 18.890625 -0.6875 
Q 15.09375 0.046875 10.984375 1.515625 
z
M 30.609375 32.421875 
Q 37.25 32.421875 41.125 36.953125 
Q 45.015625 41.5 45.015625 49.421875 
Q 45.015625 57.28125 41.125 61.84375 
Q 37.25 66.40625 30.609375 66.40625 
Q 23.96875 66.40625 20.09375 61.84375 
Q 16.21875 57.28125 16.21875 49.421875 
Q 16.21875 41.5 20.09375 36.953125 
Q 23.96875 32.421875 30.609375 32.421875 
z
" id="DejaVuSans-39"/>
       <path d="M 4.890625 31.390625 
L 31.203125 31.390625 
L 31.203125 23.390625 
L 4.890625 23.390625 
z
" id="DejaVuSans-2d"/>
      </defs>
      <g transform="translate(163.690412 266.598437)scale(0.1 -0.1)">
       <use xlink:href="#DejaVuSans-32"/>
       <use x="63.623047" xlink:href="#DejaVuSans-30"/>
       <use x="127.246094" xlink:href="#DejaVuSans-31"/>
       <use x="190.869141" xlink:href="#DejaVuSans-39"/>
       <use x="254.492188" xlink:href="#DejaVuSans-2d"/>
       <use x="290.576172" xlink:href="#DejaVuSans-30"/>
       <use x="354.199219" xlink:href="#DejaVuSans-31"/>
      </g>
     </g>
    </g>
    <g id="xtick_2">
     <g id="line2d_2">
      <g>
       <use style="stroke:#000000;stroke-width:0.8;" x="316.138262" xlink:href="#m017285a40c" y="252"/>
      </g>
     </g>
     <g id="text_2">
      <!-- 2019-03 -->
      <defs>
       <path d="M 40.578125 39.3125 
Q 47.65625 37.796875 51.625 33 
Q 55.609375 28.21875 55.609375 21.1875 
Q 55.609375 10.40625 48.1875 4.484375 
Q 40.765625 -1.421875 27.09375 -1.421875 
Q 22.515625 -1.421875 17.65625 -0.515625 
Q 12.796875 0.390625 7.625 2.203125 
L 7.625 11.71875 
Q 11.71875 9.328125 16.59375 8.109375 
Q 21.484375 6.890625 26.8125 6.890625 
Q 36.078125 6.890625 40.9375 10.546875 
Q 45.796875 14.203125 45.796875 21.1875 
Q 45.796875 27.640625 41.28125 31.265625 
Q 36.765625 34.90625 28.71875 34.90625 
L 20.21875 34.90625 
L 20.21875 43.015625 
L 29.109375 43.015625 
Q 36.375 43.015625 40.234375 45.921875 
Q 44.09375 48.828125 44.09375 54.296875 
Q 44.09375 59.90625 40.109375 62.90625 
Q 36.140625 65.921875 28.71875 65.921875 
Q 24.65625 65.921875 20.015625 65.03125 
Q 15.375 64.15625 9.8125 62.3125 
L 9.8125 71.09375 
Q 15.4375 72.65625 20.34375 73.4375 
Q 25.25 74.21875 29.59375 74.21875 
Q 40.828125 74.21875 47.359375 69.109375 
Q 53.90625 64.015625 53.90625 55.328125 
Q 53.90625 49.265625 50.4375 45.09375 
Q 46.96875 40.921875 40.578125 39.3125 
z
" id="DejaVuSans-33"/>
      </defs>
      <g transform="translate(295.246855 266.598437)scale(0.1 -0.1)">
       <use xlink:href="#DejaVuSans-32"/>
       <use x="63.623047" xlink:href="#DejaVuSans-30"/>
       <use x="127.246094" xlink:href="#DejaVuSans-31"/>
       <use x="190.869141" xlink:href="#DejaVuSans-39"/>
       <use x="254.492188" xlink:href="#DejaVuSans-2d"/>
       <use x="290.576172" xlink:href="#DejaVuSans-30"/>
       <use x="354.199219" xlink:href="#DejaVuSans-33"/>
      </g>
     </g>
    </g>
    <g id="xtick_3">
     <g id="line2d_3">
      <g>
       <use style="stroke:#000000;stroke-width:0.8;" x="452.154246" xlink:href="#m017285a40c" y="252"/>
      </g>
     </g>
     <g id="text_3">
      <!-- 2019-05 -->
      <defs>
       <path d="M 10.796875 72.90625 
L 49.515625 72.90625 
L 49.515625 64.59375 
L 19.828125 64.59375 
L 19.828125 46.734375 
Q 21.96875 47.46875 24.109375 47.828125 
Q 26.265625 48.1875 28.421875 48.1875 
Q 40.625 48.1875 47.75 41.5 
Q 54.890625 34.8125 54.890625 23.390625 
Q 54.890625 11.625 47.5625 5.09375 
Q 40.234375 -1.421875 26.90625 -1.421875 
Q 22.3125 -1.421875 17.546875 -0.640625 
Q 12.796875 0.140625 7.71875 1.703125 
L 7.71875 11.625 
Q 12.109375 9.234375 16.796875 8.0625 
Q 21.484375 6.890625 26.703125 6.890625 
Q 35.15625 6.890625 40.078125 11.328125 
Q 45.015625 15.765625 45.015625 23.390625 
Q 45.015625 31 40.078125 35.4375 
Q 35.15625 39.890625 26.703125 39.890625 
Q 22.75 39.890625 18.8125 39.015625 
Q 14.890625 38.140625 10.796875 36.28125 
z
" id="DejaVuSans-35"/>
      </defs>
      <g transform="translate(431.26284 266.598437)scale(0.1 -0.1)">
       <use xlink:href="#DejaVuSans-32"/>
       <use x="63.623047" xlink:href="#DejaVuSans-30"/>
       <use x="127.246094" xlink:href="#DejaVuSans-31"/>
       <use x="190.869141" xlink:href="#DejaVuSans-39"/>
       <use x="254.492188" xlink:href="#DejaVuSans-2d"/>
       <use x="290.576172" xlink:href="#DejaVuSans-30"/>
       <use x="354.199219" xlink:href="#DejaVuSans-35"/>
      </g>
     </g>
    </g>
    <g id="xtick_4">
     <g id="line2d_4">
      <g>
       <use style="stroke:#000000;stroke-width:0.8;" x="588.17023" xlink:href="#m017285a40c" y="252"/>
      </g>
     </g>
     <g id="text_4">
      <!-- 2019-07 -->
      <defs>
       <path d="M 8.203125 72.90625 
L 55.078125 72.90625 
L 55.078125 68.703125 
L 28.609375 0 
L 18.3125 0 
L 43.21875 64.59375 
L 8.203125 64.59375 
z
" id="DejaVuSans-37"/>
      </defs>
      <g transform="translate(567.278824 266.598437)scale(0.1 -0.1)">
       <use xlink:href="#DejaVuSans-32"/>
       <use x="63.623047" xlink:href="#DejaVuSans-30"/>
       <use x="127.246094" xlink:href="#DejaVuSans-31"/>
       <use x="190.869141" xlink:href="#DejaVuSans-39"/>
       <use x="254.492188" xlink:href="#DejaVuSans-2d"/>
       <use x="290.576172" xlink:href="#DejaVuSans-30"/>
       <use x="354.199219" xlink:href="#DejaVuSans-37"/>
      </g>
     </g>
    </g>
    <g id="xtick_5">
     <g id="line2d_5">
      <g>
       <use style="stroke:#000000;stroke-width:0.8;" x="726.415984" xlink:href="#m017285a40c" y="252"/>
      </g>
     </g>
     <g id="text_5">
      <!-- 2019-09 -->
      <g transform="translate(705.524578 266.598437)scale(0.1 -0.1)">
       <use xlink:href="#DejaVuSans-32"/>
       <use x="63.623047" xlink:href="#DejaVuSans-30"/>
       <use x="127.246094" xlink:href="#DejaVuSans-31"/>
       <use x="190.869141" xlink:href="#DejaVuSans-39"/>
       <use x="254.492188" xlink:href="#DejaVuSans-2d"/>
       <use x="290.576172" xlink:href="#DejaVuSans-30"/>
       <use x="354.199219" xlink:href="#DejaVuSans-39"/>
      </g>
     </g>
    </g>
    <g id="xtick_6">
     <g id="line2d_6">
      <g>
       <use style="stroke:#000000;stroke-width:0.8;" x="862.431968" xlink:href="#m017285a40c" y="252"/>
      </g>
     </g>
     <g id="text_6">
      <!-- 2019-11 -->
      <g transform="translate(841.540562 266.598437)scale(0.1 -0.1)">
       <use xlink:href="#DejaVuSans-32"/>
       <use x="63.623047" xlink:href="#DejaVuSans-30"/>
       <use x="127.246094" xlink:href="#DejaVuSans-31"/>
       <use x="190.869141" xlink:href="#DejaVuSans-39"/>
       <use x="254.492188" xlink:href="#DejaVuSans-2d"/>
       <use x="290.576172" xlink:href="#DejaVuSans-31"/>
       <use x="354.199219" xlink:href="#DejaVuSans-31"/>
      </g>
     </g>
    </g>
    <g id="xtick_7">
     <g id="line2d_7">
      <g>
       <use style="stroke:#000000;stroke-width:0.8;" x="998.447952" xlink:href="#m017285a40c" y="252"/>
      </g>
     </g>
     <g id="text_7">
      <!-- 2020-01 -->
      <g transform="translate(977.556546 266.598437)scale(0.1 -0.1)">
       <use xlink:href="#DejaVuSans-32"/>
       <use x="63.623047" xlink:href="#DejaVuSans-30"/>
       <use x="127.246094" xlink:href="#DejaVuSans-32"/>
       <use x="190.869141" xlink:href="#DejaVuSans-30"/>
       <use x="254.492188" xlink:href="#DejaVuSans-2d"/>
       <use x="290.576172" xlink:href="#DejaVuSans-30"/>
       <use x="354.199219" xlink:href="#DejaVuSans-31"/>
      </g>
     </g>
    </g>
    <g id="text_8">
     <!-- Decade -->
     <defs>
      <path d="M 19.671875 64.796875 
L 19.671875 8.109375 
L 31.59375 8.109375 
Q 46.6875 8.109375 53.6875 14.9375 
Q 60.6875 21.78125 60.6875 36.53125 
Q 60.6875 51.171875 53.6875 57.984375 
Q 46.6875 64.796875 31.59375 64.796875 
z
M 9.8125 72.90625 
L 30.078125 72.90625 
Q 51.265625 72.90625 61.171875 64.09375 
Q 71.09375 55.28125 71.09375 36.53125 
Q 71.09375 17.671875 61.125 8.828125 
Q 51.171875 0 30.078125 0 
L 9.8125 0 
z
" id="DejaVuSans-44"/>
      <path d="M 56.203125 29.59375 
L 56.203125 25.203125 
L 14.890625 25.203125 
Q 15.484375 15.921875 20.484375 11.0625 
Q 25.484375 6.203125 34.421875 6.203125 
Q 39.59375 6.203125 44.453125 7.46875 
Q 49.3125 8.734375 54.109375 11.28125 
L 54.109375 2.78125 
Q 49.265625 0.734375 44.1875 -0.34375 
Q 39.109375 -1.421875 33.890625 -1.421875 
Q 20.796875 -1.421875 13.15625 6.1875 
Q 5.515625 13.8125 5.515625 26.8125 
Q 5.515625 40.234375 12.765625 48.109375 
Q 20.015625 56 32.328125 56 
Q 43.359375 56 49.78125 48.890625 
Q 56.203125 41.796875 56.203125 29.59375 
z
M 47.21875 32.234375 
Q 47.125 39.59375 43.09375 43.984375 
Q 39.0625 48.390625 32.421875 48.390625 
Q 24.90625 48.390625 20.390625 44.140625 
Q 15.875 39.890625 15.1875 32.171875 
z
" id="DejaVuSans-65"/>
      <path d="M 48.78125 52.59375 
L 48.78125 44.1875 
Q 44.96875 46.296875 41.140625 47.34375 
Q 37.3125 48.390625 33.40625 48.390625 
Q 24.65625 48.390625 19.8125 42.84375 
Q 14.984375 37.3125 14.984375 27.296875 
Q 14.984375 17.28125 19.8125 11.734375 
Q 24.65625 6.203125 33.40625 6.203125 
Q 37.3125 6.203125 41.140625 7.25 
Q 44.96875 8.296875 48.78125 10.40625 
L 48.78125 2.09375 
Q 45.015625 0.34375 40.984375 -0.53125 
Q 36.96875 -1.421875 32.421875 -1.421875 
Q 20.0625 -1.421875 12.78125 6.34375 
Q 5.515625 14.109375 5.515625 27.296875 
Q 5.515625 40.671875 12.859375 48.328125 
Q 20.21875 56 33.015625 56 
Q 37.15625 56 41.109375 55.140625 
Q 45.0625 54.296875 48.78125 52.59375 
z
" id="DejaVuSans-63"/>
      <path d="M 34.28125 27.484375 
Q 23.390625 27.484375 19.1875 25 
Q 14.984375 22.515625 14.984375 16.5 
Q 14.984375 11.71875 18.140625 8.90625 
Q 21.296875 6.109375 26.703125 6.109375 
Q 34.1875 6.109375 38.703125 11.40625 
Q 43.21875 16.703125 43.21875 25.484375 
L 43.21875 27.484375 
z
M 52.203125 31.203125 
L 52.203125 0 
L 43.21875 0 
L 43.21875 8.296875 
Q 40.140625 3.328125 35.546875 0.953125 
Q 30.953125 -1.421875 24.3125 -1.421875 
Q 15.921875 -1.421875 10.953125 3.296875 
Q 6 8.015625 6 15.921875 
Q 6 25.140625 12.171875 29.828125 
Q 18.359375 34.515625 30.609375 34.515625 
L 43.21875 34.515625 
L 43.21875 35.40625 
Q 43.21875 41.609375 39.140625 45 
Q 35.0625 48.390625 27.6875 48.390625 
Q 23 48.390625 18.546875 47.265625 
Q 14.109375 46.140625 10.015625 43.890625 
L 10.015625 52.203125 
Q 14.9375 54.109375 19.578125 55.046875 
Q 24.21875 56 28.609375 56 
Q 40.484375 56 46.34375 49.84375 
Q 52.203125 43.703125 52.203125 31.203125 
z
" id="DejaVuSans-61"/>
      <path d="M 45.40625 46.390625 
L 45.40625 75.984375 
L 54.390625 75.984375 
L 54.390625 0 
L 45.40625 0 
L 45.40625 8.203125 
Q 42.578125 3.328125 38.25 0.953125 
Q 33.9375 -1.421875 27.875 -1.421875 
Q 17.96875 -1.421875 11.734375 6.484375 
Q 5.515625 14.40625 5.515625 27.296875 
Q 5.515625 40.1875 11.734375 48.09375 
Q 17.96875 56 27.875 56 
Q 33.9375 56 38.25 53.625 
Q 42.578125 51.265625 45.40625 46.390625 
z
M 14.796875 27.296875 
Q 14.796875 17.390625 18.875 11.75 
Q 22.953125 6.109375 30.078125 6.109375 
Q 37.203125 6.109375 41.296875 11.75 
Q 45.40625 17.390625 45.40625 27.296875 
Q 45.40625 37.203125 41.296875 42.84375 
Q 37.203125 48.484375 30.078125 48.484375 
Q 22.953125 48.484375 18.875 42.84375 
Q 14.796875 37.203125 14.796875 27.296875 
z
" id="DejaVuSans-64"/>
     </defs>
     <g transform="translate(571.409375 280.276563)scale(0.1 -0.1)">
      <use xlink:href="#DejaVuSans-44"/>
      <use x="77.001953" xlink:href="#DejaVuSans-65"/>
      <use x="138.525391" xlink:href="#DejaVuSans-63"/>
      <use x="193.505859" xlink:href="#DejaVuSans-61"/>
      <use x="254.785156" xlink:href="#DejaVuSans-64"/>
      <use x="318.261719" xlink:href="#DejaVuSans-65"/>
     </g>
    </g>
   </g>
   <g id="matplotlib.axis_2">
    <g id="ytick_1">
     <g id="line2d_8">
      <path clip-path="url(#p23fde32a73)" d="M 144 229.572636 
L 1036.8 229.572636 
" style="fill:none;stroke:#b0b0b0;stroke-linecap:square;stroke-width:0.8;"/>
     </g>
     <g id="line2d_9">
      <defs>
       <path d="M 0 0 
L -3.5 0 
" id="m645875e5bb" style="stroke:#000000;stroke-width:0.8;"/>
      </defs>
      <g>
       <use style="stroke:#000000;stroke-width:0.8;" x="144" xlink:href="#m645875e5bb" y="229.572636"/>
      </g>
     </g>
     <g id="text_9">
      <!-- 4000 -->
      <defs>
       <path d="M 37.796875 64.3125 
L 12.890625 25.390625 
L 37.796875 25.390625 
z
M 35.203125 72.90625 
L 47.609375 72.90625 
L 47.609375 25.390625 
L 58.015625 25.390625 
L 58.015625 17.1875 
L 47.609375 17.1875 
L 47.609375 0 
L 37.796875 0 
L 37.796875 17.1875 
L 4.890625 17.1875 
L 4.890625 26.703125 
z
" id="DejaVuSans-34"/>
      </defs>
      <g transform="translate(111.55 233.371855)scale(0.1 -0.1)">
       <use xlink:href="#DejaVuSans-34"/>
       <use x="63.623047" xlink:href="#DejaVuSans-30"/>
       <use x="127.246094" xlink:href="#DejaVuSans-30"/>
       <use x="190.869141" xlink:href="#DejaVuSans-30"/>
      </g>
     </g>
    </g>
    <g id="ytick_2">
     <g id="line2d_10">
      <path clip-path="url(#p23fde32a73)" d="M 144 188.12221 
L 1036.8 188.12221 
" style="fill:none;stroke:#b0b0b0;stroke-linecap:square;stroke-width:0.8;"/>
     </g>
     <g id="line2d_11">
      <g>
       <use style="stroke:#000000;stroke-width:0.8;" x="144" xlink:href="#m645875e5bb" y="188.12221"/>
      </g>
     </g>
     <g id="text_10">
      <!-- 6000 -->
      <defs>
       <path d="M 33.015625 40.375 
Q 26.375 40.375 22.484375 35.828125 
Q 18.609375 31.296875 18.609375 23.390625 
Q 18.609375 15.53125 22.484375 10.953125 
Q 26.375 6.390625 33.015625 6.390625 
Q 39.65625 6.390625 43.53125 10.953125 
Q 47.40625 15.53125 47.40625 23.390625 
Q 47.40625 31.296875 43.53125 35.828125 
Q 39.65625 40.375 33.015625 40.375 
z
M 52.59375 71.296875 
L 52.59375 62.3125 
Q 48.875 64.0625 45.09375 64.984375 
Q 41.3125 65.921875 37.59375 65.921875 
Q 27.828125 65.921875 22.671875 59.328125 
Q 17.53125 52.734375 16.796875 39.40625 
Q 19.671875 43.65625 24.015625 45.921875 
Q 28.375 48.1875 33.59375 48.1875 
Q 44.578125 48.1875 50.953125 41.515625 
Q 57.328125 34.859375 57.328125 23.390625 
Q 57.328125 12.15625 50.6875 5.359375 
Q 44.046875 -1.421875 33.015625 -1.421875 
Q 20.359375 -1.421875 13.671875 8.265625 
Q 6.984375 17.96875 6.984375 36.375 
Q 6.984375 53.65625 15.1875 63.9375 
Q 23.390625 74.21875 37.203125 74.21875 
Q 40.921875 74.21875 44.703125 73.484375 
Q 48.484375 72.75 52.59375 71.296875 
z
" id="DejaVuSans-36"/>
      </defs>
      <g transform="translate(111.55 191.921429)scale(0.1 -0.1)">
       <use xlink:href="#DejaVuSans-36"/>
       <use x="63.623047" xlink:href="#DejaVuSans-30"/>
       <use x="127.246094" xlink:href="#DejaVuSans-30"/>
       <use x="190.869141" xlink:href="#DejaVuSans-30"/>
      </g>
     </g>
    </g>
    <g id="ytick_3">
     <g id="line2d_12">
      <path clip-path="url(#p23fde32a73)" d="M 144 146.671785 
L 1036.8 146.671785 
" style="fill:none;stroke:#b0b0b0;stroke-linecap:square;stroke-width:0.8;"/>
     </g>
     <g id="line2d_13">
      <g>
       <use style="stroke:#000000;stroke-width:0.8;" x="144" xlink:href="#m645875e5bb" y="146.671785"/>
      </g>
     </g>
     <g id="text_11">
      <!-- 8000 -->
      <defs>
       <path d="M 31.78125 34.625 
Q 24.75 34.625 20.71875 30.859375 
Q 16.703125 27.09375 16.703125 20.515625 
Q 16.703125 13.921875 20.71875 10.15625 
Q 24.75 6.390625 31.78125 6.390625 
Q 38.8125 6.390625 42.859375 10.171875 
Q 46.921875 13.96875 46.921875 20.515625 
Q 46.921875 27.09375 42.890625 30.859375 
Q 38.875 34.625 31.78125 34.625 
z
M 21.921875 38.8125 
Q 15.578125 40.375 12.03125 44.71875 
Q 8.5 49.078125 8.5 55.328125 
Q 8.5 64.0625 14.71875 69.140625 
Q 20.953125 74.21875 31.78125 74.21875 
Q 42.671875 74.21875 48.875 69.140625 
Q 55.078125 64.0625 55.078125 55.328125 
Q 55.078125 49.078125 51.53125 44.71875 
Q 48 40.375 41.703125 38.8125 
Q 48.828125 37.15625 52.796875 32.3125 
Q 56.78125 27.484375 56.78125 20.515625 
Q 56.78125 9.90625 50.3125 4.234375 
Q 43.84375 -1.421875 31.78125 -1.421875 
Q 19.734375 -1.421875 13.25 4.234375 
Q 6.78125 9.90625 6.78125 20.515625 
Q 6.78125 27.484375 10.78125 32.3125 
Q 14.796875 37.15625 21.921875 38.8125 
z
M 18.3125 54.390625 
Q 18.3125 48.734375 21.84375 45.5625 
Q 25.390625 42.390625 31.78125 42.390625 
Q 38.140625 42.390625 41.71875 45.5625 
Q 45.3125 48.734375 45.3125 54.390625 
Q 45.3125 60.0625 41.71875 63.234375 
Q 38.140625 66.40625 31.78125 66.40625 
Q 25.390625 66.40625 21.84375 63.234375 
Q 18.3125 60.0625 18.3125 54.390625 
z
" id="DejaVuSans-38"/>
      </defs>
      <g transform="translate(111.55 150.471003)scale(0.1 -0.1)">
       <use xlink:href="#DejaVuSans-38"/>
       <use x="63.623047" xlink:href="#DejaVuSans-30"/>
       <use x="127.246094" xlink:href="#DejaVuSans-30"/>
       <use x="190.869141" xlink:href="#DejaVuSans-30"/>
      </g>
     </g>
    </g>
    <g id="ytick_4">
     <g id="line2d_14">
      <path clip-path="url(#p23fde32a73)" d="M 144 105.221359 
L 1036.8 105.221359 
" style="fill:none;stroke:#b0b0b0;stroke-linecap:square;stroke-width:0.8;"/>
     </g>
     <g id="line2d_15">
      <g>
       <use style="stroke:#000000;stroke-width:0.8;" x="144" xlink:href="#m645875e5bb" y="105.221359"/>
      </g>
     </g>
     <g id="text_12">
      <!-- 10000 -->
      <g transform="translate(105.1875 109.020578)scale(0.1 -0.1)">
       <use xlink:href="#DejaVuSans-31"/>
       <use x="63.623047" xlink:href="#DejaVuSans-30"/>
       <use x="127.246094" xlink:href="#DejaVuSans-30"/>
       <use x="190.869141" xlink:href="#DejaVuSans-30"/>
       <use x="254.492188" xlink:href="#DejaVuSans-30"/>
      </g>
     </g>
    </g>
    <g id="ytick_5">
     <g id="line2d_16">
      <path clip-path="url(#p23fde32a73)" d="M 144 63.770934 
L 1036.8 63.770934 
" style="fill:none;stroke:#b0b0b0;stroke-linecap:square;stroke-width:0.8;"/>
     </g>
     <g id="line2d_17">
      <g>
       <use style="stroke:#000000;stroke-width:0.8;" x="144" xlink:href="#m645875e5bb" y="63.770934"/>
      </g>
     </g>
     <g id="text_13">
      <!-- 12000 -->
      <g transform="translate(105.1875 67.570152)scale(0.1 -0.1)">
       <use xlink:href="#DejaVuSans-31"/>
       <use x="63.623047" xlink:href="#DejaVuSans-32"/>
       <use x="127.246094" xlink:href="#DejaVuSans-30"/>
       <use x="190.869141" xlink:href="#DejaVuSans-30"/>
       <use x="254.492188" xlink:href="#DejaVuSans-30"/>
      </g>
     </g>
    </g>
    <g id="text_14">
     <!-- value -->
     <defs>
      <path d="M 2.984375 54.6875 
L 12.5 54.6875 
L 29.59375 8.796875 
L 46.6875 54.6875 
L 56.203125 54.6875 
L 35.6875 0 
L 23.484375 0 
z
" id="DejaVuSans-76"/>
      <path d="M 9.421875 75.984375 
L 18.40625 75.984375 
L 18.40625 0 
L 9.421875 0 
z
" id="DejaVuSans-6c"/>
      <path d="M 8.5 21.578125 
L 8.5 54.6875 
L 17.484375 54.6875 
L 17.484375 21.921875 
Q 17.484375 14.15625 20.5 10.265625 
Q 23.53125 6.390625 29.59375 6.390625 
Q 36.859375 6.390625 41.078125 11.03125 
Q 45.3125 15.671875 45.3125 23.6875 
L 45.3125 54.6875 
L 54.296875 54.6875 
L 54.296875 0 
L 45.3125 0 
L 45.3125 8.40625 
Q 42.046875 3.421875 37.71875 1 
Q 33.40625 -1.421875 27.6875 -1.421875 
Q 18.265625 -1.421875 13.375 4.4375 
Q 8.5 10.296875 8.5 21.578125 
z
M 31.109375 56 
z
" id="DejaVuSans-75"/>
     </defs>
     <g transform="translate(99.107812 156.937813)rotate(-90)scale(0.1 -0.1)">
      <use xlink:href="#DejaVuSans-76"/>
      <use x="59.179688" xlink:href="#DejaVuSans-61"/>
      <use x="120.458984" xlink:href="#DejaVuSans-6c"/>
      <use x="148.242188" xlink:href="#DejaVuSans-75"/>
      <use x="211.621094" xlink:href="#DejaVuSans-65"/>
     </g>
    </g>
   </g>
   <g id="line2d_18">
    <path clip-path="url(#p23fde32a73)" d="M 184.581818 234.706858 
L 186.811588 232.559554 
L 189.041359 232.354011 
L 191.271129 233.248736 
L 193.500899 232.544217 
L 195.730669 231.221188 
L 197.96044 228.824594 
L 200.19021 228.904248 
L 202.41998 228.865112 
L 204.64975 233.456834 
L 206.87952 236.90418 
L 209.109291 236.902194 
L 211.339061 237.866002 
L 213.568831 239.272864 
L 215.798601 236.68584 
L 218.028372 237.421878 
L 220.258142 237.41858 
L 222.487912 237.191328 
L 224.717682 235.986606 
L 226.947453 235.707713 
L 229.177223 238.931572 
L 231.406993 239.105819 
L 233.636763 238.124895 
L 235.866533 238.559088 
L 238.096304 238.147693 
L 240.326074 238.323028 
L 242.555844 238.353909 
L 244.785614 238.805718 
L 247.015385 241.000933 
L 249.245155 241.560099 
L 251.474925 240.556999 
L 253.704695 241.079067 
L 258.164236 239.806331 
L 260.394006 240.846737 
L 262.623776 240.922799 
L 264.853546 240.612128 
L 267.083317 241.88963 
L 269.313087 242.116364 
L 271.542857 236.596825 
L 273.772627 236.528432 
L 276.002398 236.074342 
L 278.232168 237.251949 
L 280.461938 237.19081 
L 284.921479 237.856296 
L 289.381019 237.457543 
L 291.610789 236.396619 
L 293.840559 231.421325 
L 296.07033 231.095317 
L 298.3001 229.838333 
L 300.52987 230.71501 
L 302.75964 229.915016 
L 304.989411 226.679396 
L 307.219181 234.40389 
L 309.448951 232.716029 
L 311.678721 233.06587 
L 313.908492 233.02898 
L 316.138262 232.67976 
L 318.368032 233.000172 
L 320.597802 233.066078 
L 322.827572 233.415505 
L 325.057343 235.148133 
L 327.287113 232.220282 
L 329.516883 232.124946 
L 331.746653 231.918315 
L 333.976424 232.143391 
L 336.206194 230.59729 
L 338.435964 231.061328 
L 340.665734 232.037071 
L 342.895504 231.800389 
L 345.125275 232.105879 
L 347.355045 231.951683 
L 349.584815 230.888687 
L 351.814585 229.242069 
L 354.044356 229.67792 
L 356.274126 229.598128 
L 360.733666 228.403734 
L 362.963437 229.731391 
L 365.193207 229.592118 
L 367.422977 229.325591 
L 369.652747 229.694707 
L 371.882517 230.901329 
L 374.112288 230.655735 
L 376.342058 228.567256 
L 378.571828 228.798135 
L 380.801598 227.177838 
L 385.261139 227.206646 
L 387.490909 226.411419 
L 389.720679 211.27476 
L 391.95045 209.680369 
L 394.18022 210.686993 
L 396.40999 208.251159 
L 398.63976 207.73821 
L 400.86953 204.922275 
L 403.099301 203.278351 
L 405.329071 205.203723 
L 407.558841 202.418877 
L 409.788611 208.121626 
L 412.018382 207.337591 
L 414.248152 207.50816 
L 416.477922 205.686621 
L 418.707692 208.097585 
L 420.937463 204.77181 
L 423.167233 204.280208 
L 425.397003 203.12084 
L 427.626773 203.10571 
L 429.856543 202.437529 
L 432.086314 203.006436 
L 434.316084 201.03008 
L 436.545854 198.108447 
L 438.775624 199.848743 
L 441.005395 204.793364 
L 443.235165 202.778459 
L 445.464935 203.040426 
L 447.694705 202.603124 
L 449.924476 203.445396 
L 452.154246 203.255968 
L 454.384016 202.077118 
L 456.613786 200.761274 
L 458.843556 195.228057 
L 461.073327 192.866626 
L 463.303097 193.973767 
L 465.532867 194.661637 
L 467.762637 193.184965 
L 469.992408 189.433702 
L 474.451948 180.909422 
L 476.681718 162.25072 
L 478.911489 167.839895 
L 481.141259 150.337868 
L 483.371029 146.823286 
L 485.600799 142.383738 
L 487.830569 149.035288 
L 490.06034 159.889911 
L 492.29011 161.90378 
L 494.51988 142.657311 
L 496.74965 146.526086 
L 498.979421 147.656232 
L 501.209191 154.424465 
L 503.438961 149.1528 
L 505.668731 146.604221 
L 507.898501 145.190968 
L 510.128272 131.243522 
L 512.358042 130.712127 
L 514.587812 131.752119 
L 516.817582 132.931383 
L 519.047353 141.024993 
L 521.277123 135.193955 
L 523.506893 135.173437 
L 525.736663 131.355231 
L 527.966434 143.875539 
L 530.196204 153.390899 
L 532.425974 151.106151 
L 534.655744 150.749885 
L 536.885514 146.707225 
L 539.115285 148.094778 
L 541.345055 154.120219 
L 543.574825 146.249405 
L 545.804595 148.379957 
L 548.034366 143.085079 
L 550.264136 141.741671 
L 552.493906 132.296777 
L 554.723676 128.859086 
L 556.953447 126.382009 
L 559.183217 119.159479 
L 561.412987 124.367725 
L 563.642757 120.108279 
L 565.872527 114.93423 
L 568.102298 100.881914 
L 570.332068 91.36386 
L 572.561838 88.341088 
L 574.791608 84.133455 
L 577.021379 68.612343 
L 579.251149 44.443636 
L 581.480919 81.742802 
L 583.710689 56.01245 
L 585.94046 66.042831 
L 588.17023 89.931748 
L 590.4 93.227264 
L 592.62977 88.529273 
L 594.85954 64.086786 
L 597.089311 81.169957 
L 599.319081 85.425465 
L 601.548851 79.687068 
L 603.778621 74.610013 
L 606.008392 57.282284 
L 608.238162 51.609793 
L 610.467932 61.700485 
L 612.697702 77.18284 
L 614.927473 67.833697 
L 617.157243 76.431966 
L 619.387013 101.346573 
L 621.616783 87.117886 
L 623.846553 117.70374 
L 626.076324 111.971975 
L 628.306094 91.987067 
L 630.535864 94.117826 
L 632.765634 89.368644 
L 634.995405 93.047162 
L 637.225175 98.514266 
L 639.454945 108.448275 
L 641.684715 109.943184 
L 643.914486 107.808487 
L 646.144256 108.35812 
L 648.374026 116.123028 
L 650.603796 114.962209 
L 652.833566 115.556401 
L 655.063337 113.736727 
L 657.293107 103.465934 
L 659.522877 96.782674 
L 661.752647 94.246323 
L 663.982418 88.339223 
L 666.212188 84.905884 
L 668.441958 68.164886 
L 670.671728 74.845036 
L 672.901499 64.582947 
L 675.131269 63.845337 
L 677.361039 66.7421 
L 679.590809 78.647077 
L 681.820579 72.748267 
L 684.05035 76.490826 
L 686.28012 87.43664 
L 688.50989 104.86986 
L 690.73966 98.958822 
L 692.969431 97.771889 
L 695.199201 100.775386 
L 697.428971 98.639032 
L 699.658741 86.21095 
L 701.888511 89.458591 
L 704.118282 102.539517 
L 706.348052 102.90055 
L 708.577822 96.810861 
L 710.807592 102.241074 
L 713.037363 102.422212 
L 715.267133 97.754479 
L 717.496903 101.657659 
L 719.726673 111.0696 
L 721.956444 115.90417 
L 724.186214 113.967606 
L 726.415984 113.492792 
L 728.645754 109.99251 
L 730.875524 97.208163 
L 733.105295 92.344992 
L 735.335065 93.114519 
L 737.564835 93.246331 
L 739.794605 98.641726 
L 742.024376 95.123828 
L 744.254146 96.800498 
L 746.483916 98.720689 
L 748.713686 103.127491 
L 750.943457 101.919418 
L 753.173227 96.513454 
L 755.402997 97.679454 
L 757.632767 97.732718 
L 759.862537 98.787631 
L 762.092308 99.716121 
L 764.322078 101.276108 
L 766.551848 101.955273 
L 768.781618 99.503687 
L 771.011389 101.633618 
L 773.241159 105.646433 
L 775.470929 104.536391 
L 777.700699 111.783376 
L 779.93047 135.1981 
L 782.16024 137.713726 
L 784.39001 145.518634 
L 786.61978 142.653166 
L 788.84955 142.008612 
L 791.079321 145.495836 
L 793.309091 140.293808 
L 795.538861 139.979199 
L 797.768631 138.754132 
L 799.998402 141.777111 
L 802.228172 143.449429 
L 804.457942 143.610878 
L 806.687712 149.371451 
L 808.917483 142.277625 
L 811.147253 142.733994 
L 813.377023 134.487018 
L 815.606793 134.508157 
L 817.836563 141.081573 
L 820.066334 140.288212 
L 822.296104 140.790798 
L 824.525874 139.344593 
L 826.755644 143.310984 
L 828.985415 146.619764 
L 831.215185 145.080503 
L 833.444955 147.622036 
L 835.674725 147.499964 
L 837.904496 141.883017 
L 840.134266 142.06001 
L 842.364036 146.117178 
L 844.593806 157.665267 
L 846.823576 158.446193 
L 849.053347 132.85242 
L 851.283117 120.562162 
L 853.512887 114.515788 
L 855.742657 121.412724 
L 857.972428 116.965301 
L 860.202198 122.534787 
L 862.431968 122.879655 
L 864.661738 120.7033 
L 866.891508 119.704552 
L 869.121279 121.673862 
L 871.351049 117.282397 
L 873.580819 119.517818 
L 875.810589 118.830777 
L 878.04036 121.713654 
L 880.27013 130.795443 
L 882.4999 129.89659 
L 884.72967 125.177252 
L 886.959441 131.79502 
L 889.189211 130.060112 
L 891.418981 130.870468 
L 893.648751 133.566818 
L 895.878521 137.186062 
L 900.338062 136.227728 
L 902.567832 143.024355 
L 904.797602 144.168179 
L 907.027373 144.976255 
L 909.257143 154.60809 
L 911.486913 161.462333 
L 913.716683 160.681407 
L 915.946454 169.316152 
L 918.176224 164.697539 
L 920.405994 164.005731 
L 922.635764 156.540509 
L 924.865534 158.464431 
L 927.095305 151.698271 
L 929.325075 155.838132 
L 931.554845 159.051162 
L 933.784615 160.980679 
L 936.014386 161.246376 
L 938.244156 163.40014 
L 940.473926 159.190435 
L 942.703696 156.056368 
L 944.933467 156.934288 
L 947.163237 156.570354 
L 949.393007 160.403896 
L 951.622777 162.8217 
L 956.082318 163.476616 
L 958.312088 162.176938 
L 960.541858 165.993072 
L 962.771628 165.093597 
L 965.001399 169.893557 
L 967.231169 175.435893 
L 969.460939 161.505027 
L 971.690709 164.270392 
L 973.92048 163.455684 
L 976.15025 164.429147 
L 978.38002 156.735741 
L 980.60979 160.721821 
L 982.83956 162.201394 
L 985.069331 163.402834 
L 987.299101 163.368016 
L 989.528871 162.341496 
L 991.758641 161.157258 
L 993.988412 159.410329 
L 996.218182 162.845741 
L 996.218182 162.845741 
" style="fill:none;stroke:#000000;stroke-linecap:square;stroke-width:2;"/>
   </g>
   <g id="line2d_19">
    <defs>
     <path d="M 0 2.5 
C 0.663008 2.5 1.29895 2.236584 1.767767 1.767767 
C 2.236584 1.29895 2.5 0.663008 2.5 0 
C 2.5 -0.663008 2.236584 -1.29895 1.767767 -1.767767 
C 1.29895 -2.236584 0.663008 -2.5 0 -2.5 
C -0.663008 -2.5 -1.29895 -2.236584 -1.767767 -1.767767 
C -2.236584 -1.29895 -2.5 -0.663008 -2.5 0 
C -2.5 0.663008 -2.236584 1.29895 -1.767767 1.767767 
C -1.29895 2.236584 -0.663008 2.5 0 2.5 
z
" id="me49c5334e1" style="stroke:#ff0000;"/>
    </defs>
    <g clip-path="url(#p23fde32a73)">
     <use style="fill:#ff0000;stroke:#ff0000;" x="389.720679" xlink:href="#me49c5334e1" y="211.27476"/>
     <use style="fill:#ff0000;stroke:#ff0000;" x="496.74965" xlink:href="#me49c5334e1" y="146.526086"/>
     <use style="fill:#ff0000;stroke:#ff0000;" x="498.979421" xlink:href="#me49c5334e1" y="147.656232"/>
     <use style="fill:#ff0000;stroke:#ff0000;" x="501.209191" xlink:href="#me49c5334e1" y="154.424465"/>
     <use style="fill:#ff0000;stroke:#ff0000;" x="503.438961" xlink:href="#me49c5334e1" y="149.1528"/>
     <use style="fill:#ff0000;stroke:#ff0000;" x="510.128272" xlink:href="#me49c5334e1" y="131.243522"/>
     <use style="fill:#ff0000;stroke:#ff0000;" x="512.358042" xlink:href="#me49c5334e1" y="130.712127"/>
     <use style="fill:#ff0000;stroke:#ff0000;" x="514.587812" xlink:href="#me49c5334e1" y="131.752119"/>
     <use style="fill:#ff0000;stroke:#ff0000;" x="516.817582" xlink:href="#me49c5334e1" y="132.931383"/>
     <use style="fill:#ff0000;stroke:#ff0000;" x="519.047353" xlink:href="#me49c5334e1" y="141.024993"/>
     <use style="fill:#ff0000;stroke:#ff0000;" x="521.277123" xlink:href="#me49c5334e1" y="135.193955"/>
     <use style="fill:#ff0000;stroke:#ff0000;" x="523.506893" xlink:href="#me49c5334e1" y="135.173437"/>
     <use style="fill:#ff0000;stroke:#ff0000;" x="525.736663" xlink:href="#me49c5334e1" y="131.355231"/>
     <use style="fill:#ff0000;stroke:#ff0000;" x="530.196204" xlink:href="#me49c5334e1" y="153.390899"/>
     <use style="fill:#ff0000;stroke:#ff0000;" x="532.425974" xlink:href="#me49c5334e1" y="151.106151"/>
     <use style="fill:#ff0000;stroke:#ff0000;" x="534.655744" xlink:href="#me49c5334e1" y="150.749885"/>
     <use style="fill:#ff0000;stroke:#ff0000;" x="536.885514" xlink:href="#me49c5334e1" y="146.707225"/>
     <use style="fill:#ff0000;stroke:#ff0000;" x="539.115285" xlink:href="#me49c5334e1" y="148.094778"/>
     <use style="fill:#ff0000;stroke:#ff0000;" x="541.345055" xlink:href="#me49c5334e1" y="154.120219"/>
     <use style="fill:#ff0000;stroke:#ff0000;" x="543.574825" xlink:href="#me49c5334e1" y="146.249405"/>
     <use style="fill:#ff0000;stroke:#ff0000;" x="545.804595" xlink:href="#me49c5334e1" y="148.379957"/>
     <use style="fill:#ff0000;stroke:#ff0000;" x="548.034366" xlink:href="#me49c5334e1" y="143.085079"/>
     <use style="fill:#ff0000;stroke:#ff0000;" x="550.264136" xlink:href="#me49c5334e1" y="141.741671"/>
     <use style="fill:#ff0000;stroke:#ff0000;" x="552.493906" xlink:href="#me49c5334e1" y="132.296777"/>
     <use style="fill:#ff0000;stroke:#ff0000;" x="554.723676" xlink:href="#me49c5334e1" y="128.859086"/>
     <use style="fill:#ff0000;stroke:#ff0000;" x="556.953447" xlink:href="#me49c5334e1" y="126.382009"/>
     <use style="fill:#ff0000;stroke:#ff0000;" x="559.183217" xlink:href="#me49c5334e1" y="119.159479"/>
     <use style="fill:#ff0000;stroke:#ff0000;" x="561.412987" xlink:href="#me49c5334e1" y="124.367725"/>
     <use style="fill:#ff0000;stroke:#ff0000;" x="563.642757" xlink:href="#me49c5334e1" y="120.108279"/>
     <use style="fill:#ff0000;stroke:#ff0000;" x="565.872527" xlink:href="#me49c5334e1" y="114.93423"/>
     <use style="fill:#ff0000;stroke:#ff0000;" x="568.102298" xlink:href="#me49c5334e1" y="100.881914"/>
     <use style="fill:#ff0000;stroke:#ff0000;" x="570.332068" xlink:href="#me49c5334e1" y="91.36386"/>
     <use style="fill:#ff0000;stroke:#ff0000;" x="572.561838" xlink:href="#me49c5334e1" y="88.341088"/>
     <use style="fill:#ff0000;stroke:#ff0000;" x="574.791608" xlink:href="#me49c5334e1" y="84.133455"/>
     <use style="fill:#ff0000;stroke:#ff0000;" x="577.021379" xlink:href="#me49c5334e1" y="68.612343"/>
     <use style="fill:#ff0000;stroke:#ff0000;" x="579.251149" xlink:href="#me49c5334e1" y="44.443636"/>
     <use style="fill:#ff0000;stroke:#ff0000;" x="581.480919" xlink:href="#me49c5334e1" y="81.742802"/>
     <use style="fill:#ff0000;stroke:#ff0000;" x="583.710689" xlink:href="#me49c5334e1" y="56.01245"/>
     <use style="fill:#ff0000;stroke:#ff0000;" x="585.94046" xlink:href="#me49c5334e1" y="66.042831"/>
     <use style="fill:#ff0000;stroke:#ff0000;" x="588.17023" xlink:href="#me49c5334e1" y="89.931748"/>
     <use style="fill:#ff0000;stroke:#ff0000;" x="590.4" xlink:href="#me49c5334e1" y="93.227264"/>
     <use style="fill:#ff0000;stroke:#ff0000;" x="592.62977" xlink:href="#me49c5334e1" y="88.529273"/>
     <use style="fill:#ff0000;stroke:#ff0000;" x="594.85954" xlink:href="#me49c5334e1" y="64.086786"/>
     <use style="fill:#ff0000;stroke:#ff0000;" x="597.089311" xlink:href="#me49c5334e1" y="81.169957"/>
     <use style="fill:#ff0000;stroke:#ff0000;" x="599.319081" xlink:href="#me49c5334e1" y="85.425465"/>
     <use style="fill:#ff0000;stroke:#ff0000;" x="601.548851" xlink:href="#me49c5334e1" y="79.687068"/>
     <use style="fill:#ff0000;stroke:#ff0000;" x="603.778621" xlink:href="#me49c5334e1" y="74.610013"/>
     <use style="fill:#ff0000;stroke:#ff0000;" x="606.008392" xlink:href="#me49c5334e1" y="57.282284"/>
     <use style="fill:#ff0000;stroke:#ff0000;" x="608.238162" xlink:href="#me49c5334e1" y="51.609793"/>
     <use style="fill:#ff0000;stroke:#ff0000;" x="610.467932" xlink:href="#me49c5334e1" y="61.700485"/>
     <use style="fill:#ff0000;stroke:#ff0000;" x="612.697702" xlink:href="#me49c5334e1" y="77.18284"/>
     <use style="fill:#ff0000;stroke:#ff0000;" x="614.927473" xlink:href="#me49c5334e1" y="67.833697"/>
     <use style="fill:#ff0000;stroke:#ff0000;" x="617.157243" xlink:href="#me49c5334e1" y="76.431966"/>
     <use style="fill:#ff0000;stroke:#ff0000;" x="619.387013" xlink:href="#me49c5334e1" y="101.346573"/>
     <use style="fill:#ff0000;stroke:#ff0000;" x="621.616783" xlink:href="#me49c5334e1" y="87.117886"/>
     <use style="fill:#ff0000;stroke:#ff0000;" x="623.846553" xlink:href="#me49c5334e1" y="117.70374"/>
     <use style="fill:#ff0000;stroke:#ff0000;" x="626.076324" xlink:href="#me49c5334e1" y="111.971975"/>
     <use style="fill:#ff0000;stroke:#ff0000;" x="628.306094" xlink:href="#me49c5334e1" y="91.987067"/>
     <use style="fill:#ff0000;stroke:#ff0000;" x="630.535864" xlink:href="#me49c5334e1" y="94.117826"/>
     <use style="fill:#ff0000;stroke:#ff0000;" x="632.765634" xlink:href="#me49c5334e1" y="89.368644"/>
     <use style="fill:#ff0000;stroke:#ff0000;" x="634.995405" xlink:href="#me49c5334e1" y="93.047162"/>
     <use style="fill:#ff0000;stroke:#ff0000;" x="637.225175" xlink:href="#me49c5334e1" y="98.514266"/>
     <use style="fill:#ff0000;stroke:#ff0000;" x="639.454945" xlink:href="#me49c5334e1" y="108.448275"/>
     <use style="fill:#ff0000;stroke:#ff0000;" x="641.684715" xlink:href="#me49c5334e1" y="109.943184"/>
     <use style="fill:#ff0000;stroke:#ff0000;" x="643.914486" xlink:href="#me49c5334e1" y="107.808487"/>
     <use style="fill:#ff0000;stroke:#ff0000;" x="646.144256" xlink:href="#me49c5334e1" y="108.35812"/>
     <use style="fill:#ff0000;stroke:#ff0000;" x="648.374026" xlink:href="#me49c5334e1" y="116.123028"/>
     <use style="fill:#ff0000;stroke:#ff0000;" x="650.603796" xlink:href="#me49c5334e1" y="114.962209"/>
     <use style="fill:#ff0000;stroke:#ff0000;" x="652.833566" xlink:href="#me49c5334e1" y="115.556401"/>
     <use style="fill:#ff0000;stroke:#ff0000;" x="655.063337" xlink:href="#me49c5334e1" y="113.736727"/>
     <use style="fill:#ff0000;stroke:#ff0000;" x="657.293107" xlink:href="#me49c5334e1" y="103.465934"/>
     <use style="fill:#ff0000;stroke:#ff0000;" x="659.522877" xlink:href="#me49c5334e1" y="96.782674"/>
     <use style="fill:#ff0000;stroke:#ff0000;" x="661.752647" xlink:href="#me49c5334e1" y="94.246323"/>
     <use style="fill:#ff0000;stroke:#ff0000;" x="663.982418" xlink:href="#me49c5334e1" y="88.339223"/>
     <use style="fill:#ff0000;stroke:#ff0000;" x="666.212188" xlink:href="#me49c5334e1" y="84.905884"/>
     <use style="fill:#ff0000;stroke:#ff0000;" x="668.441958" xlink:href="#me49c5334e1" y="68.164886"/>
     <use style="fill:#ff0000;stroke:#ff0000;" x="670.671728" xlink:href="#me49c5334e1" y="74.845036"/>
     <use style="fill:#ff0000;stroke:#ff0000;" x="672.901499" xlink:href="#me49c5334e1" y="64.582947"/>
     <use style="fill:#ff0000;stroke:#ff0000;" x="675.131269" xlink:href="#me49c5334e1" y="63.845337"/>
     <use style="fill:#ff0000;stroke:#ff0000;" x="677.361039" xlink:href="#me49c5334e1" y="66.7421"/>
     <use style="fill:#ff0000;stroke:#ff0000;" x="679.590809" xlink:href="#me49c5334e1" y="78.647077"/>
     <use style="fill:#ff0000;stroke:#ff0000;" x="681.820579" xlink:href="#me49c5334e1" y="72.748267"/>
     <use style="fill:#ff0000;stroke:#ff0000;" x="684.05035" xlink:href="#me49c5334e1" y="76.490826"/>
     <use style="fill:#ff0000;stroke:#ff0000;" x="690.73966" xlink:href="#me49c5334e1" y="98.958822"/>
     <use style="fill:#ff0000;stroke:#ff0000;" x="692.969431" xlink:href="#me49c5334e1" y="97.771889"/>
     <use style="fill:#ff0000;stroke:#ff0000;" x="695.199201" xlink:href="#me49c5334e1" y="100.775386"/>
     <use style="fill:#ff0000;stroke:#ff0000;" x="697.428971" xlink:href="#me49c5334e1" y="98.639032"/>
     <use style="fill:#ff0000;stroke:#ff0000;" x="699.658741" xlink:href="#me49c5334e1" y="86.21095"/>
     <use style="fill:#ff0000;stroke:#ff0000;" x="701.888511" xlink:href="#me49c5334e1" y="89.458591"/>
     <use style="fill:#ff0000;stroke:#ff0000;" x="706.348052" xlink:href="#me49c5334e1" y="102.90055"/>
     <use style="fill:#ff0000;stroke:#ff0000;" x="708.577822" xlink:href="#me49c5334e1" y="96.810861"/>
     <use style="fill:#ff0000;stroke:#ff0000;" x="710.807592" xlink:href="#me49c5334e1" y="102.241074"/>
     <use style="fill:#ff0000;stroke:#ff0000;" x="713.037363" xlink:href="#me49c5334e1" y="102.422212"/>
     <use style="fill:#ff0000;stroke:#ff0000;" x="715.267133" xlink:href="#me49c5334e1" y="97.754479"/>
     <use style="fill:#ff0000;stroke:#ff0000;" x="719.726673" xlink:href="#me49c5334e1" y="111.0696"/>
     <use style="fill:#ff0000;stroke:#ff0000;" x="724.186214" xlink:href="#me49c5334e1" y="113.967606"/>
     <use style="fill:#ff0000;stroke:#ff0000;" x="726.415984" xlink:href="#me49c5334e1" y="113.492792"/>
     <use style="fill:#ff0000;stroke:#ff0000;" x="728.645754" xlink:href="#me49c5334e1" y="109.99251"/>
     <use style="fill:#ff0000;stroke:#ff0000;" x="730.875524" xlink:href="#me49c5334e1" y="97.208163"/>
     <use style="fill:#ff0000;stroke:#ff0000;" x="733.105295" xlink:href="#me49c5334e1" y="92.344992"/>
     <use style="fill:#ff0000;stroke:#ff0000;" x="735.335065" xlink:href="#me49c5334e1" y="93.114519"/>
     <use style="fill:#ff0000;stroke:#ff0000;" x="737.564835" xlink:href="#me49c5334e1" y="93.246331"/>
     <use style="fill:#ff0000;stroke:#ff0000;" x="739.794605" xlink:href="#me49c5334e1" y="98.641726"/>
     <use style="fill:#ff0000;stroke:#ff0000;" x="742.024376" xlink:href="#me49c5334e1" y="95.123828"/>
     <use style="fill:#ff0000;stroke:#ff0000;" x="744.254146" xlink:href="#me49c5334e1" y="96.800498"/>
     <use style="fill:#ff0000;stroke:#ff0000;" x="746.483916" xlink:href="#me49c5334e1" y="98.720689"/>
     <use style="fill:#ff0000;stroke:#ff0000;" x="753.173227" xlink:href="#me49c5334e1" y="96.513454"/>
     <use style="fill:#ff0000;stroke:#ff0000;" x="755.402997" xlink:href="#me49c5334e1" y="97.679454"/>
     <use style="fill:#ff0000;stroke:#ff0000;" x="757.632767" xlink:href="#me49c5334e1" y="97.732718"/>
     <use style="fill:#ff0000;stroke:#ff0000;" x="759.862537" xlink:href="#me49c5334e1" y="98.787631"/>
     <use style="fill:#ff0000;stroke:#ff0000;" x="762.092308" xlink:href="#me49c5334e1" y="99.716121"/>
     <use style="fill:#ff0000;stroke:#ff0000;" x="764.322078" xlink:href="#me49c5334e1" y="101.276108"/>
     <use style="fill:#ff0000;stroke:#ff0000;" x="768.781618" xlink:href="#me49c5334e1" y="99.503687"/>
     <use style="fill:#ff0000;stroke:#ff0000;" x="771.011389" xlink:href="#me49c5334e1" y="101.633618"/>
     <use style="fill:#ff0000;stroke:#ff0000;" x="793.309091" xlink:href="#me49c5334e1" y="140.293808"/>
     <use style="fill:#ff0000;stroke:#ff0000;" x="804.457942" xlink:href="#me49c5334e1" y="143.610878"/>
     <use style="fill:#ff0000;stroke:#ff0000;" x="806.687712" xlink:href="#me49c5334e1" y="149.371451"/>
     <use style="fill:#ff0000;stroke:#ff0000;" x="904.797602" xlink:href="#me49c5334e1" y="144.168179"/>
     <use style="fill:#ff0000;stroke:#ff0000;" x="907.027373" xlink:href="#me49c5334e1" y="144.976255"/>
     <use style="fill:#ff0000;stroke:#ff0000;" x="909.257143" xlink:href="#me49c5334e1" y="154.60809"/>
     <use style="fill:#ff0000;stroke:#ff0000;" x="911.486913" xlink:href="#me49c5334e1" y="161.462333"/>
     <use style="fill:#ff0000;stroke:#ff0000;" x="913.716683" xlink:href="#me49c5334e1" y="160.681407"/>
     <use style="fill:#ff0000;stroke:#ff0000;" x="915.946454" xlink:href="#me49c5334e1" y="169.316152"/>
     <use style="fill:#ff0000;stroke:#ff0000;" x="213.568831" xlink:href="#me49c5334e1" y="239.272864"/>
     <use style="fill:#ff0000;stroke:#ff0000;" x="215.798601" xlink:href="#me49c5334e1" y="236.68584"/>
     <use style="fill:#ff0000;stroke:#ff0000;" x="222.487912" xlink:href="#me49c5334e1" y="237.191328"/>
     <use style="fill:#ff0000;stroke:#ff0000;" x="224.717682" xlink:href="#me49c5334e1" y="235.986606"/>
     <use style="fill:#ff0000;stroke:#ff0000;" x="226.947453" xlink:href="#me49c5334e1" y="235.707713"/>
     <use style="fill:#ff0000;stroke:#ff0000;" x="231.406993" xlink:href="#me49c5334e1" y="239.105819"/>
     <use style="fill:#ff0000;stroke:#ff0000;" x="233.636763" xlink:href="#me49c5334e1" y="238.124895"/>
     <use style="fill:#ff0000;stroke:#ff0000;" x="235.866533" xlink:href="#me49c5334e1" y="238.559088"/>
     <use style="fill:#ff0000;stroke:#ff0000;" x="240.326074" xlink:href="#me49c5334e1" y="238.323028"/>
     <use style="fill:#ff0000;stroke:#ff0000;" x="249.245155" xlink:href="#me49c5334e1" y="241.560099"/>
     <use style="fill:#ff0000;stroke:#ff0000;" x="481.141259" xlink:href="#me49c5334e1" y="150.337868"/>
     <use style="fill:#ff0000;stroke:#ff0000;" x="487.830569" xlink:href="#me49c5334e1" y="149.035288"/>
     <use style="fill:#ff0000;stroke:#ff0000;" x="853.512887" xlink:href="#me49c5334e1" y="114.515788"/>
     <use style="fill:#ff0000;stroke:#ff0000;" x="866.891508" xlink:href="#me49c5334e1" y="119.704552"/>
     <use style="fill:#ff0000;stroke:#ff0000;" x="869.121279" xlink:href="#me49c5334e1" y="121.673862"/>
     <use style="fill:#ff0000;stroke:#ff0000;" x="871.351049" xlink:href="#me49c5334e1" y="117.282397"/>
     <use style="fill:#ff0000;stroke:#ff0000;" x="873.580819" xlink:href="#me49c5334e1" y="119.517818"/>
     <use style="fill:#ff0000;stroke:#ff0000;" x="875.810589" xlink:href="#me49c5334e1" y="118.830777"/>
     <use style="fill:#ff0000;stroke:#ff0000;" x="878.04036" xlink:href="#me49c5334e1" y="121.713654"/>
     <use style="fill:#ff0000;stroke:#ff0000;" x="882.4999" xlink:href="#me49c5334e1" y="129.89659"/>
     <use style="fill:#ff0000;stroke:#ff0000;" x="884.72967" xlink:href="#me49c5334e1" y="125.177252"/>
     <use style="fill:#ff0000;stroke:#ff0000;" x="891.418981" xlink:href="#me49c5334e1" y="130.870468"/>
     <use style="fill:#ff0000;stroke:#ff0000;" x="893.648751" xlink:href="#me49c5334e1" y="133.566818"/>
     <use style="fill:#ff0000;stroke:#ff0000;" x="922.635764" xlink:href="#me49c5334e1" y="156.540509"/>
     <use style="fill:#ff0000;stroke:#ff0000;" x="924.865534" xlink:href="#me49c5334e1" y="158.464431"/>
     <use style="fill:#ff0000;stroke:#ff0000;" x="927.095305" xlink:href="#me49c5334e1" y="151.698271"/>
    </g>
   </g>
   <g id="patch_3">
    <path d="M 144 252 
L 144 34.56 
" style="fill:none;stroke:#000000;stroke-linecap:square;stroke-linejoin:miter;stroke-width:0.8;"/>
   </g>
   <g id="patch_4">
    <path d="M 1036.8 252 
L 1036.8 34.56 
" style="fill:none;stroke:#000000;stroke-linecap:square;stroke-linejoin:miter;stroke-width:0.8;"/>
   </g>
   <g id="patch_5">
    <path d="M 144 252 
L 1036.8 252 
" style="fill:none;stroke:#000000;stroke-linecap:square;stroke-linejoin:miter;stroke-width:0.8;"/>
   </g>
   <g id="patch_6">
    <path d="M 144 34.56 
L 1036.8 34.56 
" style="fill:none;stroke:#000000;stroke-linecap:square;stroke-linejoin:miter;stroke-width:0.8;"/>
   </g>
   <g id="legend_1">
    <g id="patch_7">
     <path d="M 852.0575 94.33 
L 1025.6 94.33 
Q 1028.8 94.33 1028.8 91.13 
L 1028.8 45.76 
Q 1028.8 42.56 1025.6 42.56 
L 852.0575 42.56 
Q 848.8575 42.56 848.8575 45.76 
L 848.8575 91.13 
Q 848.8575 94.33 852.0575 94.33 
z
" style="fill:#ffffff;opacity:0.8;stroke:#cccccc;stroke-linejoin:miter;"/>
    </g>
    <g id="line2d_20">
     <path d="M 855.2575 55.5175 
L 887.2575 55.5175 
" style="fill:none;stroke:#000000;stroke-linecap:square;stroke-width:2;"/>
    </g>
    <g id="line2d_21"/>
    <g id="text_15">
     <!-- value -->
     <g transform="translate(900.0575 61.1175)scale(0.16 -0.16)">
      <use xlink:href="#DejaVuSans-76"/>
      <use x="59.179688" xlink:href="#DejaVuSans-61"/>
      <use x="120.458984" xlink:href="#DejaVuSans-6c"/>
      <use x="148.242188" xlink:href="#DejaVuSans-75"/>
      <use x="211.621094" xlink:href="#DejaVuSans-65"/>
     </g>
    </g>
    <g id="line2d_22"/>
    <g id="line2d_23">
     <g>
      <use style="fill:#ff0000;stroke:#ff0000;" x="871.2575" xlink:href="#me49c5334e1" y="79.0025"/>
     </g>
    </g>
    <g id="text_16">
     <!-- Decision points -->
     <defs>
      <path d="M 9.421875 54.6875 
L 18.40625 54.6875 
L 18.40625 0 
L 9.421875 0 
z
M 9.421875 75.984375 
L 18.40625 75.984375 
L 18.40625 64.59375 
L 9.421875 64.59375 
z
" id="DejaVuSans-69"/>
      <path d="M 44.28125 53.078125 
L 44.28125 44.578125 
Q 40.484375 46.53125 36.375 47.5 
Q 32.28125 48.484375 27.875 48.484375 
Q 21.1875 48.484375 17.84375 46.4375 
Q 14.5 44.390625 14.5 40.28125 
Q 14.5 37.15625 16.890625 35.375 
Q 19.28125 33.59375 26.515625 31.984375 
L 29.59375 31.296875 
Q 39.15625 29.25 43.1875 25.515625 
Q 47.21875 21.78125 47.21875 15.09375 
Q 47.21875 7.46875 41.1875 3.015625 
Q 35.15625 -1.421875 24.609375 -1.421875 
Q 20.21875 -1.421875 15.453125 -0.5625 
Q 10.6875 0.296875 5.421875 2 
L 5.421875 11.28125 
Q 10.40625 8.6875 15.234375 7.390625 
Q 20.0625 6.109375 24.8125 6.109375 
Q 31.15625 6.109375 34.5625 8.28125 
Q 37.984375 10.453125 37.984375 14.40625 
Q 37.984375 18.0625 35.515625 20.015625 
Q 33.0625 21.96875 24.703125 23.78125 
L 21.578125 24.515625 
Q 13.234375 26.265625 9.515625 29.90625 
Q 5.8125 33.546875 5.8125 39.890625 
Q 5.8125 47.609375 11.28125 51.796875 
Q 16.75 56 26.8125 56 
Q 31.78125 56 36.171875 55.265625 
Q 40.578125 54.546875 44.28125 53.078125 
z
" id="DejaVuSans-73"/>
      <path d="M 30.609375 48.390625 
Q 23.390625 48.390625 19.1875 42.75 
Q 14.984375 37.109375 14.984375 27.296875 
Q 14.984375 17.484375 19.15625 11.84375 
Q 23.34375 6.203125 30.609375 6.203125 
Q 37.796875 6.203125 41.984375 11.859375 
Q 46.1875 17.53125 46.1875 27.296875 
Q 46.1875 37.015625 41.984375 42.703125 
Q 37.796875 48.390625 30.609375 48.390625 
z
M 30.609375 56 
Q 42.328125 56 49.015625 48.375 
Q 55.71875 40.765625 55.71875 27.296875 
Q 55.71875 13.875 49.015625 6.21875 
Q 42.328125 -1.421875 30.609375 -1.421875 
Q 18.84375 -1.421875 12.171875 6.21875 
Q 5.515625 13.875 5.515625 27.296875 
Q 5.515625 40.765625 12.171875 48.375 
Q 18.84375 56 30.609375 56 
z
" id="DejaVuSans-6f"/>
      <path d="M 54.890625 33.015625 
L 54.890625 0 
L 45.90625 0 
L 45.90625 32.71875 
Q 45.90625 40.484375 42.875 44.328125 
Q 39.84375 48.1875 33.796875 48.1875 
Q 26.515625 48.1875 22.3125 43.546875 
Q 18.109375 38.921875 18.109375 30.90625 
L 18.109375 0 
L 9.078125 0 
L 9.078125 54.6875 
L 18.109375 54.6875 
L 18.109375 46.1875 
Q 21.34375 51.125 25.703125 53.5625 
Q 30.078125 56 35.796875 56 
Q 45.21875 56 50.046875 50.171875 
Q 54.890625 44.34375 54.890625 33.015625 
z
" id="DejaVuSans-6e"/>
      <path id="DejaVuSans-20"/>
      <path d="M 18.109375 8.203125 
L 18.109375 -20.796875 
L 9.078125 -20.796875 
L 9.078125 54.6875 
L 18.109375 54.6875 
L 18.109375 46.390625 
Q 20.953125 51.265625 25.265625 53.625 
Q 29.59375 56 35.59375 56 
Q 45.5625 56 51.78125 48.09375 
Q 58.015625 40.1875 58.015625 27.296875 
Q 58.015625 14.40625 51.78125 6.484375 
Q 45.5625 -1.421875 35.59375 -1.421875 
Q 29.59375 -1.421875 25.265625 0.953125 
Q 20.953125 3.328125 18.109375 8.203125 
z
M 48.6875 27.296875 
Q 48.6875 37.203125 44.609375 42.84375 
Q 40.53125 48.484375 33.40625 48.484375 
Q 26.265625 48.484375 22.1875 42.84375 
Q 18.109375 37.203125 18.109375 27.296875 
Q 18.109375 17.390625 22.1875 11.75 
Q 26.265625 6.109375 33.40625 6.109375 
Q 40.53125 6.109375 44.609375 11.75 
Q 48.6875 17.390625 48.6875 27.296875 
z
" id="DejaVuSans-70"/>
      <path d="M 18.3125 70.21875 
L 18.3125 54.6875 
L 36.8125 54.6875 
L 36.8125 47.703125 
L 18.3125 47.703125 
L 18.3125 18.015625 
Q 18.3125 11.328125 20.140625 9.421875 
Q 21.96875 7.515625 27.59375 7.515625 
L 36.8125 7.515625 
L 36.8125 0 
L 27.59375 0 
Q 17.1875 0 13.234375 3.875 
Q 9.28125 7.765625 9.28125 18.015625 
L 9.28125 47.703125 
L 2.6875 47.703125 
L 2.6875 54.6875 
L 9.28125 54.6875 
L 9.28125 70.21875 
z
" id="DejaVuSans-74"/>
     </defs>
     <g transform="translate(900.0575 84.6025)scale(0.16 -0.16)">
      <use xlink:href="#DejaVuSans-44"/>
      <use x="77.001953" xlink:href="#DejaVuSans-65"/>
      <use x="138.525391" xlink:href="#DejaVuSans-63"/>
      <use x="193.505859" xlink:href="#DejaVuSans-69"/>
      <use x="221.289062" xlink:href="#DejaVuSans-73"/>
      <use x="273.388672" xlink:href="#DejaVuSans-69"/>
      <use x="301.171875" xlink:href="#DejaVuSans-6f"/>
      <use x="362.353516" xlink:href="#DejaVuSans-6e"/>
      <use x="425.732422" xlink:href="#DejaVuSans-20"/>
      <use x="457.519531" xlink:href="#DejaVuSans-70"/>
      <use x="520.996094" xlink:href="#DejaVuSans-6f"/>
      <use x="582.177734" xlink:href="#DejaVuSans-69"/>
      <use x="609.960938" xlink:href="#DejaVuSans-6e"/>
      <use x="673.339844" xlink:href="#DejaVuSans-74"/>
      <use x="712.548828" xlink:href="#DejaVuSans-73"/>
     </g>
    </g>
   </g>
  </g>
 </g>
 <defs>
  <clipPath id="p23fde32a73">
   <rect height="217.44" width="892.8" x="144" y="34.56"/>
  </clipPath>
 </defs>
</svg>
