<?xml version="1.0" encoding="utf-8" standalone="no"?>
<!DOCTYPE svg PUBLIC "-//W3C//DTD SVG 1.1//EN"
  "http://www.w3.org/Graphics/SVG/1.1/DTD/svg11.dtd">
<!-- Created with matplotlib (http://matplotlib.org/) -->
<svg height="360pt" version="1.1" viewBox="0 0 1296 360" width="1296pt" xmlns="http://www.w3.org/2000/svg" xmlns:xlink="http://www.w3.org/1999/xlink">
 <defs>
  <style type="text/css">
*{stroke-linecap:butt;stroke-linejoin:round;}
  </style>
 </defs>
 <g id="figure_1">
  <g id="patch_1">
   <path d="M 0 360 
L 1296 360 
L 1296 0 
L 0 0 
z
" style="fill:#ffffff;"/>
  </g>
  <g id="axes_1">
   <g id="patch_2">
    <path d="M 69.0975 313.036875 
L 1226.9025 313.036875 
L 1226.9025 14.3 
L 69.0975 14.3 
z
" style="fill:#ffffff;"/>
   </g>
   <g id="matplotlib.axis_1">
    <g id="xtick_1">
     <g id="line2d_1">
      <defs>
       <path d="M 0 0 
L 0 3.5 
" id="m5db2bbdab3" style="stroke:#000000;stroke-width:0.8;"/>
      </defs>
      <g>
       <use style="stroke:#000000;stroke-width:0.8;" x="153.460176" xlink:href="#m5db2bbdab3" y="313.036875"/>
      </g>
     </g>
     <g id="text_1">
      <!-- 2021-03 -->
      <defs>
       <path d="M 19.1875 8.296875 
L 53.609375 8.296875 
L 53.609375 0 
L 7.328125 0 
L 7.328125 8.296875 
Q 12.9375 14.109375 22.625 23.890625 
Q 32.328125 33.6875 34.8125 36.53125 
Q 39.546875 41.84375 41.421875 45.53125 
Q 43.3125 49.21875 43.3125 52.78125 
Q 43.3125 58.59375 39.234375 62.25 
Q 35.15625 65.921875 28.609375 65.921875 
Q 23.96875 65.921875 18.8125 64.3125 
Q 13.671875 62.703125 7.8125 59.421875 
L 7.8125 69.390625 
Q 13.765625 71.78125 18.9375 73 
Q 24.125 74.21875 28.421875 74.21875 
Q 39.75 74.21875 46.484375 68.546875 
Q 53.21875 62.890625 53.21875 53.421875 
Q 53.21875 48.921875 51.53125 44.890625 
Q 49.859375 40.875 45.40625 35.40625 
Q 44.1875 33.984375 37.640625 27.21875 
Q 31.109375 20.453125 19.1875 8.296875 
z
" id="DejaVuSans-32"/>
       <path d="M 31.78125 66.40625 
Q 24.171875 66.40625 20.328125 58.90625 
Q 16.5 51.421875 16.5 36.375 
Q 16.5 21.390625 20.328125 13.890625 
Q 24.171875 6.390625 31.78125 6.390625 
Q 39.453125 6.390625 43.28125 13.890625 
Q 47.125 21.390625 47.125 36.375 
Q 47.125 51.421875 43.28125 58.90625 
Q 39.453125 66.40625 31.78125 66.40625 
z
M 31.78125 74.21875 
Q 44.046875 74.21875 50.515625 64.515625 
Q 56.984375 54.828125 56.984375 36.375 
Q 56.984375 17.96875 50.515625 8.265625 
Q 44.046875 -1.421875 31.78125 -1.421875 
Q 19.53125 -1.421875 13.0625 8.265625 
Q 6.59375 17.96875 6.59375 36.375 
Q 6.59375 54.828125 13.0625 64.515625 
Q 19.53125 74.21875 31.78125 74.21875 
z
" id="DejaVuSans-30"/>
       <path d="M 12.40625 8.296875 
L 28.515625 8.296875 
L 28.515625 63.921875 
L 10.984375 60.40625 
L 10.984375 69.390625 
L 28.421875 72.90625 
L 38.28125 72.90625 
L 38.28125 8.296875 
L 54.390625 8.296875 
L 54.390625 0 
L 12.40625 0 
z
" id="DejaVuSans-31"/>
       <path d="M 4.890625 31.390625 
L 31.203125 31.390625 
L 31.203125 23.390625 
L 4.890625 23.390625 
z
" id="DejaVuSans-2d"/>
       <path d="M 40.578125 39.3125 
Q 47.65625 37.796875 51.625 33 
Q 55.609375 28.21875 55.609375 21.1875 
Q 55.609375 10.40625 48.1875 4.484375 
Q 40.765625 -1.421875 27.09375 -1.421875 
Q 22.515625 -1.421875 17.65625 -0.515625 
Q 12.796875 0.390625 7.625 2.203125 
L 7.625 11.71875 
Q 11.71875 9.328125 16.59375 8.109375 
Q 21.484375 6.890625 26.8125 6.890625 
Q 36.078125 6.890625 40.9375 10.546875 
Q 45.796875 14.203125 45.796875 21.1875 
Q 45.796875 27.640625 41.28125 31.265625 
Q 36.765625 34.90625 28.71875 34.90625 
L 20.21875 34.90625 
L 20.21875 43.015625 
L 29.109375 43.015625 
Q 36.375 43.015625 40.234375 45.921875 
Q 44.09375 48.828125 44.09375 54.296875 
Q 44.09375 59.90625 40.109375 62.90625 
Q 36.140625 65.921875 28.71875 65.921875 
Q 24.65625 65.921875 20.015625 65.03125 
Q 15.375 64.15625 9.8125 62.3125 
L 9.8125 71.09375 
Q 15.4375 72.65625 20.34375 73.4375 
Q 25.25 74.21875 29.59375 74.21875 
Q 40.828125 74.21875 47.359375 69.109375 
Q 53.90625 64.015625 53.90625 55.328125 
Q 53.90625 49.265625 50.4375 45.09375 
Q 46.96875 40.921875 40.578125 39.3125 
z
" id="DejaVuSans-33"/>
      </defs>
      <g transform="translate(132.56877 327.635312)scale(0.1 -0.1)">
       <use xlink:href="#DejaVuSans-32"/>
       <use x="63.623047" xlink:href="#DejaVuSans-30"/>
       <use x="127.246094" xlink:href="#DejaVuSans-32"/>
       <use x="190.869141" xlink:href="#DejaVuSans-31"/>
       <use x="254.492188" xlink:href="#DejaVuSans-2d"/>
       <use x="290.576172" xlink:href="#DejaVuSans-30"/>
       <use x="354.199219" xlink:href="#DejaVuSans-33"/>
      </g>
     </g>
    </g>
    <g id="xtick_2">
     <g id="line2d_2">
      <g>
       <use style="stroke:#000000;stroke-width:0.8;" x="317.425251" xlink:href="#m5db2bbdab3" y="313.036875"/>
      </g>
     </g>
     <g id="text_2">
      <!-- 2021-04 -->
      <defs>
       <path d="M 37.796875 64.3125 
L 12.890625 25.390625 
L 37.796875 25.390625 
z
M 35.203125 72.90625 
L 47.609375 72.90625 
L 47.609375 25.390625 
L 58.015625 25.390625 
L 58.015625 17.1875 
L 47.609375 17.1875 
L 47.609375 0 
L 37.796875 0 
L 37.796875 17.1875 
L 4.890625 17.1875 
L 4.890625 26.703125 
z
" id="DejaVuSans-34"/>
      </defs>
      <g transform="translate(296.533845 327.635312)scale(0.1 -0.1)">
       <use xlink:href="#DejaVuSans-32"/>
       <use x="63.623047" xlink:href="#DejaVuSans-30"/>
       <use x="127.246094" xlink:href="#DejaVuSans-32"/>
       <use x="190.869141" xlink:href="#DejaVuSans-31"/>
       <use x="254.492188" xlink:href="#DejaVuSans-2d"/>
       <use x="290.576172" xlink:href="#DejaVuSans-30"/>
       <use x="354.199219" xlink:href="#DejaVuSans-34"/>
      </g>
     </g>
    </g>
    <g id="xtick_3">
     <g id="line2d_3">
      <g>
       <use style="stroke:#000000;stroke-width:0.8;" x="476.101131" xlink:href="#m5db2bbdab3" y="313.036875"/>
      </g>
     </g>
     <g id="text_3">
      <!-- 2021-05 -->
      <defs>
       <path d="M 10.796875 72.90625 
L 49.515625 72.90625 
L 49.515625 64.59375 
L 19.828125 64.59375 
L 19.828125 46.734375 
Q 21.96875 47.46875 24.109375 47.828125 
Q 26.265625 48.1875 28.421875 48.1875 
Q 40.625 48.1875 47.75 41.5 
Q 54.890625 34.8125 54.890625 23.390625 
Q 54.890625 11.625 47.5625 5.09375 
Q 40.234375 -1.421875 26.90625 -1.421875 
Q 22.3125 -1.421875 17.546875 -0.640625 
Q 12.796875 0.140625 7.71875 1.703125 
L 7.71875 11.625 
Q 12.109375 9.234375 16.796875 8.0625 
Q 21.484375 6.890625 26.703125 6.890625 
Q 35.15625 6.890625 40.078125 11.328125 
Q 45.015625 15.765625 45.015625 23.390625 
Q 45.015625 31 40.078125 35.4375 
Q 35.15625 39.890625 26.703125 39.890625 
Q 22.75 39.890625 18.8125 39.015625 
Q 14.890625 38.140625 10.796875 36.28125 
z
" id="DejaVuSans-35"/>
      </defs>
      <g transform="translate(455.209724 327.635312)scale(0.1 -0.1)">
       <use xlink:href="#DejaVuSans-32"/>
       <use x="63.623047" xlink:href="#DejaVuSans-30"/>
       <use x="127.246094" xlink:href="#DejaVuSans-32"/>
       <use x="190.869141" xlink:href="#DejaVuSans-31"/>
       <use x="254.492188" xlink:href="#DejaVuSans-2d"/>
       <use x="290.576172" xlink:href="#DejaVuSans-30"/>
       <use x="354.199219" xlink:href="#DejaVuSans-35"/>
      </g>
     </g>
    </g>
    <g id="xtick_4">
     <g id="line2d_4">
      <g>
       <use style="stroke:#000000;stroke-width:0.8;" x="640.066206" xlink:href="#m5db2bbdab3" y="313.036875"/>
      </g>
     </g>
     <g id="text_4">
      <!-- 2021-06 -->
      <defs>
       <path d="M 33.015625 40.375 
Q 26.375 40.375 22.484375 35.828125 
Q 18.609375 31.296875 18.609375 23.390625 
Q 18.609375 15.53125 22.484375 10.953125 
Q 26.375 6.390625 33.015625 6.390625 
Q 39.65625 6.390625 43.53125 10.953125 
Q 47.40625 15.53125 47.40625 23.390625 
Q 47.40625 31.296875 43.53125 35.828125 
Q 39.65625 40.375 33.015625 40.375 
z
M 52.59375 71.296875 
L 52.59375 62.3125 
Q 48.875 64.0625 45.09375 64.984375 
Q 41.3125 65.921875 37.59375 65.921875 
Q 27.828125 65.921875 22.671875 59.328125 
Q 17.53125 52.734375 16.796875 39.40625 
Q 19.671875 43.65625 24.015625 45.921875 
Q 28.375 48.1875 33.59375 48.1875 
Q 44.578125 48.1875 50.953125 41.515625 
Q 57.328125 34.859375 57.328125 23.390625 
Q 57.328125 12.15625 50.6875 5.359375 
Q 44.046875 -1.421875 33.015625 -1.421875 
Q 20.359375 -1.421875 13.671875 8.265625 
Q 6.984375 17.96875 6.984375 36.375 
Q 6.984375 53.65625 15.1875 63.9375 
Q 23.390625 74.21875 37.203125 74.21875 
Q 40.921875 74.21875 44.703125 73.484375 
Q 48.484375 72.75 52.59375 71.296875 
z
" id="DejaVuSans-36"/>
      </defs>
      <g transform="translate(619.1748 327.635312)scale(0.1 -0.1)">
       <use xlink:href="#DejaVuSans-32"/>
       <use x="63.623047" xlink:href="#DejaVuSans-30"/>
       <use x="127.246094" xlink:href="#DejaVuSans-32"/>
       <use x="190.869141" xlink:href="#DejaVuSans-31"/>
       <use x="254.492188" xlink:href="#DejaVuSans-2d"/>
       <use x="290.576172" xlink:href="#DejaVuSans-30"/>
       <use x="354.199219" xlink:href="#DejaVuSans-36"/>
      </g>
     </g>
    </g>
    <g id="xtick_5">
     <g id="line2d_5">
      <g>
       <use style="stroke:#000000;stroke-width:0.8;" x="798.742085" xlink:href="#m5db2bbdab3" y="313.036875"/>
      </g>
     </g>
     <g id="text_5">
      <!-- 2021-07 -->
      <defs>
       <path d="M 8.203125 72.90625 
L 55.078125 72.90625 
L 55.078125 68.703125 
L 28.609375 0 
L 18.3125 0 
L 43.21875 64.59375 
L 8.203125 64.59375 
z
" id="DejaVuSans-37"/>
      </defs>
      <g transform="translate(777.850679 327.635312)scale(0.1 -0.1)">
       <use xlink:href="#DejaVuSans-32"/>
       <use x="63.623047" xlink:href="#DejaVuSans-30"/>
       <use x="127.246094" xlink:href="#DejaVuSans-32"/>
       <use x="190.869141" xlink:href="#DejaVuSans-31"/>
       <use x="254.492188" xlink:href="#DejaVuSans-2d"/>
       <use x="290.576172" xlink:href="#DejaVuSans-30"/>
       <use x="354.199219" xlink:href="#DejaVuSans-37"/>
      </g>
     </g>
    </g>
    <g id="xtick_6">
     <g id="line2d_6">
      <g>
       <use style="stroke:#000000;stroke-width:0.8;" x="962.707161" xlink:href="#m5db2bbdab3" y="313.036875"/>
      </g>
     </g>
     <g id="text_6">
      <!-- 2021-08 -->
      <defs>
       <path d="M 31.78125 34.625 
Q 24.75 34.625 20.71875 30.859375 
Q 16.703125 27.09375 16.703125 20.515625 
Q 16.703125 13.921875 20.71875 10.15625 
Q 24.75 6.390625 31.78125 6.390625 
Q 38.8125 6.390625 42.859375 10.171875 
Q 46.921875 13.96875 46.921875 20.515625 
Q 46.921875 27.09375 42.890625 30.859375 
Q 38.875 34.625 31.78125 34.625 
z
M 21.921875 38.8125 
Q 15.578125 40.375 12.03125 44.71875 
Q 8.5 49.078125 8.5 55.328125 
Q 8.5 64.0625 14.71875 69.140625 
Q 20.953125 74.21875 31.78125 74.21875 
Q 42.671875 74.21875 48.875 69.140625 
Q 55.078125 64.0625 55.078125 55.328125 
Q 55.078125 49.078125 51.53125 44.71875 
Q 48 40.375 41.703125 38.8125 
Q 48.828125 37.15625 52.796875 32.3125 
Q 56.78125 27.484375 56.78125 20.515625 
Q 56.78125 9.90625 50.3125 4.234375 
Q 43.84375 -1.421875 31.78125 -1.421875 
Q 19.734375 -1.421875 13.25 4.234375 
Q 6.78125 9.90625 6.78125 20.515625 
Q 6.78125 27.484375 10.78125 32.3125 
Q 14.796875 37.15625 21.921875 38.8125 
z
M 18.3125 54.390625 
Q 18.3125 48.734375 21.84375 45.5625 
Q 25.390625 42.390625 31.78125 42.390625 
Q 38.140625 42.390625 41.71875 45.5625 
Q 45.3125 48.734375 45.3125 54.390625 
Q 45.3125 60.0625 41.71875 63.234375 
Q 38.140625 66.40625 31.78125 66.40625 
Q 25.390625 66.40625 21.84375 63.234375 
Q 18.3125 60.0625 18.3125 54.390625 
z
" id="DejaVuSans-38"/>
      </defs>
      <g transform="translate(941.815755 327.635312)scale(0.1 -0.1)">
       <use xlink:href="#DejaVuSans-32"/>
       <use x="63.623047" xlink:href="#DejaVuSans-30"/>
       <use x="127.246094" xlink:href="#DejaVuSans-32"/>
       <use x="190.869141" xlink:href="#DejaVuSans-31"/>
       <use x="254.492188" xlink:href="#DejaVuSans-2d"/>
       <use x="290.576172" xlink:href="#DejaVuSans-30"/>
       <use x="354.199219" xlink:href="#DejaVuSans-38"/>
      </g>
     </g>
    </g>
    <g id="xtick_7">
     <g id="line2d_7">
      <g>
       <use style="stroke:#000000;stroke-width:0.8;" x="1126.672236" xlink:href="#m5db2bbdab3" y="313.036875"/>
      </g>
     </g>
     <g id="text_7">
      <!-- 2021-09 -->
      <defs>
       <path d="M 10.984375 1.515625 
L 10.984375 10.5 
Q 14.703125 8.734375 18.5 7.8125 
Q 22.3125 6.890625 25.984375 6.890625 
Q 35.75 6.890625 40.890625 13.453125 
Q 46.046875 20.015625 46.78125 33.40625 
Q 43.953125 29.203125 39.59375 26.953125 
Q 35.25 24.703125 29.984375 24.703125 
Q 19.046875 24.703125 12.671875 31.3125 
Q 6.296875 37.9375 6.296875 49.421875 
Q 6.296875 60.640625 12.9375 67.421875 
Q 19.578125 74.21875 30.609375 74.21875 
Q 43.265625 74.21875 49.921875 64.515625 
Q 56.59375 54.828125 56.59375 36.375 
Q 56.59375 19.140625 48.40625 8.859375 
Q 40.234375 -1.421875 26.421875 -1.421875 
Q 22.703125 -1.421875 18.890625 -0.6875 
Q 15.09375 0.046875 10.984375 1.515625 
z
M 30.609375 32.421875 
Q 37.25 32.421875 41.125 36.953125 
Q 45.015625 41.5 45.015625 49.421875 
Q 45.015625 57.28125 41.125 61.84375 
Q 37.25 66.40625 30.609375 66.40625 
Q 23.96875 66.40625 20.09375 61.84375 
Q 16.21875 57.28125 16.21875 49.421875 
Q 16.21875 41.5 20.09375 36.953125 
Q 23.96875 32.421875 30.609375 32.421875 
z
" id="DejaVuSans-39"/>
      </defs>
      <g transform="translate(1105.78083 327.635312)scale(0.1 -0.1)">
       <use xlink:href="#DejaVuSans-32"/>
       <use x="63.623047" xlink:href="#DejaVuSans-30"/>
       <use x="127.246094" xlink:href="#DejaVuSans-32"/>
       <use x="190.869141" xlink:href="#DejaVuSans-31"/>
       <use x="254.492188" xlink:href="#DejaVuSans-2d"/>
       <use x="290.576172" xlink:href="#DejaVuSans-30"/>
       <use x="354.199219" xlink:href="#DejaVuSans-39"/>
      </g>
     </g>
    </g>
    <g id="text_8">
     <!-- Decade -->
     <defs>
      <path d="M 19.671875 64.796875 
L 19.671875 8.109375 
L 31.59375 8.109375 
Q 46.6875 8.109375 53.6875 14.9375 
Q 60.6875 21.78125 60.6875 36.53125 
Q 60.6875 51.171875 53.6875 57.984375 
Q 46.6875 64.796875 31.59375 64.796875 
z
M 9.8125 72.90625 
L 30.078125 72.90625 
Q 51.265625 72.90625 61.171875 64.09375 
Q 71.09375 55.28125 71.09375 36.53125 
Q 71.09375 17.671875 61.125 8.828125 
Q 51.171875 0 30.078125 0 
L 9.8125 0 
z
" id="DejaVuSans-44"/>
      <path d="M 56.203125 29.59375 
L 56.203125 25.203125 
L 14.890625 25.203125 
Q 15.484375 15.921875 20.484375 11.0625 
Q 25.484375 6.203125 34.421875 6.203125 
Q 39.59375 6.203125 44.453125 7.46875 
Q 49.3125 8.734375 54.109375 11.28125 
L 54.109375 2.78125 
Q 49.265625 0.734375 44.1875 -0.34375 
Q 39.109375 -1.421875 33.890625 -1.421875 
Q 20.796875 -1.421875 13.15625 6.1875 
Q 5.515625 13.8125 5.515625 26.8125 
Q 5.515625 40.234375 12.765625 48.109375 
Q 20.015625 56 32.328125 56 
Q 43.359375 56 49.78125 48.890625 
Q 56.203125 41.796875 56.203125 29.59375 
z
M 47.21875 32.234375 
Q 47.125 39.59375 43.09375 43.984375 
Q 39.0625 48.390625 32.421875 48.390625 
Q 24.90625 48.390625 20.390625 44.140625 
Q 15.875 39.890625 15.1875 32.171875 
z
" id="DejaVuSans-65"/>
      <path d="M 48.78125 52.59375 
L 48.78125 44.1875 
Q 44.96875 46.296875 41.140625 47.34375 
Q 37.3125 48.390625 33.40625 48.390625 
Q 24.65625 48.390625 19.8125 42.84375 
Q 14.984375 37.3125 14.984375 27.296875 
Q 14.984375 17.28125 19.8125 11.734375 
Q 24.65625 6.203125 33.40625 6.203125 
Q 37.3125 6.203125 41.140625 7.25 
Q 44.96875 8.296875 48.78125 10.40625 
L 48.78125 2.09375 
Q 45.015625 0.34375 40.984375 -0.53125 
Q 36.96875 -1.421875 32.421875 -1.421875 
Q 20.0625 -1.421875 12.78125 6.34375 
Q 5.515625 14.109375 5.515625 27.296875 
Q 5.515625 40.671875 12.859375 48.328125 
Q 20.21875 56 33.015625 56 
Q 37.15625 56 41.109375 55.140625 
Q 45.0625 54.296875 48.78125 52.59375 
z
" id="DejaVuSans-63"/>
      <path d="M 34.28125 27.484375 
Q 23.390625 27.484375 19.1875 25 
Q 14.984375 22.515625 14.984375 16.5 
Q 14.984375 11.71875 18.140625 8.90625 
Q 21.296875 6.109375 26.703125 6.109375 
Q 34.1875 6.109375 38.703125 11.40625 
Q 43.21875 16.703125 43.21875 25.484375 
L 43.21875 27.484375 
z
M 52.203125 31.203125 
L 52.203125 0 
L 43.21875 0 
L 43.21875 8.296875 
Q 40.140625 3.328125 35.546875 0.953125 
Q 30.953125 -1.421875 24.3125 -1.421875 
Q 15.921875 -1.421875 10.953125 3.296875 
Q 6 8.015625 6 15.921875 
Q 6 25.140625 12.171875 29.828125 
Q 18.359375 34.515625 30.609375 34.515625 
L 43.21875 34.515625 
L 43.21875 35.40625 
Q 43.21875 41.609375 39.140625 45 
Q 35.0625 48.390625 27.6875 48.390625 
Q 23 48.390625 18.546875 47.265625 
Q 14.109375 46.140625 10.015625 43.890625 
L 10.015625 52.203125 
Q 14.9375 54.109375 19.578125 55.046875 
Q 24.21875 56 28.609375 56 
Q 40.484375 56 46.34375 49.84375 
Q 52.203125 43.703125 52.203125 31.203125 
z
" id="DejaVuSans-61"/>
      <path d="M 45.40625 46.390625 
L 45.40625 75.984375 
L 54.390625 75.984375 
L 54.390625 0 
L 45.40625 0 
L 45.40625 8.203125 
Q 42.578125 3.328125 38.25 0.953125 
Q 33.9375 -1.421875 27.875 -1.421875 
Q 17.96875 -1.421875 11.734375 6.484375 
Q 5.515625 14.40625 5.515625 27.296875 
Q 5.515625 40.1875 11.734375 48.09375 
Q 17.96875 56 27.875 56 
Q 33.9375 56 38.25 53.625 
Q 42.578125 51.265625 45.40625 46.390625 
z
M 14.796875 27.296875 
Q 14.796875 17.390625 18.875 11.75 
Q 22.953125 6.109375 30.078125 6.109375 
Q 37.203125 6.109375 41.296875 11.75 
Q 45.40625 17.390625 45.40625 27.296875 
Q 45.40625 37.203125 41.296875 42.84375 
Q 37.203125 48.484375 30.078125 48.484375 
Q 22.953125 48.484375 18.875 42.84375 
Q 14.796875 37.203125 14.796875 27.296875 
z
" id="DejaVuSans-64"/>
     </defs>
     <g transform="translate(617.615 345.8725)scale(0.16 -0.16)">
      <use xlink:href="#DejaVuSans-44"/>
      <use x="77.001953" xlink:href="#DejaVuSans-65"/>
      <use x="138.525391" xlink:href="#DejaVuSans-63"/>
      <use x="193.505859" xlink:href="#DejaVuSans-61"/>
      <use x="254.785156" xlink:href="#DejaVuSans-64"/>
      <use x="318.261719" xlink:href="#DejaVuSans-65"/>
     </g>
    </g>
   </g>
   <g id="matplotlib.axis_2">
    <g id="ytick_1">
     <g id="line2d_8">
      <path clip-path="url(#pc997dc4f30)" d="M 69.0975 297.770742 
L 1226.9025 297.770742 
" style="fill:none;stroke:#b0b0b0;stroke-linecap:square;stroke-width:0.8;"/>
     </g>
     <g id="line2d_9">
      <defs>
       <path d="M 0 0 
L -3.5 0 
" id="m833763d777" style="stroke:#000000;stroke-width:0.8;"/>
      </defs>
      <g>
       <use style="stroke:#000000;stroke-width:0.8;" x="69.0975" xlink:href="#m833763d777" y="297.770742"/>
      </g>
     </g>
     <g id="text_9">
      <!-- 30000 -->
      <g transform="translate(30.285 301.569961)scale(0.1 -0.1)">
       <use xlink:href="#DejaVuSans-33"/>
       <use x="63.623047" xlink:href="#DejaVuSans-30"/>
       <use x="127.246094" xlink:href="#DejaVuSans-30"/>
       <use x="190.869141" xlink:href="#DejaVuSans-30"/>
       <use x="254.492188" xlink:href="#DejaVuSans-30"/>
      </g>
     </g>
    </g>
    <g id="ytick_2">
     <g id="line2d_10">
      <path clip-path="url(#pc997dc4f30)" d="M 69.0975 257.553741 
L 1226.9025 257.553741 
" style="fill:none;stroke:#b0b0b0;stroke-linecap:square;stroke-width:0.8;"/>
     </g>
     <g id="line2d_11">
      <g>
       <use style="stroke:#000000;stroke-width:0.8;" x="69.0975" xlink:href="#m833763d777" y="257.553741"/>
      </g>
     </g>
     <g id="text_10">
      <!-- 35000 -->
      <g transform="translate(30.285 261.35296)scale(0.1 -0.1)">
       <use xlink:href="#DejaVuSans-33"/>
       <use x="63.623047" xlink:href="#DejaVuSans-35"/>
       <use x="127.246094" xlink:href="#DejaVuSans-30"/>
       <use x="190.869141" xlink:href="#DejaVuSans-30"/>
       <use x="254.492188" xlink:href="#DejaVuSans-30"/>
      </g>
     </g>
    </g>
    <g id="ytick_3">
     <g id="line2d_12">
      <path clip-path="url(#pc997dc4f30)" d="M 69.0975 217.336739 
L 1226.9025 217.336739 
" style="fill:none;stroke:#b0b0b0;stroke-linecap:square;stroke-width:0.8;"/>
     </g>
     <g id="line2d_13">
      <g>
       <use style="stroke:#000000;stroke-width:0.8;" x="69.0975" xlink:href="#m833763d777" y="217.336739"/>
      </g>
     </g>
     <g id="text_11">
      <!-- 40000 -->
      <g transform="translate(30.285 221.135958)scale(0.1 -0.1)">
       <use xlink:href="#DejaVuSans-34"/>
       <use x="63.623047" xlink:href="#DejaVuSans-30"/>
       <use x="127.246094" xlink:href="#DejaVuSans-30"/>
       <use x="190.869141" xlink:href="#DejaVuSans-30"/>
       <use x="254.492188" xlink:href="#DejaVuSans-30"/>
      </g>
     </g>
    </g>
    <g id="ytick_4">
     <g id="line2d_14">
      <path clip-path="url(#pc997dc4f30)" d="M 69.0975 177.119738 
L 1226.9025 177.119738 
" style="fill:none;stroke:#b0b0b0;stroke-linecap:square;stroke-width:0.8;"/>
     </g>
     <g id="line2d_15">
      <g>
       <use style="stroke:#000000;stroke-width:0.8;" x="69.0975" xlink:href="#m833763d777" y="177.119738"/>
      </g>
     </g>
     <g id="text_12">
      <!-- 45000 -->
      <g transform="translate(30.285 180.918956)scale(0.1 -0.1)">
       <use xlink:href="#DejaVuSans-34"/>
       <use x="63.623047" xlink:href="#DejaVuSans-35"/>
       <use x="127.246094" xlink:href="#DejaVuSans-30"/>
       <use x="190.869141" xlink:href="#DejaVuSans-30"/>
       <use x="254.492188" xlink:href="#DejaVuSans-30"/>
      </g>
     </g>
    </g>
    <g id="ytick_5">
     <g id="line2d_16">
      <path clip-path="url(#pc997dc4f30)" d="M 69.0975 136.902736 
L 1226.9025 136.902736 
" style="fill:none;stroke:#b0b0b0;stroke-linecap:square;stroke-width:0.8;"/>
     </g>
     <g id="line2d_17">
      <g>
       <use style="stroke:#000000;stroke-width:0.8;" x="69.0975" xlink:href="#m833763d777" y="136.902736"/>
      </g>
     </g>
     <g id="text_13">
      <!-- 50000 -->
      <g transform="translate(30.285 140.701955)scale(0.1 -0.1)">
       <use xlink:href="#DejaVuSans-35"/>
       <use x="63.623047" xlink:href="#DejaVuSans-30"/>
       <use x="127.246094" xlink:href="#DejaVuSans-30"/>
       <use x="190.869141" xlink:href="#DejaVuSans-30"/>
       <use x="254.492188" xlink:href="#DejaVuSans-30"/>
      </g>
     </g>
    </g>
    <g id="ytick_6">
     <g id="line2d_18">
      <path clip-path="url(#pc997dc4f30)" d="M 69.0975 96.685734 
L 1226.9025 96.685734 
" style="fill:none;stroke:#b0b0b0;stroke-linecap:square;stroke-width:0.8;"/>
     </g>
     <g id="line2d_19">
      <g>
       <use style="stroke:#000000;stroke-width:0.8;" x="69.0975" xlink:href="#m833763d777" y="96.685734"/>
      </g>
     </g>
     <g id="text_14">
      <!-- 55000 -->
      <g transform="translate(30.285 100.484953)scale(0.1 -0.1)">
       <use xlink:href="#DejaVuSans-35"/>
       <use x="63.623047" xlink:href="#DejaVuSans-35"/>
       <use x="127.246094" xlink:href="#DejaVuSans-30"/>
       <use x="190.869141" xlink:href="#DejaVuSans-30"/>
       <use x="254.492188" xlink:href="#DejaVuSans-30"/>
      </g>
     </g>
    </g>
    <g id="ytick_7">
     <g id="line2d_20">
      <path clip-path="url(#pc997dc4f30)" d="M 69.0975 56.468733 
L 1226.9025 56.468733 
" style="fill:none;stroke:#b0b0b0;stroke-linecap:square;stroke-width:0.8;"/>
     </g>
     <g id="line2d_21">
      <g>
       <use style="stroke:#000000;stroke-width:0.8;" x="69.0975" xlink:href="#m833763d777" y="56.468733"/>
      </g>
     </g>
     <g id="text_15">
      <!-- 60000 -->
      <g transform="translate(30.285 60.267951)scale(0.1 -0.1)">
       <use xlink:href="#DejaVuSans-36"/>
       <use x="63.623047" xlink:href="#DejaVuSans-30"/>
       <use x="127.246094" xlink:href="#DejaVuSans-30"/>
       <use x="190.869141" xlink:href="#DejaVuSans-30"/>
       <use x="254.492188" xlink:href="#DejaVuSans-30"/>
      </g>
     </g>
    </g>
    <g id="ytick_8">
     <g id="line2d_22">
      <path clip-path="url(#pc997dc4f30)" d="M 69.0975 16.251731 
L 1226.9025 16.251731 
" style="fill:none;stroke:#b0b0b0;stroke-linecap:square;stroke-width:0.8;"/>
     </g>
     <g id="line2d_23">
      <g>
       <use style="stroke:#000000;stroke-width:0.8;" x="69.0975" xlink:href="#m833763d777" y="16.251731"/>
      </g>
     </g>
     <g id="text_16">
      <!-- 65000 -->
      <g transform="translate(30.285 20.05095)scale(0.1 -0.1)">
       <use xlink:href="#DejaVuSans-36"/>
       <use x="63.623047" xlink:href="#DejaVuSans-35"/>
       <use x="127.246094" xlink:href="#DejaVuSans-30"/>
       <use x="190.869141" xlink:href="#DejaVuSans-30"/>
       <use x="254.492188" xlink:href="#DejaVuSans-30"/>
      </g>
     </g>
    </g>
    <g id="text_17">
     <!-- price -->
     <defs>
      <path d="M 18.109375 8.203125 
L 18.109375 -20.796875 
L 9.078125 -20.796875 
L 9.078125 54.6875 
L 18.109375 54.6875 
L 18.109375 46.390625 
Q 20.953125 51.265625 25.265625 53.625 
Q 29.59375 56 35.59375 56 
Q 45.5625 56 51.78125 48.09375 
Q 58.015625 40.1875 58.015625 27.296875 
Q 58.015625 14.40625 51.78125 6.484375 
Q 45.5625 -1.421875 35.59375 -1.421875 
Q 29.59375 -1.421875 25.265625 0.953125 
Q 20.953125 3.328125 18.109375 8.203125 
z
M 48.6875 27.296875 
Q 48.6875 37.203125 44.609375 42.84375 
Q 40.53125 48.484375 33.40625 48.484375 
Q 26.265625 48.484375 22.1875 42.84375 
Q 18.109375 37.203125 18.109375 27.296875 
Q 18.109375 17.390625 22.1875 11.75 
Q 26.265625 6.109375 33.40625 6.109375 
Q 40.53125 6.109375 44.609375 11.75 
Q 48.6875 17.390625 48.6875 27.296875 
z
" id="DejaVuSans-70"/>
      <path d="M 41.109375 46.296875 
Q 39.59375 47.171875 37.8125 47.578125 
Q 36.03125 48 33.890625 48 
Q 26.265625 48 22.1875 43.046875 
Q 18.109375 38.09375 18.109375 28.8125 
L 18.109375 0 
L 9.078125 0 
L 9.078125 54.6875 
L 18.109375 54.6875 
L 18.109375 46.1875 
Q 20.953125 51.171875 25.484375 53.578125 
Q 30.03125 56 36.53125 56 
Q 37.453125 56 38.578125 55.875 
Q 39.703125 55.765625 41.0625 55.515625 
z
" id="DejaVuSans-72"/>
      <path d="M 9.421875 54.6875 
L 18.40625 54.6875 
L 18.40625 0 
L 9.421875 0 
z
M 9.421875 75.984375 
L 18.40625 75.984375 
L 18.40625 64.59375 
L 9.421875 64.59375 
z
" id="DejaVuSans-69"/>
     </defs>
     <g transform="translate(22.9575 183.579688)rotate(-90)scale(0.16 -0.16)">
      <use xlink:href="#DejaVuSans-70"/>
      <use x="63.476562" xlink:href="#DejaVuSans-72"/>
      <use x="104.589844" xlink:href="#DejaVuSans-69"/>
      <use x="132.373047" xlink:href="#DejaVuSans-63"/>
      <use x="187.353516" xlink:href="#DejaVuSans-65"/>
     </g>
    </g>
   </g>
   <g id="line2d_24">
    <path clip-path="url(#pc997dc4f30)" d="M 121.725 103.736579 
L 127.014196 145.907886 
L 132.303392 131.876898 
L 137.592588 162.638239 
L 142.881784 166.339088 
L 148.17098 167.822612 
L 153.460176 176.203433 
L 158.749372 139.971856 
L 164.038568 150.125764 
L 169.327764 133.060404 
L 174.61696 149.378774 
L 179.906156 146.061112 
L 185.195352 145.898555 
L 190.484548 127.494371 
L 195.773744 118.408304 
L 201.06294 97.638716 
L 206.352136 88.664614 
L 211.641332 74.453776 
L 216.930528 78.561701 
L 222.219724 46.344263 
L 227.50892 63.43858 
L 232.798116 90.615219 
L 238.087312 81.625432 
L 243.376508 65.211909 
L 248.665704 75.242833 
L 253.954899 71.951474 
L 259.244095 71.86541 
L 264.533291 77.291729 
L 269.822487 103.080559 
L 275.111683 100.888733 
L 280.400879 116.728038 
L 285.690075 125.513925 
L 290.979271 96.086742 
L 296.268467 89.7368 
L 301.557663 90.382041 
L 306.846859 75.550333 
L 312.136055 66.682805 
L 322.714447 66.628191 
L 328.003643 64.260214 
L 333.292839 79.983694 
L 338.582035 70.894169 
L 343.871231 64.076985 
L 349.160427 72.390965 
L 354.449623 89.066463 
L 359.738819 72.164705 
L 365.028015 71.730441 
L 370.317211 58.286541 
L 375.606407 56.751297 
L 380.895603 57.797985 
L 386.184799 27.878949 
L 391.473995 32.586912 
L 396.763191 30.306528 
L 402.052387 44.757703 
L 407.341583 55.768233 
L 412.630779 86.61958 
L 417.919975 91.030098 
L 423.209171 84.557011 
L 428.498367 106.267033 
L 433.787563 122.973899 
L 439.076759 127.62765 
L 449.655151 144.338216 
L 454.944347 104.273556 
L 460.233543 96.110953 
L 465.522739 97.617964 
L 470.811935 108.073983 
L 476.101131 74.1914 
L 481.390327 73.701718 
L 486.679523 83.73216 
L 491.968719 78.883035 
L 497.257915 110.828284 
L 502.547111 76.792555 
L 507.836307 85.198472 
L 513.125503 77.54027 
L 518.414698 65.084743 
L 523.703894 70.29751 
L 528.99309 89.57939 
L 534.282286 82.609784 
L 539.571482 144.889109 
L 544.860678 139.297498 
L 550.149874 137.525939 
L 555.43907 163.151729 
L 560.728266 165.52405 
L 566.017462 188.410741 
L 571.306658 193.912829 
L 576.595854 241.754331 
L 581.88505 211.028139 
L 587.174246 239.211973 
L 592.463442 237.217612 
L 597.752638 259.528074 
L 603.041834 227.563199 
L 608.33103 230.121724 
L 613.620226 223.240273 
L 618.909422 229.841894 
L 624.198618 252.006851 
L 629.487814 260.387672 
L 634.77701 252.047309 
L 640.066206 238.969143 
L 645.355402 244.180462 
L 650.644598 236.759621 
L 655.933794 223.863235 
L 661.22299 242.387829 
L 666.512186 253.287682 
L 671.801382 250.988959 
L 677.090578 269.499236 
L 682.379774 270.019483 
L 687.66897 238.745375 
L 692.958166 243.843202 
L 698.247362 238.947908 
L 703.536558 253.573062 
L 708.825754 224.84268 
L 714.11495 213.107519 
L 719.404146 215.820076 
L 724.693342 230.81048 
L 729.982538 232.876267 
L 735.271734 251.683506 
L 740.56093 253.337632 
L 745.850126 252.789233 
L 751.139322 284.205146 
L 756.428518 278.083796 
L 761.717714 268.213981 
L 767.00691 260.454352 
L 772.296106 284.574901 
L 777.585302 280.389678 
L 782.874497 260.413572 
L 788.163693 261.923962 
L 793.452889 250.73535 
L 798.742085 257.172805 
L 804.031281 269.322201 
L 809.320477 266.748474 
L 814.609673 260.055399 
L 819.898869 255.065917 
L 825.188065 267.624319 
L 830.477261 263.899903 
L 835.766457 266.891807 
L 841.055653 274.626582 
L 846.344849 267.056857 
L 851.634045 269.493606 
L 856.923241 263.766142 
L 862.212437 272.367673 
L 867.501633 276.161665 
L 872.790829 275.131707 
L 878.080025 283.786567 
L 883.369221 286.33906 
L 888.658417 285.539465 
L 893.947613 283.425418 
L 899.236809 291.20781 
L 904.526005 299.457926 
L 909.815201 280.734338 
L 915.104397 279.287893 
L 920.393593 268.962259 
L 925.682789 263.350298 
L 930.971985 254.616291 
L 936.261181 238.908013 
L 941.550377 222.114921 
L 946.839573 217.316389 
L 952.128769 217.289042 
L 957.417965 199.527444 
L 962.707161 203.992255 
L 967.996357 217.333039 
L 973.285553 223.820202 
L 978.574749 232.313551 
L 983.863945 219.346463 
L 989.153141 210.24246 
L 994.442337 194.606492 
L 999.731533 180.062576 
L 1005.020729 186.641998 
L 1010.309925 166.394185 
L 1015.599121 172.226374 
L 1020.888317 172.20152 
L 1026.177513 181.802766 
L 1031.466709 154.324902 
L 1036.755905 160.130548 
L 1042.045101 160.579209 
L 1047.334296 169.216695 
L 1052.623492 179.94643 
L 1057.912688 178.906499 
L 1063.201884 163.167253 
L 1068.49108 142.309912 
L 1073.780276 145.492927 
L 1079.069472 142.246128 
L 1084.358668 140.735416 
L 1089.647864 155.043982 
L 1094.93706 145.170628 
L 1100.226256 161.332151 
L 1105.515452 144.488789 
L 1110.804648 145.769378 
L 1116.093844 146.500282 
L 1121.38304 160.431532 
L 1126.672236 159.779212 
L 1131.961432 146.050013 
L 1137.250628 142.299777 
L 1142.539824 136.618563 
L 1147.82902 137.32598 
L 1153.118216 122.673478 
L 1158.407412 115.367336 
L 1163.696608 162.567859 
L 1168.985804 168.445896 
L 1174.275 166.110816 
L 1174.275 166.110816 
" style="fill:none;stroke:#000000;stroke-linecap:square;stroke-width:2;"/>
   </g>
   <g id="patch_3">
    <path d="M 69.0975 313.036875 
L 69.0975 14.3 
" style="fill:none;stroke:#000000;stroke-linecap:square;stroke-linejoin:miter;stroke-width:0.8;"/>
   </g>
   <g id="patch_4">
    <path d="M 1226.9025 313.036875 
L 1226.9025 14.3 
" style="fill:none;stroke:#000000;stroke-linecap:square;stroke-linejoin:miter;stroke-width:0.8;"/>
   </g>
   <g id="patch_5">
    <path d="M 69.0975 313.036875 
L 1226.9025 313.036875 
" style="fill:none;stroke:#000000;stroke-linecap:square;stroke-linejoin:miter;stroke-width:0.8;"/>
   </g>
   <g id="patch_6">
    <path d="M 69.0975 14.3 
L 1226.9025 14.3 
" style="fill:none;stroke:#000000;stroke-linecap:square;stroke-linejoin:miter;stroke-width:0.8;"/>
   </g>
  </g>
  <g id="axes_2">
   <g id="matplotlib.axis_3">
    <g id="ytick_9">
     <g id="line2d_25">
      <defs>
       <path d="M 0 0 
L 3.5 0 
" id="m9537487c81" style="stroke:#000000;stroke-width:0.8;"/>
      </defs>
      <g>
       <use style="stroke:#000000;stroke-width:0.8;" x="1226.9025" xlink:href="#m9537487c81" y="278.817921"/>
      </g>
     </g>
     <g id="text_18">
      <!-- 30000 -->
      <g transform="translate(1233.9025 282.61714)scale(0.1 -0.1)">
       <use xlink:href="#DejaVuSans-33"/>
       <use x="63.623047" xlink:href="#DejaVuSans-30"/>
       <use x="127.246094" xlink:href="#DejaVuSans-30"/>
       <use x="190.869141" xlink:href="#DejaVuSans-30"/>
       <use x="254.492188" xlink:href="#DejaVuSans-30"/>
      </g>
     </g>
    </g>
    <g id="ytick_10">
     <g id="line2d_26">
      <g>
       <use style="stroke:#000000;stroke-width:0.8;" x="1226.9025" xlink:href="#m9537487c81" y="243.718648"/>
      </g>
     </g>
     <g id="text_19">
      <!-- 35000 -->
      <g transform="translate(1233.9025 247.517866)scale(0.1 -0.1)">
       <use xlink:href="#DejaVuSans-33"/>
       <use x="63.623047" xlink:href="#DejaVuSans-35"/>
       <use x="127.246094" xlink:href="#DejaVuSans-30"/>
       <use x="190.869141" xlink:href="#DejaVuSans-30"/>
       <use x="254.492188" xlink:href="#DejaVuSans-30"/>
      </g>
     </g>
    </g>
    <g id="ytick_11">
     <g id="line2d_27">
      <g>
       <use style="stroke:#000000;stroke-width:0.8;" x="1226.9025" xlink:href="#m9537487c81" y="208.619374"/>
      </g>
     </g>
     <g id="text_20">
      <!-- 40000 -->
      <g transform="translate(1233.9025 212.418593)scale(0.1 -0.1)">
       <use xlink:href="#DejaVuSans-34"/>
       <use x="63.623047" xlink:href="#DejaVuSans-30"/>
       <use x="127.246094" xlink:href="#DejaVuSans-30"/>
       <use x="190.869141" xlink:href="#DejaVuSans-30"/>
       <use x="254.492188" xlink:href="#DejaVuSans-30"/>
      </g>
     </g>
    </g>
    <g id="ytick_12">
     <g id="line2d_28">
      <g>
       <use style="stroke:#000000;stroke-width:0.8;" x="1226.9025" xlink:href="#m9537487c81" y="173.520101"/>
      </g>
     </g>
     <g id="text_21">
      <!-- 45000 -->
      <g transform="translate(1233.9025 177.31932)scale(0.1 -0.1)">
       <use xlink:href="#DejaVuSans-34"/>
       <use x="63.623047" xlink:href="#DejaVuSans-35"/>
       <use x="127.246094" xlink:href="#DejaVuSans-30"/>
       <use x="190.869141" xlink:href="#DejaVuSans-30"/>
       <use x="254.492188" xlink:href="#DejaVuSans-30"/>
      </g>
     </g>
    </g>
    <g id="ytick_13">
     <g id="line2d_29">
      <g>
       <use style="stroke:#000000;stroke-width:0.8;" x="1226.9025" xlink:href="#m9537487c81" y="138.420827"/>
      </g>
     </g>
     <g id="text_22">
      <!-- 50000 -->
      <g transform="translate(1233.9025 142.220046)scale(0.1 -0.1)">
       <use xlink:href="#DejaVuSans-35"/>
       <use x="63.623047" xlink:href="#DejaVuSans-30"/>
       <use x="127.246094" xlink:href="#DejaVuSans-30"/>
       <use x="190.869141" xlink:href="#DejaVuSans-30"/>
       <use x="254.492188" xlink:href="#DejaVuSans-30"/>
      </g>
     </g>
    </g>
    <g id="ytick_14">
     <g id="line2d_30">
      <g>
       <use style="stroke:#000000;stroke-width:0.8;" x="1226.9025" xlink:href="#m9537487c81" y="103.321554"/>
      </g>
     </g>
     <g id="text_23">
      <!-- 55000 -->
      <g transform="translate(1233.9025 107.120773)scale(0.1 -0.1)">
       <use xlink:href="#DejaVuSans-35"/>
       <use x="63.623047" xlink:href="#DejaVuSans-35"/>
       <use x="127.246094" xlink:href="#DejaVuSans-30"/>
       <use x="190.869141" xlink:href="#DejaVuSans-30"/>
       <use x="254.492188" xlink:href="#DejaVuSans-30"/>
      </g>
     </g>
    </g>
    <g id="ytick_15">
     <g id="line2d_31">
      <g>
       <use style="stroke:#000000;stroke-width:0.8;" x="1226.9025" xlink:href="#m9537487c81" y="68.22228"/>
      </g>
     </g>
     <g id="text_24">
      <!-- 60000 -->
      <g transform="translate(1233.9025 72.021499)scale(0.1 -0.1)">
       <use xlink:href="#DejaVuSans-36"/>
       <use x="63.623047" xlink:href="#DejaVuSans-30"/>
       <use x="127.246094" xlink:href="#DejaVuSans-30"/>
       <use x="190.869141" xlink:href="#DejaVuSans-30"/>
       <use x="254.492188" xlink:href="#DejaVuSans-30"/>
      </g>
     </g>
    </g>
    <g id="ytick_16">
     <g id="line2d_32">
      <g>
       <use style="stroke:#000000;stroke-width:0.8;" x="1226.9025" xlink:href="#m9537487c81" y="33.123007"/>
      </g>
     </g>
     <g id="text_25">
      <!-- 65000 -->
      <g transform="translate(1233.9025 36.922226)scale(0.1 -0.1)">
       <use xlink:href="#DejaVuSans-36"/>
       <use x="63.623047" xlink:href="#DejaVuSans-35"/>
       <use x="127.246094" xlink:href="#DejaVuSans-30"/>
       <use x="190.869141" xlink:href="#DejaVuSans-30"/>
       <use x="254.492188" xlink:href="#DejaVuSans-30"/>
      </g>
     </g>
    </g>
    <g id="text_26">
     <!-- Bolliger Bander -->
     <defs>
      <path d="M 19.671875 34.8125 
L 19.671875 8.109375 
L 35.5 8.109375 
Q 43.453125 8.109375 47.28125 11.40625 
Q 51.125 14.703125 51.125 21.484375 
Q 51.125 28.328125 47.28125 31.5625 
Q 43.453125 34.8125 35.5 34.8125 
z
M 19.671875 64.796875 
L 19.671875 42.828125 
L 34.28125 42.828125 
Q 41.5 42.828125 45.03125 45.53125 
Q 48.578125 48.25 48.578125 53.8125 
Q 48.578125 59.328125 45.03125 62.0625 
Q 41.5 64.796875 34.28125 64.796875 
z
M 9.8125 72.90625 
L 35.015625 72.90625 
Q 46.296875 72.90625 52.390625 68.21875 
Q 58.5 63.53125 58.5 54.890625 
Q 58.5 48.1875 55.375 44.234375 
Q 52.25 40.28125 46.1875 39.3125 
Q 53.46875 37.75 57.5 32.78125 
Q 61.53125 27.828125 61.53125 20.40625 
Q 61.53125 10.640625 54.890625 5.3125 
Q 48.25 0 35.984375 0 
L 9.8125 0 
z
" id="DejaVuSans-42"/>
      <path d="M 30.609375 48.390625 
Q 23.390625 48.390625 19.1875 42.75 
Q 14.984375 37.109375 14.984375 27.296875 
Q 14.984375 17.484375 19.15625 11.84375 
Q 23.34375 6.203125 30.609375 6.203125 
Q 37.796875 6.203125 41.984375 11.859375 
Q 46.1875 17.53125 46.1875 27.296875 
Q 46.1875 37.015625 41.984375 42.703125 
Q 37.796875 48.390625 30.609375 48.390625 
z
M 30.609375 56 
Q 42.328125 56 49.015625 48.375 
Q 55.71875 40.765625 55.71875 27.296875 
Q 55.71875 13.875 49.015625 6.21875 
Q 42.328125 -1.421875 30.609375 -1.421875 
Q 18.84375 -1.421875 12.171875 6.21875 
Q 5.515625 13.875 5.515625 27.296875 
Q 5.515625 40.765625 12.171875 48.375 
Q 18.84375 56 30.609375 56 
z
" id="DejaVuSans-6f"/>
      <path d="M 9.421875 75.984375 
L 18.40625 75.984375 
L 18.40625 0 
L 9.421875 0 
z
" id="DejaVuSans-6c"/>
      <path d="M 45.40625 27.984375 
Q 45.40625 37.75 41.375 43.109375 
Q 37.359375 48.484375 30.078125 48.484375 
Q 22.859375 48.484375 18.828125 43.109375 
Q 14.796875 37.75 14.796875 27.984375 
Q 14.796875 18.265625 18.828125 12.890625 
Q 22.859375 7.515625 30.078125 7.515625 
Q 37.359375 7.515625 41.375 12.890625 
Q 45.40625 18.265625 45.40625 27.984375 
z
M 54.390625 6.78125 
Q 54.390625 -7.171875 48.1875 -13.984375 
Q 42 -20.796875 29.203125 -20.796875 
Q 24.46875 -20.796875 20.265625 -20.09375 
Q 16.0625 -19.390625 12.109375 -17.921875 
L 12.109375 -9.1875 
Q 16.0625 -11.328125 19.921875 -12.34375 
Q 23.78125 -13.375 27.78125 -13.375 
Q 36.625 -13.375 41.015625 -8.765625 
Q 45.40625 -4.15625 45.40625 5.171875 
L 45.40625 9.625 
Q 42.625 4.78125 38.28125 2.390625 
Q 33.9375 0 27.875 0 
Q 17.828125 0 11.671875 7.65625 
Q 5.515625 15.328125 5.515625 27.984375 
Q 5.515625 40.671875 11.671875 48.328125 
Q 17.828125 56 27.875 56 
Q 33.9375 56 38.28125 53.609375 
Q 42.625 51.21875 45.40625 46.390625 
L 45.40625 54.6875 
L 54.390625 54.6875 
z
" id="DejaVuSans-67"/>
      <path id="DejaVuSans-20"/>
      <path d="M 54.890625 33.015625 
L 54.890625 0 
L 45.90625 0 
L 45.90625 32.71875 
Q 45.90625 40.484375 42.875 44.328125 
Q 39.84375 48.1875 33.796875 48.1875 
Q 26.515625 48.1875 22.3125 43.546875 
Q 18.109375 38.921875 18.109375 30.90625 
L 18.109375 0 
L 9.078125 0 
L 9.078125 54.6875 
L 18.109375 54.6875 
L 18.109375 46.1875 
Q 21.34375 51.125 25.703125 53.5625 
Q 30.078125 56 35.796875 56 
Q 45.21875 56 50.046875 50.171875 
Q 54.890625 44.34375 54.890625 33.015625 
z
" id="DejaVuSans-6e"/>
     </defs>
     <g transform="translate(1281.8725 225.303438)rotate(-90)scale(0.16 -0.16)">
      <use xlink:href="#DejaVuSans-42"/>
      <use x="68.603516" xlink:href="#DejaVuSans-6f"/>
      <use x="129.785156" xlink:href="#DejaVuSans-6c"/>
      <use x="157.568359" xlink:href="#DejaVuSans-6c"/>
      <use x="185.351562" xlink:href="#DejaVuSans-69"/>
      <use x="213.134766" xlink:href="#DejaVuSans-67"/>
      <use x="276.611328" xlink:href="#DejaVuSans-65"/>
      <use x="338.134766" xlink:href="#DejaVuSans-72"/>
      <use x="379.248047" xlink:href="#DejaVuSans-20"/>
      <use x="411.035156" xlink:href="#DejaVuSans-42"/>
      <use x="479.638672" xlink:href="#DejaVuSans-61"/>
      <use x="540.917969" xlink:href="#DejaVuSans-6e"/>
      <use x="604.296875" xlink:href="#DejaVuSans-64"/>
      <use x="667.773438" xlink:href="#DejaVuSans-65"/>
      <use x="729.296875" xlink:href="#DejaVuSans-72"/>
     </g>
    </g>
   </g>
   <g id="line2d_33">
    <path clip-path="url(#pc997dc4f30)" d="M 121.725 70.711937 
L 127.014196 72.335084 
L 132.303392 75.02169 
L 142.881784 83.740803 
L 148.17098 90.062821 
L 153.460176 89.580431 
L 158.749372 89.403346 
L 164.038568 90.362648 
L 169.327764 89.845956 
L 185.195352 90.032549 
L 190.484548 89.351216 
L 195.773744 88.023055 
L 201.06294 85.369324 
L 206.352136 81.163276 
L 211.641332 78.444424 
L 216.930528 76.711486 
L 222.219724 70.025044 
L 227.50892 64.037901 
L 232.798116 60.862274 
L 238.087312 56.961076 
L 243.376508 51.855296 
L 248.665704 49.476148 
L 253.954899 47.875061 
L 259.244095 48.705198 
L 264.533291 47.532675 
L 269.822487 49.427155 
L 275.111683 50.15564 
L 280.400879 52.849363 
L 285.690075 55.035635 
L 290.979271 58.715307 
L 296.268467 60.440075 
L 301.557663 61.605358 
L 306.846859 60.841419 
L 312.136055 59.258065 
L 317.425251 58.464655 
L 322.714447 57.40352 
L 328.003643 60.506544 
L 333.292839 62.197621 
L 338.582035 61.081654 
L 343.871231 59.482586 
L 349.160427 60.269677 
L 354.449623 60.906404 
L 365.028015 60.913922 
L 375.606407 56.480615 
L 380.895603 54.743674 
L 386.184799 49.600252 
L 391.473995 49.276503 
L 396.763191 45.192317 
L 402.052387 43.949531 
L 407.341583 44.444727 
L 412.630779 43.768023 
L 417.919975 42.798676 
L 423.209171 42.530414 
L 428.498367 40.435358 
L 439.076759 33.561869 
L 444.365955 30.383606 
L 449.655151 27.878949 
L 454.944347 28.533115 
L 460.233543 28.620581 
L 470.811935 30.405545 
L 476.101131 31.799784 
L 481.390327 33.373739 
L 486.679523 35.504327 
L 491.968719 42.449091 
L 497.257915 50.274382 
L 502.547111 58.44959 
L 507.836307 64.880192 
L 513.125503 68.579631 
L 518.414698 65.702779 
L 523.703894 63.489388 
L 528.99309 63.888772 
L 534.282286 62.725614 
L 539.571482 60.572526 
L 544.860678 59.568351 
L 550.149874 59.426494 
L 555.43907 56.739123 
L 560.728266 52.928461 
L 566.017462 47.654679 
L 571.306658 43.670882 
L 576.595854 33.85036 
L 581.88505 34.709299 
L 587.174246 34.502547 
L 592.463442 35.647808 
L 597.752638 37.256037 
L 603.041834 39.627573 
L 608.33103 47.38126 
L 613.620226 55.597496 
L 618.909422 66.38885 
L 624.198618 80.88427 
L 629.487814 96.878717 
L 634.77701 112.063787 
L 640.066206 133.327173 
L 645.355402 142.031886 
L 650.644598 153.701854 
L 655.933794 168.091917 
L 661.22299 178.350573 
L 666.512186 190.344877 
L 671.801382 198.115896 
L 677.090578 204.732565 
L 682.379774 203.638327 
L 687.66897 207.895367 
L 692.958166 208.173507 
L 703.536558 208.533495 
L 708.825754 208.102199 
L 714.11495 205.07936 
L 719.404146 203.759665 
L 724.693342 203.869637 
L 729.982538 203.058188 
L 735.271734 203.404076 
L 740.56093 203.375191 
L 745.850126 203.646684 
L 751.139322 200.920081 
L 756.428518 200.317385 
L 761.717714 202.497274 
L 767.00691 203.069415 
L 772.296106 201.840093 
L 777.585302 201.405767 
L 788.163693 201.609938 
L 793.452889 202.482127 
L 798.742085 203.167465 
L 804.031281 204.40664 
L 809.320477 204.673275 
L 814.609673 208.208822 
L 819.898869 214.698125 
L 825.188065 222.228422 
L 830.477261 226.891139 
L 835.766457 232.037785 
L 846.344849 234.781084 
L 851.634045 236.413467 
L 856.923241 236.994078 
L 862.212437 237.30307 
L 867.501633 237.138228 
L 872.790829 237.625279 
L 878.080025 237.732741 
L 883.369221 237.009829 
L 888.658417 236.923468 
L 893.947613 237.190599 
L 899.236809 238.885369 
L 904.526005 238.795295 
L 909.815201 239.216925 
L 915.104397 239.939861 
L 920.393593 241.113029 
L 925.682789 242.652872 
L 930.971985 240.4814 
L 936.261181 235.14146 
L 941.550377 225.902275 
L 946.839573 217.029755 
L 952.128769 209.908326 
L 957.417965 199.725293 
L 962.707161 192.207098 
L 967.996357 187.697348 
L 973.285553 184.572044 
L 978.574749 182.725029 
L 983.863945 180.036656 
L 989.153141 176.911307 
L 994.442337 172.186419 
L 999.731533 165.890203 
L 1005.020729 162.924756 
L 1010.309925 159.196694 
L 1015.599121 156.090744 
L 1020.888317 154.562349 
L 1026.177513 154.741518 
L 1031.466709 151.019709 
L 1036.755905 149.004684 
L 1042.045101 146.471841 
L 1047.334296 144.618218 
L 1052.623492 144.033747 
L 1057.912688 143.662904 
L 1063.201884 141.254244 
L 1068.49108 135.929781 
L 1073.780276 132.777127 
L 1079.069472 130.803821 
L 1084.358668 131.527046 
L 1089.647864 133.822834 
L 1094.93706 134.834561 
L 1100.226256 136.121556 
L 1105.515452 134.627498 
L 1110.804648 134.41983 
L 1116.093844 133.27693 
L 1126.672236 133.617002 
L 1131.961432 134.09888 
L 1137.250628 132.995478 
L 1142.539824 131.038661 
L 1147.82902 129.416874 
L 1153.118216 125.839503 
L 1158.407412 122.798481 
L 1163.696608 124.775126 
L 1168.985804 124.269553 
L 1174.275 124.098269 
L 1174.275 124.098269 
" style="fill:none;stroke:#ff0000;stroke-linecap:square;stroke-width:1.5;"/>
   </g>
   <g id="line2d_34">
    <path clip-path="url(#pc997dc4f30)" d="M 121.725 244.880727 
L 127.014196 235.392408 
L 132.303392 223.142829 
L 137.592588 212.807815 
L 142.881784 203.515662 
L 148.17098 192.119855 
L 153.460176 193.479993 
L 158.749372 191.53087 
L 164.038568 188.130153 
L 169.327764 186.916929 
L 174.61696 186.161214 
L 179.906156 184.85587 
L 185.195352 184.754303 
L 190.484548 183.176752 
L 195.773744 182.301219 
L 201.06294 183.015161 
L 206.352136 184.140138 
L 211.641332 185.562072 
L 216.930528 186.416068 
L 222.219724 190.455414 
L 227.50892 192.925561 
L 232.798116 191.275536 
L 238.087312 190.791052 
L 243.376508 187.393977 
L 248.665704 181.822725 
L 253.954899 175.056686 
L 259.244095 165.120478 
L 264.533291 160.82261 
L 269.822487 154.822274 
L 275.111683 151.286015 
L 280.400879 145.742709 
L 285.690075 141.763187 
L 290.979271 133.736203 
L 296.268467 128.716154 
L 301.557663 125.104886 
L 306.846859 123.941068 
L 312.136055 123.605966 
L 322.714447 123.737213 
L 328.003643 122.1978 
L 333.292839 121.950693 
L 338.582035 121.34551 
L 343.871231 121.413043 
L 349.160427 121.252502 
L 354.449623 121.822228 
L 365.028015 121.82154 
L 370.317211 122.361287 
L 375.606407 120.552801 
L 380.895603 118.52901 
L 386.184799 115.918153 
L 391.473995 108.131723 
L 396.763191 106.47496 
L 402.052387 103.792209 
L 407.341583 100.276102 
L 412.630779 101.918871 
L 417.919975 105.013122 
L 423.209171 106.844944 
L 428.498367 112.399469 
L 433.787563 120.991513 
L 439.076759 128.55529 
L 444.365955 137.416842 
L 449.655151 146.926275 
L 454.944347 149.054653 
L 460.233543 149.581992 
L 465.522739 150.939859 
L 470.811935 153.190327 
L 486.679523 153.222377 
L 491.968719 150.728981 
L 497.257915 149.732183 
L 502.547111 145.61403 
L 507.836307 142.712884 
L 513.125503 140.913594 
L 518.414698 141.910999 
L 523.703894 142.314959 
L 528.99309 142.353902 
L 534.282286 141.45238 
L 539.571482 145.518112 
L 544.860678 147.54077 
L 550.149874 147.814607 
L 555.43907 152.143922 
L 560.728266 161.300203 
L 566.017462 174.629423 
L 571.306658 187.017327 
L 576.595854 208.504763 
L 581.88505 219.588211 
L 587.174246 234.239824 
L 592.463442 246.489962 
L 597.752638 260.647477 
L 603.041834 268.463948 
L 608.33103 274.09202 
L 613.620226 277.923343 
L 618.909422 280.424069 
L 624.198618 282.242224 
L 629.487814 282.837841 
L 634.77701 281.832112 
L 640.066206 274.214945 
L 645.355402 274.175856 
L 650.644598 271.011867 
L 655.933794 264.156867 
L 661.22299 260.813519 
L 666.512186 256.478761 
L 671.801382 254.169239 
L 677.090578 254.149351 
L 682.379774 257.710422 
L 687.66897 255.872397 
L 692.958166 255.998446 
L 698.247362 256.005671 
L 703.536558 255.269747 
L 708.825754 255.46361 
L 714.11495 257.001539 
L 719.404146 257.673639 
L 724.693342 257.6482 
L 729.982538 256.790032 
L 735.271734 255.684491 
L 740.56093 255.825988 
L 745.850126 256.76064 
L 751.139322 262.980386 
L 756.428518 267.189637 
L 761.717714 268.880447 
L 767.00691 269.885056 
L 772.296106 273.844961 
L 777.585302 276.845227 
L 788.163693 275.141573 
L 793.452889 275.315805 
L 798.742085 275.793805 
L 804.031281 277.205537 
L 809.320477 278.088783 
L 814.609673 277.626416 
L 819.898869 274.79902 
L 825.188065 271.789924 
L 830.477261 270.015077 
L 835.766457 267.837128 
L 841.055653 268.423883 
L 851.634045 268.119007 
L 856.923241 265.754588 
L 862.212437 264.946723 
L 872.790829 266.599107 
L 878.080025 266.422843 
L 883.369221 267.664986 
L 888.658417 269.944203 
L 893.947613 271.553605 
L 899.236809 273.391058 
L 904.526005 277.171553 
L 909.815201 277.745914 
L 915.104397 278.117352 
L 920.393593 277.721528 
L 925.682789 276.904703 
L 930.971985 277.940902 
L 936.261181 281.099682 
L 941.550377 286.430977 
L 946.839573 290.301767 
L 952.128769 293.079723 
L 957.417965 297.15648 
L 962.707161 299.457926 
L 967.996357 299.164544 
L 973.285553 297.721762 
L 978.574749 295.831834 
L 983.863945 292.896215 
L 989.153141 289.380255 
L 994.442337 286.168994 
L 999.731533 283.444248 
L 1005.020729 277.283743 
L 1010.309925 269.398705 
L 1015.599121 263.034654 
L 1026.177513 247.431127 
L 1031.466709 241.637775 
L 1036.755905 235.406584 
L 1042.045101 231.103303 
L 1052.623492 225.663267 
L 1057.912688 222.684285 
L 1063.201884 221.91962 
L 1068.49108 221.860773 
L 1073.780276 218.743602 
L 1079.069472 213.597554 
L 1084.358668 204.881873 
L 1089.647864 196.974105 
L 1094.93706 190.283253 
L 1100.226256 186.092248 
L 1105.515452 184.481615 
L 1110.804648 181.122136 
L 1116.093844 180.528802 
L 1126.672236 178.075184 
L 1131.961432 174.472995 
L 1137.250628 174.526908 
L 1142.539824 174.431724 
L 1153.118216 173.539416 
L 1158.407412 170.944317 
L 1163.696608 167.541721 
L 1168.985804 168.507986 
L 1174.275 170.756487 
L 1174.275 170.756487 
" style="fill:none;stroke:#800080;stroke-linecap:square;stroke-width:1.5;"/>
   </g>
   <g id="line2d_35">
    <path clip-path="url(#pc997dc4f30)" d="M 121.725 157.796332 
L 127.014196 153.863746 
L 132.303392 149.08226 
L 137.592588 146.091166 
L 148.17098 141.091338 
L 153.460176 141.530212 
L 158.749372 140.467108 
L 164.038568 139.246401 
L 169.327764 138.381442 
L 174.61696 138.038344 
L 179.906156 137.450013 
L 185.195352 137.393426 
L 195.773744 135.162137 
L 201.06294 134.192242 
L 206.352136 132.651707 
L 211.641332 132.003248 
L 216.930528 131.563777 
L 222.219724 130.240229 
L 227.50892 128.481731 
L 232.798116 126.068905 
L 238.087312 123.876064 
L 243.376508 119.624636 
L 248.665704 115.649437 
L 253.954899 111.465873 
L 259.244095 106.912838 
L 264.533291 104.177643 
L 269.822487 102.124714 
L 280.400879 99.296036 
L 285.690075 98.399411 
L 290.979271 96.225755 
L 296.268467 94.578114 
L 301.557663 93.355122 
L 312.136055 91.432015 
L 317.425251 91.091114 
L 322.714447 90.570367 
L 333.292839 92.074157 
L 343.871231 90.447814 
L 349.160427 90.761089 
L 354.449623 91.364316 
L 365.028015 91.367731 
L 370.317211 90.538395 
L 375.606407 88.516708 
L 380.895603 86.636342 
L 386.184799 82.759203 
L 391.473995 78.704113 
L 396.763191 75.833639 
L 402.052387 73.87087 
L 407.341583 72.360415 
L 412.630779 72.843447 
L 417.919975 73.905899 
L 423.209171 74.687679 
L 428.498367 76.417413 
L 433.787563 78.979523 
L 439.076759 81.05858 
L 444.365955 83.900224 
L 449.655151 87.402612 
L 454.944347 88.793884 
L 460.233543 89.101287 
L 465.522739 90.212 
L 470.811935 91.797936 
L 481.390327 93.231653 
L 486.679523 94.363352 
L 491.968719 96.589036 
L 497.257915 100.003283 
L 502.547111 102.03181 
L 507.836307 103.796538 
L 513.125503 104.746612 
L 523.703894 102.902174 
L 528.99309 103.121337 
L 534.282286 102.088997 
L 539.571482 103.045319 
L 544.860678 103.55456 
L 550.149874 103.620551 
L 555.43907 104.441523 
L 560.728266 107.114332 
L 566.017462 111.142051 
L 571.306658 115.344105 
L 581.88505 127.148755 
L 587.174246 134.371185 
L 592.463442 141.068885 
L 597.752638 148.951757 
L 603.041834 154.04576 
L 608.33103 160.73664 
L 613.620226 166.760419 
L 618.909422 173.40646 
L 629.487814 189.858279 
L 634.77701 196.94795 
L 640.066206 203.771059 
L 650.644598 212.356861 
L 655.933794 216.124392 
L 661.22299 219.582046 
L 666.512186 223.411819 
L 671.801382 226.142567 
L 677.090578 229.440958 
L 687.66897 231.883882 
L 692.958166 232.085976 
L 698.247362 232.161482 
L 703.536558 231.901621 
L 708.825754 231.782905 
L 714.11495 231.04045 
L 719.404146 230.716652 
L 724.693342 230.758918 
L 729.982538 229.92411 
L 735.271734 229.544283 
L 740.56093 229.60059 
L 745.850126 230.203662 
L 756.428518 233.753511 
L 761.717714 235.688861 
L 767.00691 236.477236 
L 777.585302 239.125497 
L 788.163693 238.375756 
L 798.742085 239.480635 
L 804.031281 240.806089 
L 809.320477 241.381029 
L 814.609673 242.917619 
L 819.898869 244.748573 
L 825.188065 247.009173 
L 835.766457 249.937456 
L 841.055653 250.938631 
L 846.344849 251.537302 
L 851.634045 252.266237 
L 856.923241 251.374333 
L 862.212437 251.124896 
L 867.501633 251.471712 
L 872.790829 252.112193 
L 878.080025 252.077792 
L 883.369221 252.337408 
L 888.658417 253.433835 
L 893.947613 254.372102 
L 904.526005 257.983424 
L 920.393593 259.417279 
L 925.682789 259.778787 
L 930.971985 259.211151 
L 936.261181 258.120571 
L 941.550377 256.166626 
L 946.839573 253.665761 
L 952.128769 251.494025 
L 957.417965 248.440886 
L 962.707161 245.832512 
L 973.285553 241.146903 
L 978.574749 239.278432 
L 983.863945 236.466436 
L 989.153141 233.145781 
L 994.442337 229.177707 
L 1005.020729 220.10425 
L 1010.309925 214.2977 
L 1020.888317 204.889732 
L 1026.177513 201.086323 
L 1031.466709 196.328742 
L 1036.755905 192.205634 
L 1042.045101 188.787572 
L 1047.334296 186.479233 
L 1063.201884 181.586932 
L 1068.49108 178.895277 
L 1073.780276 175.760365 
L 1079.069472 172.200687 
L 1084.358668 168.20446 
L 1094.93706 162.558907 
L 1105.515452 159.554556 
L 1110.804648 157.770983 
L 1116.093844 156.902866 
L 1126.672236 155.846093 
L 1131.961432 154.285938 
L 1137.250628 153.761193 
L 1147.82902 151.720483 
L 1153.118216 149.68946 
L 1158.407412 146.871399 
L 1163.696608 146.158424 
L 1168.985804 146.38877 
L 1174.275 147.427378 
L 1174.275 147.427378 
" style="fill:none;stroke:#0000ff;stroke-dasharray:9.6,2.4,1.5,2.4;stroke-dashoffset:0;stroke-width:1.5;"/>
   </g>
   <g id="patch_7">
    <path d="M 69.0975 313.036875 
L 69.0975 14.3 
" style="fill:none;stroke:#000000;stroke-linecap:square;stroke-linejoin:miter;stroke-width:0.8;"/>
   </g>
   <g id="patch_8">
    <path d="M 1226.9025 313.036875 
L 1226.9025 14.3 
" style="fill:none;stroke:#000000;stroke-linecap:square;stroke-linejoin:miter;stroke-width:0.8;"/>
   </g>
   <g id="patch_9">
    <path d="M 69.0975 313.036875 
L 1226.9025 313.036875 
" style="fill:none;stroke:#000000;stroke-linecap:square;stroke-linejoin:miter;stroke-width:0.8;"/>
   </g>
   <g id="patch_10">
    <path d="M 69.0975 14.3 
L 1226.9025 14.3 
" style="fill:none;stroke:#000000;stroke-linecap:square;stroke-linejoin:miter;stroke-width:0.8;"/>
   </g>
   <g id="legend_1">
    <g id="patch_11">
     <path d="M 1109.8675 97.555 
L 1215.7025 97.555 
Q 1218.9025 97.555 1218.9025 94.355 
L 1218.9025 25.5 
Q 1218.9025 22.3 1215.7025 22.3 
L 1109.8675 22.3 
Q 1106.6675 22.3 1106.6675 25.5 
L 1106.6675 94.355 
Q 1106.6675 97.555 1109.8675 97.555 
z
" style="fill:#ffffff;opacity:0.8;stroke:#cccccc;stroke-linejoin:miter;"/>
    </g>
    <g id="line2d_36">
     <path d="M 1113.0675 35.2575 
L 1145.0675 35.2575 
" style="fill:none;stroke:#ff0000;stroke-linecap:square;stroke-width:1.5;"/>
    </g>
    <g id="line2d_37"/>
    <g id="text_27">
     <!-- upper -->
     <defs>
      <path d="M 8.5 21.578125 
L 8.5 54.6875 
L 17.484375 54.6875 
L 17.484375 21.921875 
Q 17.484375 14.15625 20.5 10.265625 
Q 23.53125 6.390625 29.59375 6.390625 
Q 36.859375 6.390625 41.078125 11.03125 
Q 45.3125 15.671875 45.3125 23.6875 
L 45.3125 54.6875 
L 54.296875 54.6875 
L 54.296875 0 
L 45.3125 0 
L 45.3125 8.40625 
Q 42.046875 3.421875 37.71875 1 
Q 33.40625 -1.421875 27.6875 -1.421875 
Q 18.265625 -1.421875 13.375 4.4375 
Q 8.5 10.296875 8.5 21.578125 
z
M 31.109375 56 
z
" id="DejaVuSans-75"/>
     </defs>
     <g transform="translate(1157.8675 40.8575)scale(0.16 -0.16)">
      <use xlink:href="#DejaVuSans-75"/>
      <use x="63.378906" xlink:href="#DejaVuSans-70"/>
      <use x="126.855469" xlink:href="#DejaVuSans-70"/>
      <use x="190.332031" xlink:href="#DejaVuSans-65"/>
      <use x="251.855469" xlink:href="#DejaVuSans-72"/>
     </g>
    </g>
    <g id="line2d_38">
     <path d="M 1113.0675 58.7425 
L 1145.0675 58.7425 
" style="fill:none;stroke:#800080;stroke-linecap:square;stroke-width:1.5;"/>
    </g>
    <g id="line2d_39"/>
    <g id="text_28">
     <!-- lower -->
     <defs>
      <path d="M 4.203125 54.6875 
L 13.1875 54.6875 
L 24.421875 12.015625 
L 35.59375 54.6875 
L 46.1875 54.6875 
L 57.421875 12.015625 
L 68.609375 54.6875 
L 77.59375 54.6875 
L 63.28125 0 
L 52.6875 0 
L 40.921875 44.828125 
L 29.109375 0 
L 18.5 0 
z
" id="DejaVuSans-77"/>
     </defs>
     <g transform="translate(1157.8675 64.3425)scale(0.16 -0.16)">
      <use xlink:href="#DejaVuSans-6c"/>
      <use x="27.783203" xlink:href="#DejaVuSans-6f"/>
      <use x="88.964844" xlink:href="#DejaVuSans-77"/>
      <use x="170.751953" xlink:href="#DejaVuSans-65"/>
      <use x="232.275391" xlink:href="#DejaVuSans-72"/>
     </g>
    </g>
    <g id="line2d_40">
     <path d="M 1113.0675 82.2275 
L 1145.0675 82.2275 
" style="fill:none;stroke:#0000ff;stroke-dasharray:9.6,2.4,1.5,2.4;stroke-dashoffset:0;stroke-width:1.5;"/>
    </g>
    <g id="line2d_41"/>
    <g id="text_29">
     <!-- middle -->
     <defs>
      <path d="M 52 44.1875 
Q 55.375 50.25 60.0625 53.125 
Q 64.75 56 71.09375 56 
Q 79.640625 56 84.28125 50.015625 
Q 88.921875 44.046875 88.921875 33.015625 
L 88.921875 0 
L 79.890625 0 
L 79.890625 32.71875 
Q 79.890625 40.578125 77.09375 44.375 
Q 74.3125 48.1875 68.609375 48.1875 
Q 61.625 48.1875 57.5625 43.546875 
Q 53.515625 38.921875 53.515625 30.90625 
L 53.515625 0 
L 44.484375 0 
L 44.484375 32.71875 
Q 44.484375 40.625 41.703125 44.40625 
Q 38.921875 48.1875 33.109375 48.1875 
Q 26.21875 48.1875 22.15625 43.53125 
Q 18.109375 38.875 18.109375 30.90625 
L 18.109375 0 
L 9.078125 0 
L 9.078125 54.6875 
L 18.109375 54.6875 
L 18.109375 46.1875 
Q 21.1875 51.21875 25.484375 53.609375 
Q 29.78125 56 35.6875 56 
Q 41.65625 56 45.828125 52.96875 
Q 50 49.953125 52 44.1875 
z
" id="DejaVuSans-6d"/>
     </defs>
     <g transform="translate(1157.8675 87.8275)scale(0.16 -0.16)">
      <use xlink:href="#DejaVuSans-6d"/>
      <use x="97.412109" xlink:href="#DejaVuSans-69"/>
      <use x="125.195312" xlink:href="#DejaVuSans-64"/>
      <use x="188.671875" xlink:href="#DejaVuSans-64"/>
      <use x="252.148438" xlink:href="#DejaVuSans-6c"/>
      <use x="279.931641" xlink:href="#DejaVuSans-65"/>
     </g>
    </g>
   </g>
  </g>
 </g>
 <defs>
  <clipPath id="pc997dc4f30">
   <rect height="298.736875" width="1157.805" x="69.0975" y="14.3"/>
  </clipPath>
 </defs>
</svg>
