<?xml version="1.0" encoding="utf-8" standalone="no"?>
<!DOCTYPE svg PUBLIC "-//W3C//DTD SVG 1.1//EN"
  "http://www.w3.org/Graphics/SVG/1.1/DTD/svg11.dtd">
<!-- Created with matplotlib (http://matplotlib.org/) -->
<svg height="208.8pt" version="1.1" viewBox="0 0 496.8 208.8" width="496.8pt" xmlns="http://www.w3.org/2000/svg" xmlns:xlink="http://www.w3.org/1999/xlink">
 <defs>
  <style type="text/css">
*{stroke-linecap:butt;stroke-linejoin:round;}
  </style>
 </defs>
 <g id="figure_1">
  <g id="patch_1">
   <path d="M 0 208.8 
L 496.8 208.8 
L 496.8 0 
L 0 0 
z
" style="fill:#ffffff;"/>
  </g>
  <g id="axes_1">
   <g id="patch_2">
    <path d="M 46.364063 174.35 
L 460.396875 174.35 
L 460.396875 10.7 
L 46.364063 10.7 
z
" style="fill:#ffffff;"/>
   </g>
   <g id="matplotlib.axis_1">
    <g id="xtick_1">
     <g id="line2d_1">
      <defs>
       <path d="M 0 0 
L 0 3.5 
" id="m2f2e8eaee3" style="stroke:#000000;stroke-width:0.8;"/>
      </defs>
      <g>
       <use style="stroke:#000000;stroke-width:0.8;" x="65.183736" xlink:href="#m2f2e8eaee3" y="174.35"/>
      </g>
     </g>
     <g id="text_1">
      <!-- 2021-02-01 -->
      <defs>
       <path d="M 4.6875 3.90625 
Q 5.078125 9.765625 10.15625 14.453125 
Q 15.234375 19.140625 23.046875 29.09375 
Q 30.859375 39.0625 33.203125 44.53125 
Q 35.546875 50 34.953125 53.90625 
Q 34.375 57.8125 31.25 60.34375 
Q 28.125 62.890625 24.015625 62.5 
Q 19.921875 62.109375 16.203125 59.375 
Q 12.5 56.640625 10.546875 51.171875 
L 3.125 52.34375 
Q 6.25 61.328125 11.125 65.421875 
Q 16.015625 69.53125 22.65625 69.921875 
Q 26.5625 70.3125 29.6875 69.71875 
Q 32.8125 69.140625 36.125 66.984375 
Q 39.453125 64.84375 41.59375 60.546875 
Q 43.75 56.25 43.15625 50.1875 
Q 42.578125 44.140625 37.109375 35.734375 
Q 31.640625 27.34375 16.015625 9.375 
L 44.140625 9.375 
L 44.140625 2.34375 
L 4.6875 2.34375 
z
" id="SimHei-32"/>
       <path d="M 3.125 29.296875 
Q 3.90625 50 6.4375 56.046875 
Q 8.984375 62.109375 13.671875 66.015625 
Q 18.359375 69.921875 25.1875 69.921875 
Q 32.03125 69.921875 37.109375 64.25 
Q 42.1875 58.59375 43.75 50 
Q 45.3125 41.40625 44.71875 30.265625 
Q 44.140625 19.140625 40.8125 12.109375 
Q 37.5 5.078125 30.859375 2.34375 
Q 24.21875 -0.390625 17.578125 2.921875 
Q 10.9375 6.25 8.203125 11.71875 
Q 5.46875 17.1875 4.296875 23.234375 
Q 3.125 29.296875 3.90625 50 
z
M 12.890625 52.734375 
Q 10.546875 31.25 12.5 22.84375 
Q 14.453125 14.453125 18.9375 10.9375 
Q 23.4375 7.421875 28.125 9.5625 
Q 32.8125 11.71875 34.953125 18.15625 
Q 37.109375 24.609375 37.109375 32.21875 
Q 37.109375 39.84375 36.515625 46.09375 
Q 35.9375 52.34375 33 57.421875 
Q 30.078125 62.5 25.1875 62.6875 
Q 20.3125 62.890625 16.59375 57.8125 
Q 12.890625 52.734375 10.546875 31.25 
z
" id="SimHei-30"/>
       <path d="M 21.875 56.25 
Q 16.796875 51.171875 8.984375 46.484375 
L 8.984375 53.90625 
Q 18.75 60.546875 25 69.53125 
L 29.6875 69.53125 
L 29.6875 2.34375 
L 21.875 2.34375 
z
" id="SimHei-31"/>
       <path d="M 46.484375 33.203125 
L 1.953125 33.203125 
L 1.953125 39.453125 
L 46.484375 39.453125 
z
" id="SimHei-2d"/>
      </defs>
      <g transform="translate(40.183736 188.225)scale(0.1 -0.1)">
       <use xlink:href="#SimHei-32"/>
       <use x="50" xlink:href="#SimHei-30"/>
       <use x="100" xlink:href="#SimHei-32"/>
       <use x="150" xlink:href="#SimHei-31"/>
       <use x="200" xlink:href="#SimHei-2d"/>
       <use x="250" xlink:href="#SimHei-30"/>
       <use x="300" xlink:href="#SimHei-32"/>
       <use x="350" xlink:href="#SimHei-2d"/>
       <use x="400" xlink:href="#SimHei-30"/>
       <use x="450" xlink:href="#SimHei-31"/>
      </g>
     </g>
    </g>
    <g id="xtick_2">
     <g id="line2d_2">
      <g>
       <use style="stroke:#000000;stroke-width:0.8;" x="117.100076" xlink:href="#m2f2e8eaee3" y="174.35"/>
      </g>
     </g>
     <g id="text_2">
      <!-- 2021-02-05 -->
      <defs>
       <path d="M 8.59375 20.703125 
Q 11.328125 10.15625 17.96875 8.984375 
Q 24.609375 7.8125 28.703125 10.34375 
Q 32.8125 12.890625 34.5625 16.984375 
Q 36.328125 21.09375 36.125 26.171875 
Q 35.9375 31.25 33.390625 34.765625 
Q 30.859375 38.28125 26.953125 39.453125 
Q 23.046875 40.625 18.15625 39.453125 
Q 13.28125 38.28125 10.15625 33.984375 
L 3.515625 34.765625 
Q 4.296875 37.109375 10.9375 68.359375 
L 41.796875 68.359375 
L 41.796875 61.328125 
L 16.796875 61.328125 
Q 14.84375 50.78125 12.890625 44.53125 
Q 18.75 47.265625 23.828125 47.0625 
Q 28.90625 46.875 33.59375 44.71875 
Q 38.28125 42.578125 40.421875 38.859375 
Q 42.578125 35.15625 43.546875 31.4375 
Q 44.53125 27.734375 44.328125 23.4375 
Q 44.140625 19.140625 42.578125 14.640625 
Q 41.015625 10.15625 37.890625 7.21875 
Q 34.765625 4.296875 30.265625 2.53125 
Q 25.78125 0.78125 19.921875 1.171875 
Q 14.0625 1.5625 8.78125 5.46875 
Q 3.515625 9.375 1.5625 18.75 
z
" id="SimHei-35"/>
      </defs>
      <g transform="translate(92.100076 188.225)scale(0.1 -0.1)">
       <use xlink:href="#SimHei-32"/>
       <use x="50" xlink:href="#SimHei-30"/>
       <use x="100" xlink:href="#SimHei-32"/>
       <use x="150" xlink:href="#SimHei-31"/>
       <use x="200" xlink:href="#SimHei-2d"/>
       <use x="250" xlink:href="#SimHei-30"/>
       <use x="300" xlink:href="#SimHei-32"/>
       <use x="350" xlink:href="#SimHei-2d"/>
       <use x="400" xlink:href="#SimHei-30"/>
       <use x="450" xlink:href="#SimHei-35"/>
      </g>
     </g>
    </g>
    <g id="xtick_3">
     <g id="line2d_3">
      <g>
       <use style="stroke:#000000;stroke-width:0.8;" x="169.016416" xlink:href="#m2f2e8eaee3" y="174.35"/>
      </g>
     </g>
     <g id="text_3">
      <!-- 2021-02-11 -->
      <g transform="translate(144.016416 188.225)scale(0.1 -0.1)">
       <use xlink:href="#SimHei-32"/>
       <use x="50" xlink:href="#SimHei-30"/>
       <use x="100" xlink:href="#SimHei-32"/>
       <use x="150" xlink:href="#SimHei-31"/>
       <use x="200" xlink:href="#SimHei-2d"/>
       <use x="250" xlink:href="#SimHei-30"/>
       <use x="300" xlink:href="#SimHei-32"/>
       <use x="350" xlink:href="#SimHei-2d"/>
       <use x="400" xlink:href="#SimHei-31"/>
       <use x="450" xlink:href="#SimHei-31"/>
      </g>
     </g>
    </g>
    <g id="xtick_4">
     <g id="line2d_4">
      <g>
       <use style="stroke:#000000;stroke-width:0.8;" x="220.932756" xlink:href="#m2f2e8eaee3" y="174.35"/>
      </g>
     </g>
     <g id="text_4">
      <!-- 2021-02-17 -->
      <defs>
       <path d="M 13.28125 2.34375 
Q 20.3125 32.03125 37.890625 61.328125 
L 4.296875 61.328125 
L 4.296875 68.359375 
L 46.09375 68.359375 
L 46.09375 61.71875 
Q 27.734375 32.03125 21.875 2.34375 
L 13.28125 2.34375 
z
" id="SimHei-37"/>
      </defs>
      <g transform="translate(195.932756 188.225)scale(0.1 -0.1)">
       <use xlink:href="#SimHei-32"/>
       <use x="50" xlink:href="#SimHei-30"/>
       <use x="100" xlink:href="#SimHei-32"/>
       <use x="150" xlink:href="#SimHei-31"/>
       <use x="200" xlink:href="#SimHei-2d"/>
       <use x="250" xlink:href="#SimHei-30"/>
       <use x="300" xlink:href="#SimHei-32"/>
       <use x="350" xlink:href="#SimHei-2d"/>
       <use x="400" xlink:href="#SimHei-31"/>
       <use x="450" xlink:href="#SimHei-37"/>
      </g>
     </g>
    </g>
    <g id="xtick_5">
     <g id="line2d_5">
      <g>
       <use style="stroke:#000000;stroke-width:0.8;" x="272.849096" xlink:href="#m2f2e8eaee3" y="174.35"/>
      </g>
     </g>
     <g id="text_5">
      <!-- 2021-02-23 -->
      <defs>
       <path d="M 3.90625 19.140625 
L 10.9375 20.3125 
Q 12.5 15.234375 16.015625 11.90625 
Q 19.53125 8.59375 24.796875 8.78125 
Q 30.078125 8.984375 33.203125 13.078125 
Q 36.328125 17.1875 35.9375 22.453125 
Q 35.546875 27.734375 31.828125 30.65625 
Q 28.125 33.59375 19.921875 34.765625 
L 19.921875 39.84375 
Q 28.125 40.625 31.828125 44.140625 
Q 35.546875 47.65625 35.15625 53.3125 
Q 34.765625 58.984375 30.078125 61.515625 
Q 25.390625 64.0625 20.109375 62.109375 
Q 14.84375 60.15625 11.71875 51.171875 
L 4.6875 52.34375 
Q 7.03125 59.375 11.125 64.0625 
Q 15.234375 68.75 22.265625 69.53125 
Q 29.296875 70.3125 34.5625 67.765625 
Q 39.84375 65.234375 41.984375 59.953125 
Q 44.140625 54.6875 42.578125 48.4375 
Q 41.015625 42.1875 33.59375 37.5 
Q 39.0625 35.15625 41.984375 30.46875 
Q 44.921875 25.78125 43.9375 18.15625 
Q 42.96875 10.546875 37.109375 5.859375 
Q 31.25 1.171875 23.828125 1.359375 
Q 16.40625 1.5625 10.9375 6.046875 
Q 5.46875 10.546875 3.90625 19.140625 
z
" id="SimHei-33"/>
      </defs>
      <g transform="translate(247.849096 188.225)scale(0.1 -0.1)">
       <use xlink:href="#SimHei-32"/>
       <use x="50" xlink:href="#SimHei-30"/>
       <use x="100" xlink:href="#SimHei-32"/>
       <use x="150" xlink:href="#SimHei-31"/>
       <use x="200" xlink:href="#SimHei-2d"/>
       <use x="250" xlink:href="#SimHei-30"/>
       <use x="300" xlink:href="#SimHei-32"/>
       <use x="350" xlink:href="#SimHei-2d"/>
       <use x="400" xlink:href="#SimHei-32"/>
       <use x="450" xlink:href="#SimHei-33"/>
      </g>
     </g>
    </g>
    <g id="xtick_6">
     <g id="line2d_6">
      <g>
       <use style="stroke:#000000;stroke-width:0.8;" x="324.765436" xlink:href="#m2f2e8eaee3" y="174.35"/>
      </g>
     </g>
     <g id="text_6">
      <!-- 2021-03-01 -->
      <g transform="translate(299.765436 188.225)scale(0.1 -0.1)">
       <use xlink:href="#SimHei-32"/>
       <use x="50" xlink:href="#SimHei-30"/>
       <use x="100" xlink:href="#SimHei-32"/>
       <use x="150" xlink:href="#SimHei-31"/>
       <use x="200" xlink:href="#SimHei-2d"/>
       <use x="250" xlink:href="#SimHei-30"/>
       <use x="300" xlink:href="#SimHei-33"/>
       <use x="350" xlink:href="#SimHei-2d"/>
       <use x="400" xlink:href="#SimHei-30"/>
       <use x="450" xlink:href="#SimHei-31"/>
      </g>
     </g>
    </g>
    <g id="xtick_7">
     <g id="line2d_7">
      <g>
       <use style="stroke:#000000;stroke-width:0.8;" x="376.681777" xlink:href="#m2f2e8eaee3" y="174.35"/>
      </g>
     </g>
     <g id="text_7">
      <!-- 2021-03-05 -->
      <g transform="translate(351.681777 188.225)scale(0.1 -0.1)">
       <use xlink:href="#SimHei-32"/>
       <use x="50" xlink:href="#SimHei-30"/>
       <use x="100" xlink:href="#SimHei-32"/>
       <use x="150" xlink:href="#SimHei-31"/>
       <use x="200" xlink:href="#SimHei-2d"/>
       <use x="250" xlink:href="#SimHei-30"/>
       <use x="300" xlink:href="#SimHei-33"/>
       <use x="350" xlink:href="#SimHei-2d"/>
       <use x="400" xlink:href="#SimHei-30"/>
       <use x="450" xlink:href="#SimHei-35"/>
      </g>
     </g>
    </g>
    <g id="xtick_8">
     <g id="line2d_8">
      <g>
       <use style="stroke:#000000;stroke-width:0.8;" x="428.598117" xlink:href="#m2f2e8eaee3" y="174.35"/>
      </g>
     </g>
     <g id="text_8">
      <!-- 2021-03-11 -->
      <g transform="translate(403.598117 188.225)scale(0.1 -0.1)">
       <use xlink:href="#SimHei-32"/>
       <use x="50" xlink:href="#SimHei-30"/>
       <use x="100" xlink:href="#SimHei-32"/>
       <use x="150" xlink:href="#SimHei-31"/>
       <use x="200" xlink:href="#SimHei-2d"/>
       <use x="250" xlink:href="#SimHei-30"/>
       <use x="300" xlink:href="#SimHei-33"/>
       <use x="350" xlink:href="#SimHei-2d"/>
       <use x="400" xlink:href="#SimHei-31"/>
       <use x="450" xlink:href="#SimHei-31"/>
      </g>
     </g>
    </g>
    <g id="text_9">
     <!-- Decade -->
     <defs>
      <path d="M 45.703125 35.15625 
Q 45.703125 17.1875 38.078125 9.5625 
Q 30.46875 1.953125 17.578125 1.953125 
L 4.296875 1.953125 
L 4.296875 68.75 
L 17.578125 68.75 
Q 32.03125 68.75 38.859375 60.9375 
Q 45.703125 53.125 45.703125 35.15625 
z
M 36.328125 35.15625 
Q 36.328125 49.609375 31.640625 55.46875 
Q 26.953125 61.328125 17.578125 61.328125 
L 13.28125 61.328125 
L 13.28125 9.375 
L 17.578125 9.375 
Q 26.953125 9.375 31.640625 15.03125 
Q 36.328125 20.703125 36.328125 35.15625 
z
" id="SimHei-44"/>
      <path d="M 44.53125 16.796875 
Q 43.75 9.765625 38.28125 5.46875 
Q 32.8125 1.171875 25.390625 1.171875 
Q 16.015625 1.171875 9.953125 7.21875 
Q 3.90625 13.28125 3.90625 23.828125 
Q 3.90625 34.375 9.953125 40.421875 
Q 16.015625 46.484375 25.390625 46.484375 
Q 33.59375 46.484375 38.859375 41.203125 
Q 44.140625 35.9375 44.140625 23.828125 
L 12.5 23.828125 
Q 12.5 15.234375 16.203125 11.71875 
Q 19.921875 8.203125 25.390625 8.203125 
Q 29.6875 8.203125 32.421875 10.34375 
Q 35.15625 12.5 35.9375 16.796875 
z
M 35.15625 30.078125 
Q 34.375 35.546875 31.640625 37.6875 
Q 28.90625 39.84375 24.609375 39.84375 
Q 20.703125 39.84375 17.578125 37.6875 
Q 14.453125 35.546875 12.890625 30.078125 
z
" id="SimHei-65"/>
      <path d="M 44.53125 19.53125 
Q 44.53125 11.328125 38.859375 6.25 
Q 33.203125 1.171875 24.609375 1.171875 
Q 16.015625 1.171875 9.765625 7.21875 
Q 3.515625 13.28125 3.515625 23.828125 
Q 3.515625 34.375 9.765625 40.421875 
Q 16.015625 46.484375 24.609375 46.484375 
Q 33.203125 46.484375 38.28125 41.984375 
Q 43.359375 37.5 43.359375 31.25 
L 34.765625 31.25 
Q 34.375 35.9375 31.4375 37.6875 
Q 28.515625 39.453125 24.609375 39.453125 
Q 19.921875 39.453125 16.015625 35.734375 
Q 12.109375 32.03125 12.109375 23.828125 
Q 12.109375 15.625 16.015625 11.90625 
Q 19.921875 8.203125 24.609375 8.203125 
Q 29.6875 8.203125 32.8125 10.9375 
Q 35.9375 13.671875 35.9375 19.53125 
z
" id="SimHei-63"/>
      <path d="M 44.921875 1.953125 
L 35.546875 1.953125 
Q 34.765625 2.734375 34.375 4.09375 
Q 33.984375 5.46875 33.984375 7.421875 
Q 31.25 4.296875 27.34375 2.734375 
Q 23.4375 1.171875 19.140625 1.171875 
Q 12.890625 1.171875 8.59375 4.296875 
Q 4.296875 7.421875 4.296875 13.28125 
Q 4.296875 19.140625 8.203125 22.65625 
Q 12.109375 26.171875 20.3125 27.34375 
Q 25.78125 28.125 29.875 29.296875 
Q 33.984375 30.46875 33.984375 32.421875 
Q 33.984375 34.765625 32.21875 37.109375 
Q 30.46875 39.453125 24.609375 39.453125 
Q 19.921875 39.453125 17.765625 37.6875 
Q 15.625 35.9375 14.84375 32.8125 
L 6.25 32.8125 
Q 7.03125 39.0625 11.90625 42.765625 
Q 16.796875 46.484375 24.609375 46.484375 
Q 33.203125 46.484375 37.5 42.578125 
Q 41.796875 38.671875 41.796875 31.640625 
L 41.796875 10.15625 
Q 41.796875 7.8125 42.578125 5.859375 
Q 43.359375 3.90625 44.921875 1.953125 
z
M 33.984375 16.40625 
L 33.984375 24.21875 
Q 31.640625 23.4375 29.484375 22.84375 
Q 27.34375 22.265625 22.265625 21.484375 
Q 16.40625 20.703125 14.640625 18.75 
Q 12.890625 16.796875 12.890625 14.0625 
Q 12.890625 11.71875 14.640625 9.953125 
Q 16.40625 8.203125 19.921875 8.203125 
Q 23.4375 8.203125 27.53125 10.15625 
Q 31.640625 12.109375 33.984375 16.40625 
z
" id="SimHei-61"/>
      <path d="M 42.96875 1.953125 
L 35.15625 1.953125 
L 35.15625 7.8125 
Q 32.8125 4.296875 29.6875 2.734375 
Q 26.5625 1.171875 22.265625 1.171875 
Q 14.453125 1.171875 8.984375 6.828125 
Q 3.515625 12.5 3.515625 23.828125 
Q 3.515625 35.15625 8.984375 41.015625 
Q 14.453125 46.875 22.265625 46.875 
Q 26.5625 46.875 29.6875 45.109375 
Q 32.8125 43.359375 35.15625 39.84375 
L 35.15625 68.75 
L 42.96875 68.75 
z
M 35.15625 23.828125 
Q 35.15625 31.25 31.828125 35.546875 
Q 28.515625 39.84375 23.828125 39.84375 
Q 17.96875 39.84375 15.03125 35.546875 
Q 12.109375 31.25 12.109375 23.828125 
Q 12.109375 16.40625 15.03125 12.296875 
Q 17.96875 8.203125 23.828125 8.203125 
Q 28.515625 8.203125 31.828125 12.296875 
Q 35.15625 16.40625 35.15625 23.828125 
z
" id="SimHei-64"/>
     </defs>
     <g transform="translate(238.380469 200.35)scale(0.1 -0.1)">
      <use xlink:href="#SimHei-44"/>
      <use x="50" xlink:href="#SimHei-65"/>
      <use x="100" xlink:href="#SimHei-63"/>
      <use x="150" xlink:href="#SimHei-61"/>
      <use x="200" xlink:href="#SimHei-64"/>
      <use x="250" xlink:href="#SimHei-65"/>
     </g>
    </g>
   </g>
   <g id="matplotlib.axis_2">
    <g id="ytick_1">
     <g id="line2d_9">
      <defs>
       <path d="M 0 0 
L -3.5 0 
" id="m710ad25c04" style="stroke:#000000;stroke-width:0.8;"/>
      </defs>
      <g>
       <use style="stroke:#000000;stroke-width:0.8;" x="46.364063" xlink:href="#m710ad25c04" y="158.775132"/>
      </g>
     </g>
     <g id="text_10">
      <!-- 1675 -->
      <defs>
       <path d="M 3.515625 19.53125 
Q 4.296875 30.859375 6.046875 34.765625 
Q 7.8125 38.671875 11.328125 44.53125 
L 27.34375 69.53125 
L 36.328125 69.53125 
L 19.921875 43.75 
Q 30.46875 46.484375 36.71875 42.96875 
Q 42.96875 39.453125 45.109375 34.953125 
Q 47.265625 30.46875 47.453125 25.1875 
Q 47.65625 19.921875 45.890625 14.84375 
Q 44.140625 9.765625 39.640625 5.65625 
Q 35.15625 1.5625 27.140625 1.171875 
Q 19.140625 0.78125 13.46875 4.09375 
Q 7.8125 7.421875 5.65625 13.46875 
Q 3.515625 19.53125 4.296875 30.859375 
z
M 12.5 16.015625 
Q 19.53125 8.59375 25.390625 8.203125 
Q 31.25 7.8125 35.15625 12.109375 
Q 39.0625 16.40625 39.0625 24.609375 
Q 39.0625 32.8125 34.171875 35.9375 
Q 29.296875 39.0625 23.234375 38.28125 
Q 17.1875 37.5 14.453125 32.421875 
Q 11.71875 27.34375 12.109375 21.671875 
Q 12.5 16.015625 19.53125 8.59375 
z
" id="SimHei-36"/>
      </defs>
      <g transform="translate(19.364063 162.212632)scale(0.1 -0.1)">
       <use xlink:href="#SimHei-31"/>
       <use x="50" xlink:href="#SimHei-36"/>
       <use x="100" xlink:href="#SimHei-37"/>
       <use x="150" xlink:href="#SimHei-35"/>
      </g>
     </g>
    </g>
    <g id="ytick_2">
     <g id="line2d_10">
      <g>
       <use style="stroke:#000000;stroke-width:0.8;" x="46.364063" xlink:href="#m710ad25c04" y="136.7718"/>
      </g>
     </g>
     <g id="text_11">
      <!-- 1700 -->
      <g transform="translate(19.364063 140.2093)scale(0.1 -0.1)">
       <use xlink:href="#SimHei-31"/>
       <use x="50" xlink:href="#SimHei-37"/>
       <use x="100" xlink:href="#SimHei-30"/>
       <use x="150" xlink:href="#SimHei-30"/>
      </g>
     </g>
    </g>
    <g id="ytick_3">
     <g id="line2d_11">
      <g>
       <use style="stroke:#000000;stroke-width:0.8;" x="46.364063" xlink:href="#m710ad25c04" y="114.768468"/>
      </g>
     </g>
     <g id="text_12">
      <!-- 1725 -->
      <g transform="translate(19.364063 118.205968)scale(0.1 -0.1)">
       <use xlink:href="#SimHei-31"/>
       <use x="50" xlink:href="#SimHei-37"/>
       <use x="100" xlink:href="#SimHei-32"/>
       <use x="150" xlink:href="#SimHei-35"/>
      </g>
     </g>
    </g>
    <g id="ytick_4">
     <g id="line2d_12">
      <g>
       <use style="stroke:#000000;stroke-width:0.8;" x="46.364063" xlink:href="#m710ad25c04" y="92.765137"/>
      </g>
     </g>
     <g id="text_13">
      <!-- 1750 -->
      <g transform="translate(19.364063 96.202637)scale(0.1 -0.1)">
       <use xlink:href="#SimHei-31"/>
       <use x="50" xlink:href="#SimHei-37"/>
       <use x="100" xlink:href="#SimHei-35"/>
       <use x="150" xlink:href="#SimHei-30"/>
      </g>
     </g>
    </g>
    <g id="ytick_5">
     <g id="line2d_13">
      <g>
       <use style="stroke:#000000;stroke-width:0.8;" x="46.364063" xlink:href="#m710ad25c04" y="70.761805"/>
      </g>
     </g>
     <g id="text_14">
      <!-- 1775 -->
      <g transform="translate(19.364063 74.199305)scale(0.1 -0.1)">
       <use xlink:href="#SimHei-31"/>
       <use x="50" xlink:href="#SimHei-37"/>
       <use x="100" xlink:href="#SimHei-37"/>
       <use x="150" xlink:href="#SimHei-35"/>
      </g>
     </g>
    </g>
    <g id="ytick_6">
     <g id="line2d_14">
      <g>
       <use style="stroke:#000000;stroke-width:0.8;" x="46.364063" xlink:href="#m710ad25c04" y="48.758473"/>
      </g>
     </g>
     <g id="text_15">
      <!-- 1800 -->
      <defs>
       <path d="M 2.734375 16.796875 
Q 2.734375 26.171875 5.078125 30.65625 
Q 7.421875 35.15625 12.890625 37.890625 
Q 8.203125 40.625 6.640625 43.9375 
Q 5.078125 47.265625 4.875 51.5625 
Q 4.6875 55.859375 6.046875 58.984375 
Q 7.421875 62.109375 10.15625 64.84375 
Q 12.890625 67.578125 16.203125 68.546875 
Q 19.53125 69.53125 23.4375 69.53125 
Q 27.34375 69.53125 30.46875 68.75 
Q 33.59375 67.96875 37.109375 65.421875 
Q 40.625 62.890625 42.1875 58.203125 
Q 43.75 53.515625 41.984375 47.265625 
Q 40.234375 41.015625 32.8125 37.5 
Q 39.453125 35.546875 42.1875 31.4375 
Q 44.921875 27.34375 44.921875 21.484375 
Q 44.921875 15.625 43.15625 12.109375 
Q 41.40625 8.59375 39.25 6.25 
Q 37.109375 3.90625 33.390625 2.53125 
Q 29.6875 1.171875 24.015625 1.171875 
Q 18.359375 1.171875 14.25 2.53125 
Q 10.15625 3.90625 7.421875 6.640625 
Q 4.6875 9.375 3.703125 13.078125 
Q 2.734375 16.796875 2.734375 26.171875 
z
M 10.9375 26.5625 
Q 10.546875 17.1875 12.296875 13.671875 
Q 14.0625 10.15625 18.75 9.171875 
Q 23.4375 8.203125 28.515625 9.375 
Q 33.59375 10.546875 35.546875 14.84375 
Q 37.5 19.140625 36.90625 23.4375 
Q 36.328125 27.734375 32.03125 30.65625 
Q 27.734375 33.59375 22.65625 33.203125 
Q 17.578125 32.8125 14.25 29.6875 
Q 10.9375 26.5625 10.546875 17.1875 
z
M 12.109375 56.25 
Q 12.109375 48.4375 14.84375 44.921875 
Q 17.578125 41.40625 23.4375 41.40625 
Q 29.296875 41.40625 32.21875 44.921875 
Q 35.15625 48.4375 34.953125 53.3125 
Q 34.765625 58.203125 31.4375 60.546875 
Q 28.125 62.890625 22.453125 62.5 
Q 16.796875 62.109375 14.453125 59.171875 
Q 12.109375 56.25 12.109375 48.4375 
z
" id="SimHei-38"/>
      </defs>
      <g transform="translate(19.364063 52.195973)scale(0.1 -0.1)">
       <use xlink:href="#SimHei-31"/>
       <use x="50" xlink:href="#SimHei-38"/>
       <use x="100" xlink:href="#SimHei-30"/>
       <use x="150" xlink:href="#SimHei-30"/>
      </g>
     </g>
    </g>
    <g id="ytick_7">
     <g id="line2d_15">
      <g>
       <use style="stroke:#000000;stroke-width:0.8;" x="46.364063" xlink:href="#m710ad25c04" y="26.755141"/>
      </g>
     </g>
     <g id="text_16">
      <!-- 1825 -->
      <g transform="translate(19.364063 30.192641)scale(0.1 -0.1)">
       <use xlink:href="#SimHei-31"/>
       <use x="50" xlink:href="#SimHei-38"/>
       <use x="100" xlink:href="#SimHei-32"/>
       <use x="150" xlink:href="#SimHei-35"/>
      </g>
     </g>
    </g>
    <g id="text_17">
     <!-- 5_mean -->
     <defs>
      <path d="M 49.21875 -13.28125 
L 0 -13.28125 
L 0 -8.59375 
L 49.21875 -8.59375 
z
" id="SimHei-5f"/>
      <path d="M 47.65625 1.953125 
L 39.84375 1.953125 
L 39.84375 33.59375 
Q 39.84375 35.9375 39.0625 37.5 
Q 38.28125 39.0625 35.9375 39.0625 
Q 33.203125 39.0625 30.859375 36.125 
Q 28.515625 33.203125 28.515625 28.515625 
L 28.515625 1.953125 
L 20.703125 1.953125 
L 20.703125 33.59375 
Q 20.703125 35.9375 19.921875 37.5 
Q 19.140625 39.0625 16.796875 39.0625 
Q 14.0625 39.0625 11.71875 36.125 
Q 9.375 33.203125 9.375 28.515625 
L 9.375 1.953125 
L 1.5625 1.953125 
L 1.5625 45.703125 
L 9.375 45.703125 
L 9.375 39.84375 
Q 11.328125 42.96875 14.0625 44.71875 
Q 16.796875 46.484375 19.921875 46.484375 
Q 23.046875 46.484375 25.1875 44.71875 
Q 27.34375 42.96875 28.125 39.84375 
Q 30.078125 42.96875 32.609375 44.71875 
Q 35.15625 46.484375 38.28125 46.484375 
Q 42.96875 46.484375 45.3125 43.9375 
Q 47.65625 41.40625 47.65625 36.71875 
z
" id="SimHei-6d"/>
      <path d="M 43.75 1.953125 
L 35.9375 1.953125 
L 35.9375 30.078125 
Q 35.9375 34.765625 33.59375 37.5 
Q 31.25 40.234375 27.34375 40.234375 
Q 22.265625 40.234375 17.765625 34.953125 
Q 13.28125 29.6875 13.28125 21.875 
L 13.28125 1.953125 
L 5.46875 1.953125 
L 5.46875 45.703125 
L 13.28125 45.703125 
L 13.28125 37.5 
Q 16.40625 41.796875 20.109375 44.140625 
Q 23.828125 46.484375 29.6875 46.484375 
Q 36.71875 46.484375 40.234375 42.578125 
Q 43.75 38.671875 43.75 32.8125 
z
" id="SimHei-6e"/>
     </defs>
     <g transform="translate(14.035938 107.525)rotate(-90)scale(0.1 -0.1)">
      <use xlink:href="#SimHei-35"/>
      <use x="50" xlink:href="#SimHei-5f"/>
      <use x="100" xlink:href="#SimHei-6d"/>
      <use x="150" xlink:href="#SimHei-65"/>
      <use x="200" xlink:href="#SimHei-61"/>
      <use x="250" xlink:href="#SimHei-6e"/>
     </g>
    </g>
   </g>
   <g id="line2d_16">
    <path clip-path="url(#pfdc1d2dee5)" d="M 65.183736 45.832332 
L 78.162821 40.979506 
L 91.141906 50.644972 
L 104.120991 55.489512 
L 117.100076 77.860848 
L 130.079161 84.2639 
L 143.058246 74.601071 
L 156.037331 69.186092 
L 169.016416 67.8424 
L 181.995501 66.26614 
L 194.974586 71.968902 
L 207.953671 76.997476 
L 220.932756 81.455629 
L 233.911841 95.391942 
L 246.890926 103.838187 
L 259.870011 103.37437 
L 272.849096 91.710221 
L 285.828181 91.194505 
L 298.807266 95.652994 
L 311.786351 106.086171 
L 324.765436 119.952048 
L 337.744521 131.070025 
L 350.723606 136.761726 
L 363.702692 148.678172 
L 376.681777 154.602307 
L 389.660862 162.604996 
L 402.639947 166.911364 
L 415.619032 154.913249 
L 428.598117 148.229693 
L 441.577202 151.574292 
" style="fill:none;stroke:#0000ff;stroke-dasharray:7.4,3.2;stroke-dashoffset:0;stroke-width:2;"/>
    <defs>
     <path d="M 0 2.5 
C 0.663008 2.5 1.29895 2.236584 1.767767 1.767767 
C 2.236584 1.29895 2.5 0.663008 2.5 0 
C 2.5 -0.663008 2.236584 -1.29895 1.767767 -1.767767 
C 1.29895 -2.236584 0.663008 -2.5 0 -2.5 
C -0.663008 -2.5 -1.29895 -2.236584 -1.767767 -1.767767 
C -2.236584 -1.29895 -2.5 -0.663008 -2.5 0 
C -2.5 0.663008 -2.236584 1.29895 -1.767767 1.767767 
C -1.29895 2.236584 -0.663008 2.5 0 2.5 
z
" id="m62ba819b73" style="stroke:#0000ff;"/>
    </defs>
    <g clip-path="url(#pfdc1d2dee5)">
     <use style="fill:#0000ff;stroke:#0000ff;" x="65.183736" xlink:href="#m62ba819b73" y="45.832332"/>
     <use style="fill:#0000ff;stroke:#0000ff;" x="78.162821" xlink:href="#m62ba819b73" y="40.979506"/>
     <use style="fill:#0000ff;stroke:#0000ff;" x="91.141906" xlink:href="#m62ba819b73" y="50.644972"/>
     <use style="fill:#0000ff;stroke:#0000ff;" x="104.120991" xlink:href="#m62ba819b73" y="55.489512"/>
     <use style="fill:#0000ff;stroke:#0000ff;" x="117.100076" xlink:href="#m62ba819b73" y="77.860848"/>
     <use style="fill:#0000ff;stroke:#0000ff;" x="130.079161" xlink:href="#m62ba819b73" y="84.2639"/>
     <use style="fill:#0000ff;stroke:#0000ff;" x="143.058246" xlink:href="#m62ba819b73" y="74.601071"/>
     <use style="fill:#0000ff;stroke:#0000ff;" x="156.037331" xlink:href="#m62ba819b73" y="69.186092"/>
     <use style="fill:#0000ff;stroke:#0000ff;" x="169.016416" xlink:href="#m62ba819b73" y="67.8424"/>
     <use style="fill:#0000ff;stroke:#0000ff;" x="181.995501" xlink:href="#m62ba819b73" y="66.26614"/>
     <use style="fill:#0000ff;stroke:#0000ff;" x="194.974586" xlink:href="#m62ba819b73" y="71.968902"/>
     <use style="fill:#0000ff;stroke:#0000ff;" x="207.953671" xlink:href="#m62ba819b73" y="76.997476"/>
     <use style="fill:#0000ff;stroke:#0000ff;" x="220.932756" xlink:href="#m62ba819b73" y="81.455629"/>
     <use style="fill:#0000ff;stroke:#0000ff;" x="233.911841" xlink:href="#m62ba819b73" y="95.391942"/>
     <use style="fill:#0000ff;stroke:#0000ff;" x="246.890926" xlink:href="#m62ba819b73" y="103.838187"/>
     <use style="fill:#0000ff;stroke:#0000ff;" x="259.870011" xlink:href="#m62ba819b73" y="103.37437"/>
     <use style="fill:#0000ff;stroke:#0000ff;" x="272.849096" xlink:href="#m62ba819b73" y="91.710221"/>
     <use style="fill:#0000ff;stroke:#0000ff;" x="285.828181" xlink:href="#m62ba819b73" y="91.194505"/>
     <use style="fill:#0000ff;stroke:#0000ff;" x="298.807266" xlink:href="#m62ba819b73" y="95.652994"/>
     <use style="fill:#0000ff;stroke:#0000ff;" x="311.786351" xlink:href="#m62ba819b73" y="106.086171"/>
     <use style="fill:#0000ff;stroke:#0000ff;" x="324.765436" xlink:href="#m62ba819b73" y="119.952048"/>
     <use style="fill:#0000ff;stroke:#0000ff;" x="337.744521" xlink:href="#m62ba819b73" y="131.070025"/>
     <use style="fill:#0000ff;stroke:#0000ff;" x="350.723606" xlink:href="#m62ba819b73" y="136.761726"/>
     <use style="fill:#0000ff;stroke:#0000ff;" x="363.702692" xlink:href="#m62ba819b73" y="148.678172"/>
     <use style="fill:#0000ff;stroke:#0000ff;" x="376.681777" xlink:href="#m62ba819b73" y="154.602307"/>
     <use style="fill:#0000ff;stroke:#0000ff;" x="389.660862" xlink:href="#m62ba819b73" y="162.604996"/>
     <use style="fill:#0000ff;stroke:#0000ff;" x="402.639947" xlink:href="#m62ba819b73" y="166.911364"/>
     <use style="fill:#0000ff;stroke:#0000ff;" x="415.619032" xlink:href="#m62ba819b73" y="154.913249"/>
     <use style="fill:#0000ff;stroke:#0000ff;" x="428.598117" xlink:href="#m62ba819b73" y="148.229693"/>
     <use style="fill:#0000ff;stroke:#0000ff;" x="441.577202" xlink:href="#m62ba819b73" y="151.574292"/>
    </g>
   </g>
   <g id="line2d_17">
    <path clip-path="url(#pfdc1d2dee5)" d="M 65.183736 27.573665 
L 78.162821 32.449603 
L 91.141906 31.30543 
L 104.120991 30.038038 
L 117.100076 20.497394 
L 130.079161 18.138636 
L 143.058246 21.298315 
L 156.037331 29.281124 
L 169.016416 40.185975 
L 181.995501 51.970959 
L 194.974586 57.278163 
L 207.953671 59.012026 
L 220.932756 58.061482 
L 233.911841 56.776487 
L 246.890926 55.632314 
L 259.870011 63.263069 
L 272.849096 76.165823 
L 285.828181 89.508643 
L 298.807266 102.992285 
L 311.786351 114.882886 
L 324.765436 123.085728 
L 337.744521 131.376583 
L 350.723606 132.599969 
L 363.702692 131.755041 
L 376.681777 129.616317 
L 389.660862 128.111289 
L 402.639947 121.668713 
L 415.619032 118.482631 
L 428.598117 116.115072 
L 441.577202 115.824628 
" style="fill:none;stroke:#4169e1;stroke-dasharray:7.4,3.2;stroke-dashoffset:0;stroke-width:2;"/>
    <defs>
     <path d="M 0 2.5 
C 0.663008 2.5 1.29895 2.236584 1.767767 1.767767 
C 2.236584 1.29895 2.5 0.663008 2.5 0 
C 2.5 -0.663008 2.236584 -1.29895 1.767767 -1.767767 
C 1.29895 -2.236584 0.663008 -2.5 0 -2.5 
C -0.663008 -2.5 -1.29895 -2.236584 -1.767767 -1.767767 
C -2.236584 -1.29895 -2.5 -0.663008 -2.5 0 
C -2.5 0.663008 -2.236584 1.29895 -1.767767 1.767767 
C -1.29895 2.236584 -0.663008 2.5 0 2.5 
z
" id="m3f5cb60a58" style="stroke:#4169e1;"/>
    </defs>
    <g clip-path="url(#pfdc1d2dee5)">
     <use style="fill:#4169e1;stroke:#4169e1;" x="65.183736" xlink:href="#m3f5cb60a58" y="27.573665"/>
     <use style="fill:#4169e1;stroke:#4169e1;" x="78.162821" xlink:href="#m3f5cb60a58" y="32.449603"/>
     <use style="fill:#4169e1;stroke:#4169e1;" x="91.141906" xlink:href="#m3f5cb60a58" y="31.30543"/>
     <use style="fill:#4169e1;stroke:#4169e1;" x="104.120991" xlink:href="#m3f5cb60a58" y="30.038038"/>
     <use style="fill:#4169e1;stroke:#4169e1;" x="117.100076" xlink:href="#m3f5cb60a58" y="20.497394"/>
     <use style="fill:#4169e1;stroke:#4169e1;" x="130.079161" xlink:href="#m3f5cb60a58" y="18.138636"/>
     <use style="fill:#4169e1;stroke:#4169e1;" x="143.058246" xlink:href="#m3f5cb60a58" y="21.298315"/>
     <use style="fill:#4169e1;stroke:#4169e1;" x="156.037331" xlink:href="#m3f5cb60a58" y="29.281124"/>
     <use style="fill:#4169e1;stroke:#4169e1;" x="169.016416" xlink:href="#m3f5cb60a58" y="40.185975"/>
     <use style="fill:#4169e1;stroke:#4169e1;" x="181.995501" xlink:href="#m3f5cb60a58" y="51.970959"/>
     <use style="fill:#4169e1;stroke:#4169e1;" x="194.974586" xlink:href="#m3f5cb60a58" y="57.278163"/>
     <use style="fill:#4169e1;stroke:#4169e1;" x="207.953671" xlink:href="#m3f5cb60a58" y="59.012026"/>
     <use style="fill:#4169e1;stroke:#4169e1;" x="220.932756" xlink:href="#m3f5cb60a58" y="58.061482"/>
     <use style="fill:#4169e1;stroke:#4169e1;" x="233.911841" xlink:href="#m3f5cb60a58" y="56.776487"/>
     <use style="fill:#4169e1;stroke:#4169e1;" x="246.890926" xlink:href="#m3f5cb60a58" y="55.632314"/>
     <use style="fill:#4169e1;stroke:#4169e1;" x="259.870011" xlink:href="#m3f5cb60a58" y="63.263069"/>
     <use style="fill:#4169e1;stroke:#4169e1;" x="272.849096" xlink:href="#m3f5cb60a58" y="76.165823"/>
     <use style="fill:#4169e1;stroke:#4169e1;" x="285.828181" xlink:href="#m3f5cb60a58" y="89.508643"/>
     <use style="fill:#4169e1;stroke:#4169e1;" x="298.807266" xlink:href="#m3f5cb60a58" y="102.992285"/>
     <use style="fill:#4169e1;stroke:#4169e1;" x="311.786351" xlink:href="#m3f5cb60a58" y="114.882886"/>
     <use style="fill:#4169e1;stroke:#4169e1;" x="324.765436" xlink:href="#m3f5cb60a58" y="123.085728"/>
     <use style="fill:#4169e1;stroke:#4169e1;" x="337.744521" xlink:href="#m3f5cb60a58" y="131.376583"/>
     <use style="fill:#4169e1;stroke:#4169e1;" x="350.723606" xlink:href="#m3f5cb60a58" y="132.599969"/>
     <use style="fill:#4169e1;stroke:#4169e1;" x="363.702692" xlink:href="#m3f5cb60a58" y="131.755041"/>
     <use style="fill:#4169e1;stroke:#4169e1;" x="376.681777" xlink:href="#m3f5cb60a58" y="129.616317"/>
     <use style="fill:#4169e1;stroke:#4169e1;" x="389.660862" xlink:href="#m3f5cb60a58" y="128.111289"/>
     <use style="fill:#4169e1;stroke:#4169e1;" x="402.639947" xlink:href="#m3f5cb60a58" y="121.668713"/>
     <use style="fill:#4169e1;stroke:#4169e1;" x="415.619032" xlink:href="#m3f5cb60a58" y="118.482631"/>
     <use style="fill:#4169e1;stroke:#4169e1;" x="428.598117" xlink:href="#m3f5cb60a58" y="116.115072"/>
     <use style="fill:#4169e1;stroke:#4169e1;" x="441.577202" xlink:href="#m3f5cb60a58" y="115.824628"/>
    </g>
   </g>
   <g id="patch_3">
    <path d="M 46.364063 174.35 
L 46.364063 10.7 
" style="fill:none;stroke:#000000;stroke-linecap:square;stroke-linejoin:miter;stroke-width:0.8;"/>
   </g>
   <g id="patch_4">
    <path d="M 460.396875 174.35 
L 460.396875 10.7 
" style="fill:none;stroke:#000000;stroke-linecap:square;stroke-linejoin:miter;stroke-width:0.8;"/>
   </g>
   <g id="patch_5">
    <path d="M 46.364063 174.35 
L 460.396875 174.35 
" style="fill:none;stroke:#000000;stroke-linecap:square;stroke-linejoin:miter;stroke-width:0.8;"/>
   </g>
   <g id="patch_6">
    <path d="M 46.364063 10.7 
L 460.396875 10.7 
" style="fill:none;stroke:#000000;stroke-linecap:square;stroke-linejoin:miter;stroke-width:0.8;"/>
   </g>
   <g id="legend_1">
    <g id="patch_7">
     <path d="M 384.796875 41.890625 
L 454.096875 41.890625 
Q 455.896875 41.890625 455.896875 40.090625 
L 455.896875 17 
Q 455.896875 15.2 454.096875 15.2 
L 384.796875 15.2 
Q 382.996875 15.2 382.996875 17 
L 382.996875 40.090625 
Q 382.996875 41.890625 384.796875 41.890625 
z
" style="fill:#ffffff;opacity:0.8;stroke:#cccccc;stroke-linejoin:miter;"/>
    </g>
    <g id="line2d_18">
     <path d="M 386.596875 21.95 
L 404.596875 21.95 
" style="fill:none;stroke:#0000ff;stroke-dasharray:7.4,3.2;stroke-dashoffset:0;stroke-width:2;"/>
    </g>
    <g id="line2d_19">
     <g>
      <use style="fill:#0000ff;stroke:#0000ff;" x="395.596875" xlink:href="#m62ba819b73" y="21.95"/>
     </g>
    </g>
    <g id="text_18">
     <!-- pre_5mean -->
     <defs>
      <path d="M 44.140625 23.828125 
Q 44.140625 12.5 38.671875 6.640625 
Q 33.203125 0.78125 25.390625 0.78125 
Q 21.09375 0.78125 17.96875 2.53125 
Q 14.84375 4.296875 12.5 7.8125 
L 12.5 -12.5 
L 4.6875 -12.5 
L 4.6875 45.703125 
L 12.5 45.703125 
L 12.5 39.84375 
Q 14.84375 43.359375 17.96875 44.921875 
Q 21.09375 46.484375 25.390625 46.484375 
Q 33.203125 46.484375 38.671875 40.8125 
Q 44.140625 35.15625 44.140625 23.828125 
z
M 35.546875 23.828125 
Q 35.546875 31.25 32.609375 35.34375 
Q 29.6875 39.453125 23.828125 39.453125 
Q 19.140625 39.453125 15.8125 35.34375 
Q 12.5 31.25 12.5 23.828125 
Q 12.5 16.40625 15.8125 12.109375 
Q 19.140625 7.8125 23.828125 7.8125 
Q 29.6875 7.8125 32.609375 12.109375 
Q 35.546875 16.40625 35.546875 23.828125 
z
" id="SimHei-70"/>
      <path d="M 39.0625 37.890625 
Q 31.640625 39.0625 26.5625 35.734375 
Q 21.484375 32.421875 17.96875 24.21875 
L 17.96875 1.953125 
L 10.15625 1.953125 
L 10.15625 45.703125 
L 17.96875 45.703125 
L 17.96875 34.375 
Q 21.484375 40.625 26.75 43.546875 
Q 32.03125 46.484375 39.0625 46.484375 
z
" id="SimHei-72"/>
     </defs>
     <g transform="translate(411.796875 25.1)scale(0.09 -0.09)">
      <use xlink:href="#SimHei-70"/>
      <use x="50" xlink:href="#SimHei-72"/>
      <use x="100" xlink:href="#SimHei-65"/>
      <use x="150" xlink:href="#SimHei-5f"/>
      <use x="200" xlink:href="#SimHei-35"/>
      <use x="250" xlink:href="#SimHei-6d"/>
      <use x="300" xlink:href="#SimHei-65"/>
      <use x="350" xlink:href="#SimHei-61"/>
      <use x="400" xlink:href="#SimHei-6e"/>
     </g>
    </g>
    <g id="line2d_20">
     <path d="M 386.596875 33.945312 
L 404.596875 33.945312 
" style="fill:none;stroke:#4169e1;stroke-dasharray:7.4,3.2;stroke-dashoffset:0;stroke-width:2;"/>
    </g>
    <g id="line2d_21">
     <g>
      <use style="fill:#4169e1;stroke:#4169e1;" x="395.596875" xlink:href="#m3f5cb60a58" y="33.945312"/>
     </g>
    </g>
    <g id="text_19">
     <!-- re_5mean -->
     <g transform="translate(411.796875 37.095312)scale(0.09 -0.09)">
      <use xlink:href="#SimHei-72"/>
      <use x="50" xlink:href="#SimHei-65"/>
      <use x="100" xlink:href="#SimHei-5f"/>
      <use x="150" xlink:href="#SimHei-35"/>
      <use x="200" xlink:href="#SimHei-6d"/>
      <use x="250" xlink:href="#SimHei-65"/>
      <use x="300" xlink:href="#SimHei-61"/>
      <use x="350" xlink:href="#SimHei-6e"/>
     </g>
    </g>
   </g>
  </g>
  <g id="axes_2">
   <g id="matplotlib.axis_3">
    <g id="ytick_8">
     <g id="line2d_22">
      <path clip-path="url(#pfdc1d2dee5)" d="M 46.364063 152.507047 
L 460.396875 152.507047 
" style="fill:none;stroke:#b0b0b0;stroke-dasharray:2.96,1.28;stroke-dashoffset:0;stroke-width:0.8;"/>
     </g>
     <g id="line2d_23">
      <defs>
       <path d="M 0 0 
L 3.5 0 
" id="mc69cf41930" style="stroke:#000000;stroke-width:0.8;"/>
      </defs>
      <g>
       <use style="stroke:#000000;stroke-width:0.8;" x="460.396875" xlink:href="#mc69cf41930" y="152.507047"/>
      </g>
     </g>
     <g id="text_20">
      <!-- 10 -->
      <g transform="translate(467.396875 155.944547)scale(0.1 -0.1)">
       <use xlink:href="#SimHei-31"/>
       <use x="50" xlink:href="#SimHei-30"/>
      </g>
     </g>
    </g>
    <g id="ytick_9">
     <g id="line2d_24">
      <path clip-path="url(#pfdc1d2dee5)" d="M 46.364063 119.093548 
L 460.396875 119.093548 
" style="fill:none;stroke:#b0b0b0;stroke-dasharray:2.96,1.28;stroke-dashoffset:0;stroke-width:0.8;"/>
     </g>
     <g id="line2d_25">
      <g>
       <use style="stroke:#000000;stroke-width:0.8;" x="460.396875" xlink:href="#mc69cf41930" y="119.093548"/>
      </g>
     </g>
     <g id="text_21">
      <!-- 15 -->
      <g transform="translate(467.396875 122.531048)scale(0.1 -0.1)">
       <use xlink:href="#SimHei-31"/>
       <use x="50" xlink:href="#SimHei-35"/>
      </g>
     </g>
    </g>
    <g id="ytick_10">
     <g id="line2d_26">
      <path clip-path="url(#pfdc1d2dee5)" d="M 46.364063 85.68005 
L 460.396875 85.68005 
" style="fill:none;stroke:#b0b0b0;stroke-dasharray:2.96,1.28;stroke-dashoffset:0;stroke-width:0.8;"/>
     </g>
     <g id="line2d_27">
      <g>
       <use style="stroke:#000000;stroke-width:0.8;" x="460.396875" xlink:href="#mc69cf41930" y="85.68005"/>
      </g>
     </g>
     <g id="text_22">
      <!-- 20 -->
      <g transform="translate(467.396875 89.11755)scale(0.1 -0.1)">
       <use xlink:href="#SimHei-32"/>
       <use x="50" xlink:href="#SimHei-30"/>
      </g>
     </g>
    </g>
    <g id="ytick_11">
     <g id="line2d_28">
      <path clip-path="url(#pfdc1d2dee5)" d="M 46.364063 52.266551 
L 460.396875 52.266551 
" style="fill:none;stroke:#b0b0b0;stroke-dasharray:2.96,1.28;stroke-dashoffset:0;stroke-width:0.8;"/>
     </g>
     <g id="line2d_29">
      <g>
       <use style="stroke:#000000;stroke-width:0.8;" x="460.396875" xlink:href="#mc69cf41930" y="52.266551"/>
      </g>
     </g>
     <g id="text_23">
      <!-- 25 -->
      <g transform="translate(467.396875 55.704051)scale(0.1 -0.1)">
       <use xlink:href="#SimHei-32"/>
       <use x="50" xlink:href="#SimHei-35"/>
      </g>
     </g>
    </g>
    <g id="ytick_12">
     <g id="line2d_30">
      <path clip-path="url(#pfdc1d2dee5)" d="M 46.364063 18.853053 
L 460.396875 18.853053 
" style="fill:none;stroke:#b0b0b0;stroke-dasharray:2.96,1.28;stroke-dashoffset:0;stroke-width:0.8;"/>
     </g>
     <g id="line2d_31">
      <g>
       <use style="stroke:#000000;stroke-width:0.8;" x="460.396875" xlink:href="#mc69cf41930" y="18.853053"/>
      </g>
     </g>
     <g id="text_24">
      <!-- 30 -->
      <g transform="translate(467.396875 22.290553)scale(0.1 -0.1)">
       <use xlink:href="#SimHei-33"/>
       <use x="50" xlink:href="#SimHei-30"/>
      </g>
     </g>
    </g>
    <g id="text_25">
     <!-- 5_std -->
     <defs>
      <path d="M 42.96875 14.0625 
Q 42.96875 7.8125 38.078125 4.484375 
Q 33.203125 1.171875 25.78125 1.171875 
Q 16.40625 1.171875 11.328125 4.875 
Q 6.25 8.59375 6.25 15.625 
L 14.0625 15.625 
Q 14.0625 10.9375 17.375 9.375 
Q 20.703125 7.8125 25.390625 7.8125 
Q 30.078125 7.8125 32.421875 9.5625 
Q 34.765625 11.328125 34.765625 14.0625 
Q 34.765625 16.015625 32.8125 17.96875 
Q 30.859375 19.921875 23.046875 21.09375 
Q 14.0625 22.265625 10.734375 25.578125 
Q 7.421875 28.90625 7.421875 34.375 
Q 7.421875 39.0625 11.90625 42.765625 
Q 16.40625 46.484375 25 46.484375 
Q 32.8125 46.484375 37.296875 42.96875 
Q 41.796875 39.453125 41.796875 33.59375 
L 33.984375 33.59375 
Q 33.984375 37.109375 31.4375 38.46875 
Q 28.90625 39.84375 25 39.84375 
Q 19.921875 39.84375 17.765625 38.078125 
Q 15.625 36.328125 15.625 33.984375 
Q 15.625 31.25 17.578125 29.6875 
Q 19.53125 28.125 25.78125 27.34375 
Q 35.9375 25.78125 39.453125 22.453125 
Q 42.96875 19.140625 42.96875 14.0625 
z
" id="SimHei-73"/>
      <path d="M 42.96875 3.125 
Q 41.015625 2.34375 38.46875 1.75 
Q 35.9375 1.171875 31.640625 1.171875 
Q 24.609375 1.171875 20.3125 5.078125 
Q 16.015625 8.984375 16.015625 16.015625 
L 16.015625 39.453125 
L 2.734375 39.453125 
L 2.734375 45.703125 
L 16.015625 45.703125 
L 16.015625 60.9375 
L 23.828125 60.9375 
L 23.828125 45.703125 
L 39.84375 45.703125 
L 39.84375 39.453125 
L 23.828125 39.453125 
L 23.828125 15.625 
Q 23.828125 12.5 25.390625 10.34375 
Q 26.953125 8.203125 31.25 8.203125 
Q 35.546875 8.203125 38.28125 8.984375 
Q 41.015625 9.765625 42.96875 10.9375 
z
" id="SimHei-74"/>
     </defs>
     <g transform="translate(488.271875 105.025)rotate(-90)scale(0.1 -0.1)">
      <use xlink:href="#SimHei-35"/>
      <use x="50" xlink:href="#SimHei-5f"/>
      <use x="100" xlink:href="#SimHei-73"/>
      <use x="150" xlink:href="#SimHei-74"/>
      <use x="200" xlink:href="#SimHei-64"/>
     </g>
    </g>
   </g>
   <g id="line2d_32">
    <path clip-path="url(#pfdc1d2dee5)" d="M 65.183736 63.93105 
L 78.162821 86.424071 
L 91.141906 80.005356 
L 104.120991 77.518988 
L 117.100076 110.320103 
L 130.079161 131.647506 
L 143.058246 126.207274 
L 156.037331 114.166834 
L 169.016416 93.433236 
L 181.995501 98.493664 
L 194.974586 103.094753 
L 207.953671 113.808876 
L 220.932756 119.978504 
L 233.911841 122.540576 
L 246.890926 117.821298 
L 259.870011 69.963169 
L 272.849096 65.810606 
L 285.828181 76.388946 
L 298.807266 81.543277 
L 311.786351 110.523722 
L 324.765436 100.145462 
L 337.744521 99.546486 
L 350.723606 117.848429 
L 363.702692 116.237904 
L 376.681777 97.007737 
L 389.660862 88.465416 
L 402.639947 105.923911 
L 415.619032 104.233403 
L 428.598117 123.632373 
L 441.577202 130.629906 
" style="fill:none;stroke:#ff0000;stroke-dasharray:7.4,3.2;stroke-dashoffset:0;stroke-width:2;"/>
    <defs>
     <path d="M 0 2.5 
C 0.663008 2.5 1.29895 2.236584 1.767767 1.767767 
C 2.236584 1.29895 2.5 0.663008 2.5 0 
C 2.5 -0.663008 2.236584 -1.29895 1.767767 -1.767767 
C 1.29895 -2.236584 0.663008 -2.5 0 -2.5 
C -0.663008 -2.5 -1.29895 -2.236584 -1.767767 -1.767767 
C -2.236584 -1.29895 -2.5 -0.663008 -2.5 0 
C -2.5 0.663008 -2.236584 1.29895 -1.767767 1.767767 
C -1.29895 2.236584 -0.663008 2.5 0 2.5 
z
" id="mea3b4adbcc" style="stroke:#ff0000;"/>
    </defs>
    <g clip-path="url(#pfdc1d2dee5)">
     <use style="fill:#ff0000;stroke:#ff0000;" x="65.183736" xlink:href="#mea3b4adbcc" y="63.93105"/>
     <use style="fill:#ff0000;stroke:#ff0000;" x="78.162821" xlink:href="#mea3b4adbcc" y="86.424071"/>
     <use style="fill:#ff0000;stroke:#ff0000;" x="91.141906" xlink:href="#mea3b4adbcc" y="80.005356"/>
     <use style="fill:#ff0000;stroke:#ff0000;" x="104.120991" xlink:href="#mea3b4adbcc" y="77.518988"/>
     <use style="fill:#ff0000;stroke:#ff0000;" x="117.100076" xlink:href="#mea3b4adbcc" y="110.320103"/>
     <use style="fill:#ff0000;stroke:#ff0000;" x="130.079161" xlink:href="#mea3b4adbcc" y="131.647506"/>
     <use style="fill:#ff0000;stroke:#ff0000;" x="143.058246" xlink:href="#mea3b4adbcc" y="126.207274"/>
     <use style="fill:#ff0000;stroke:#ff0000;" x="156.037331" xlink:href="#mea3b4adbcc" y="114.166834"/>
     <use style="fill:#ff0000;stroke:#ff0000;" x="169.016416" xlink:href="#mea3b4adbcc" y="93.433236"/>
     <use style="fill:#ff0000;stroke:#ff0000;" x="181.995501" xlink:href="#mea3b4adbcc" y="98.493664"/>
     <use style="fill:#ff0000;stroke:#ff0000;" x="194.974586" xlink:href="#mea3b4adbcc" y="103.094753"/>
     <use style="fill:#ff0000;stroke:#ff0000;" x="207.953671" xlink:href="#mea3b4adbcc" y="113.808876"/>
     <use style="fill:#ff0000;stroke:#ff0000;" x="220.932756" xlink:href="#mea3b4adbcc" y="119.978504"/>
     <use style="fill:#ff0000;stroke:#ff0000;" x="233.911841" xlink:href="#mea3b4adbcc" y="122.540576"/>
     <use style="fill:#ff0000;stroke:#ff0000;" x="246.890926" xlink:href="#mea3b4adbcc" y="117.821298"/>
     <use style="fill:#ff0000;stroke:#ff0000;" x="259.870011" xlink:href="#mea3b4adbcc" y="69.963169"/>
     <use style="fill:#ff0000;stroke:#ff0000;" x="272.849096" xlink:href="#mea3b4adbcc" y="65.810606"/>
     <use style="fill:#ff0000;stroke:#ff0000;" x="285.828181" xlink:href="#mea3b4adbcc" y="76.388946"/>
     <use style="fill:#ff0000;stroke:#ff0000;" x="298.807266" xlink:href="#mea3b4adbcc" y="81.543277"/>
     <use style="fill:#ff0000;stroke:#ff0000;" x="311.786351" xlink:href="#mea3b4adbcc" y="110.523722"/>
     <use style="fill:#ff0000;stroke:#ff0000;" x="324.765436" xlink:href="#mea3b4adbcc" y="100.145462"/>
     <use style="fill:#ff0000;stroke:#ff0000;" x="337.744521" xlink:href="#mea3b4adbcc" y="99.546486"/>
     <use style="fill:#ff0000;stroke:#ff0000;" x="350.723606" xlink:href="#mea3b4adbcc" y="117.848429"/>
     <use style="fill:#ff0000;stroke:#ff0000;" x="363.702692" xlink:href="#mea3b4adbcc" y="116.237904"/>
     <use style="fill:#ff0000;stroke:#ff0000;" x="376.681777" xlink:href="#mea3b4adbcc" y="97.007737"/>
     <use style="fill:#ff0000;stroke:#ff0000;" x="389.660862" xlink:href="#mea3b4adbcc" y="88.465416"/>
     <use style="fill:#ff0000;stroke:#ff0000;" x="402.639947" xlink:href="#mea3b4adbcc" y="105.923911"/>
     <use style="fill:#ff0000;stroke:#ff0000;" x="415.619032" xlink:href="#mea3b4adbcc" y="104.233403"/>
     <use style="fill:#ff0000;stroke:#ff0000;" x="428.598117" xlink:href="#mea3b4adbcc" y="123.632373"/>
     <use style="fill:#ff0000;stroke:#ff0000;" x="441.577202" xlink:href="#mea3b4adbcc" y="130.629906"/>
    </g>
   </g>
   <g id="line2d_33">
    <path clip-path="url(#pfdc1d2dee5)" d="M 65.183736 18.138636 
L 78.162821 66.740665 
L 91.141906 58.782514 
L 104.120991 49.772703 
L 117.100076 108.958329 
L 130.079161 148.189416 
L 143.058246 131.271566 
L 156.037331 86.601134 
L 169.016416 66.001505 
L 181.995501 84.578809 
L 194.974586 106.13707 
L 207.953671 131.322293 
L 220.932756 125.964209 
L 233.911841 131.181471 
L 246.890926 144.678462 
L 259.870011 51.535792 
L 272.849096 27.036762 
L 285.828181 29.116423 
L 298.807266 46.35252 
L 311.786351 127.525752 
L 324.765436 123.858809 
L 337.744521 122.545975 
L 350.723606 135.373229 
L 363.702692 130.064644 
L 376.681777 114.339442 
L 389.660862 122.335458 
L 402.639947 166.911364 
L 415.619032 144.707181 
L 428.598117 143.114419 
L 441.577202 142.767174 
" style="fill:none;stroke:#8b0000;stroke-dasharray:7.4,3.2;stroke-dashoffset:0;stroke-width:2;"/>
    <defs>
     <path d="M 0 2.5 
C 0.663008 2.5 1.29895 2.236584 1.767767 1.767767 
C 2.236584 1.29895 2.5 0.663008 2.5 0 
C 2.5 -0.663008 2.236584 -1.29895 1.767767 -1.767767 
C 1.29895 -2.236584 0.663008 -2.5 0 -2.5 
C -0.663008 -2.5 -1.29895 -2.236584 -1.767767 -1.767767 
C -2.236584 -1.29895 -2.5 -0.663008 -2.5 0 
C -2.5 0.663008 -2.236584 1.29895 -1.767767 1.767767 
C -1.29895 2.236584 -0.663008 2.5 0 2.5 
z
" id="m439c502f8c" style="stroke:#8b0000;"/>
    </defs>
    <g clip-path="url(#pfdc1d2dee5)">
     <use style="fill:#8b0000;stroke:#8b0000;" x="65.183736" xlink:href="#m439c502f8c" y="18.138636"/>
     <use style="fill:#8b0000;stroke:#8b0000;" x="78.162821" xlink:href="#m439c502f8c" y="66.740665"/>
     <use style="fill:#8b0000;stroke:#8b0000;" x="91.141906" xlink:href="#m439c502f8c" y="58.782514"/>
     <use style="fill:#8b0000;stroke:#8b0000;" x="104.120991" xlink:href="#m439c502f8c" y="49.772703"/>
     <use style="fill:#8b0000;stroke:#8b0000;" x="117.100076" xlink:href="#m439c502f8c" y="108.958329"/>
     <use style="fill:#8b0000;stroke:#8b0000;" x="130.079161" xlink:href="#m439c502f8c" y="148.189416"/>
     <use style="fill:#8b0000;stroke:#8b0000;" x="143.058246" xlink:href="#m439c502f8c" y="131.271566"/>
     <use style="fill:#8b0000;stroke:#8b0000;" x="156.037331" xlink:href="#m439c502f8c" y="86.601134"/>
     <use style="fill:#8b0000;stroke:#8b0000;" x="169.016416" xlink:href="#m439c502f8c" y="66.001505"/>
     <use style="fill:#8b0000;stroke:#8b0000;" x="181.995501" xlink:href="#m439c502f8c" y="84.578809"/>
     <use style="fill:#8b0000;stroke:#8b0000;" x="194.974586" xlink:href="#m439c502f8c" y="106.13707"/>
     <use style="fill:#8b0000;stroke:#8b0000;" x="207.953671" xlink:href="#m439c502f8c" y="131.322293"/>
     <use style="fill:#8b0000;stroke:#8b0000;" x="220.932756" xlink:href="#m439c502f8c" y="125.964209"/>
     <use style="fill:#8b0000;stroke:#8b0000;" x="233.911841" xlink:href="#m439c502f8c" y="131.181471"/>
     <use style="fill:#8b0000;stroke:#8b0000;" x="246.890926" xlink:href="#m439c502f8c" y="144.678462"/>
     <use style="fill:#8b0000;stroke:#8b0000;" x="259.870011" xlink:href="#m439c502f8c" y="51.535792"/>
     <use style="fill:#8b0000;stroke:#8b0000;" x="272.849096" xlink:href="#m439c502f8c" y="27.036762"/>
     <use style="fill:#8b0000;stroke:#8b0000;" x="285.828181" xlink:href="#m439c502f8c" y="29.116423"/>
     <use style="fill:#8b0000;stroke:#8b0000;" x="298.807266" xlink:href="#m439c502f8c" y="46.35252"/>
     <use style="fill:#8b0000;stroke:#8b0000;" x="311.786351" xlink:href="#m439c502f8c" y="127.525752"/>
     <use style="fill:#8b0000;stroke:#8b0000;" x="324.765436" xlink:href="#m439c502f8c" y="123.858809"/>
     <use style="fill:#8b0000;stroke:#8b0000;" x="337.744521" xlink:href="#m439c502f8c" y="122.545975"/>
     <use style="fill:#8b0000;stroke:#8b0000;" x="350.723606" xlink:href="#m439c502f8c" y="135.373229"/>
     <use style="fill:#8b0000;stroke:#8b0000;" x="363.702692" xlink:href="#m439c502f8c" y="130.064644"/>
     <use style="fill:#8b0000;stroke:#8b0000;" x="376.681777" xlink:href="#m439c502f8c" y="114.339442"/>
     <use style="fill:#8b0000;stroke:#8b0000;" x="389.660862" xlink:href="#m439c502f8c" y="122.335458"/>
     <use style="fill:#8b0000;stroke:#8b0000;" x="402.639947" xlink:href="#m439c502f8c" y="166.911364"/>
     <use style="fill:#8b0000;stroke:#8b0000;" x="415.619032" xlink:href="#m439c502f8c" y="144.707181"/>
     <use style="fill:#8b0000;stroke:#8b0000;" x="428.598117" xlink:href="#m439c502f8c" y="143.114419"/>
     <use style="fill:#8b0000;stroke:#8b0000;" x="441.577202" xlink:href="#m439c502f8c" y="142.767174"/>
    </g>
   </g>
   <g id="patch_8">
    <path d="M 46.364063 174.35 
L 46.364063 10.7 
" style="fill:none;stroke:#000000;stroke-linecap:square;stroke-linejoin:miter;stroke-width:0.8;"/>
   </g>
   <g id="patch_9">
    <path d="M 460.396875 174.35 
L 460.396875 10.7 
" style="fill:none;stroke:#000000;stroke-linecap:square;stroke-linejoin:miter;stroke-width:0.8;"/>
   </g>
   <g id="patch_10">
    <path d="M 46.364063 174.35 
L 460.396875 174.35 
" style="fill:none;stroke:#000000;stroke-linecap:square;stroke-linejoin:miter;stroke-width:0.8;"/>
   </g>
   <g id="patch_11">
    <path d="M 46.364063 10.7 
L 460.396875 10.7 
" style="fill:none;stroke:#000000;stroke-linecap:square;stroke-linejoin:miter;stroke-width:0.8;"/>
   </g>
   <g id="legend_2">
    <g id="patch_12">
     <path d="M 383.890313 74.620625 
L 448.690313 74.620625 
Q 450.490313 74.620625 450.490313 72.820625 
L 450.490313 49.73 
Q 450.490313 47.93 448.690313 47.93 
L 383.890313 47.93 
Q 382.090313 47.93 382.090313 49.73 
L 382.090313 72.820625 
Q 382.090313 74.620625 383.890313 74.620625 
z
" style="fill:#ffffff;opacity:0.8;stroke:#cccccc;stroke-linejoin:miter;"/>
    </g>
    <g id="line2d_34">
     <path d="M 385.690313 54.68 
L 403.690313 54.68 
" style="fill:none;stroke:#ff0000;stroke-dasharray:7.4,3.2;stroke-dashoffset:0;stroke-width:2;"/>
    </g>
    <g id="line2d_35">
     <g>
      <use style="fill:#ff0000;stroke:#ff0000;" x="394.690313" xlink:href="#mea3b4adbcc" y="54.68"/>
     </g>
    </g>
    <g id="text_26">
     <!-- pre_5std -->
     <g transform="translate(410.890313 57.83)scale(0.09 -0.09)">
      <use xlink:href="#SimHei-70"/>
      <use x="50" xlink:href="#SimHei-72"/>
      <use x="100" xlink:href="#SimHei-65"/>
      <use x="150" xlink:href="#SimHei-5f"/>
      <use x="200" xlink:href="#SimHei-35"/>
      <use x="250" xlink:href="#SimHei-73"/>
      <use x="300" xlink:href="#SimHei-74"/>
      <use x="350" xlink:href="#SimHei-64"/>
     </g>
    </g>
    <g id="line2d_36">
     <path d="M 385.690313 66.675312 
L 403.690313 66.675312 
" style="fill:none;stroke:#8b0000;stroke-dasharray:7.4,3.2;stroke-dashoffset:0;stroke-width:2;"/>
    </g>
    <g id="line2d_37">
     <g>
      <use style="fill:#8b0000;stroke:#8b0000;" x="394.690313" xlink:href="#m439c502f8c" y="66.675312"/>
     </g>
    </g>
    <g id="text_27">
     <!-- re_5std -->
     <g transform="translate(410.890313 69.825312)scale(0.09 -0.09)">
      <use xlink:href="#SimHei-72"/>
      <use x="50" xlink:href="#SimHei-65"/>
      <use x="100" xlink:href="#SimHei-5f"/>
      <use x="150" xlink:href="#SimHei-35"/>
      <use x="200" xlink:href="#SimHei-73"/>
      <use x="250" xlink:href="#SimHei-74"/>
      <use x="300" xlink:href="#SimHei-64"/>
     </g>
    </g>
   </g>
  </g>
 </g>
 <defs>
  <clipPath id="pfdc1d2dee5">
   <rect height="163.65" width="414.032813" x="46.364063" y="10.7"/>
  </clipPath>
 </defs>
</svg>
