<?xml version="1.0" encoding="utf-8" standalone="no"?>
<!DOCTYPE svg PUBLIC "-//W3C//DTD SVG 1.1//EN"
  "http://www.w3.org/Graphics/SVG/1.1/DTD/svg11.dtd">
<!-- Created with matplotlib (http://matplotlib.org/) -->
<svg height="288pt" version="1.1" viewBox="0 0 1152 288" width="1152pt" xmlns="http://www.w3.org/2000/svg" xmlns:xlink="http://www.w3.org/1999/xlink">
 <defs>
  <style type="text/css">
*{stroke-linecap:butt;stroke-linejoin:round;}
  </style>
 </defs>
 <g id="figure_1">
  <g id="patch_1">
   <path d="M 0 288 
L 1152 288 
L 1152 0 
L 0 0 
z
" style="fill:#ffffff;"/>
  </g>
  <g id="axes_1">
   <g id="patch_2">
    <path d="M 144 252 
L 1036.8 252 
L 1036.8 34.56 
L 144 34.56 
z
" style="fill:#ffffff;"/>
   </g>
   <g id="matplotlib.axis_1">
    <g id="xtick_1">
     <g id="line2d_1">
      <defs>
       <path d="M 0 0 
L 0 3.5 
" id="m2faa9382fe" style="stroke:#000000;stroke-width:0.8;"/>
      </defs>
      <g>
       <use style="stroke:#000000;stroke-width:0.8;" x="182.339729" xlink:href="#m2faa9382fe" y="252"/>
      </g>
     </g>
     <g id="text_1">
      <!-- 2019-01 -->
      <defs>
       <path d="M 19.1875 8.296875 
L 53.609375 8.296875 
L 53.609375 0 
L 7.328125 0 
L 7.328125 8.296875 
Q 12.9375 14.109375 22.625 23.890625 
Q 32.328125 33.6875 34.8125 36.53125 
Q 39.546875 41.84375 41.421875 45.53125 
Q 43.3125 49.21875 43.3125 52.78125 
Q 43.3125 58.59375 39.234375 62.25 
Q 35.15625 65.921875 28.609375 65.921875 
Q 23.96875 65.921875 18.8125 64.3125 
Q 13.671875 62.703125 7.8125 59.421875 
L 7.8125 69.390625 
Q 13.765625 71.78125 18.9375 73 
Q 24.125 74.21875 28.421875 74.21875 
Q 39.75 74.21875 46.484375 68.546875 
Q 53.21875 62.890625 53.21875 53.421875 
Q 53.21875 48.921875 51.53125 44.890625 
Q 49.859375 40.875 45.40625 35.40625 
Q 44.1875 33.984375 37.640625 27.21875 
Q 31.109375 20.453125 19.1875 8.296875 
z
" id="DejaVuSans-32"/>
       <path d="M 31.78125 66.40625 
Q 24.171875 66.40625 20.328125 58.90625 
Q 16.5 51.421875 16.5 36.375 
Q 16.5 21.390625 20.328125 13.890625 
Q 24.171875 6.390625 31.78125 6.390625 
Q 39.453125 6.390625 43.28125 13.890625 
Q 47.125 21.390625 47.125 36.375 
Q 47.125 51.421875 43.28125 58.90625 
Q 39.453125 66.40625 31.78125 66.40625 
z
M 31.78125 74.21875 
Q 44.046875 74.21875 50.515625 64.515625 
Q 56.984375 54.828125 56.984375 36.375 
Q 56.984375 17.96875 50.515625 8.265625 
Q 44.046875 -1.421875 31.78125 -1.421875 
Q 19.53125 -1.421875 13.0625 8.265625 
Q 6.59375 17.96875 6.59375 36.375 
Q 6.59375 54.828125 13.0625 64.515625 
Q 19.53125 74.21875 31.78125 74.21875 
z
" id="DejaVuSans-30"/>
       <path d="M 12.40625 8.296875 
L 28.515625 8.296875 
L 28.515625 63.921875 
L 10.984375 60.40625 
L 10.984375 69.390625 
L 28.421875 72.90625 
L 38.28125 72.90625 
L 38.28125 8.296875 
L 54.390625 8.296875 
L 54.390625 0 
L 12.40625 0 
z
" id="DejaVuSans-31"/>
       <path d="M 10.984375 1.515625 
L 10.984375 10.5 
Q 14.703125 8.734375 18.5 7.8125 
Q 22.3125 6.890625 25.984375 6.890625 
Q 35.75 6.890625 40.890625 13.453125 
Q 46.046875 20.015625 46.78125 33.40625 
Q 43.953125 29.203125 39.59375 26.953125 
Q 35.25 24.703125 29.984375 24.703125 
Q 19.046875 24.703125 12.671875 31.3125 
Q 6.296875 37.9375 6.296875 49.421875 
Q 6.296875 60.640625 12.9375 67.421875 
Q 19.578125 74.21875 30.609375 74.21875 
Q 43.265625 74.21875 49.921875 64.515625 
Q 56.59375 54.828125 56.59375 36.375 
Q 56.59375 19.140625 48.40625 8.859375 
Q 40.234375 -1.421875 26.421875 -1.421875 
Q 22.703125 -1.421875 18.890625 -0.6875 
Q 15.09375 0.046875 10.984375 1.515625 
z
M 30.609375 32.421875 
Q 37.25 32.421875 41.125 36.953125 
Q 45.015625 41.5 45.015625 49.421875 
Q 45.015625 57.28125 41.125 61.84375 
Q 37.25 66.40625 30.609375 66.40625 
Q 23.96875 66.40625 20.09375 61.84375 
Q 16.21875 57.28125 16.21875 49.421875 
Q 16.21875 41.5 20.09375 36.953125 
Q 23.96875 32.421875 30.609375 32.421875 
z
" id="DejaVuSans-39"/>
       <path d="M 4.890625 31.390625 
L 31.203125 31.390625 
L 31.203125 23.390625 
L 4.890625 23.390625 
z
" id="DejaVuSans-2d"/>
      </defs>
      <g transform="translate(161.448323 266.598437)scale(0.1 -0.1)">
       <use xlink:href="#DejaVuSans-32"/>
       <use x="63.623047" xlink:href="#DejaVuSans-30"/>
       <use x="127.246094" xlink:href="#DejaVuSans-31"/>
       <use x="190.869141" xlink:href="#DejaVuSans-39"/>
       <use x="254.492188" xlink:href="#DejaVuSans-2d"/>
       <use x="290.576172" xlink:href="#DejaVuSans-30"/>
       <use x="354.199219" xlink:href="#DejaVuSans-31"/>
      </g>
     </g>
    </g>
    <g id="xtick_2">
     <g id="line2d_2">
      <g>
       <use style="stroke:#000000;stroke-width:0.8;" x="314.623004" xlink:href="#m2faa9382fe" y="252"/>
      </g>
     </g>
     <g id="text_2">
      <!-- 2019-03 -->
      <defs>
       <path d="M 40.578125 39.3125 
Q 47.65625 37.796875 51.625 33 
Q 55.609375 28.21875 55.609375 21.1875 
Q 55.609375 10.40625 48.1875 4.484375 
Q 40.765625 -1.421875 27.09375 -1.421875 
Q 22.515625 -1.421875 17.65625 -0.515625 
Q 12.796875 0.390625 7.625 2.203125 
L 7.625 11.71875 
Q 11.71875 9.328125 16.59375 8.109375 
Q 21.484375 6.890625 26.8125 6.890625 
Q 36.078125 6.890625 40.9375 10.546875 
Q 45.796875 14.203125 45.796875 21.1875 
Q 45.796875 27.640625 41.28125 31.265625 
Q 36.765625 34.90625 28.71875 34.90625 
L 20.21875 34.90625 
L 20.21875 43.015625 
L 29.109375 43.015625 
Q 36.375 43.015625 40.234375 45.921875 
Q 44.09375 48.828125 44.09375 54.296875 
Q 44.09375 59.90625 40.109375 62.90625 
Q 36.140625 65.921875 28.71875 65.921875 
Q 24.65625 65.921875 20.015625 65.03125 
Q 15.375 64.15625 9.8125 62.3125 
L 9.8125 71.09375 
Q 15.4375 72.65625 20.34375 73.4375 
Q 25.25 74.21875 29.59375 74.21875 
Q 40.828125 74.21875 47.359375 69.109375 
Q 53.90625 64.015625 53.90625 55.328125 
Q 53.90625 49.265625 50.4375 45.09375 
Q 46.96875 40.921875 40.578125 39.3125 
z
" id="DejaVuSans-33"/>
      </defs>
      <g transform="translate(293.731597 266.598437)scale(0.1 -0.1)">
       <use xlink:href="#DejaVuSans-32"/>
       <use x="63.623047" xlink:href="#DejaVuSans-30"/>
       <use x="127.246094" xlink:href="#DejaVuSans-31"/>
       <use x="190.869141" xlink:href="#DejaVuSans-39"/>
       <use x="254.492188" xlink:href="#DejaVuSans-2d"/>
       <use x="290.576172" xlink:href="#DejaVuSans-30"/>
       <use x="354.199219" xlink:href="#DejaVuSans-33"/>
      </g>
     </g>
    </g>
    <g id="xtick_3">
     <g id="line2d_3">
      <g>
       <use style="stroke:#000000;stroke-width:0.8;" x="451.390457" xlink:href="#m2faa9382fe" y="252"/>
      </g>
     </g>
     <g id="text_3">
      <!-- 2019-05 -->
      <defs>
       <path d="M 10.796875 72.90625 
L 49.515625 72.90625 
L 49.515625 64.59375 
L 19.828125 64.59375 
L 19.828125 46.734375 
Q 21.96875 47.46875 24.109375 47.828125 
Q 26.265625 48.1875 28.421875 48.1875 
Q 40.625 48.1875 47.75 41.5 
Q 54.890625 34.8125 54.890625 23.390625 
Q 54.890625 11.625 47.5625 5.09375 
Q 40.234375 -1.421875 26.90625 -1.421875 
Q 22.3125 -1.421875 17.546875 -0.640625 
Q 12.796875 0.140625 7.71875 1.703125 
L 7.71875 11.625 
Q 12.109375 9.234375 16.796875 8.0625 
Q 21.484375 6.890625 26.703125 6.890625 
Q 35.15625 6.890625 40.078125 11.328125 
Q 45.015625 15.765625 45.015625 23.390625 
Q 45.015625 31 40.078125 35.4375 
Q 35.15625 39.890625 26.703125 39.890625 
Q 22.75 39.890625 18.8125 39.015625 
Q 14.890625 38.140625 10.796875 36.28125 
z
" id="DejaVuSans-35"/>
      </defs>
      <g transform="translate(430.499051 266.598437)scale(0.1 -0.1)">
       <use xlink:href="#DejaVuSans-32"/>
       <use x="63.623047" xlink:href="#DejaVuSans-30"/>
       <use x="127.246094" xlink:href="#DejaVuSans-31"/>
       <use x="190.869141" xlink:href="#DejaVuSans-39"/>
       <use x="254.492188" xlink:href="#DejaVuSans-2d"/>
       <use x="290.576172" xlink:href="#DejaVuSans-30"/>
       <use x="354.199219" xlink:href="#DejaVuSans-35"/>
      </g>
     </g>
    </g>
    <g id="xtick_4">
     <g id="line2d_4">
      <g>
       <use style="stroke:#000000;stroke-width:0.8;" x="588.157911" xlink:href="#m2faa9382fe" y="252"/>
      </g>
     </g>
     <g id="text_4">
      <!-- 2019-07 -->
      <defs>
       <path d="M 8.203125 72.90625 
L 55.078125 72.90625 
L 55.078125 68.703125 
L 28.609375 0 
L 18.3125 0 
L 43.21875 64.59375 
L 8.203125 64.59375 
z
" id="DejaVuSans-37"/>
      </defs>
      <g transform="translate(567.266504 266.598437)scale(0.1 -0.1)">
       <use xlink:href="#DejaVuSans-32"/>
       <use x="63.623047" xlink:href="#DejaVuSans-30"/>
       <use x="127.246094" xlink:href="#DejaVuSans-31"/>
       <use x="190.869141" xlink:href="#DejaVuSans-39"/>
       <use x="254.492188" xlink:href="#DejaVuSans-2d"/>
       <use x="290.576172" xlink:href="#DejaVuSans-30"/>
       <use x="354.199219" xlink:href="#DejaVuSans-37"/>
      </g>
     </g>
    </g>
    <g id="xtick_5">
     <g id="line2d_5">
      <g>
       <use style="stroke:#000000;stroke-width:0.8;" x="727.167454" xlink:href="#m2faa9382fe" y="252"/>
      </g>
     </g>
     <g id="text_5">
      <!-- 2019-09 -->
      <g transform="translate(706.276047 266.598437)scale(0.1 -0.1)">
       <use xlink:href="#DejaVuSans-32"/>
       <use x="63.623047" xlink:href="#DejaVuSans-30"/>
       <use x="127.246094" xlink:href="#DejaVuSans-31"/>
       <use x="190.869141" xlink:href="#DejaVuSans-39"/>
       <use x="254.492188" xlink:href="#DejaVuSans-2d"/>
       <use x="290.576172" xlink:href="#DejaVuSans-30"/>
       <use x="354.199219" xlink:href="#DejaVuSans-39"/>
      </g>
     </g>
    </g>
    <g id="xtick_6">
     <g id="line2d_6">
      <g>
       <use style="stroke:#000000;stroke-width:0.8;" x="863.934907" xlink:href="#m2faa9382fe" y="252"/>
      </g>
     </g>
     <g id="text_6">
      <!-- 2019-11 -->
      <g transform="translate(843.043501 266.598437)scale(0.1 -0.1)">
       <use xlink:href="#DejaVuSans-32"/>
       <use x="63.623047" xlink:href="#DejaVuSans-30"/>
       <use x="127.246094" xlink:href="#DejaVuSans-31"/>
       <use x="190.869141" xlink:href="#DejaVuSans-39"/>
       <use x="254.492188" xlink:href="#DejaVuSans-2d"/>
       <use x="290.576172" xlink:href="#DejaVuSans-31"/>
       <use x="354.199219" xlink:href="#DejaVuSans-31"/>
      </g>
     </g>
    </g>
    <g id="xtick_7">
     <g id="line2d_7">
      <g>
       <use style="stroke:#000000;stroke-width:0.8;" x="1000.702361" xlink:href="#m2faa9382fe" y="252"/>
      </g>
     </g>
     <g id="text_7">
      <!-- 2020-01 -->
      <g transform="translate(979.810954 266.598437)scale(0.1 -0.1)">
       <use xlink:href="#DejaVuSans-32"/>
       <use x="63.623047" xlink:href="#DejaVuSans-30"/>
       <use x="127.246094" xlink:href="#DejaVuSans-32"/>
       <use x="190.869141" xlink:href="#DejaVuSans-30"/>
       <use x="254.492188" xlink:href="#DejaVuSans-2d"/>
       <use x="290.576172" xlink:href="#DejaVuSans-30"/>
       <use x="354.199219" xlink:href="#DejaVuSans-31"/>
      </g>
     </g>
    </g>
    <g id="text_8">
     <!-- Decade -->
     <defs>
      <path d="M 19.671875 64.796875 
L 19.671875 8.109375 
L 31.59375 8.109375 
Q 46.6875 8.109375 53.6875 14.9375 
Q 60.6875 21.78125 60.6875 36.53125 
Q 60.6875 51.171875 53.6875 57.984375 
Q 46.6875 64.796875 31.59375 64.796875 
z
M 9.8125 72.90625 
L 30.078125 72.90625 
Q 51.265625 72.90625 61.171875 64.09375 
Q 71.09375 55.28125 71.09375 36.53125 
Q 71.09375 17.671875 61.125 8.828125 
Q 51.171875 0 30.078125 0 
L 9.8125 0 
z
" id="DejaVuSans-44"/>
      <path d="M 56.203125 29.59375 
L 56.203125 25.203125 
L 14.890625 25.203125 
Q 15.484375 15.921875 20.484375 11.0625 
Q 25.484375 6.203125 34.421875 6.203125 
Q 39.59375 6.203125 44.453125 7.46875 
Q 49.3125 8.734375 54.109375 11.28125 
L 54.109375 2.78125 
Q 49.265625 0.734375 44.1875 -0.34375 
Q 39.109375 -1.421875 33.890625 -1.421875 
Q 20.796875 -1.421875 13.15625 6.1875 
Q 5.515625 13.8125 5.515625 26.8125 
Q 5.515625 40.234375 12.765625 48.109375 
Q 20.015625 56 32.328125 56 
Q 43.359375 56 49.78125 48.890625 
Q 56.203125 41.796875 56.203125 29.59375 
z
M 47.21875 32.234375 
Q 47.125 39.59375 43.09375 43.984375 
Q 39.0625 48.390625 32.421875 48.390625 
Q 24.90625 48.390625 20.390625 44.140625 
Q 15.875 39.890625 15.1875 32.171875 
z
" id="DejaVuSans-65"/>
      <path d="M 48.78125 52.59375 
L 48.78125 44.1875 
Q 44.96875 46.296875 41.140625 47.34375 
Q 37.3125 48.390625 33.40625 48.390625 
Q 24.65625 48.390625 19.8125 42.84375 
Q 14.984375 37.3125 14.984375 27.296875 
Q 14.984375 17.28125 19.8125 11.734375 
Q 24.65625 6.203125 33.40625 6.203125 
Q 37.3125 6.203125 41.140625 7.25 
Q 44.96875 8.296875 48.78125 10.40625 
L 48.78125 2.09375 
Q 45.015625 0.34375 40.984375 -0.53125 
Q 36.96875 -1.421875 32.421875 -1.421875 
Q 20.0625 -1.421875 12.78125 6.34375 
Q 5.515625 14.109375 5.515625 27.296875 
Q 5.515625 40.671875 12.859375 48.328125 
Q 20.21875 56 33.015625 56 
Q 37.15625 56 41.109375 55.140625 
Q 45.0625 54.296875 48.78125 52.59375 
z
" id="DejaVuSans-63"/>
      <path d="M 34.28125 27.484375 
Q 23.390625 27.484375 19.1875 25 
Q 14.984375 22.515625 14.984375 16.5 
Q 14.984375 11.71875 18.140625 8.90625 
Q 21.296875 6.109375 26.703125 6.109375 
Q 34.1875 6.109375 38.703125 11.40625 
Q 43.21875 16.703125 43.21875 25.484375 
L 43.21875 27.484375 
z
M 52.203125 31.203125 
L 52.203125 0 
L 43.21875 0 
L 43.21875 8.296875 
Q 40.140625 3.328125 35.546875 0.953125 
Q 30.953125 -1.421875 24.3125 -1.421875 
Q 15.921875 -1.421875 10.953125 3.296875 
Q 6 8.015625 6 15.921875 
Q 6 25.140625 12.171875 29.828125 
Q 18.359375 34.515625 30.609375 34.515625 
L 43.21875 34.515625 
L 43.21875 35.40625 
Q 43.21875 41.609375 39.140625 45 
Q 35.0625 48.390625 27.6875 48.390625 
Q 23 48.390625 18.546875 47.265625 
Q 14.109375 46.140625 10.015625 43.890625 
L 10.015625 52.203125 
Q 14.9375 54.109375 19.578125 55.046875 
Q 24.21875 56 28.609375 56 
Q 40.484375 56 46.34375 49.84375 
Q 52.203125 43.703125 52.203125 31.203125 
z
" id="DejaVuSans-61"/>
      <path d="M 45.40625 46.390625 
L 45.40625 75.984375 
L 54.390625 75.984375 
L 54.390625 0 
L 45.40625 0 
L 45.40625 8.203125 
Q 42.578125 3.328125 38.25 0.953125 
Q 33.9375 -1.421875 27.875 -1.421875 
Q 17.96875 -1.421875 11.734375 6.484375 
Q 5.515625 14.40625 5.515625 27.296875 
Q 5.515625 40.1875 11.734375 48.09375 
Q 17.96875 56 27.875 56 
Q 33.9375 56 38.25 53.625 
Q 42.578125 51.265625 45.40625 46.390625 
z
M 14.796875 27.296875 
Q 14.796875 17.390625 18.875 11.75 
Q 22.953125 6.109375 30.078125 6.109375 
Q 37.203125 6.109375 41.296875 11.75 
Q 45.40625 17.390625 45.40625 27.296875 
Q 45.40625 37.203125 41.296875 42.84375 
Q 37.203125 48.484375 30.078125 48.484375 
Q 22.953125 48.484375 18.875 42.84375 
Q 14.796875 37.203125 14.796875 27.296875 
z
" id="DejaVuSans-64"/>
     </defs>
     <g transform="translate(571.409375 280.276563)scale(0.1 -0.1)">
      <use xlink:href="#DejaVuSans-44"/>
      <use x="77.001953" xlink:href="#DejaVuSans-65"/>
      <use x="138.525391" xlink:href="#DejaVuSans-63"/>
      <use x="193.505859" xlink:href="#DejaVuSans-61"/>
      <use x="254.785156" xlink:href="#DejaVuSans-64"/>
      <use x="318.261719" xlink:href="#DejaVuSans-65"/>
     </g>
    </g>
   </g>
   <g id="matplotlib.axis_2">
    <g id="ytick_1">
     <g id="line2d_8">
      <path clip-path="url(#p0d8a42176a)" d="M 144 220.319479 
L 1036.8 220.319479 
" style="fill:none;stroke:#b0b0b0;stroke-linecap:square;stroke-width:0.8;"/>
     </g>
     <g id="line2d_9">
      <defs>
       <path d="M 0 0 
L -3.5 0 
" id="mb7645ca01e" style="stroke:#000000;stroke-width:0.8;"/>
      </defs>
      <g>
       <use style="stroke:#000000;stroke-width:0.8;" x="144" xlink:href="#mb7645ca01e" y="220.319479"/>
      </g>
     </g>
     <g id="text_9">
      <!-- 1300 -->
      <g transform="translate(111.55 224.118698)scale(0.1 -0.1)">
       <use xlink:href="#DejaVuSans-31"/>
       <use x="63.623047" xlink:href="#DejaVuSans-33"/>
       <use x="127.246094" xlink:href="#DejaVuSans-30"/>
       <use x="190.869141" xlink:href="#DejaVuSans-30"/>
      </g>
     </g>
    </g>
    <g id="ytick_2">
     <g id="line2d_10">
      <path clip-path="url(#p0d8a42176a)" d="M 144 184.586882 
L 1036.8 184.586882 
" style="fill:none;stroke:#b0b0b0;stroke-linecap:square;stroke-width:0.8;"/>
     </g>
     <g id="line2d_11">
      <g>
       <use style="stroke:#000000;stroke-width:0.8;" x="144" xlink:href="#mb7645ca01e" y="184.586882"/>
      </g>
     </g>
     <g id="text_10">
      <!-- 1350 -->
      <g transform="translate(111.55 188.386101)scale(0.1 -0.1)">
       <use xlink:href="#DejaVuSans-31"/>
       <use x="63.623047" xlink:href="#DejaVuSans-33"/>
       <use x="127.246094" xlink:href="#DejaVuSans-35"/>
       <use x="190.869141" xlink:href="#DejaVuSans-30"/>
      </g>
     </g>
    </g>
    <g id="ytick_3">
     <g id="line2d_12">
      <path clip-path="url(#p0d8a42176a)" d="M 144 148.854285 
L 1036.8 148.854285 
" style="fill:none;stroke:#b0b0b0;stroke-linecap:square;stroke-width:0.8;"/>
     </g>
     <g id="line2d_13">
      <g>
       <use style="stroke:#000000;stroke-width:0.8;" x="144" xlink:href="#mb7645ca01e" y="148.854285"/>
      </g>
     </g>
     <g id="text_11">
      <!-- 1400 -->
      <defs>
       <path d="M 37.796875 64.3125 
L 12.890625 25.390625 
L 37.796875 25.390625 
z
M 35.203125 72.90625 
L 47.609375 72.90625 
L 47.609375 25.390625 
L 58.015625 25.390625 
L 58.015625 17.1875 
L 47.609375 17.1875 
L 47.609375 0 
L 37.796875 0 
L 37.796875 17.1875 
L 4.890625 17.1875 
L 4.890625 26.703125 
z
" id="DejaVuSans-34"/>
      </defs>
      <g transform="translate(111.55 152.653504)scale(0.1 -0.1)">
       <use xlink:href="#DejaVuSans-31"/>
       <use x="63.623047" xlink:href="#DejaVuSans-34"/>
       <use x="127.246094" xlink:href="#DejaVuSans-30"/>
       <use x="190.869141" xlink:href="#DejaVuSans-30"/>
      </g>
     </g>
    </g>
    <g id="ytick_4">
     <g id="line2d_14">
      <path clip-path="url(#p0d8a42176a)" d="M 144 113.121688 
L 1036.8 113.121688 
" style="fill:none;stroke:#b0b0b0;stroke-linecap:square;stroke-width:0.8;"/>
     </g>
     <g id="line2d_15">
      <g>
       <use style="stroke:#000000;stroke-width:0.8;" x="144" xlink:href="#mb7645ca01e" y="113.121688"/>
      </g>
     </g>
     <g id="text_12">
      <!-- 1450 -->
      <g transform="translate(111.55 116.920907)scale(0.1 -0.1)">
       <use xlink:href="#DejaVuSans-31"/>
       <use x="63.623047" xlink:href="#DejaVuSans-34"/>
       <use x="127.246094" xlink:href="#DejaVuSans-35"/>
       <use x="190.869141" xlink:href="#DejaVuSans-30"/>
      </g>
     </g>
    </g>
    <g id="ytick_5">
     <g id="line2d_16">
      <path clip-path="url(#p0d8a42176a)" d="M 144 77.389091 
L 1036.8 77.389091 
" style="fill:none;stroke:#b0b0b0;stroke-linecap:square;stroke-width:0.8;"/>
     </g>
     <g id="line2d_17">
      <g>
       <use style="stroke:#000000;stroke-width:0.8;" x="144" xlink:href="#mb7645ca01e" y="77.389091"/>
      </g>
     </g>
     <g id="text_13">
      <!-- 1500 -->
      <g transform="translate(111.55 81.18831)scale(0.1 -0.1)">
       <use xlink:href="#DejaVuSans-31"/>
       <use x="63.623047" xlink:href="#DejaVuSans-35"/>
       <use x="127.246094" xlink:href="#DejaVuSans-30"/>
       <use x="190.869141" xlink:href="#DejaVuSans-30"/>
      </g>
     </g>
    </g>
    <g id="ytick_6">
     <g id="line2d_18">
      <path clip-path="url(#p0d8a42176a)" d="M 144 41.656494 
L 1036.8 41.656494 
" style="fill:none;stroke:#b0b0b0;stroke-linecap:square;stroke-width:0.8;"/>
     </g>
     <g id="line2d_19">
      <g>
       <use style="stroke:#000000;stroke-width:0.8;" x="144" xlink:href="#mb7645ca01e" y="41.656494"/>
      </g>
     </g>
     <g id="text_14">
      <!-- 1550 -->
      <g transform="translate(111.55 45.455713)scale(0.1 -0.1)">
       <use xlink:href="#DejaVuSans-31"/>
       <use x="63.623047" xlink:href="#DejaVuSans-35"/>
       <use x="127.246094" xlink:href="#DejaVuSans-35"/>
       <use x="190.869141" xlink:href="#DejaVuSans-30"/>
      </g>
     </g>
    </g>
    <g id="text_15">
     <!-- value -->
     <defs>
      <path d="M 2.984375 54.6875 
L 12.5 54.6875 
L 29.59375 8.796875 
L 46.6875 54.6875 
L 56.203125 54.6875 
L 35.6875 0 
L 23.484375 0 
z
" id="DejaVuSans-76"/>
      <path d="M 9.421875 75.984375 
L 18.40625 75.984375 
L 18.40625 0 
L 9.421875 0 
z
" id="DejaVuSans-6c"/>
      <path d="M 8.5 21.578125 
L 8.5 54.6875 
L 17.484375 54.6875 
L 17.484375 21.921875 
Q 17.484375 14.15625 20.5 10.265625 
Q 23.53125 6.390625 29.59375 6.390625 
Q 36.859375 6.390625 41.078125 11.03125 
Q 45.3125 15.671875 45.3125 23.6875 
L 45.3125 54.6875 
L 54.296875 54.6875 
L 54.296875 0 
L 45.3125 0 
L 45.3125 8.40625 
Q 42.046875 3.421875 37.71875 1 
Q 33.40625 -1.421875 27.6875 -1.421875 
Q 18.265625 -1.421875 13.375 4.4375 
Q 8.5 10.296875 8.5 21.578125 
z
M 31.109375 56 
z
" id="DejaVuSans-75"/>
     </defs>
     <g transform="translate(105.470312 156.937813)rotate(-90)scale(0.1 -0.1)">
      <use xlink:href="#DejaVuSans-76"/>
      <use x="59.179688" xlink:href="#DejaVuSans-61"/>
      <use x="120.458984" xlink:href="#DejaVuSans-6c"/>
      <use x="148.242188" xlink:href="#DejaVuSans-75"/>
      <use x="211.621094" xlink:href="#DejaVuSans-65"/>
     </g>
    </g>
   </g>
   <g id="line2d_20">
    <path clip-path="url(#p0d8a42176a)" d="M 184.581818 232.540028 
L 186.823908 227.144405 
L 189.065997 234.683983 
L 195.792265 225.893765 
L 198.034355 230.003013 
L 200.276444 228.466512 
L 202.518533 226.10816 
L 204.760623 228.216383 
L 211.486891 225.500706 
L 213.72898 224.32153 
L 215.97107 225.822299 
L 218.213159 226.965742 
L 220.455249 231.61098 
L 227.181517 234.934112 
L 229.423606 233.111749 
L 231.665696 234.755449 
L 233.907785 231.968306 
L 236.149874 224.678856 
L 242.876143 218.782978 
L 245.118232 214.923857 
L 247.360321 212.672704 
L 249.602411 203.703822 
L 251.8445 206.955488 
L 258.570768 211.636458 
L 260.812858 210.171422 
L 263.054947 211.457795 
L 265.297037 213.17296 
L 267.539126 209.706898 
L 274.265394 215.745707 
L 276.507484 213.17296 
L 278.749573 211.171935 
L 280.991662 212.136715 
L 283.233752 208.49199 
L 289.96002 202.095855 
L 292.202109 195.914116 
L 294.444199 189.053457 
L 296.686288 197.986606 
L 298.928378 199.55884 
L 305.654646 198.129537 
L 307.896735 202.417448 
L 310.138825 203.989683 
L 312.380914 206.633895 
L 314.623004 211.779389 
L 321.349272 230.753398 
L 323.591361 231.896841 
L 325.833451 230.431804 
L 328.07554 230.824863 
L 330.317629 222.642098 
L 337.043898 225.500706 
L 339.285987 222.427703 
L 341.528076 215.352648 
L 343.770166 223.499681 
L 346.012255 217.818198 
L 352.738523 216.317429 
L 354.980613 214.816659 
L 357.222702 217.675267 
L 359.464792 213.458821 
L 361.706881 212.243912 
L 368.433149 206.348034 
L 370.675239 208.670653 
L 372.917328 213.387356 
L 375.159417 223.785541 
L 377.401507 223.606878 
L 384.127775 224.964717 
L 386.369864 227.251603 
L 388.611954 227.144405 
L 390.854043 232.361365 
L 393.096133 228.573709 
L 399.822401 220.319479 
L 402.06449 218.175524 
L 404.30658 216.424626 
L 406.548669 221.177062 
L 408.790758 224.392995 
L 415.517027 230.574735 
L 417.759116 237.220998 
L 420.001205 237.578324 
L 422.243295 237.685522 
L 433.453742 242.116364 
L 435.695831 240.579862 
L 437.937921 234.040797 
L 440.18001 231.61098 
L 446.906278 234.969844 
L 449.148368 232.968819 
L 451.390457 231.896841 
L 453.632546 241.080118 
L 455.874636 235.648764 
L 464.842993 233.754936 
L 467.085083 230.896328 
L 471.569262 229.538489 
L 480.537619 221.462923 
L 482.779709 220.962666 
L 485.021798 226.251091 
L 487.263887 234.040797 
L 493.990156 236.863672 
L 496.232245 240.937188 
L 498.474335 239.04336 
L 500.716424 232.004039 
L 502.958513 232.825888 
L 511.926871 235.827427 
L 514.16896 233.433343 
L 516.41105 233.933599 
L 518.653139 223.499681 
L 527.621497 202.98917 
L 529.863586 195.270929 
L 532.105676 194.949335 
L 534.347765 191.268878 
L 541.074033 199.880434 
L 543.316123 202.953437 
L 545.558212 197.200489 
L 547.800301 194.663475 
L 550.042391 183.693567 
L 556.768659 190.804354 
L 559.010748 190.768622 
L 561.252838 188.839061 
L 563.494927 163.50465 
L 565.737017 150.891043 
L 572.463285 144.780769 
L 574.705374 126.414214 
L 576.947464 146.03141 
L 579.189553 147.067655 
L 581.431642 142.422418 
L 588.157911 155.929339 
L 590.4 155.25042 
L 592.642089 139.206484 
L 594.884179 138.205971 
L 597.126268 156.965585 
L 603.852536 148.78282 
L 606.094626 154.893094 
L 608.336715 142.922674 
L 610.578805 139.027821 
L 612.820894 143.42293 
L 619.547162 139.992601 
L 621.789252 141.814964 
L 624.031341 141.457638 
L 626.27343 136.383609 
L 628.51552 120.482603 
L 635.241788 129.022694 
L 637.483877 130.594928 
L 639.725967 129.594415 
L 641.968056 137.348389 
L 644.210146 134.275386 
L 650.936414 135.240166 
L 653.178503 130.3448 
L 655.420593 129.165624 
L 657.662682 143.994652 
L 659.904771 119.017567 
L 666.63104 102.223246 
L 668.873129 102.223246 
L 671.115218 73.065447 
L 673.357308 80.426362 
L 675.599397 79.03279 
L 682.325665 74.030227 
L 684.567755 78.532534 
L 686.809844 67.919953 
L 689.051934 66.204788 
L 691.294023 66.490649 
L 698.020291 79.818908 
L 700.262381 74.137425 
L 704.74656 75.924054 
L 706.988649 74.673414 
L 715.957007 53.841309 
L 718.199096 50.839771 
L 720.441185 48.660083 
L 722.683275 57.092976 
L 729.409543 58.843873 
L 731.651632 50.339515 
L 733.893722 44.443636 
L 736.135811 56.592719 
L 738.377901 60.45184 
L 745.104169 70.814293 
L 747.346258 78.639732 
L 749.588348 84.071087 
L 751.830437 66.526381 
L 754.072526 75.17367 
L 760.798795 79.390116 
L 763.040884 75.888322 
L 765.282973 74.887809 
L 767.525063 76.888835 
L 769.767152 76.031252 
L 776.49342 61.595283 
L 778.73551 62.631528 
L 780.977599 56.842848 
L 783.219689 72.815318 
L 785.461778 84.607076 
L 792.188046 87.894474 
L 794.430136 96.3631 
L 796.672225 82.677515 
L 798.914314 65.168543 
L 801.156404 77.996545 
L 807.882672 76.495776 
L 810.124761 73.208377 
L 812.366851 72.207864 
L 814.60894 81.105281 
L 816.85103 92.289584 
L 823.577298 84.106819 
L 828.061477 88.037405 
L 830.303566 82.641783 
L 832.545655 84.53561 
L 839.271924 83.356435 
L 841.514013 87.858742 
L 843.756102 81.355409 
L 845.998192 79.85464 
L 848.240281 67.777022 
L 854.966549 82.820446 
L 857.208639 86.858229 
L 859.450728 83.034841 
L 861.692818 69.563652 
L 863.934907 71.100154 
L 870.661175 70.63563 
L 872.903265 85.285995 
L 875.145354 87.358486 
L 877.387443 88.644859 
L 879.629533 103.009363 
L 886.355801 106.904216 
L 888.597891 111.656652 
L 890.83998 103.902678 
L 893.082069 101.222733 
L 902.050427 100.508081 
L 904.292516 99.93636 
L 906.534606 97.613741 
L 908.776695 100.936872 
L 911.018785 102.794967 
L 917.745053 107.118612 
L 919.987142 109.798556 
L 922.229232 110.012952 
L 924.471321 109.798556 
L 926.71341 105.867971 
L 933.439679 105.153319 
L 935.681768 93.61169 
L 937.923857 95.183924 
L 940.165947 94.57647 
L 942.408036 106.225297 
L 949.134304 104.76026 
L 951.376394 102.437641 
L 953.618483 101.115535 
L 955.860573 100.400883 
L 958.102662 101.258466 
L 964.82893 93.182899 
L 967.07102 94.683668 
L 969.313109 95.934309 
L 971.555198 94.040481 
L 973.797288 92.396782 
L 980.523556 90.181361 
L 989.491914 69.170594 
L 996.218182 66.847975 
L 996.218182 66.847975 
" style="fill:none;stroke:#000000;stroke-linecap:square;stroke-width:2;"/>
   </g>
   <g id="line2d_21">
    <defs>
     <path d="M 0 3.5 
C 0.928211 3.5 1.81853 3.131218 2.474874 2.474874 
C 3.131218 1.81853 3.5 0.928211 3.5 0 
C 3.5 -0.928211 3.131218 -1.81853 2.474874 -2.474874 
C 1.81853 -3.131218 0.928211 -3.5 0 -3.5 
C -0.928211 -3.5 -1.81853 -3.131218 -2.474874 -2.474874 
C -3.131218 -1.81853 -3.5 -0.928211 -3.5 0 
C -3.5 0.928211 -3.131218 1.81853 -2.474874 2.474874 
C -1.81853 3.131218 -0.928211 3.5 0 3.5 
z
" id="m4312fd4ae8" style="stroke:#ff0000;"/>
    </defs>
    <g clip-path="url(#p0d8a42176a)">
     <use style="fill:#ff0000;stroke:#ff0000;" x="227.181517" xlink:href="#m4312fd4ae8" y="234.934112"/>
     <use style="fill:#ff0000;stroke:#ff0000;" x="229.423606" xlink:href="#m4312fd4ae8" y="233.111749"/>
     <use style="fill:#ff0000;stroke:#ff0000;" x="231.665696" xlink:href="#m4312fd4ae8" y="234.755449"/>
     <use style="fill:#ff0000;stroke:#ff0000;" x="233.907785" xlink:href="#m4312fd4ae8" y="231.968306"/>
     <use style="fill:#ff0000;stroke:#ff0000;" x="236.149874" xlink:href="#m4312fd4ae8" y="224.678856"/>
     <use style="fill:#ff0000;stroke:#ff0000;" x="242.876143" xlink:href="#m4312fd4ae8" y="218.782978"/>
     <use style="fill:#ff0000;stroke:#ff0000;" x="245.118232" xlink:href="#m4312fd4ae8" y="214.923857"/>
     <use style="fill:#ff0000;stroke:#ff0000;" x="247.360321" xlink:href="#m4312fd4ae8" y="212.672704"/>
     <use style="fill:#ff0000;stroke:#ff0000;" x="249.602411" xlink:href="#m4312fd4ae8" y="203.703822"/>
     <use style="fill:#ff0000;stroke:#ff0000;" x="251.8445" xlink:href="#m4312fd4ae8" y="206.955488"/>
     <use style="fill:#ff0000;stroke:#ff0000;" x="258.570768" xlink:href="#m4312fd4ae8" y="211.636458"/>
     <use style="fill:#ff0000;stroke:#ff0000;" x="294.444199" xlink:href="#m4312fd4ae8" y="189.053457"/>
     <use style="fill:#ff0000;stroke:#ff0000;" x="296.686288" xlink:href="#m4312fd4ae8" y="197.986606"/>
     <use style="fill:#ff0000;stroke:#ff0000;" x="368.433149" xlink:href="#m4312fd4ae8" y="206.348034"/>
     <use style="fill:#ff0000;stroke:#ff0000;" x="370.675239" xlink:href="#m4312fd4ae8" y="208.670653"/>
     <use style="fill:#ff0000;stroke:#ff0000;" x="372.917328" xlink:href="#m4312fd4ae8" y="213.387356"/>
     <use style="fill:#ff0000;stroke:#ff0000;" x="399.822401" xlink:href="#m4312fd4ae8" y="220.319479"/>
     <use style="fill:#ff0000;stroke:#ff0000;" x="420.001205" xlink:href="#m4312fd4ae8" y="237.578324"/>
     <use style="fill:#ff0000;stroke:#ff0000;" x="422.243295" xlink:href="#m4312fd4ae8" y="237.685522"/>
     <use style="fill:#ff0000;stroke:#ff0000;" x="453.632546" xlink:href="#m4312fd4ae8" y="241.080118"/>
     <use style="fill:#ff0000;stroke:#ff0000;" x="493.990156" xlink:href="#m4312fd4ae8" y="236.863672"/>
     <use style="fill:#ff0000;stroke:#ff0000;" x="610.578805" xlink:href="#m4312fd4ae8" y="139.027821"/>
     <use style="fill:#ff0000;stroke:#ff0000;" x="619.547162" xlink:href="#m4312fd4ae8" y="139.992601"/>
     <use style="fill:#ff0000;stroke:#ff0000;" x="621.789252" xlink:href="#m4312fd4ae8" y="141.814964"/>
     <use style="fill:#ff0000;stroke:#ff0000;" x="624.031341" xlink:href="#m4312fd4ae8" y="141.457638"/>
     <use style="fill:#ff0000;stroke:#ff0000;" x="626.27343" xlink:href="#m4312fd4ae8" y="136.383609"/>
     <use style="fill:#ff0000;stroke:#ff0000;" x="628.51552" xlink:href="#m4312fd4ae8" y="120.482603"/>
     <use style="fill:#ff0000;stroke:#ff0000;" x="635.241788" xlink:href="#m4312fd4ae8" y="129.022694"/>
     <use style="fill:#ff0000;stroke:#ff0000;" x="637.483877" xlink:href="#m4312fd4ae8" y="130.594928"/>
     <use style="fill:#ff0000;stroke:#ff0000;" x="639.725967" xlink:href="#m4312fd4ae8" y="129.594415"/>
     <use style="fill:#ff0000;stroke:#ff0000;" x="641.968056" xlink:href="#m4312fd4ae8" y="137.348389"/>
     <use style="fill:#ff0000;stroke:#ff0000;" x="653.178503" xlink:href="#m4312fd4ae8" y="130.3448"/>
     <use style="fill:#ff0000;stroke:#ff0000;" x="655.420593" xlink:href="#m4312fd4ae8" y="129.165624"/>
     <use style="fill:#ff0000;stroke:#ff0000;" x="657.662682" xlink:href="#m4312fd4ae8" y="143.994652"/>
     <use style="fill:#ff0000;stroke:#ff0000;" x="659.904771" xlink:href="#m4312fd4ae8" y="119.017567"/>
     <use style="fill:#ff0000;stroke:#ff0000;" x="671.115218" xlink:href="#m4312fd4ae8" y="73.065447"/>
     <use style="fill:#ff0000;stroke:#ff0000;" x="691.294023" xlink:href="#m4312fd4ae8" y="66.490649"/>
     <use style="fill:#ff0000;stroke:#ff0000;" x="698.020291" xlink:href="#m4312fd4ae8" y="79.818908"/>
     <use style="fill:#ff0000;stroke:#ff0000;" x="702.50447" xlink:href="#m4312fd4ae8" y="75.066472"/>
     <use style="fill:#ff0000;stroke:#ff0000;" x="704.74656" xlink:href="#m4312fd4ae8" y="75.924054"/>
     <use style="fill:#ff0000;stroke:#ff0000;" x="706.988649" xlink:href="#m4312fd4ae8" y="74.673414"/>
     <use style="fill:#ff0000;stroke:#ff0000;" x="715.957007" xlink:href="#m4312fd4ae8" y="53.841309"/>
     <use style="fill:#ff0000;stroke:#ff0000;" x="722.683275" xlink:href="#m4312fd4ae8" y="57.092976"/>
     <use style="fill:#ff0000;stroke:#ff0000;" x="736.135811" xlink:href="#m4312fd4ae8" y="56.592719"/>
     <use style="fill:#ff0000;stroke:#ff0000;" x="738.377901" xlink:href="#m4312fd4ae8" y="60.45184"/>
     <use style="fill:#ff0000;stroke:#ff0000;" x="745.104169" xlink:href="#m4312fd4ae8" y="70.814293"/>
     <use style="fill:#ff0000;stroke:#ff0000;" x="747.346258" xlink:href="#m4312fd4ae8" y="78.639732"/>
     <use style="fill:#ff0000;stroke:#ff0000;" x="749.588348" xlink:href="#m4312fd4ae8" y="84.071087"/>
     <use style="fill:#ff0000;stroke:#ff0000;" x="751.830437" xlink:href="#m4312fd4ae8" y="66.526381"/>
     <use style="fill:#ff0000;stroke:#ff0000;" x="776.49342" xlink:href="#m4312fd4ae8" y="61.595283"/>
     <use style="fill:#ff0000;stroke:#ff0000;" x="778.73551" xlink:href="#m4312fd4ae8" y="62.631528"/>
     <use style="fill:#ff0000;stroke:#ff0000;" x="780.977599" xlink:href="#m4312fd4ae8" y="56.842848"/>
     <use style="fill:#ff0000;stroke:#ff0000;" x="783.219689" xlink:href="#m4312fd4ae8" y="72.815318"/>
     <use style="fill:#ff0000;stroke:#ff0000;" x="843.756102" xlink:href="#m4312fd4ae8" y="81.355409"/>
     <use style="fill:#ff0000;stroke:#ff0000;" x="908.776695" xlink:href="#m4312fd4ae8" y="100.936872"/>
     <use style="fill:#ff0000;stroke:#ff0000;" x="911.018785" xlink:href="#m4312fd4ae8" y="102.794967"/>
     <use style="fill:#ff0000;stroke:#ff0000;" x="917.745053" xlink:href="#m4312fd4ae8" y="107.118612"/>
     <use style="fill:#ff0000;stroke:#ff0000;" x="919.987142" xlink:href="#m4312fd4ae8" y="109.798556"/>
     <use style="fill:#ff0000;stroke:#ff0000;" x="922.229232" xlink:href="#m4312fd4ae8" y="110.012952"/>
     <use style="fill:#ff0000;stroke:#ff0000;" x="924.471321" xlink:href="#m4312fd4ae8" y="109.798556"/>
     <use style="fill:#ff0000;stroke:#ff0000;" x="926.71341" xlink:href="#m4312fd4ae8" y="105.867971"/>
     <use style="fill:#ff0000;stroke:#ff0000;" x="989.491914" xlink:href="#m4312fd4ae8" y="69.170594"/>
     <use style="fill:#ff0000;stroke:#ff0000;" x="996.218182" xlink:href="#m4312fd4ae8" y="66.847975"/>
     <use style="fill:#ff0000;stroke:#ff0000;" x="550.042391" xlink:href="#m4312fd4ae8" y="183.693567"/>
     <use style="fill:#ff0000;stroke:#ff0000;" x="559.010748" xlink:href="#m4312fd4ae8" y="190.768622"/>
     <use style="fill:#ff0000;stroke:#ff0000;" x="565.737017" xlink:href="#m4312fd4ae8" y="150.891043"/>
     <use style="fill:#ff0000;stroke:#ff0000;" x="574.705374" xlink:href="#m4312fd4ae8" y="126.414214"/>
     <use style="fill:#ff0000;stroke:#ff0000;" x="579.189553" xlink:href="#m4312fd4ae8" y="147.067655"/>
     <use style="fill:#ff0000;stroke:#ff0000;" x="588.157911" xlink:href="#m4312fd4ae8" y="155.929339"/>
     <use style="fill:#ff0000;stroke:#ff0000;" x="543.316123" xlink:href="#m4312fd4ae8" y="202.953437"/>
     <use style="fill:#ff0000;stroke:#ff0000;" x="514.16896" xlink:href="#m4312fd4ae8" y="233.433343"/>
     <use style="fill:#ff0000;stroke:#ff0000;" x="823.577298" xlink:href="#m4312fd4ae8" y="84.106819"/>
     <use style="fill:#ff0000;stroke:#ff0000;" x="886.355801" xlink:href="#m4312fd4ae8" y="106.904216"/>
     <use style="fill:#ff0000;stroke:#ff0000;" x="877.387443" xlink:href="#m4312fd4ae8" y="88.644859"/>
     <use style="fill:#ff0000;stroke:#ff0000;" x="854.966549" xlink:href="#m4312fd4ae8" y="82.820446"/>
     <use style="fill:#ff0000;stroke:#ff0000;" x="863.934907" xlink:href="#m4312fd4ae8" y="71.100154"/>
    </g>
   </g>
   <g id="patch_3">
    <path d="M 144 252 
L 144 34.56 
" style="fill:none;stroke:#000000;stroke-linecap:square;stroke-linejoin:miter;stroke-width:0.8;"/>
   </g>
   <g id="patch_4">
    <path d="M 1036.8 252 
L 1036.8 34.56 
" style="fill:none;stroke:#000000;stroke-linecap:square;stroke-linejoin:miter;stroke-width:0.8;"/>
   </g>
   <g id="patch_5">
    <path d="M 144 252 
L 1036.8 252 
" style="fill:none;stroke:#000000;stroke-linecap:square;stroke-linejoin:miter;stroke-width:0.8;"/>
   </g>
   <g id="patch_6">
    <path d="M 144 34.56 
L 1036.8 34.56 
" style="fill:none;stroke:#000000;stroke-linecap:square;stroke-linejoin:miter;stroke-width:0.8;"/>
   </g>
   <g id="legend_1">
    <g id="patch_7">
     <path d="M 155.2 94.33 
L 250.105 94.33 
Q 253.305 94.33 253.305 91.13 
L 253.305 45.76 
Q 253.305 42.56 250.105 42.56 
L 155.2 42.56 
Q 152 42.56 152 45.76 
L 152 91.13 
Q 152 94.33 155.2 94.33 
z
" style="fill:#ffffff;opacity:0.8;stroke:#cccccc;stroke-linejoin:miter;"/>
    </g>
    <g id="line2d_22">
     <path d="M 158.4 55.5175 
L 190.4 55.5175 
" style="fill:none;stroke:#000000;stroke-linecap:square;stroke-width:2;"/>
    </g>
    <g id="line2d_23"/>
    <g id="text_16">
     <!-- value -->
     <g transform="translate(203.2 61.1175)scale(0.16 -0.16)">
      <use xlink:href="#DejaVuSans-76"/>
      <use x="59.179688" xlink:href="#DejaVuSans-61"/>
      <use x="120.458984" xlink:href="#DejaVuSans-6c"/>
      <use x="148.242188" xlink:href="#DejaVuSans-75"/>
      <use x="211.621094" xlink:href="#DejaVuSans-65"/>
     </g>
    </g>
    <g id="line2d_24"/>
    <g id="line2d_25">
     <g>
      <use style="fill:#ff0000;stroke:#ff0000;" x="174.4" xlink:href="#m4312fd4ae8" y="79.0025"/>
     </g>
    </g>
    <g id="text_17">
     <!-- value -->
     <g transform="translate(203.2 84.6025)scale(0.16 -0.16)">
      <use xlink:href="#DejaVuSans-76"/>
      <use x="59.179688" xlink:href="#DejaVuSans-61"/>
      <use x="120.458984" xlink:href="#DejaVuSans-6c"/>
      <use x="148.242188" xlink:href="#DejaVuSans-75"/>
      <use x="211.621094" xlink:href="#DejaVuSans-65"/>
     </g>
    </g>
   </g>
  </g>
 </g>
 <defs>
  <clipPath id="p0d8a42176a">
   <rect height="217.44" width="892.8" x="144" y="34.56"/>
  </clipPath>
 </defs>
</svg>
