<?xml version="1.0" encoding="utf-8" standalone="no"?>
<!DOCTYPE svg PUBLIC "-//W3C//DTD SVG 1.1//EN"
  "http://www.w3.org/Graphics/SVG/1.1/DTD/svg11.dtd">
<!-- Created with matplotlib (http://matplotlib.org/) -->
<svg height="360pt" version="1.1" viewBox="0 0 1296 360" width="1296pt" xmlns="http://www.w3.org/2000/svg" xmlns:xlink="http://www.w3.org/1999/xlink">
 <defs>
  <style type="text/css">
*{stroke-linecap:butt;stroke-linejoin:round;}
  </style>
 </defs>
 <g id="figure_1">
  <g id="patch_1">
   <path d="M 0 360 
L 1296 360 
L 1296 0 
L 0 0 
z
" style="fill:#ffffff;"/>
  </g>
  <g id="axes_1">
   <g id="patch_2">
    <path d="M 162 315 
L 1166.4 315 
L 1166.4 43.2 
L 162 43.2 
z
" style="fill:#ffffff;"/>
   </g>
   <g id="matplotlib.axis_1">
    <g id="xtick_1">
     <g id="line2d_1">
      <defs>
       <path d="M 0 0 
L 0 3.5 
" id="m24816c092c" style="stroke:#000000;stroke-width:0.8;"/>
      </defs>
      <g>
       <use style="stroke:#000000;stroke-width:0.8;" x="236.081321" xlink:href="#m24816c092c" y="315"/>
      </g>
     </g>
     <g id="text_1">
      <!-- 2021-03 -->
      <defs>
       <path d="M 19.1875 8.296875 
L 53.609375 8.296875 
L 53.609375 0 
L 7.328125 0 
L 7.328125 8.296875 
Q 12.9375 14.109375 22.625 23.890625 
Q 32.328125 33.6875 34.8125 36.53125 
Q 39.546875 41.84375 41.421875 45.53125 
Q 43.3125 49.21875 43.3125 52.78125 
Q 43.3125 58.59375 39.234375 62.25 
Q 35.15625 65.921875 28.609375 65.921875 
Q 23.96875 65.921875 18.8125 64.3125 
Q 13.671875 62.703125 7.8125 59.421875 
L 7.8125 69.390625 
Q 13.765625 71.78125 18.9375 73 
Q 24.125 74.21875 28.421875 74.21875 
Q 39.75 74.21875 46.484375 68.546875 
Q 53.21875 62.890625 53.21875 53.421875 
Q 53.21875 48.921875 51.53125 44.890625 
Q 49.859375 40.875 45.40625 35.40625 
Q 44.1875 33.984375 37.640625 27.21875 
Q 31.109375 20.453125 19.1875 8.296875 
z
" id="DejaVuSans-32"/>
       <path d="M 31.78125 66.40625 
Q 24.171875 66.40625 20.328125 58.90625 
Q 16.5 51.421875 16.5 36.375 
Q 16.5 21.390625 20.328125 13.890625 
Q 24.171875 6.390625 31.78125 6.390625 
Q 39.453125 6.390625 43.28125 13.890625 
Q 47.125 21.390625 47.125 36.375 
Q 47.125 51.421875 43.28125 58.90625 
Q 39.453125 66.40625 31.78125 66.40625 
z
M 31.78125 74.21875 
Q 44.046875 74.21875 50.515625 64.515625 
Q 56.984375 54.828125 56.984375 36.375 
Q 56.984375 17.96875 50.515625 8.265625 
Q 44.046875 -1.421875 31.78125 -1.421875 
Q 19.53125 -1.421875 13.0625 8.265625 
Q 6.59375 17.96875 6.59375 36.375 
Q 6.59375 54.828125 13.0625 64.515625 
Q 19.53125 74.21875 31.78125 74.21875 
z
" id="DejaVuSans-30"/>
       <path d="M 12.40625 8.296875 
L 28.515625 8.296875 
L 28.515625 63.921875 
L 10.984375 60.40625 
L 10.984375 69.390625 
L 28.421875 72.90625 
L 38.28125 72.90625 
L 38.28125 8.296875 
L 54.390625 8.296875 
L 54.390625 0 
L 12.40625 0 
z
" id="DejaVuSans-31"/>
       <path d="M 4.890625 31.390625 
L 31.203125 31.390625 
L 31.203125 23.390625 
L 4.890625 23.390625 
z
" id="DejaVuSans-2d"/>
       <path d="M 40.578125 39.3125 
Q 47.65625 37.796875 51.625 33 
Q 55.609375 28.21875 55.609375 21.1875 
Q 55.609375 10.40625 48.1875 4.484375 
Q 40.765625 -1.421875 27.09375 -1.421875 
Q 22.515625 -1.421875 17.65625 -0.515625 
Q 12.796875 0.390625 7.625 2.203125 
L 7.625 11.71875 
Q 11.71875 9.328125 16.59375 8.109375 
Q 21.484375 6.890625 26.8125 6.890625 
Q 36.078125 6.890625 40.9375 10.546875 
Q 45.796875 14.203125 45.796875 21.1875 
Q 45.796875 27.640625 41.28125 31.265625 
Q 36.765625 34.90625 28.71875 34.90625 
L 20.21875 34.90625 
L 20.21875 43.015625 
L 29.109375 43.015625 
Q 36.375 43.015625 40.234375 45.921875 
Q 44.09375 48.828125 44.09375 54.296875 
Q 44.09375 59.90625 40.109375 62.90625 
Q 36.140625 65.921875 28.71875 65.921875 
Q 24.65625 65.921875 20.015625 65.03125 
Q 15.375 64.15625 9.8125 62.3125 
L 9.8125 71.09375 
Q 15.4375 72.65625 20.34375 73.4375 
Q 25.25 74.21875 29.59375 74.21875 
Q 40.828125 74.21875 47.359375 69.109375 
Q 53.90625 64.015625 53.90625 55.328125 
Q 53.90625 49.265625 50.4375 45.09375 
Q 46.96875 40.921875 40.578125 39.3125 
z
" id="DejaVuSans-33"/>
      </defs>
      <g transform="translate(215.189914 329.598437)scale(0.1 -0.1)">
       <use xlink:href="#DejaVuSans-32"/>
       <use x="63.623047" xlink:href="#DejaVuSans-30"/>
       <use x="127.246094" xlink:href="#DejaVuSans-32"/>
       <use x="190.869141" xlink:href="#DejaVuSans-31"/>
       <use x="254.492188" xlink:href="#DejaVuSans-2d"/>
       <use x="290.576172" xlink:href="#DejaVuSans-30"/>
       <use x="354.199219" xlink:href="#DejaVuSans-33"/>
      </g>
     </g>
    </g>
    <g id="xtick_2">
     <g id="line2d_2">
      <g>
       <use style="stroke:#000000;stroke-width:0.8;" x="378.024412" xlink:href="#m24816c092c" y="315"/>
      </g>
     </g>
     <g id="text_2">
      <!-- 2021-04 -->
      <defs>
       <path d="M 37.796875 64.3125 
L 12.890625 25.390625 
L 37.796875 25.390625 
z
M 35.203125 72.90625 
L 47.609375 72.90625 
L 47.609375 25.390625 
L 58.015625 25.390625 
L 58.015625 17.1875 
L 47.609375 17.1875 
L 47.609375 0 
L 37.796875 0 
L 37.796875 17.1875 
L 4.890625 17.1875 
L 4.890625 26.703125 
z
" id="DejaVuSans-34"/>
      </defs>
      <g transform="translate(357.133006 329.598437)scale(0.1 -0.1)">
       <use xlink:href="#DejaVuSans-32"/>
       <use x="63.623047" xlink:href="#DejaVuSans-30"/>
       <use x="127.246094" xlink:href="#DejaVuSans-32"/>
       <use x="190.869141" xlink:href="#DejaVuSans-31"/>
       <use x="254.492188" xlink:href="#DejaVuSans-2d"/>
       <use x="290.576172" xlink:href="#DejaVuSans-30"/>
       <use x="354.199219" xlink:href="#DejaVuSans-34"/>
      </g>
     </g>
    </g>
    <g id="xtick_3">
     <g id="line2d_3">
      <g>
       <use style="stroke:#000000;stroke-width:0.8;" x="515.388694" xlink:href="#m24816c092c" y="315"/>
      </g>
     </g>
     <g id="text_3">
      <!-- 2021-05 -->
      <defs>
       <path d="M 10.796875 72.90625 
L 49.515625 72.90625 
L 49.515625 64.59375 
L 19.828125 64.59375 
L 19.828125 46.734375 
Q 21.96875 47.46875 24.109375 47.828125 
Q 26.265625 48.1875 28.421875 48.1875 
Q 40.625 48.1875 47.75 41.5 
Q 54.890625 34.8125 54.890625 23.390625 
Q 54.890625 11.625 47.5625 5.09375 
Q 40.234375 -1.421875 26.90625 -1.421875 
Q 22.3125 -1.421875 17.546875 -0.640625 
Q 12.796875 0.140625 7.71875 1.703125 
L 7.71875 11.625 
Q 12.109375 9.234375 16.796875 8.0625 
Q 21.484375 6.890625 26.703125 6.890625 
Q 35.15625 6.890625 40.078125 11.328125 
Q 45.015625 15.765625 45.015625 23.390625 
Q 45.015625 31 40.078125 35.4375 
Q 35.15625 39.890625 26.703125 39.890625 
Q 22.75 39.890625 18.8125 39.015625 
Q 14.890625 38.140625 10.796875 36.28125 
z
" id="DejaVuSans-35"/>
      </defs>
      <g transform="translate(494.497288 329.598437)scale(0.1 -0.1)">
       <use xlink:href="#DejaVuSans-32"/>
       <use x="63.623047" xlink:href="#DejaVuSans-30"/>
       <use x="127.246094" xlink:href="#DejaVuSans-32"/>
       <use x="190.869141" xlink:href="#DejaVuSans-31"/>
       <use x="254.492188" xlink:href="#DejaVuSans-2d"/>
       <use x="290.576172" xlink:href="#DejaVuSans-30"/>
       <use x="354.199219" xlink:href="#DejaVuSans-35"/>
      </g>
     </g>
    </g>
    <g id="xtick_4">
     <g id="line2d_4">
      <g>
       <use style="stroke:#000000;stroke-width:0.8;" x="657.331786" xlink:href="#m24816c092c" y="315"/>
      </g>
     </g>
     <g id="text_4">
      <!-- 2021-06 -->
      <defs>
       <path d="M 33.015625 40.375 
Q 26.375 40.375 22.484375 35.828125 
Q 18.609375 31.296875 18.609375 23.390625 
Q 18.609375 15.53125 22.484375 10.953125 
Q 26.375 6.390625 33.015625 6.390625 
Q 39.65625 6.390625 43.53125 10.953125 
Q 47.40625 15.53125 47.40625 23.390625 
Q 47.40625 31.296875 43.53125 35.828125 
Q 39.65625 40.375 33.015625 40.375 
z
M 52.59375 71.296875 
L 52.59375 62.3125 
Q 48.875 64.0625 45.09375 64.984375 
Q 41.3125 65.921875 37.59375 65.921875 
Q 27.828125 65.921875 22.671875 59.328125 
Q 17.53125 52.734375 16.796875 39.40625 
Q 19.671875 43.65625 24.015625 45.921875 
Q 28.375 48.1875 33.59375 48.1875 
Q 44.578125 48.1875 50.953125 41.515625 
Q 57.328125 34.859375 57.328125 23.390625 
Q 57.328125 12.15625 50.6875 5.359375 
Q 44.046875 -1.421875 33.015625 -1.421875 
Q 20.359375 -1.421875 13.671875 8.265625 
Q 6.984375 17.96875 6.984375 36.375 
Q 6.984375 53.65625 15.1875 63.9375 
Q 23.390625 74.21875 37.203125 74.21875 
Q 40.921875 74.21875 44.703125 73.484375 
Q 48.484375 72.75 52.59375 71.296875 
z
" id="DejaVuSans-36"/>
      </defs>
      <g transform="translate(636.44038 329.598437)scale(0.1 -0.1)">
       <use xlink:href="#DejaVuSans-32"/>
       <use x="63.623047" xlink:href="#DejaVuSans-30"/>
       <use x="127.246094" xlink:href="#DejaVuSans-32"/>
       <use x="190.869141" xlink:href="#DejaVuSans-31"/>
       <use x="254.492188" xlink:href="#DejaVuSans-2d"/>
       <use x="290.576172" xlink:href="#DejaVuSans-30"/>
       <use x="354.199219" xlink:href="#DejaVuSans-36"/>
      </g>
     </g>
    </g>
    <g id="xtick_5">
     <g id="line2d_5">
      <g>
       <use style="stroke:#000000;stroke-width:0.8;" x="794.696068" xlink:href="#m24816c092c" y="315"/>
      </g>
     </g>
     <g id="text_5">
      <!-- 2021-07 -->
      <defs>
       <path d="M 8.203125 72.90625 
L 55.078125 72.90625 
L 55.078125 68.703125 
L 28.609375 0 
L 18.3125 0 
L 43.21875 64.59375 
L 8.203125 64.59375 
z
" id="DejaVuSans-37"/>
      </defs>
      <g transform="translate(773.804662 329.598437)scale(0.1 -0.1)">
       <use xlink:href="#DejaVuSans-32"/>
       <use x="63.623047" xlink:href="#DejaVuSans-30"/>
       <use x="127.246094" xlink:href="#DejaVuSans-32"/>
       <use x="190.869141" xlink:href="#DejaVuSans-31"/>
       <use x="254.492188" xlink:href="#DejaVuSans-2d"/>
       <use x="290.576172" xlink:href="#DejaVuSans-30"/>
       <use x="354.199219" xlink:href="#DejaVuSans-37"/>
      </g>
     </g>
    </g>
    <g id="xtick_6">
     <g id="line2d_6">
      <g>
       <use style="stroke:#000000;stroke-width:0.8;" x="936.63916" xlink:href="#m24816c092c" y="315"/>
      </g>
     </g>
     <g id="text_6">
      <!-- 2021-08 -->
      <defs>
       <path d="M 31.78125 34.625 
Q 24.75 34.625 20.71875 30.859375 
Q 16.703125 27.09375 16.703125 20.515625 
Q 16.703125 13.921875 20.71875 10.15625 
Q 24.75 6.390625 31.78125 6.390625 
Q 38.8125 6.390625 42.859375 10.171875 
Q 46.921875 13.96875 46.921875 20.515625 
Q 46.921875 27.09375 42.890625 30.859375 
Q 38.875 34.625 31.78125 34.625 
z
M 21.921875 38.8125 
Q 15.578125 40.375 12.03125 44.71875 
Q 8.5 49.078125 8.5 55.328125 
Q 8.5 64.0625 14.71875 69.140625 
Q 20.953125 74.21875 31.78125 74.21875 
Q 42.671875 74.21875 48.875 69.140625 
Q 55.078125 64.0625 55.078125 55.328125 
Q 55.078125 49.078125 51.53125 44.71875 
Q 48 40.375 41.703125 38.8125 
Q 48.828125 37.15625 52.796875 32.3125 
Q 56.78125 27.484375 56.78125 20.515625 
Q 56.78125 9.90625 50.3125 4.234375 
Q 43.84375 -1.421875 31.78125 -1.421875 
Q 19.734375 -1.421875 13.25 4.234375 
Q 6.78125 9.90625 6.78125 20.515625 
Q 6.78125 27.484375 10.78125 32.3125 
Q 14.796875 37.15625 21.921875 38.8125 
z
M 18.3125 54.390625 
Q 18.3125 48.734375 21.84375 45.5625 
Q 25.390625 42.390625 31.78125 42.390625 
Q 38.140625 42.390625 41.71875 45.5625 
Q 45.3125 48.734375 45.3125 54.390625 
Q 45.3125 60.0625 41.71875 63.234375 
Q 38.140625 66.40625 31.78125 66.40625 
Q 25.390625 66.40625 21.84375 63.234375 
Q 18.3125 60.0625 18.3125 54.390625 
z
" id="DejaVuSans-38"/>
      </defs>
      <g transform="translate(915.747753 329.598437)scale(0.1 -0.1)">
       <use xlink:href="#DejaVuSans-32"/>
       <use x="63.623047" xlink:href="#DejaVuSans-30"/>
       <use x="127.246094" xlink:href="#DejaVuSans-32"/>
       <use x="190.869141" xlink:href="#DejaVuSans-31"/>
       <use x="254.492188" xlink:href="#DejaVuSans-2d"/>
       <use x="290.576172" xlink:href="#DejaVuSans-30"/>
       <use x="354.199219" xlink:href="#DejaVuSans-38"/>
      </g>
     </g>
    </g>
    <g id="xtick_7">
     <g id="line2d_7">
      <g>
       <use style="stroke:#000000;stroke-width:0.8;" x="1078.582251" xlink:href="#m24816c092c" y="315"/>
      </g>
     </g>
     <g id="text_7">
      <!-- 2021-09 -->
      <defs>
       <path d="M 10.984375 1.515625 
L 10.984375 10.5 
Q 14.703125 8.734375 18.5 7.8125 
Q 22.3125 6.890625 25.984375 6.890625 
Q 35.75 6.890625 40.890625 13.453125 
Q 46.046875 20.015625 46.78125 33.40625 
Q 43.953125 29.203125 39.59375 26.953125 
Q 35.25 24.703125 29.984375 24.703125 
Q 19.046875 24.703125 12.671875 31.3125 
Q 6.296875 37.9375 6.296875 49.421875 
Q 6.296875 60.640625 12.9375 67.421875 
Q 19.578125 74.21875 30.609375 74.21875 
Q 43.265625 74.21875 49.921875 64.515625 
Q 56.59375 54.828125 56.59375 36.375 
Q 56.59375 19.140625 48.40625 8.859375 
Q 40.234375 -1.421875 26.421875 -1.421875 
Q 22.703125 -1.421875 18.890625 -0.6875 
Q 15.09375 0.046875 10.984375 1.515625 
z
M 30.609375 32.421875 
Q 37.25 32.421875 41.125 36.953125 
Q 45.015625 41.5 45.015625 49.421875 
Q 45.015625 57.28125 41.125 61.84375 
Q 37.25 66.40625 30.609375 66.40625 
Q 23.96875 66.40625 20.09375 61.84375 
Q 16.21875 57.28125 16.21875 49.421875 
Q 16.21875 41.5 20.09375 36.953125 
Q 23.96875 32.421875 30.609375 32.421875 
z
" id="DejaVuSans-39"/>
      </defs>
      <g transform="translate(1057.690845 329.598437)scale(0.1 -0.1)">
       <use xlink:href="#DejaVuSans-32"/>
       <use x="63.623047" xlink:href="#DejaVuSans-30"/>
       <use x="127.246094" xlink:href="#DejaVuSans-32"/>
       <use x="190.869141" xlink:href="#DejaVuSans-31"/>
       <use x="254.492188" xlink:href="#DejaVuSans-2d"/>
       <use x="290.576172" xlink:href="#DejaVuSans-30"/>
       <use x="354.199219" xlink:href="#DejaVuSans-39"/>
      </g>
     </g>
    </g>
    <g id="text_8">
     <!-- time -->
     <defs>
      <path d="M 18.3125 70.21875 
L 18.3125 54.6875 
L 36.8125 54.6875 
L 36.8125 47.703125 
L 18.3125 47.703125 
L 18.3125 18.015625 
Q 18.3125 11.328125 20.140625 9.421875 
Q 21.96875 7.515625 27.59375 7.515625 
L 36.8125 7.515625 
L 36.8125 0 
L 27.59375 0 
Q 17.1875 0 13.234375 3.875 
Q 9.28125 7.765625 9.28125 18.015625 
L 9.28125 47.703125 
L 2.6875 47.703125 
L 2.6875 54.6875 
L 9.28125 54.6875 
L 9.28125 70.21875 
z
" id="DejaVuSans-74"/>
      <path d="M 9.421875 54.6875 
L 18.40625 54.6875 
L 18.40625 0 
L 9.421875 0 
z
M 9.421875 75.984375 
L 18.40625 75.984375 
L 18.40625 64.59375 
L 9.421875 64.59375 
z
" id="DejaVuSans-69"/>
      <path d="M 52 44.1875 
Q 55.375 50.25 60.0625 53.125 
Q 64.75 56 71.09375 56 
Q 79.640625 56 84.28125 50.015625 
Q 88.921875 44.046875 88.921875 33.015625 
L 88.921875 0 
L 79.890625 0 
L 79.890625 32.71875 
Q 79.890625 40.578125 77.09375 44.375 
Q 74.3125 48.1875 68.609375 48.1875 
Q 61.625 48.1875 57.5625 43.546875 
Q 53.515625 38.921875 53.515625 30.90625 
L 53.515625 0 
L 44.484375 0 
L 44.484375 32.71875 
Q 44.484375 40.625 41.703125 44.40625 
Q 38.921875 48.1875 33.109375 48.1875 
Q 26.21875 48.1875 22.15625 43.53125 
Q 18.109375 38.875 18.109375 30.90625 
L 18.109375 0 
L 9.078125 0 
L 9.078125 54.6875 
L 18.109375 54.6875 
L 18.109375 46.1875 
Q 21.1875 51.21875 25.484375 53.609375 
Q 29.78125 56 35.6875 56 
Q 41.65625 56 45.828125 52.96875 
Q 50 49.953125 52 44.1875 
z
" id="DejaVuSans-6d"/>
      <path d="M 56.203125 29.59375 
L 56.203125 25.203125 
L 14.890625 25.203125 
Q 15.484375 15.921875 20.484375 11.0625 
Q 25.484375 6.203125 34.421875 6.203125 
Q 39.59375 6.203125 44.453125 7.46875 
Q 49.3125 8.734375 54.109375 11.28125 
L 54.109375 2.78125 
Q 49.265625 0.734375 44.1875 -0.34375 
Q 39.109375 -1.421875 33.890625 -1.421875 
Q 20.796875 -1.421875 13.15625 6.1875 
Q 5.515625 13.8125 5.515625 26.8125 
Q 5.515625 40.234375 12.765625 48.109375 
Q 20.015625 56 32.328125 56 
Q 43.359375 56 49.78125 48.890625 
Q 56.203125 41.796875 56.203125 29.59375 
z
M 47.21875 32.234375 
Q 47.125 39.59375 43.09375 43.984375 
Q 39.0625 48.390625 32.421875 48.390625 
Q 24.90625 48.390625 20.390625 44.140625 
Q 15.875 39.890625 15.1875 32.171875 
z
" id="DejaVuSans-65"/>
     </defs>
     <g transform="translate(652.903906 343.276563)scale(0.1 -0.1)">
      <use xlink:href="#DejaVuSans-74"/>
      <use x="39.208984" xlink:href="#DejaVuSans-69"/>
      <use x="66.992188" xlink:href="#DejaVuSans-6d"/>
      <use x="164.404297" xlink:href="#DejaVuSans-65"/>
     </g>
    </g>
   </g>
   <g id="matplotlib.axis_2">
    <g id="ytick_1">
     <g id="line2d_8">
      <path clip-path="url(#p86b5a4793e)" d="M 162 301.110403 
L 1166.4 301.110403 
" style="fill:none;stroke:#b0b0b0;stroke-linecap:square;stroke-width:0.8;"/>
     </g>
     <g id="line2d_9">
      <defs>
       <path d="M 0 0 
L -3.5 0 
" id="m2817b75c41" style="stroke:#000000;stroke-width:0.8;"/>
      </defs>
      <g>
       <use style="stroke:#000000;stroke-width:0.8;" x="162" xlink:href="#m2817b75c41" y="301.110403"/>
      </g>
     </g>
     <g id="text_9">
      <!-- 30000 -->
      <g transform="translate(123.1875 304.909622)scale(0.1 -0.1)">
       <use xlink:href="#DejaVuSans-33"/>
       <use x="63.623047" xlink:href="#DejaVuSans-30"/>
       <use x="127.246094" xlink:href="#DejaVuSans-30"/>
       <use x="190.869141" xlink:href="#DejaVuSans-30"/>
       <use x="254.492188" xlink:href="#DejaVuSans-30"/>
      </g>
     </g>
    </g>
    <g id="ytick_2">
     <g id="line2d_10">
      <path clip-path="url(#p86b5a4793e)" d="M 162 264.519738 
L 1166.4 264.519738 
" style="fill:none;stroke:#b0b0b0;stroke-linecap:square;stroke-width:0.8;"/>
     </g>
     <g id="line2d_11">
      <g>
       <use style="stroke:#000000;stroke-width:0.8;" x="162" xlink:href="#m2817b75c41" y="264.519738"/>
      </g>
     </g>
     <g id="text_10">
      <!-- 35000 -->
      <g transform="translate(123.1875 268.318956)scale(0.1 -0.1)">
       <use xlink:href="#DejaVuSans-33"/>
       <use x="63.623047" xlink:href="#DejaVuSans-35"/>
       <use x="127.246094" xlink:href="#DejaVuSans-30"/>
       <use x="190.869141" xlink:href="#DejaVuSans-30"/>
       <use x="254.492188" xlink:href="#DejaVuSans-30"/>
      </g>
     </g>
    </g>
    <g id="ytick_3">
     <g id="line2d_12">
      <path clip-path="url(#p86b5a4793e)" d="M 162 227.929072 
L 1166.4 227.929072 
" style="fill:none;stroke:#b0b0b0;stroke-linecap:square;stroke-width:0.8;"/>
     </g>
     <g id="line2d_13">
      <g>
       <use style="stroke:#000000;stroke-width:0.8;" x="162" xlink:href="#m2817b75c41" y="227.929072"/>
      </g>
     </g>
     <g id="text_11">
      <!-- 40000 -->
      <g transform="translate(123.1875 231.728291)scale(0.1 -0.1)">
       <use xlink:href="#DejaVuSans-34"/>
       <use x="63.623047" xlink:href="#DejaVuSans-30"/>
       <use x="127.246094" xlink:href="#DejaVuSans-30"/>
       <use x="190.869141" xlink:href="#DejaVuSans-30"/>
       <use x="254.492188" xlink:href="#DejaVuSans-30"/>
      </g>
     </g>
    </g>
    <g id="ytick_4">
     <g id="line2d_14">
      <path clip-path="url(#p86b5a4793e)" d="M 162 191.338407 
L 1166.4 191.338407 
" style="fill:none;stroke:#b0b0b0;stroke-linecap:square;stroke-width:0.8;"/>
     </g>
     <g id="line2d_15">
      <g>
       <use style="stroke:#000000;stroke-width:0.8;" x="162" xlink:href="#m2817b75c41" y="191.338407"/>
      </g>
     </g>
     <g id="text_12">
      <!-- 45000 -->
      <g transform="translate(123.1875 195.137625)scale(0.1 -0.1)">
       <use xlink:href="#DejaVuSans-34"/>
       <use x="63.623047" xlink:href="#DejaVuSans-35"/>
       <use x="127.246094" xlink:href="#DejaVuSans-30"/>
       <use x="190.869141" xlink:href="#DejaVuSans-30"/>
       <use x="254.492188" xlink:href="#DejaVuSans-30"/>
      </g>
     </g>
    </g>
    <g id="ytick_5">
     <g id="line2d_16">
      <path clip-path="url(#p86b5a4793e)" d="M 162 154.747741 
L 1166.4 154.747741 
" style="fill:none;stroke:#b0b0b0;stroke-linecap:square;stroke-width:0.8;"/>
     </g>
     <g id="line2d_17">
      <g>
       <use style="stroke:#000000;stroke-width:0.8;" x="162" xlink:href="#m2817b75c41" y="154.747741"/>
      </g>
     </g>
     <g id="text_13">
      <!-- 50000 -->
      <g transform="translate(123.1875 158.54696)scale(0.1 -0.1)">
       <use xlink:href="#DejaVuSans-35"/>
       <use x="63.623047" xlink:href="#DejaVuSans-30"/>
       <use x="127.246094" xlink:href="#DejaVuSans-30"/>
       <use x="190.869141" xlink:href="#DejaVuSans-30"/>
       <use x="254.492188" xlink:href="#DejaVuSans-30"/>
      </g>
     </g>
    </g>
    <g id="ytick_6">
     <g id="line2d_18">
      <path clip-path="url(#p86b5a4793e)" d="M 162 118.157076 
L 1166.4 118.157076 
" style="fill:none;stroke:#b0b0b0;stroke-linecap:square;stroke-width:0.8;"/>
     </g>
     <g id="line2d_19">
      <g>
       <use style="stroke:#000000;stroke-width:0.8;" x="162" xlink:href="#m2817b75c41" y="118.157076"/>
      </g>
     </g>
     <g id="text_14">
      <!-- 55000 -->
      <g transform="translate(123.1875 121.956295)scale(0.1 -0.1)">
       <use xlink:href="#DejaVuSans-35"/>
       <use x="63.623047" xlink:href="#DejaVuSans-35"/>
       <use x="127.246094" xlink:href="#DejaVuSans-30"/>
       <use x="190.869141" xlink:href="#DejaVuSans-30"/>
       <use x="254.492188" xlink:href="#DejaVuSans-30"/>
      </g>
     </g>
    </g>
    <g id="ytick_7">
     <g id="line2d_20">
      <path clip-path="url(#p86b5a4793e)" d="M 162 81.56641 
L 1166.4 81.56641 
" style="fill:none;stroke:#b0b0b0;stroke-linecap:square;stroke-width:0.8;"/>
     </g>
     <g id="line2d_21">
      <g>
       <use style="stroke:#000000;stroke-width:0.8;" x="162" xlink:href="#m2817b75c41" y="81.56641"/>
      </g>
     </g>
     <g id="text_15">
      <!-- 60000 -->
      <g transform="translate(123.1875 85.365629)scale(0.1 -0.1)">
       <use xlink:href="#DejaVuSans-36"/>
       <use x="63.623047" xlink:href="#DejaVuSans-30"/>
       <use x="127.246094" xlink:href="#DejaVuSans-30"/>
       <use x="190.869141" xlink:href="#DejaVuSans-30"/>
       <use x="254.492188" xlink:href="#DejaVuSans-30"/>
      </g>
     </g>
    </g>
    <g id="ytick_8">
     <g id="line2d_22">
      <path clip-path="url(#p86b5a4793e)" d="M 162 44.975745 
L 1166.4 44.975745 
" style="fill:none;stroke:#b0b0b0;stroke-linecap:square;stroke-width:0.8;"/>
     </g>
     <g id="line2d_23">
      <g>
       <use style="stroke:#000000;stroke-width:0.8;" x="162" xlink:href="#m2817b75c41" y="44.975745"/>
      </g>
     </g>
     <g id="text_16">
      <!-- 65000 -->
      <g transform="translate(123.1875 48.774964)scale(0.1 -0.1)">
       <use xlink:href="#DejaVuSans-36"/>
       <use x="63.623047" xlink:href="#DejaVuSans-35"/>
       <use x="127.246094" xlink:href="#DejaVuSans-30"/>
       <use x="190.869141" xlink:href="#DejaVuSans-30"/>
       <use x="254.492188" xlink:href="#DejaVuSans-30"/>
      </g>
     </g>
    </g>
    <g id="text_17">
     <!-- Value -->
     <defs>
      <path d="M 28.609375 0 
L 0.78125 72.90625 
L 11.078125 72.90625 
L 34.1875 11.53125 
L 57.328125 72.90625 
L 67.578125 72.90625 
L 39.796875 0 
z
" id="DejaVuSans-56"/>
      <path d="M 34.28125 27.484375 
Q 23.390625 27.484375 19.1875 25 
Q 14.984375 22.515625 14.984375 16.5 
Q 14.984375 11.71875 18.140625 8.90625 
Q 21.296875 6.109375 26.703125 6.109375 
Q 34.1875 6.109375 38.703125 11.40625 
Q 43.21875 16.703125 43.21875 25.484375 
L 43.21875 27.484375 
z
M 52.203125 31.203125 
L 52.203125 0 
L 43.21875 0 
L 43.21875 8.296875 
Q 40.140625 3.328125 35.546875 0.953125 
Q 30.953125 -1.421875 24.3125 -1.421875 
Q 15.921875 -1.421875 10.953125 3.296875 
Q 6 8.015625 6 15.921875 
Q 6 25.140625 12.171875 29.828125 
Q 18.359375 34.515625 30.609375 34.515625 
L 43.21875 34.515625 
L 43.21875 35.40625 
Q 43.21875 41.609375 39.140625 45 
Q 35.0625 48.390625 27.6875 48.390625 
Q 23 48.390625 18.546875 47.265625 
Q 14.109375 46.140625 10.015625 43.890625 
L 10.015625 52.203125 
Q 14.9375 54.109375 19.578125 55.046875 
Q 24.21875 56 28.609375 56 
Q 40.484375 56 46.34375 49.84375 
Q 52.203125 43.703125 52.203125 31.203125 
z
" id="DejaVuSans-61"/>
      <path d="M 9.421875 75.984375 
L 18.40625 75.984375 
L 18.40625 0 
L 9.421875 0 
z
" id="DejaVuSans-6c"/>
      <path d="M 8.5 21.578125 
L 8.5 54.6875 
L 17.484375 54.6875 
L 17.484375 21.921875 
Q 17.484375 14.15625 20.5 10.265625 
Q 23.53125 6.390625 29.59375 6.390625 
Q 36.859375 6.390625 41.078125 11.03125 
Q 45.3125 15.671875 45.3125 23.6875 
L 45.3125 54.6875 
L 54.296875 54.6875 
L 54.296875 0 
L 45.3125 0 
L 45.3125 8.40625 
Q 42.046875 3.421875 37.71875 1 
Q 33.40625 -1.421875 27.6875 -1.421875 
Q 18.265625 -1.421875 13.375 4.4375 
Q 8.5 10.296875 8.5 21.578125 
z
M 31.109375 56 
z
" id="DejaVuSans-75"/>
     </defs>
     <g transform="translate(117.107812 193.213281)rotate(-90)scale(0.1 -0.1)">
      <use xlink:href="#DejaVuSans-56"/>
      <use x="68.298828" xlink:href="#DejaVuSans-61"/>
      <use x="129.578125" xlink:href="#DejaVuSans-6c"/>
      <use x="157.361328" xlink:href="#DejaVuSans-75"/>
      <use x="220.740234" xlink:href="#DejaVuSans-65"/>
     </g>
    </g>
   </g>
   <g id="line2d_24">
    <path clip-path="url(#p86b5a4793e)" d="M 208.608464 124.572151 
L 213.187273 162.940904 
L 217.766083 150.175079 
L 222.344892 178.162694 
L 226.923702 181.52984 
L 231.502511 182.879596 
L 236.081321 190.504725 
L 240.66013 157.540121 
L 245.238939 166.778459 
L 249.817749 151.251869 
L 254.396558 166.098824 
L 258.975368 163.080314 
L 263.554177 162.932414 
L 268.132986 146.187721 
L 272.711796 137.920938 
L 277.290605 119.024128 
L 281.869415 110.859214 
L 286.448224 97.929756 
L 291.027033 101.667273 
L 295.605843 72.354857 
L 300.184652 87.907792 
L 304.763462 112.633934 
L 309.342271 104.45475 
L 313.92108 89.521221 
L 318.49989 98.647665 
L 323.078699 95.653085 
L 327.657509 95.574781 
L 332.236318 100.511813 
L 336.815127 123.975284 
L 341.393937 121.981093 
L 345.972746 136.39218 
L 350.551556 144.38585 
L 355.130365 117.612094 
L 359.709174 111.834721 
L 364.287984 112.421782 
L 368.866793 98.927437 
L 373.445603 90.859488 
L 382.603222 90.809798 
L 387.182031 88.65534 
L 391.76084 102.961046 
L 396.33965 94.691116 
L 400.918459 88.488632 
L 405.497269 96.052948 
L 410.076078 111.224828 
L 414.654887 95.847088 
L 419.233697 95.451982 
L 423.812506 83.220308 
L 428.391316 81.823496 
L 432.970125 82.775805 
L 437.548934 55.554545 
L 442.127744 59.837995 
L 446.706553 57.763231 
L 451.285363 70.911355 
L 455.864172 80.929074 
L 460.442981 108.998579 
L 465.021791 113.011404 
L 469.6006 107.12199 
L 474.17941 126.874436 
L 478.758219 142.074857 
L 483.337028 146.308982 
L 492.494647 161.51277 
L 497.073457 125.06071 
L 501.652266 117.634122 
L 506.231075 119.005247 
L 510.809885 128.518455 
L 515.388694 97.691038 
L 519.967504 97.245511 
L 524.546313 106.371515 
L 529.125123 101.959632 
L 533.703932 131.024403 
L 538.282741 100.05765 
L 542.861551 107.705611 
L 547.44036 100.737943 
L 552.01917 89.405521 
L 556.597979 94.148257 
L 561.176788 111.691505 
L 565.755598 105.350343 
L 570.334407 162.013989 
L 574.913217 156.926569 
L 579.492026 155.31475 
L 584.070835 178.629883 
L 588.649645 180.788293 
L 593.228454 201.611309 
L 597.807264 206.617278 
L 602.386073 250.144948 
L 606.964882 222.189314 
L 611.543692 247.831833 
L 616.122501 246.017302 
L 620.701311 266.316046 
L 625.28012 237.23342 
L 629.858929 239.561245 
L 634.437739 233.300289 
L 639.016548 239.306647 
L 643.595358 259.473007 
L 648.174167 267.098135 
L 652.752976 259.509817 
L 657.331786 247.610898 
L 661.910595 252.352317 
L 666.489405 245.600607 
L 671.068214 233.867078 
L 675.647024 250.721324 
L 680.225833 260.638346 
L 684.804642 258.546897 
L 689.383452 275.388117 
L 693.962261 275.861453 
L 698.541071 247.407308 
L 703.11988 252.045467 
L 707.698689 247.591578 
L 712.277499 260.897993 
L 716.856308 234.758208 
L 721.435118 224.081198 
L 726.013927 226.549165 
L 730.592736 240.187896 
L 735.171546 242.067412 
L 739.750355 259.178818 
L 744.329165 260.683792 
L 748.907974 260.184841 
L 753.486783 288.768006 
L 758.065593 283.198614 
L 762.644402 274.218752 
L 767.223212 267.158803 
L 771.802021 289.10442 
L 776.38083 285.296576 
L 780.95964 267.1217 
L 785.538449 268.495899 
L 790.117259 258.316156 
L 794.696068 264.173151 
L 799.274877 275.227044 
L 803.853687 272.885388 
L 808.432496 266.795823 
L 813.011306 262.256239 
L 817.590115 273.68226 
L 822.168925 270.293671 
L 826.747734 273.015797 
L 831.326543 280.053134 
L 835.905353 273.165965 
L 840.484162 275.382994 
L 845.062972 270.171971 
L 849.641781 277.997909 
L 854.22059 281.449799 
L 858.7994 280.512712 
L 863.378209 288.38717 
L 867.957019 290.709506 
L 872.535828 289.982011 
L 877.114637 288.058586 
L 881.693447 295.139245 
L 886.272256 302.645455 
L 890.851066 285.610158 
L 895.429875 284.294138 
L 900.008684 274.899558 
L 904.587494 269.793623 
L 909.166303 261.847155 
L 913.745113 247.55528 
L 918.323922 232.276409 
L 922.902731 227.910557 
L 927.481541 227.885676 
L 932.06035 211.725628 
L 936.63916 215.78785 
L 941.217969 227.925706 
L 945.796778 233.827926 
L 950.375588 241.555436 
L 954.954397 229.757581 
L 959.533207 221.474479 
L 964.112016 207.248394 
L 968.690826 194.015892 
L 973.269635 200.002052 
L 977.848444 181.579969 
L 982.427254 186.886274 
L 987.006063 186.863661 
L 991.584873 195.59917 
L 996.163682 170.598964 
L 1000.742491 175.881119 
L 1005.321301 176.289325 
L 1009.90011 184.147975 
L 1014.47892 193.910218 
L 1019.057729 192.964057 
L 1023.636538 178.644007 
L 1028.215348 159.667356 
L 1032.794157 162.563361 
L 1037.372967 159.609323 
L 1041.951776 158.234832 
L 1046.530585 171.253205 
L 1051.109395 162.270123 
L 1055.688204 176.974375 
L 1060.267014 161.649765 
L 1064.845823 162.814885 
L 1069.424632 163.479884 
L 1074.003442 176.154964 
L 1078.582251 175.561463 
L 1083.161061 163.070215 
L 1087.73987 159.658135 
L 1092.318679 154.489192 
L 1096.897489 155.132821 
L 1101.476298 141.801525 
L 1106.055108 135.154172 
L 1110.633917 178.09866 
L 1115.212727 183.446678 
L 1119.791536 181.322151 
L 1119.791536 181.322151 
" style="fill:none;stroke:#000000;stroke-linecap:square;stroke-width:2;"/>
   </g>
   <g id="patch_3">
    <path d="M 162 315 
L 162 43.2 
" style="fill:none;stroke:#000000;stroke-linecap:square;stroke-linejoin:miter;stroke-width:0.8;"/>
   </g>
   <g id="patch_4">
    <path d="M 1166.4 315 
L 1166.4 43.2 
" style="fill:none;stroke:#000000;stroke-linecap:square;stroke-linejoin:miter;stroke-width:0.8;"/>
   </g>
   <g id="patch_5">
    <path d="M 162 315 
L 1166.4 315 
" style="fill:none;stroke:#000000;stroke-linecap:square;stroke-linejoin:miter;stroke-width:0.8;"/>
   </g>
   <g id="patch_6">
    <path d="M 162 43.2 
L 1166.4 43.2 
" style="fill:none;stroke:#000000;stroke-linecap:square;stroke-linejoin:miter;stroke-width:0.8;"/>
   </g>
  </g>
  <g id="axes_2">
   <g id="patch_7">
    <path clip-path="url(#p86b5a4793e)" d="M 207.654545 180.032068 
L 209.562383 180.032068 
L 209.562383 149.352196 
L 207.654545 149.352196 
z
" style="fill:#008000;"/>
   </g>
   <g id="patch_8">
    <path clip-path="url(#p86b5a4793e)" d="M 212.233355 180.032068 
L 214.141192 180.032068 
L 214.141192 177.876535 
L 212.233355 177.876535 
z
" style="fill:#008000;"/>
   </g>
   <g id="patch_9">
    <path clip-path="url(#p86b5a4793e)" d="M 216.812164 180.032068 
L 218.720002 180.032068 
L 218.720002 192.457167 
L 216.812164 192.457167 
z
" style="fill:#ff0000;"/>
   </g>
   <g id="patch_10">
    <path clip-path="url(#p86b5a4793e)" d="M 221.390974 180.032068 
L 223.298811 180.032068 
L 223.298811 214.762747 
L 221.390974 214.762747 
z
" style="fill:#ff0000;"/>
   </g>
   <g id="patch_11">
    <path clip-path="url(#p86b5a4793e)" d="M 225.969783 180.032068 
L 227.87762 180.032068 
L 227.87762 230.236056 
L 225.969783 230.236056 
z
" style="fill:#ff0000;"/>
   </g>
   <g id="patch_12">
    <path clip-path="url(#p86b5a4793e)" d="M 230.548592 180.032068 
L 232.45643 180.032068 
L 232.45643 239.647195 
L 230.548592 239.647195 
z
" style="fill:#ff0000;"/>
   </g>
   <g id="patch_13">
    <path clip-path="url(#p86b5a4793e)" d="M 235.127402 180.032068 
L 237.035239 180.032068 
L 237.035239 247.286799 
L 235.127402 247.286799 
z
" style="fill:#ff0000;"/>
   </g>
   <g id="patch_14">
    <path clip-path="url(#p86b5a4793e)" d="M 239.706211 180.032068 
L 241.614049 180.032068 
L 241.614049 236.074342 
L 239.706211 236.074342 
z
" style="fill:#ff0000;"/>
   </g>
   <g id="patch_15">
    <path clip-path="url(#p86b5a4793e)" d="M 244.285021 180.032068 
L 246.192858 180.032068 
L 246.192858 231.376874 
L 244.285021 231.376874 
z
" style="fill:#ff0000;"/>
   </g>
   <g id="patch_16">
    <path clip-path="url(#p86b5a4793e)" d="M 248.86383 180.032068 
L 250.771667 180.032068 
L 250.771667 220.405262 
L 248.86383 220.405262 
z
" style="fill:#ff0000;"/>
   </g>
   <g id="patch_17">
    <path clip-path="url(#p86b5a4793e)" d="M 253.44264 180.032068 
L 255.350477 180.032068 
L 255.350477 218.846105 
L 253.44264 218.846105 
z
" style="fill:#ff0000;"/>
   </g>
   <g id="patch_18">
    <path clip-path="url(#p86b5a4793e)" d="M 258.021449 180.032068 
L 259.929286 180.032068 
L 259.929286 215.614536 
L 258.021449 215.614536 
z
" style="fill:#ff0000;"/>
   </g>
   <g id="patch_19">
    <path clip-path="url(#p86b5a4793e)" d="M 262.600258 180.032068 
L 264.508096 180.032068 
L 264.508096 212.638611 
L 262.600258 212.638611 
z
" style="fill:#ff0000;"/>
   </g>
   <g id="patch_20">
    <path clip-path="url(#p86b5a4793e)" d="M 267.179068 180.032068 
L 269.086905 180.032068 
L 269.086905 202.876609 
L 267.179068 202.876609 
z
" style="fill:#ff0000;"/>
   </g>
   <g id="patch_21">
    <path clip-path="url(#p86b5a4793e)" d="M 271.757877 180.032068 
L 273.665714 180.032068 
L 273.665714 192.910912 
L 271.757877 192.910912 
z
" style="fill:#ff0000;"/>
   </g>
   <g id="patch_22">
    <path clip-path="url(#p86b5a4793e)" d="M 276.336687 180.032068 
L 278.244524 180.032068 
L 278.244524 178.809268 
L 276.336687 178.809268 
z
" style="fill:#008000;"/>
   </g>
   <g id="patch_23">
    <path clip-path="url(#p86b5a4793e)" d="M 280.915496 180.032068 
L 282.823333 180.032068 
L 282.823333 167.401787 
L 280.915496 167.401787 
z
" style="fill:#008000;"/>
   </g>
   <g id="patch_24">
    <path clip-path="url(#p86b5a4793e)" d="M 285.494305 180.032068 
L 287.402143 180.032068 
L 287.402143 156.292172 
L 285.494305 156.292172 
z
" style="fill:#008000;"/>
   </g>
   <g id="patch_25">
    <path clip-path="url(#p86b5a4793e)" d="M 290.073115 180.032068 
L 291.980952 180.032068 
L 291.980952 153.063461 
L 290.073115 153.063461 
z
" style="fill:#008000;"/>
   </g>
   <g id="patch_26">
    <path clip-path="url(#p86b5a4793e)" d="M 294.651924 180.032068 
L 296.559761 180.032068 
L 296.559761 141.009906 
L 294.651924 141.009906 
z
" style="fill:#008000;"/>
   </g>
   <g id="patch_27">
    <path clip-path="url(#p86b5a4793e)" d="M 299.230734 180.032068 
L 301.138571 180.032068 
L 301.138571 143.144379 
L 299.230734 143.144379 
z
" style="fill:#008000;"/>
   </g>
   <g id="patch_28">
    <path clip-path="url(#p86b5a4793e)" d="M 303.809543 180.032068 
L 305.71738 180.032068 
L 305.71738 158.028257 
L 303.809543 158.028257 
z
" style="fill:#008000;"/>
   </g>
   <g id="patch_29">
    <path clip-path="url(#p86b5a4793e)" d="M 308.388352 180.032068 
L 310.29619 180.032068 
L 310.29619 166.239199 
L 308.388352 166.239199 
z
" style="fill:#008000;"/>
   </g>
   <g id="patch_30">
    <path clip-path="url(#p86b5a4793e)" d="M 312.967162 180.032068 
L 314.874999 180.032068 
L 314.874999 167.008518 
L 312.967162 167.008518 
z
" style="fill:#008000;"/>
   </g>
   <g id="patch_31">
    <path clip-path="url(#p86b5a4793e)" d="M 317.545971 180.032068 
L 319.453808 180.032068 
L 319.453808 173.291246 
L 317.545971 173.291246 
z
" style="fill:#008000;"/>
   </g>
   <g id="patch_32">
    <path clip-path="url(#p86b5a4793e)" d="M 322.124781 180.032068 
L 324.032618 180.032068 
L 324.032618 177.582973 
L 322.124781 177.582973 
z
" style="fill:#008000;"/>
   </g>
   <g id="patch_33">
    <path clip-path="url(#p86b5a4793e)" d="M 326.70359 180.032068 
L 328.611427 180.032068 
L 328.611427 181.642295 
L 326.70359 181.642295 
z
" style="fill:#ff0000;"/>
   </g>
   <g id="patch_34">
    <path clip-path="url(#p86b5a4793e)" d="M 331.282399 180.032068 
L 333.190237 180.032068 
L 333.190237 187.463254 
L 331.282399 187.463254 
z
" style="fill:#ff0000;"/>
   </g>
   <g id="patch_35">
    <path clip-path="url(#p86b5a4793e)" d="M 335.861209 180.032068 
L 337.769046 180.032068 
L 337.769046 201.911406 
L 335.861209 201.911406 
z
" style="fill:#ff0000;"/>
   </g>
   <g id="patch_36">
    <path clip-path="url(#p86b5a4793e)" d="M 340.440018 180.032068 
L 342.347855 180.032068 
L 342.347855 210.179474 
L 340.440018 210.179474 
z
" style="fill:#ff0000;"/>
   </g>
   <g id="patch_37">
    <path clip-path="url(#p86b5a4793e)" d="M 345.018828 180.032068 
L 346.926665 180.032068 
L 346.926665 221.018748 
L 345.018828 221.018748 
z
" style="fill:#ff0000;"/>
   </g>
   <g id="patch_38">
    <path clip-path="url(#p86b5a4793e)" d="M 349.597637 180.032068 
L 351.505474 180.032068 
L 351.505474 230.090485 
L 349.597637 230.090485 
z
" style="fill:#ff0000;"/>
   </g>
   <g id="patch_39">
    <path clip-path="url(#p86b5a4793e)" d="M 354.176446 180.032068 
L 356.084284 180.032068 
L 356.084284 222.742271 
L 354.176446 222.742271 
z
" style="fill:#ff0000;"/>
   </g>
   <g id="patch_40">
    <path clip-path="url(#p86b5a4793e)" d="M 358.755256 180.032068 
L 360.663093 180.032068 
L 360.663093 214.281236 
L 358.755256 214.281236 
z
" style="fill:#ff0000;"/>
   </g>
   <g id="patch_41">
    <path clip-path="url(#p86b5a4793e)" d="M 363.334065 180.032068 
L 365.241903 180.032068 
L 365.241903 208.18324 
L 363.334065 208.18324 
z
" style="fill:#ff0000;"/>
   </g>
   <g id="patch_42">
    <path clip-path="url(#p86b5a4793e)" d="M 367.912875 180.032068 
L 369.820712 180.032068 
L 369.820712 197.859011 
L 367.912875 197.859011 
z
" style="fill:#ff0000;"/>
   </g>
   <g id="patch_43">
    <path clip-path="url(#p86b5a4793e)" d="M 372.491684 180.032068 
L 374.399521 180.032068 
L 374.399521 187.68428 
L 372.491684 187.68428 
z
" style="fill:#ff0000;"/>
   </g>
   <g id="patch_44">
    <path clip-path="url(#p86b5a4793e)" d="M 377.070493 180.032068 
L 378.978331 180.032068 
L 378.978331 181.519733 
L 377.070493 181.519733 
z
" style="fill:#ff0000;"/>
   </g>
   <g id="patch_45">
    <path clip-path="url(#p86b5a4793e)" d="M 381.649303 180.032068 
L 383.55714 180.032068 
L 383.55714 178.199148 
L 381.649303 178.199148 
z
" style="fill:#008000;"/>
   </g>
   <g id="patch_46">
    <path clip-path="url(#p86b5a4793e)" d="M 386.228112 180.032068 
L 388.13595 180.032068 
L 388.13595 175.932211 
L 386.228112 175.932211 
z
" style="fill:#008000;"/>
   </g>
   <g id="patch_47">
    <path clip-path="url(#p86b5a4793e)" d="M 390.806922 180.032068 
L 392.714759 180.032068 
L 392.714759 181.424002 
L 390.806922 181.424002 
z
" style="fill:#ff0000;"/>
   </g>
   <g id="patch_48">
    <path clip-path="url(#p86b5a4793e)" d="M 395.385731 180.032068 
L 397.293568 180.032068 
L 397.293568 181.927984 
L 395.385731 181.927984 
z
" style="fill:#ff0000;"/>
   </g>
   <g id="patch_49">
    <path clip-path="url(#p86b5a4793e)" d="M 399.964541 180.032068 
L 401.872378 180.032068 
L 401.872378 180.150432 
L 399.964541 180.150432 
z
" style="fill:#ff0000;"/>
   </g>
   <g id="patch_50">
    <path clip-path="url(#p86b5a4793e)" d="M 404.54335 180.032068 
L 406.451187 180.032068 
L 406.451187 182.865394 
L 404.54335 182.865394 
z
" style="fill:#ff0000;"/>
   </g>
   <g id="patch_51">
    <path clip-path="url(#p86b5a4793e)" d="M 409.122159 180.032068 
L 411.029997 180.032068 
L 411.029997 191.468859 
L 409.122159 191.468859 
z
" style="fill:#ff0000;"/>
   </g>
   <g id="patch_52">
    <path clip-path="url(#p86b5a4793e)" d="M 413.700969 180.032068 
L 415.608806 180.032068 
L 415.608806 190.349655 
L 413.700969 190.349655 
z
" style="fill:#ff0000;"/>
   </g>
   <g id="patch_53">
    <path clip-path="url(#p86b5a4793e)" d="M 418.279778 180.032068 
L 420.187615 180.032068 
L 420.187615 189.516098 
L 418.279778 189.516098 
z
" style="fill:#ff0000;"/>
   </g>
   <g id="patch_54">
    <path clip-path="url(#p86b5a4793e)" d="M 422.858588 180.032068 
L 424.766425 180.032068 
L 424.766425 183.871405 
L 422.858588 183.871405 
z
" style="fill:#ff0000;"/>
   </g>
   <g id="patch_55">
    <path clip-path="url(#p86b5a4793e)" d="M 427.437397 180.032068 
L 429.345234 180.032068 
L 429.345234 180.086416 
L 427.437397 180.086416 
z
" style="fill:#ff0000;"/>
   </g>
   <g id="patch_56">
    <path clip-path="url(#p86b5a4793e)" d="M 432.016206 180.032068 
L 433.924044 180.032068 
L 433.924044 178.660092 
L 432.016206 178.660092 
z
" style="fill:#008000;"/>
   </g>
   <g id="patch_57">
    <path clip-path="url(#p86b5a4793e)" d="M 436.595016 180.032068 
L 438.502853 180.032068 
L 438.502853 166.859789 
L 436.595016 166.859789 
z
" style="fill:#008000;"/>
   </g>
   <g id="patch_58">
    <path clip-path="url(#p86b5a4793e)" d="M 441.173825 180.032068 
L 443.081662 180.032068 
L 443.081662 162.546721 
L 441.173825 162.546721 
z
" style="fill:#008000;"/>
   </g>
   <g id="patch_59">
    <path clip-path="url(#p86b5a4793e)" d="M 445.752635 180.032068 
L 447.660472 180.032068 
L 447.660472 160.50004 
L 445.752635 160.50004 
z
" style="fill:#008000;"/>
   </g>
   <g id="patch_60">
    <path clip-path="url(#p86b5a4793e)" d="M 450.331444 180.032068 
L 452.239281 180.032068 
L 452.239281 166.471903 
L 450.331444 166.471903 
z
" style="fill:#008000;"/>
   </g>
   <g id="patch_61">
    <path clip-path="url(#p86b5a4793e)" d="M 454.910253 180.032068 
L 456.818091 180.032068 
L 456.818091 175.861901 
L 454.910253 175.861901 
z
" style="fill:#008000;"/>
   </g>
   <g id="patch_62">
    <path clip-path="url(#p86b5a4793e)" d="M 459.489063 180.032068 
L 461.3969 180.032068 
L 461.3969 194.555706 
L 459.489063 194.555706 
z
" style="fill:#ff0000;"/>
   </g>
   <g id="patch_63">
    <path clip-path="url(#p86b5a4793e)" d="M 464.067872 180.032068 
L 465.975709 180.032068 
L 465.975709 207.88097 
L 464.067872 207.88097 
z
" style="fill:#ff0000;"/>
   </g>
   <g id="patch_64">
    <path clip-path="url(#p86b5a4793e)" d="M 468.646682 180.032068 
L 470.554519 180.032068 
L 470.554519 212.886177 
L 468.646682 212.886177 
z
" style="fill:#ff0000;"/>
   </g>
   <g id="patch_65">
    <path clip-path="url(#p86b5a4793e)" d="M 473.225491 180.032068 
L 475.133328 180.032068 
L 475.133328 223.197448 
L 473.225491 223.197448 
z
" style="fill:#ff0000;"/>
   </g>
   <g id="patch_66">
    <path clip-path="url(#p86b5a4793e)" d="M 477.8043 180.032068 
L 479.712138 180.032068 
L 479.712138 234.267962 
L 477.8043 234.267962 
z
" style="fill:#ff0000;"/>
   </g>
   <g id="patch_67">
    <path clip-path="url(#p86b5a4793e)" d="M 482.38311 180.032068 
L 484.290947 180.032068 
L 484.290947 240.466673 
L 482.38311 240.466673 
z
" style="fill:#ff0000;"/>
   </g>
   <g id="patch_68">
    <path clip-path="url(#p86b5a4793e)" d="M 486.961919 180.032068 
L 488.869756 180.032068 
L 488.869756 244.587093 
L 486.961919 244.587093 
z
" style="fill:#ff0000;"/>
   </g>
   <g id="patch_69">
    <path clip-path="url(#p86b5a4793e)" d="M 491.540729 180.032068 
L 493.448566 180.032068 
L 493.448566 247.018042 
L 491.540729 247.018042 
z
" style="fill:#ff0000;"/>
   </g>
   <g id="patch_70">
    <path clip-path="url(#p86b5a4793e)" d="M 496.119538 180.032068 
L 498.027375 180.032068 
L 498.027375 229.466935 
L 496.119538 229.466935 
z
" style="fill:#ff0000;"/>
   </g>
   <g id="patch_71">
    <path clip-path="url(#p86b5a4793e)" d="M 500.698347 180.032068 
L 502.606185 180.032068 
L 502.606185 212.489833 
L 500.698347 212.489833 
z
" style="fill:#ff0000;"/>
   </g>
   <g id="patch_72">
    <path clip-path="url(#p86b5a4793e)" d="M 505.277157 180.032068 
L 507.184994 180.032068 
L 507.184994 200.413933 
L 505.277157 200.413933 
z
" style="fill:#ff0000;"/>
   </g>
   <g id="patch_73">
    <path clip-path="url(#p86b5a4793e)" d="M 509.855966 180.032068 
L 511.763804 180.032068 
L 511.763804 195.444402 
L 509.855966 195.444402 
z
" style="fill:#ff0000;"/>
   </g>
   <g id="patch_74">
    <path clip-path="url(#p86b5a4793e)" d="M 514.434776 180.032068 
L 516.342613 180.032068 
L 516.342613 178.071944 
L 514.434776 178.071944 
z
" style="fill:#008000;"/>
   </g>
   <g id="patch_75">
    <path clip-path="url(#p86b5a4793e)" d="M 519.013585 180.032068 
L 520.921422 180.032068 
L 520.921422 166.7061 
L 519.013585 166.7061 
z
" style="fill:#008000;"/>
   </g>
   <g id="patch_76">
    <path clip-path="url(#p86b5a4793e)" d="M 523.592394 180.032068 
L 525.500232 180.032068 
L 525.500232 163.784388 
L 523.592394 163.784388 
z
" style="fill:#008000;"/>
   </g>
   <g id="patch_77">
    <path clip-path="url(#p86b5a4793e)" d="M 528.171204 180.032068 
L 530.079041 180.032068 
L 530.079041 160.612799 
L 528.171204 160.612799 
z
" style="fill:#008000;"/>
   </g>
   <g id="patch_78">
    <path clip-path="url(#p86b5a4793e)" d="M 532.750013 180.032068 
L 534.657851 180.032068 
L 534.657851 171.670973 
L 532.750013 171.670973 
z
" style="fill:#008000;"/>
   </g>
   <g id="patch_79">
    <path clip-path="url(#p86b5a4793e)" d="M 537.328823 180.032068 
L 539.23666 180.032068 
L 539.23666 165.666799 
L 537.328823 165.666799 
z
" style="fill:#008000;"/>
   </g>
   <g id="patch_80">
    <path clip-path="url(#p86b5a4793e)" d="M 541.907632 180.032068 
L 543.815469 180.032068 
L 543.815469 165.667365 
L 541.907632 165.667365 
z
" style="fill:#008000;"/>
   </g>
   <g id="patch_81">
    <path clip-path="url(#p86b5a4793e)" d="M 546.486442 180.032068 
L 548.394279 180.032068 
L 548.394279 163.275233 
L 546.486442 163.275233 
z
" style="fill:#008000;"/>
   </g>
   <g id="patch_82">
    <path clip-path="url(#p86b5a4793e)" d="M 551.065251 180.032068 
L 552.973088 180.032068 
L 552.973088 157.698719 
L 551.065251 157.698719 
z
" style="fill:#008000;"/>
   </g>
   <g id="patch_83">
    <path clip-path="url(#p86b5a4793e)" d="M 555.64406 180.032068 
L 557.551898 180.032068 
L 557.551898 157.276635 
L 555.64406 157.276635 
z
" style="fill:#008000;"/>
   </g>
   <g id="patch_84">
    <path clip-path="url(#p86b5a4793e)" d="M 560.22287 180.032068 
L 562.130707 180.032068 
L 562.130707 165.579682 
L 560.22287 165.579682 
z
" style="fill:#008000;"/>
   </g>
   <g id="patch_85">
    <path clip-path="url(#p86b5a4793e)" d="M 564.801679 180.032068 
L 566.709516 180.032068 
L 566.709516 168.835176 
L 564.801679 168.835176 
z
" style="fill:#008000;"/>
   </g>
   <g id="patch_86">
    <path clip-path="url(#p86b5a4793e)" d="M 569.380489 180.032068 
L 571.288326 180.032068 
L 571.288326 195.461532 
L 569.380489 195.461532 
z
" style="fill:#ff0000;"/>
   </g>
   <g id="patch_87">
    <path clip-path="url(#p86b5a4793e)" d="M 573.959298 180.032068 
L 575.867135 180.032068 
L 575.867135 209.156523 
L 573.959298 209.156523 
z
" style="fill:#ff0000;"/>
   </g>
   <g id="patch_88">
    <path clip-path="url(#p86b5a4793e)" d="M 578.538107 180.032068 
L 580.445945 180.032068 
L 580.445945 215.43385 
L 578.538107 215.43385 
z
" style="fill:#ff0000;"/>
   </g>
   <g id="patch_89">
    <path clip-path="url(#p86b5a4793e)" d="M 583.116917 180.032068 
L 585.024754 180.032068 
L 585.024754 227.207619 
L 583.116917 227.207619 
z
" style="fill:#ff0000;"/>
   </g>
   <g id="patch_90">
    <path clip-path="url(#p86b5a4793e)" d="M 587.695726 180.032068 
L 589.603563 180.032068 
L 589.603563 232.742807 
L 587.695726 232.742807 
z
" style="fill:#ff0000;"/>
   </g>
   <g id="patch_91">
    <path clip-path="url(#p86b5a4793e)" d="M 592.274536 180.032068 
L 594.182373 180.032068 
L 594.182373 241.861092 
L 592.274536 241.861092 
z
" style="fill:#ff0000;"/>
   </g>
   <g id="patch_92">
    <path clip-path="url(#p86b5a4793e)" d="M 596.853345 180.032068 
L 598.761182 180.032068 
L 598.761182 245.908468 
L 596.853345 245.908468 
z
" style="fill:#ff0000;"/>
   </g>
   <g id="patch_93">
    <path clip-path="url(#p86b5a4793e)" d="M 601.432154 180.032068 
L 603.339992 180.032068 
L 603.339992 262.727393 
L 601.432154 262.727393 
z
" style="fill:#ff0000;"/>
   </g>
   <g id="patch_94">
    <path clip-path="url(#p86b5a4793e)" d="M 606.010964 180.032068 
L 607.918801 180.032068 
L 607.918801 256.211149 
L 606.010964 256.211149 
z
" style="fill:#ff0000;"/>
   </g>
   <g id="patch_95">
    <path clip-path="url(#p86b5a4793e)" d="M 610.589773 180.032068 
L 612.49761 180.032068 
L 612.49761 257.933252 
L 610.589773 257.933252 
z
" style="fill:#ff0000;"/>
   </g>
   <g id="patch_96">
    <path clip-path="url(#p86b5a4793e)" d="M 615.168583 180.032068 
L 617.07642 180.032068 
L 617.07642 252.924334 
L 615.168583 252.924334 
z
" style="fill:#ff0000;"/>
   </g>
   <g id="patch_97">
    <path clip-path="url(#p86b5a4793e)" d="M 619.747392 180.032068 
L 621.655229 180.032068 
L 621.655229 253.156962 
L 619.747392 253.156962 
z
" style="fill:#ff0000;"/>
   </g>
   <g id="patch_98">
    <path clip-path="url(#p86b5a4793e)" d="M 624.326201 180.032068 
L 626.234039 180.032068 
L 626.234039 235.585234 
L 624.326201 235.585234 
z
" style="fill:#ff0000;"/>
   </g>
   <g id="patch_99">
    <path clip-path="url(#p86b5a4793e)" d="M 628.905011 180.032068 
L 630.812848 180.032068 
L 630.812848 220.949519 
L 628.905011 220.949519 
z
" style="fill:#ff0000;"/>
   </g>
   <g id="patch_100">
    <path clip-path="url(#p86b5a4793e)" d="M 633.48382 180.032068 
L 635.391657 180.032068 
L 635.391657 205.191046 
L 633.48382 205.191046 
z
" style="fill:#ff0000;"/>
   </g>
   <g id="patch_101">
    <path clip-path="url(#p86b5a4793e)" d="M 638.06263 180.032068 
L 639.970467 180.032068 
L 639.970467 194.69225 
L 638.06263 194.69225 
z
" style="fill:#ff0000;"/>
   </g>
   <g id="patch_102">
    <path clip-path="url(#p86b5a4793e)" d="M 642.641439 180.032068 
L 644.549276 180.032068 
L 644.549276 194.003194 
L 642.641439 194.003194 
z
" style="fill:#ff0000;"/>
   </g>
   <g id="patch_103">
    <path clip-path="url(#p86b5a4793e)" d="M 647.220248 180.032068 
L 649.128086 180.032068 
L 649.128086 194.156322 
L 647.220248 194.156322 
z
" style="fill:#ff0000;"/>
   </g>
   <g id="patch_104">
    <path clip-path="url(#p86b5a4793e)" d="M 651.799058 180.032068 
L 653.706895 180.032068 
L 653.706895 188.354884 
L 651.799058 188.354884 
z
" style="fill:#ff0000;"/>
   </g>
   <g id="patch_105">
    <path clip-path="url(#p86b5a4793e)" d="M 656.377867 180.032068 
L 658.285705 180.032068 
L 658.285705 177.281044 
L 656.377867 177.281044 
z
" style="fill:#008000;"/>
   </g>
   <g id="patch_106">
    <path clip-path="url(#p86b5a4793e)" d="M 660.956677 180.032068 
L 662.864514 180.032068 
L 662.864514 170.535781 
L 660.956677 170.535781 
z
" style="fill:#008000;"/>
   </g>
   <g id="patch_107">
    <path clip-path="url(#p86b5a4793e)" d="M 665.535486 180.032068 
L 667.443323 180.032068 
L 667.443323 162.012004 
L 665.535486 162.012004 
z
" style="fill:#008000;"/>
   </g>
   <g id="patch_108">
    <path clip-path="url(#p86b5a4793e)" d="M 670.114295 180.032068 
L 672.022133 180.032068 
L 672.022133 150.751813 
L 670.114295 150.751813 
z
" style="fill:#008000;"/>
   </g>
   <g id="patch_109">
    <path clip-path="url(#p86b5a4793e)" d="M 674.693105 180.032068 
L 676.600942 180.032068 
L 676.600942 150.539145 
L 674.693105 150.539145 
z
" style="fill:#008000;"/>
   </g>
   <g id="patch_110">
    <path clip-path="url(#p86b5a4793e)" d="M 679.271914 180.032068 
L 681.179752 180.032068 
L 681.179752 154.391615 
L 679.271914 154.391615 
z
" style="fill:#008000;"/>
   </g>
   <g id="patch_111">
    <path clip-path="url(#p86b5a4793e)" d="M 683.850724 180.032068 
L 685.758561 180.032068 
L 685.758561 155.563473 
L 683.850724 155.563473 
z
" style="fill:#008000;"/>
   </g>
   <g id="patch_112">
    <path clip-path="url(#p86b5a4793e)" d="M 688.429533 180.032068 
L 690.33737 180.032068 
L 690.33737 163.06665 
L 688.429533 163.06665 
z
" style="fill:#008000;"/>
   </g>
   <g id="patch_113">
    <path clip-path="url(#p86b5a4793e)" d="M 693.008343 180.032068 
L 694.91618 180.032068 
L 694.91618 167.25245 
L 693.008343 167.25245 
z
" style="fill:#008000;"/>
   </g>
   <g id="patch_114">
    <path clip-path="url(#p86b5a4793e)" d="M 697.587152 180.032068 
L 699.494989 180.032068 
L 699.494989 156.919191 
L 697.587152 156.919191 
z
" style="fill:#008000;"/>
   </g>
   <g id="patch_115">
    <path clip-path="url(#p86b5a4793e)" d="M 702.165961 180.032068 
L 704.073799 180.032068 
L 704.073799 152.09314 
L 702.165961 152.09314 
z
" style="fill:#008000;"/>
   </g>
   <g id="patch_116">
    <path clip-path="url(#p86b5a4793e)" d="M 706.744771 180.032068 
L 708.652608 180.032068 
L 708.652608 147.185494 
L 706.744771 147.185494 
z
" style="fill:#008000;"/>
   </g>
   <g id="patch_117">
    <path clip-path="url(#p86b5a4793e)" d="M 711.32358 180.032068 
L 713.231417 180.032068 
L 713.231417 150.079528 
L 711.32358 150.079528 
z
" style="fill:#008000;"/>
   </g>
   <g id="patch_118">
    <path clip-path="url(#p86b5a4793e)" d="M 715.90239 180.032068 
L 717.810227 180.032068 
L 717.810227 141.076365 
L 715.90239 141.076365 
z
" style="fill:#008000;"/>
   </g>
   <g id="patch_119">
    <path clip-path="url(#p86b5a4793e)" d="M 720.481199 180.032068 
L 722.389036 180.032068 
L 722.389036 131.724811 
L 720.481199 131.724811 
z
" style="fill:#008000;"/>
   </g>
   <g id="patch_120">
    <path clip-path="url(#p86b5a4793e)" d="M 725.060008 180.032068 
L 726.967846 180.032068 
L 726.967846 128.321526 
L 725.060008 128.321526 
z
" style="fill:#008000;"/>
   </g>
   <g id="patch_121">
    <path clip-path="url(#p86b5a4793e)" d="M 729.638818 180.032068 
L 731.546655 180.032068 
L 731.546655 133.673082 
L 729.638818 133.673082 
z
" style="fill:#008000;"/>
   </g>
   <g id="patch_122">
    <path clip-path="url(#p86b5a4793e)" d="M 734.217627 180.032068 
L 736.125464 180.032068 
L 736.125464 139.357627 
L 734.217627 139.357627 
z
" style="fill:#008000;"/>
   </g>
   <g id="patch_123">
    <path clip-path="url(#p86b5a4793e)" d="M 738.796437 180.032068 
L 740.704274 180.032068 
L 740.704274 151.495617 
L 738.796437 151.495617 
z
" style="fill:#008000;"/>
   </g>
   <g id="patch_124">
    <path clip-path="url(#p86b5a4793e)" d="M 743.375246 180.032068 
L 745.283083 180.032068 
L 745.283083 160.498625 
L 743.375246 160.498625 
z
" style="fill:#008000;"/>
   </g>
   <g id="patch_125">
    <path clip-path="url(#p86b5a4793e)" d="M 747.954055 180.032068 
L 749.861893 180.032068 
L 749.861893 166.260682 
L 747.954055 166.260682 
z
" style="fill:#008000;"/>
   </g>
   <g id="patch_126">
    <path clip-path="url(#p86b5a4793e)" d="M 752.532865 180.032068 
L 754.440702 180.032068 
L 754.440702 182.035677 
L 752.532865 182.035677 
z
" style="fill:#ff0000;"/>
   </g>
   <g id="patch_127">
    <path clip-path="url(#p86b5a4793e)" d="M 757.111674 180.032068 
L 759.019511 180.032068 
L 759.019511 188.792994 
L 757.111674 188.792994 
z
" style="fill:#ff0000;"/>
   </g>
   <g id="patch_128">
    <path clip-path="url(#p86b5a4793e)" d="M 761.690484 180.032068 
L 763.598321 180.032068 
L 763.598321 188.079826 
L 761.690484 188.079826 
z
" style="fill:#ff0000;"/>
   </g>
   <g id="patch_129">
    <path clip-path="url(#p86b5a4793e)" d="M 766.269293 180.032068 
L 768.17713 180.032068 
L 768.17713 183.516343 
L 766.269293 183.516343 
z
" style="fill:#ff0000;"/>
   </g>
   <g id="patch_130">
    <path clip-path="url(#p86b5a4793e)" d="M 770.848102 180.032068 
L 772.75594 180.032068 
L 772.75594 189.053397 
L 770.848102 189.053397 
z
" style="fill:#ff0000;"/>
   </g>
   <g id="patch_131">
    <path clip-path="url(#p86b5a4793e)" d="M 775.426912 180.032068 
L 777.334749 180.032068 
L 777.334749 189.705013 
L 775.426912 189.705013 
z
" style="fill:#ff0000;"/>
   </g>
   <g id="patch_132">
    <path clip-path="url(#p86b5a4793e)" d="M 780.005721 180.032068 
L 781.913558 180.032068 
L 781.913558 181.154533 
L 780.005721 181.154533 
z
" style="fill:#ff0000;"/>
   </g>
   <g id="patch_133">
    <path clip-path="url(#p86b5a4793e)" d="M 784.584531 180.032068 
L 786.492368 180.032068 
L 786.492368 175.560186 
L 784.584531 175.560186 
z
" style="fill:#008000;"/>
   </g>
   <g id="patch_134">
    <path clip-path="url(#p86b5a4793e)" d="M 789.16334 180.032068 
L 791.071177 180.032068 
L 791.071177 167.229567 
L 789.16334 167.229567 
z
" style="fill:#008000;"/>
   </g>
   <g id="patch_135">
    <path clip-path="url(#p86b5a4793e)" d="M 793.742149 180.032068 
L 795.649987 180.032068 
L 795.649987 164.440628 
L 793.742149 164.440628 
z
" style="fill:#008000;"/>
   </g>
   <g id="patch_136">
    <path clip-path="url(#p86b5a4793e)" d="M 798.320959 180.032068 
L 800.228796 180.032068 
L 800.228796 167.507497 
L 798.320959 167.507497 
z
" style="fill:#008000;"/>
   </g>
   <g id="patch_137">
    <path clip-path="url(#p86b5a4793e)" d="M 802.899768 180.032068 
L 804.807606 180.032068 
L 804.807606 168.440035 
L 802.899768 168.440035 
z
" style="fill:#008000;"/>
   </g>
   <g id="patch_138">
    <path clip-path="url(#p86b5a4793e)" d="M 807.478578 180.032068 
L 809.386415 180.032068 
L 809.386415 166.42528 
L 807.478578 166.42528 
z
" style="fill:#008000;"/>
   </g>
   <g id="patch_139">
    <path clip-path="url(#p86b5a4793e)" d="M 812.057387 180.032068 
L 813.965224 180.032068 
L 813.965224 163.356196 
L 812.057387 163.356196 
z
" style="fill:#008000;"/>
   </g>
   <g id="patch_140">
    <path clip-path="url(#p86b5a4793e)" d="M 816.636196 180.032068 
L 818.544034 180.032068 
L 818.544034 166.585889 
L 816.636196 166.585889 
z
" style="fill:#008000;"/>
   </g>
   <g id="patch_141">
    <path clip-path="url(#p86b5a4793e)" d="M 821.215006 180.032068 
L 823.122843 180.032068 
L 823.122843 167.351553 
L 821.215006 167.351553 
z
" style="fill:#008000;"/>
   </g>
   <g id="patch_142">
    <path clip-path="url(#p86b5a4793e)" d="M 825.793815 180.032068 
L 827.701653 180.032068 
L 827.701653 169.149188 
L 825.793815 169.149188 
z
" style="fill:#008000;"/>
   </g>
   <g id="patch_143">
    <path clip-path="url(#p86b5a4793e)" d="M 830.372625 180.032068 
L 832.280462 180.032068 
L 832.280462 173.351511 
L 830.372625 173.351511 
z
" style="fill:#008000;"/>
   </g>
   <g id="patch_144">
    <path clip-path="url(#p86b5a4793e)" d="M 834.951434 180.032068 
L 836.859271 180.032068 
L 836.859271 172.959575 
L 834.951434 172.959575 
z
" style="fill:#008000;"/>
   </g>
   <g id="patch_145">
    <path clip-path="url(#p86b5a4793e)" d="M 839.530244 180.032068 
L 841.438081 180.032068 
L 841.438081 173.579932 
L 839.530244 173.579932 
z
" style="fill:#008000;"/>
   </g>
   <g id="patch_146">
    <path clip-path="url(#p86b5a4793e)" d="M 844.109053 180.032068 
L 846.01689 180.032068 
L 846.01689 171.671513 
L 844.109053 171.671513 
z
" style="fill:#008000;"/>
   </g>
   <g id="patch_147">
    <path clip-path="url(#p86b5a4793e)" d="M 848.687862 180.032068 
L 850.5957 180.032068 
L 850.5957 173.817773 
L 848.687862 173.817773 
z
" style="fill:#008000;"/>
   </g>
   <g id="patch_148">
    <path clip-path="url(#p86b5a4793e)" d="M 853.266672 180.032068 
L 855.174509 180.032068 
L 855.174509 176.554866 
L 853.266672 176.554866 
z
" style="fill:#008000;"/>
   </g>
   <g id="patch_149">
    <path clip-path="url(#p86b5a4793e)" d="M 857.845481 180.032068 
L 859.753318 180.032068 
L 859.753318 177.668191 
L 857.845481 177.668191 
z
" style="fill:#008000;"/>
   </g>
   <g id="patch_150">
    <path clip-path="url(#p86b5a4793e)" d="M 862.424291 180.032068 
L 864.332128 180.032068 
L 864.332128 181.442087 
L 862.424291 181.442087 
z
" style="fill:#ff0000;"/>
   </g>
   <g id="patch_151">
    <path clip-path="url(#p86b5a4793e)" d="M 867.0031 180.032068 
L 868.910937 180.032068 
L 868.910937 184.331456 
L 867.0031 184.331456 
z
" style="fill:#ff0000;"/>
   </g>
   <g id="patch_152">
    <path clip-path="url(#p86b5a4793e)" d="M 871.581909 180.032068 
L 873.489747 180.032068 
L 873.489747 185.21369 
L 871.581909 185.21369 
z
" style="fill:#ff0000;"/>
   </g>
   <g id="patch_153">
    <path clip-path="url(#p86b5a4793e)" d="M 876.160719 180.032068 
L 878.068556 180.032068 
L 878.068556 184.273409 
L 876.160719 184.273409 
z
" style="fill:#ff0000;"/>
   </g>
   <g id="patch_154">
    <path clip-path="url(#p86b5a4793e)" d="M 880.739528 180.032068 
L 882.647365 180.032068 
L 882.647365 186.043261 
L 880.739528 186.043261 
z
" style="fill:#ff0000;"/>
   </g>
   <g id="patch_155">
    <path clip-path="url(#p86b5a4793e)" d="M 885.318338 180.032068 
L 887.226175 180.032068 
L 887.226175 189.585494 
L 885.318338 189.585494 
z
" style="fill:#ff0000;"/>
   </g>
   <g id="patch_156">
    <path clip-path="url(#p86b5a4793e)" d="M 889.897147 180.032068 
L 891.804984 180.032068 
L 891.804984 183.638931 
L 889.897147 183.638931 
z
" style="fill:#ff0000;"/>
   </g>
   <g id="patch_157">
    <path clip-path="url(#p86b5a4793e)" d="M 894.475956 180.032068 
L 896.383794 180.032068 
L 896.383794 178.70489 
L 894.475956 178.70489 
z
" style="fill:#008000;"/>
   </g>
   <g id="patch_158">
    <path clip-path="url(#p86b5a4793e)" d="M 899.054766 180.032068 
L 900.962603 180.032068 
L 900.962603 171.246247 
L 899.054766 171.246247 
z
" style="fill:#008000;"/>
   </g>
   <g id="patch_159">
    <path clip-path="url(#p86b5a4793e)" d="M 903.633575 180.032068 
L 905.541412 180.032068 
L 905.541412 164.432299 
L 903.633575 164.432299 
z
" style="fill:#008000;"/>
   </g>
   <g id="patch_160">
    <path clip-path="url(#p86b5a4793e)" d="M 908.212385 180.032068 
L 910.120222 180.032068 
L 910.120222 157.21235 
L 908.212385 157.21235 
z
" style="fill:#008000;"/>
   </g>
   <g id="patch_161">
    <path clip-path="url(#p86b5a4793e)" d="M 912.791194 180.032068 
L 914.699031 180.032068 
L 914.699031 147.481423 
L 912.791194 147.481423 
z
" style="fill:#008000;"/>
   </g>
   <g id="patch_162">
    <path clip-path="url(#p86b5a4793e)" d="M 917.370003 180.032068 
L 919.277841 180.032068 
L 919.277841 136.343017 
L 917.370003 136.343017 
z
" style="fill:#008000;"/>
   </g>
   <g id="patch_163">
    <path clip-path="url(#p86b5a4793e)" d="M 921.948813 180.032068 
L 923.85665 180.032068 
L 923.85665 129.627073 
L 921.948813 129.627073 
z
" style="fill:#008000;"/>
   </g>
   <g id="patch_164">
    <path clip-path="url(#p86b5a4793e)" d="M 926.527622 180.032068 
L 928.435459 180.032068 
L 928.435459 127.988194 
L 926.527622 127.988194 
z
" style="fill:#008000;"/>
   </g>
   <g id="patch_165">
    <path clip-path="url(#p86b5a4793e)" d="M 931.106432 180.032068 
L 933.014269 180.032068 
L 933.014269 122.903533 
L 931.106432 122.903533 
z
" style="fill:#008000;"/>
   </g>
   <g id="patch_166">
    <path clip-path="url(#p86b5a4793e)" d="M 935.685241 180.032068 
L 937.593078 180.032068 
L 937.593078 124.6191 
L 935.685241 124.6191 
z
" style="fill:#008000;"/>
   </g>
   <g id="patch_167">
    <path clip-path="url(#p86b5a4793e)" d="M 940.26405 180.032068 
L 942.171888 180.032068 
L 942.171888 134.052952 
L 940.26405 134.052952 
z
" style="fill:#008000;"/>
   </g>
   <g id="patch_168">
    <path clip-path="url(#p86b5a4793e)" d="M 944.84286 180.032068 
L 946.750697 180.032068 
L 946.750697 145.29422 
L 944.84286 145.29422 
z
" style="fill:#008000;"/>
   </g>
   <g id="patch_169">
    <path clip-path="url(#p86b5a4793e)" d="M 949.421669 180.032068 
L 951.329507 180.032068 
L 951.329507 157.931159 
L 949.421669 157.931159 
z
" style="fill:#008000;"/>
   </g>
   <g id="patch_170">
    <path clip-path="url(#p86b5a4793e)" d="M 954.000479 180.032068 
L 955.908316 180.032068 
L 955.908316 162.562685 
L 954.000479 162.562685 
z
" style="fill:#008000;"/>
   </g>
   <g id="patch_171">
    <path clip-path="url(#p86b5a4793e)" d="M 958.579288 180.032068 
L 960.487125 180.032068 
L 960.487125 163.461937 
L 958.579288 163.461937 
z
" style="fill:#008000;"/>
   </g>
   <g id="patch_172">
    <path clip-path="url(#p86b5a4793e)" d="M 963.158097 180.032068 
L 965.065935 180.032068 
L 965.065935 159.495912 
L 963.158097 159.495912 
z
" style="fill:#008000;"/>
   </g>
   <g id="patch_173">
    <path clip-path="url(#p86b5a4793e)" d="M 967.736907 180.032068 
L 969.644744 180.032068 
L 969.644744 153.155875 
L 967.736907 153.155875 
z
" style="fill:#008000;"/>
   </g>
   <g id="patch_174">
    <path clip-path="url(#p86b5a4793e)" d="M 972.315716 180.032068 
L 974.223554 180.032068 
L 974.223554 153.859706 
L 972.315716 153.859706 
z
" style="fill:#008000;"/>
   </g>
   <g id="patch_175">
    <path clip-path="url(#p86b5a4793e)" d="M 976.894526 180.032068 
L 978.802363 180.032068 
L 978.802363 148.665457 
L 976.894526 148.665457 
z
" style="fill:#008000;"/>
   </g>
   <g id="patch_176">
    <path clip-path="url(#p86b5a4793e)" d="M 981.473335 180.032068 
L 983.381172 180.032068 
L 983.381172 150.166096 
L 981.473335 150.166096 
z
" style="fill:#008000;"/>
   </g>
   <g id="patch_177">
    <path clip-path="url(#p86b5a4793e)" d="M 986.052145 180.032068 
L 987.959982 180.032068 
L 987.959982 153.595808 
L 986.052145 153.595808 
z
" style="fill:#008000;"/>
   </g>
   <g id="patch_178">
    <path clip-path="url(#p86b5a4793e)" d="M 990.630954 180.032068 
L 992.538791 180.032068 
L 992.538791 161.823759 
L 990.630954 161.823759 
z
" style="fill:#008000;"/>
   </g>
   <g id="patch_179">
    <path clip-path="url(#p86b5a4793e)" d="M 995.209763 180.032068 
L 997.117601 180.032068 
L 997.117601 158.383769 
L 995.209763 158.383769 
z
" style="fill:#008000;"/>
   </g>
   <g id="patch_180">
    <path clip-path="url(#p86b5a4793e)" d="M 999.788573 180.032068 
L 1001.69641 180.032068 
L 1001.69641 160.683433 
L 999.788573 160.683433 
z
" style="fill:#008000;"/>
   </g>
   <g id="patch_181">
    <path clip-path="url(#p86b5a4793e)" d="M 1004.367382 180.032068 
L 1006.275219 180.032068 
L 1006.275219 164.440248 
L 1004.367382 164.440248 
z
" style="fill:#008000;"/>
   </g>
   <g id="patch_182">
    <path clip-path="url(#p86b5a4793e)" d="M 1008.946192 180.032068 
L 1010.854029 180.032068 
L 1010.854029 172.103905 
L 1008.946192 172.103905 
z
" style="fill:#008000;"/>
   </g>
   <g id="patch_183">
    <path clip-path="url(#p86b5a4793e)" d="M 1013.525001 180.032068 
L 1015.432838 180.032068 
L 1015.432838 182.638709 
L 1013.525001 182.638709 
z
" style="fill:#ff0000;"/>
   </g>
   <g id="patch_184">
    <path clip-path="url(#p86b5a4793e)" d="M 1018.10381 180.032068 
L 1020.011648 180.032068 
L 1020.011648 189.880371 
L 1018.10381 189.880371 
z
" style="fill:#ff0000;"/>
   </g>
   <g id="patch_185">
    <path clip-path="url(#p86b5a4793e)" d="M 1022.68262 180.032068 
L 1024.590457 180.032068 
L 1024.590457 188.992648 
L 1022.68262 188.992648 
z
" style="fill:#ff0000;"/>
   </g>
   <g id="patch_186">
    <path clip-path="url(#p86b5a4793e)" d="M 1027.261429 180.032068 
L 1029.169266 180.032068 
L 1029.169266 181.063835 
L 1027.261429 181.063835 
z
" style="fill:#ff0000;"/>
   </g>
   <g id="patch_187">
    <path clip-path="url(#p86b5a4793e)" d="M 1031.840239 180.032068 
L 1033.748076 180.032068 
L 1033.748076 178.397181 
L 1031.840239 178.397181 
z
" style="fill:#008000;"/>
   </g>
   <g id="patch_188">
    <path clip-path="url(#p86b5a4793e)" d="M 1036.419048 180.032068 
L 1038.326885 180.032068 
L 1038.326885 176.695032 
L 1036.419048 176.695032 
z
" style="fill:#008000;"/>
   </g>
   <g id="patch_189">
    <path clip-path="url(#p86b5a4793e)" d="M 1040.997857 180.032068 
L 1042.905695 180.032068 
L 1042.905695 176.363119 
L 1040.997857 176.363119 
z
" style="fill:#008000;"/>
   </g>
   <g id="patch_190">
    <path clip-path="url(#p86b5a4793e)" d="M 1045.576667 180.032068 
L 1047.484504 180.032068 
L 1047.484504 183.010538 
L 1045.576667 183.010538 
z
" style="fill:#ff0000;"/>
   </g>
   <g id="patch_191">
    <path clip-path="url(#p86b5a4793e)" d="M 1050.155476 180.032068 
L 1052.063313 180.032068 
L 1052.063313 184.360579 
L 1050.155476 184.360579 
z
" style="fill:#ff0000;"/>
   </g>
   <g id="patch_192">
    <path clip-path="url(#p86b5a4793e)" d="M 1054.734286 180.032068 
L 1056.642123 180.032068 
L 1056.642123 192.340214 
L 1054.734286 192.340214 
z
" style="fill:#ff0000;"/>
   </g>
   <g id="patch_193">
    <path clip-path="url(#p86b5a4793e)" d="M 1059.313095 180.032068 
L 1061.220932 180.032068 
L 1061.220932 191.312915 
L 1059.313095 191.312915 
z
" style="fill:#ff0000;"/>
   </g>
   <g id="patch_194">
    <path clip-path="url(#p86b5a4793e)" d="M 1063.891904 180.032068 
L 1065.799742 180.032068 
L 1065.799742 191.651047 
L 1063.891904 191.651047 
z
" style="fill:#ff0000;"/>
   </g>
   <g id="patch_195">
    <path clip-path="url(#p86b5a4793e)" d="M 1068.470714 180.032068 
L 1070.378551 180.032068 
L 1070.378551 192.589018 
L 1068.470714 192.589018 
z
" style="fill:#ff0000;"/>
   </g>
   <g id="patch_196">
    <path clip-path="url(#p86b5a4793e)" d="M 1073.049523 180.032068 
L 1074.95736 180.032068 
L 1074.95736 198.910897 
L 1073.049523 198.910897 
z
" style="fill:#ff0000;"/>
   </g>
   <g id="patch_197">
    <path clip-path="url(#p86b5a4793e)" d="M 1077.628333 180.032068 
L 1079.53617 180.032068 
L 1079.53617 202.614225 
L 1077.628333 202.614225 
z
" style="fill:#ff0000;"/>
   </g>
   <g id="patch_198">
    <path clip-path="url(#p86b5a4793e)" d="M 1082.207142 180.032068 
L 1084.114979 180.032068 
L 1084.114979 199.39253 
L 1082.207142 199.39253 
z
" style="fill:#ff0000;"/>
   </g>
   <g id="patch_199">
    <path clip-path="url(#p86b5a4793e)" d="M 1086.785951 180.032068 
L 1088.693789 180.032068 
L 1088.693789 195.799745 
L 1086.785951 195.799745 
z
" style="fill:#ff0000;"/>
   </g>
   <g id="patch_200">
    <path clip-path="url(#p86b5a4793e)" d="M 1091.364761 180.032068 
L 1093.272598 180.032068 
L 1093.272598 191.382817 
L 1091.364761 191.382817 
z
" style="fill:#ff0000;"/>
   </g>
   <g id="patch_201">
    <path clip-path="url(#p86b5a4793e)" d="M 1095.94357 180.032068 
L 1097.851408 180.032068 
L 1097.851408 189.116369 
L 1095.94357 189.116369 
z
" style="fill:#ff0000;"/>
   </g>
   <g id="patch_202">
    <path clip-path="url(#p86b5a4793e)" d="M 1100.52238 180.032068 
L 1102.430217 180.032068 
L 1102.430217 182.378151 
L 1100.52238 182.378151 
z
" style="fill:#ff0000;"/>
   </g>
   <g id="patch_203">
    <path clip-path="url(#p86b5a4793e)" d="M 1105.101189 180.032068 
L 1107.009026 180.032068 
L 1107.009026 176.015346 
L 1105.101189 176.015346 
z
" style="fill:#008000;"/>
   </g>
   <g id="patch_204">
    <path clip-path="url(#p86b5a4793e)" d="M 1109.679998 180.032068 
L 1111.587836 180.032068 
L 1111.587836 191.230465 
L 1109.679998 191.230465 
z
" style="fill:#ff0000;"/>
   </g>
   <g id="patch_205">
    <path clip-path="url(#p86b5a4793e)" d="M 1114.258808 180.032068 
L 1116.166645 180.032068 
L 1116.166645 203.226667 
L 1114.258808 203.226667 
z
" style="fill:#ff0000;"/>
   </g>
   <g id="patch_206">
    <path clip-path="url(#p86b5a4793e)" d="M 1118.837617 180.032068 
L 1120.745455 180.032068 
L 1120.745455 209.359299 
L 1118.837617 209.359299 
z
" style="fill:#ff0000;"/>
   </g>
   <g id="matplotlib.axis_3">
    <g id="ytick_9">
     <g id="line2d_25">
      <defs>
       <path d="M 0 0 
L 3.5 0 
" id="m44fdbd38fa" style="stroke:#000000;stroke-width:0.8;"/>
      </defs>
      <g>
       <use style="stroke:#000000;stroke-width:0.8;" x="1166.4" xlink:href="#m44fdbd38fa" y="277.149411"/>
      </g>
     </g>
     <g id="text_18">
      <!-- 4000 -->
      <defs>
       <path d="M 10.59375 35.5 
L 73.1875 35.5 
L 73.1875 27.203125 
L 10.59375 27.203125 
z
" id="DejaVuSans-2212"/>
      </defs>
      <g transform="translate(1173.4 280.94863)scale(0.1 -0.1)">
       <use xlink:href="#DejaVuSans-2212"/>
       <use x="83.789062" xlink:href="#DejaVuSans-34"/>
       <use x="147.412109" xlink:href="#DejaVuSans-30"/>
       <use x="211.035156" xlink:href="#DejaVuSans-30"/>
       <use x="274.658203" xlink:href="#DejaVuSans-30"/>
      </g>
     </g>
    </g>
    <g id="ytick_10">
     <g id="line2d_26">
      <g>
       <use style="stroke:#000000;stroke-width:0.8;" x="1166.4" xlink:href="#m44fdbd38fa" y="228.59074"/>
      </g>
     </g>
     <g id="text_19">
      <!-- 2000 -->
      <g transform="translate(1173.4 232.389959)scale(0.1 -0.1)">
       <use xlink:href="#DejaVuSans-2212"/>
       <use x="83.789062" xlink:href="#DejaVuSans-32"/>
       <use x="147.412109" xlink:href="#DejaVuSans-30"/>
       <use x="211.035156" xlink:href="#DejaVuSans-30"/>
       <use x="274.658203" xlink:href="#DejaVuSans-30"/>
      </g>
     </g>
    </g>
    <g id="ytick_11">
     <g id="line2d_27">
      <g>
       <use style="stroke:#000000;stroke-width:0.8;" x="1166.4" xlink:href="#m44fdbd38fa" y="180.032068"/>
      </g>
     </g>
     <g id="text_20">
      <!-- 0 -->
      <g transform="translate(1173.4 183.831287)scale(0.1 -0.1)">
       <use xlink:href="#DejaVuSans-30"/>
      </g>
     </g>
    </g>
    <g id="ytick_12">
     <g id="line2d_28">
      <g>
       <use style="stroke:#000000;stroke-width:0.8;" x="1166.4" xlink:href="#m44fdbd38fa" y="131.473397"/>
      </g>
     </g>
     <g id="text_21">
      <!-- 2000 -->
      <g transform="translate(1173.4 135.272616)scale(0.1 -0.1)">
       <use xlink:href="#DejaVuSans-32"/>
       <use x="63.623047" xlink:href="#DejaVuSans-30"/>
       <use x="127.246094" xlink:href="#DejaVuSans-30"/>
       <use x="190.869141" xlink:href="#DejaVuSans-30"/>
      </g>
     </g>
    </g>
    <g id="ytick_13">
     <g id="line2d_29">
      <g>
       <use style="stroke:#000000;stroke-width:0.8;" x="1166.4" xlink:href="#m44fdbd38fa" y="82.914726"/>
      </g>
     </g>
     <g id="text_22">
      <!-- 4000 -->
      <g transform="translate(1173.4 86.713944)scale(0.1 -0.1)">
       <use xlink:href="#DejaVuSans-34"/>
       <use x="63.623047" xlink:href="#DejaVuSans-30"/>
       <use x="127.246094" xlink:href="#DejaVuSans-30"/>
       <use x="190.869141" xlink:href="#DejaVuSans-30"/>
      </g>
     </g>
    </g>
    <g id="text_23">
     <!-- Macd -->
     <defs>
      <path d="M 9.8125 72.90625 
L 24.515625 72.90625 
L 43.109375 23.296875 
L 61.8125 72.90625 
L 76.515625 72.90625 
L 76.515625 0 
L 66.890625 0 
L 66.890625 64.015625 
L 48.09375 14.015625 
L 38.1875 14.015625 
L 19.390625 64.015625 
L 19.390625 0 
L 9.8125 0 
z
" id="DejaVuSans-4d"/>
      <path d="M 48.78125 52.59375 
L 48.78125 44.1875 
Q 44.96875 46.296875 41.140625 47.34375 
Q 37.3125 48.390625 33.40625 48.390625 
Q 24.65625 48.390625 19.8125 42.84375 
Q 14.984375 37.3125 14.984375 27.296875 
Q 14.984375 17.28125 19.8125 11.734375 
Q 24.65625 6.203125 33.40625 6.203125 
Q 37.3125 6.203125 41.140625 7.25 
Q 44.96875 8.296875 48.78125 10.40625 
L 48.78125 2.09375 
Q 45.015625 0.34375 40.984375 -0.53125 
Q 36.96875 -1.421875 32.421875 -1.421875 
Q 20.0625 -1.421875 12.78125 6.34375 
Q 5.515625 14.109375 5.515625 27.296875 
Q 5.515625 40.671875 12.859375 48.328125 
Q 20.21875 56 33.015625 56 
Q 37.15625 56 41.109375 55.140625 
Q 45.0625 54.296875 48.78125 52.59375 
z
" id="DejaVuSans-63"/>
      <path d="M 45.40625 46.390625 
L 45.40625 75.984375 
L 54.390625 75.984375 
L 54.390625 0 
L 45.40625 0 
L 45.40625 8.203125 
Q 42.578125 3.328125 38.25 0.953125 
Q 33.9375 -1.421875 27.875 -1.421875 
Q 17.96875 -1.421875 11.734375 6.484375 
Q 5.515625 14.40625 5.515625 27.296875 
Q 5.515625 40.1875 11.734375 48.09375 
Q 17.96875 56 27.875 56 
Q 33.9375 56 38.25 53.625 
Q 42.578125 51.265625 45.40625 46.390625 
z
M 14.796875 27.296875 
Q 14.796875 17.390625 18.875 11.75 
Q 22.953125 6.109375 30.078125 6.109375 
Q 37.203125 6.109375 41.296875 11.75 
Q 45.40625 17.390625 45.40625 27.296875 
Q 45.40625 37.203125 41.296875 42.84375 
Q 37.203125 48.484375 30.078125 48.484375 
Q 22.953125 48.484375 18.875 42.84375 
Q 14.796875 37.203125 14.796875 27.296875 
z
" id="DejaVuSans-64"/>
     </defs>
     <g transform="translate(1218.828125 192.401562)rotate(-90)scale(0.1 -0.1)">
      <use xlink:href="#DejaVuSans-4d"/>
      <use x="86.279297" xlink:href="#DejaVuSans-61"/>
      <use x="147.558594" xlink:href="#DejaVuSans-63"/>
      <use x="202.539062" xlink:href="#DejaVuSans-64"/>
     </g>
    </g>
   </g>
   <g id="line2d_30">
    <path clip-path="url(#p86b5a4793e)" d="M 208.608464 55.554545 
L 213.187273 69.547274 
L 217.766083 78.390727 
L 222.344892 93.884851 
L 226.923702 107.897004 
L 236.081321 132.281108 
L 240.66013 133.680164 
L 245.238939 137.74953 
L 249.817749 137.310374 
L 254.396558 141.38255 
L 258.975368 144.214574 
L 263.554177 146.802429 
L 268.132986 144.776996 
L 272.711796 141.404002 
L 281.869415 126.917805 
L 286.448224 118.39551 
L 291.027033 113.410079 
L 295.605843 102.505531 
L 300.184652 98.961806 
L 304.763462 103.653269 
L 309.342271 106.034631 
L 313.92108 104.791347 
L 318.49989 107.090108 
L 323.078699 108.929835 
L 327.657509 111.160774 
L 332.236318 115.000151 
L 336.815127 124.959145 
L 341.393937 132.861605 
L 350.551556 154.197747 
L 355.130365 155.862415 
L 359.709174 155.913044 
L 364.287984 156.382942 
L 368.866793 153.449196 
L 373.445603 149.318356 
L 378.024412 146.422041 
L 382.603222 144.532634 
L 387.182031 142.886683 
L 391.76084 145.80657 
L 396.33965 146.29555 
L 400.918459 145.42157 
L 405.497269 147.133217 
L 410.076078 152.864548 
L 419.233697 154.36337 
L 423.812506 152.02094 
L 428.391316 150.135239 
L 432.970125 149.25058 
L 437.548934 141.703893 
L 442.127744 137.361691 
L 446.706553 133.896847 
L 451.285363 135.187758 
L 455.864172 139.361486 
L 460.442981 150.523843 
L 465.021791 160.667588 
L 469.6006 167.276955 
L 474.17941 177.828263 
L 478.758219 190.143007 
L 483.337028 200.796687 
L 487.915838 210.926276 
L 492.494647 220.514997 
L 497.073457 217.918801 
L 501.652266 213.487471 
L 506.231075 209.997254 
L 510.809885 209.43903 
L 515.388694 200.507786 
L 519.967504 193.159118 
L 524.546313 189.667302 
L 529.125123 185.654099 
L 533.703932 190.138049 
L 538.282741 185.340303 
L 542.861551 183.544998 
L 547.44036 180.254328 
L 552.01917 174.674402 
L 556.597979 171.618931 
L 561.176788 173.963906 
L 565.755598 174.192041 
L 570.334407 189.433903 
L 574.913217 199.921955 
L 579.492026 207.485841 
L 584.070835 219.26967 
L 588.649645 228.626105 
L 593.228454 240.913876 
L 597.807264 251.172114 
L 602.386073 269.918492 
L 606.964882 276.182755 
L 611.543692 286.781454 
L 616.122501 293.388529 
L 620.701311 302.645455 
L 625.28012 300.803736 
L 629.858929 298.60056 
L 634.437739 293.866196 
L 639.016548 290.44932 
L 643.595358 291.851183 
L 648.174167 293.693279 
L 652.752976 291.832911 
L 657.331786 285.952114 
L 661.910595 281.392446 
L 666.489405 274.87805 
L 671.068214 265.587922 
L 675.647024 261.794973 
L 680.225833 260.516151 
L 684.804642 258.043506 
L 689.383452 259.674417 
L 693.962261 260.169864 
L 698.541071 252.114125 
L 703.11988 246.208734 
L 707.698689 239.649089 
L 712.277499 237.352038 
L 716.856308 227.980994 
L 721.435118 217.26681 
L 726.013927 209.101349 
L 730.592736 205.982254 
L 735.171546 203.740221 
L 739.750355 206.24216 
L 744.329165 208.301983 
L 748.907974 209.461589 
L 753.486783 217.599537 
L 758.065593 222.073311 
L 762.644402 222.722697 
L 767.223212 220.87649 
L 771.802021 224.772683 
L 776.38083 226.307609 
L 780.95964 222.172677 
L 785.538449 218.816518 
L 790.117259 213.050896 
L 794.696068 209.707496 
L 799.274877 209.67536 
L 803.853687 208.692625 
L 808.432496 205.984399 
L 813.011306 202.365372 
L 817.590115 202.299447 
L 822.168925 201.097214 
L 826.747734 200.635672 
L 831.326543 201.901763 
L 835.905353 200.821734 
L 840.484162 200.325395 
L 845.062972 198.326116 
L 849.641781 198.622459 
L 854.22059 199.556356 
L 858.7994 199.817533 
L 867.957019 203.862842 
L 872.535828 204.951661 
L 877.114637 205.011688 
L 881.693447 206.648013 
L 886.272256 209.613308 
L 895.429875 204.457967 
L 900.008684 199.630417 
L 904.587494 194.273472 
L 909.166303 187.811033 
L 913.745113 178.876739 
L 918.323922 167.846404 
L 922.902731 158.187808 
L 927.481541 150.862884 
L 932.06035 141.179487 
L 936.63916 135.110649 
L 941.217969 134.080185 
L 945.796778 135.358589 
L 950.375588 138.914444 
L 954.954397 139.046534 
L 959.533207 137.424894 
L 964.112016 132.874862 
L 968.690826 126.34532 
L 973.269635 123.42569 
L 977.848444 116.907739 
L 982.427254 113.924812 
L 987.006063 112.335135 
L 991.584873 114.173072 
L 996.163682 109.74704 
L 1000.742491 108.478292 
L 1005.321301 108.407722 
L 1009.90011 111.24853 
L 1014.47892 116.841762 
L 1019.057729 121.693631 
L 1023.636538 122.369842 
L 1028.215348 118.534406 
L 1032.794157 116.996718 
L 1037.372967 115.728514 
L 1041.951776 115.103939 
L 1046.530585 118.799957 
L 1051.109395 120.016042 
L 1055.688204 125.544377 
L 1060.267014 126.440834 
L 1064.845823 128.062272 
L 1069.424632 130.100876 
L 1074.003442 135.62167 
L 1078.582251 140.296103 
L 1083.161061 141.105313 
L 1087.73987 141.279881 
L 1092.318679 140.49026 
L 1096.897489 140.492573 
L 1101.476298 137.416725 
L 1106.055108 133.733232 
L 1115.212727 151.638017 
L 1119.791536 158.370237 
L 1119.791536 158.370237 
" style="fill:none;stroke:#ffa500;stroke-dasharray:7.4,3.2;stroke-dashoffset:0;stroke-width:2;"/>
   </g>
   <g id="line2d_31">
    <path clip-path="url(#p86b5a4793e)" d="M 208.608464 70.894482 
L 213.187273 70.62504 
L 217.766083 72.178178 
L 222.344892 76.519512 
L 226.923702 82.795011 
L 231.502511 90.246901 
L 236.081321 98.653743 
L 240.66013 105.659027 
L 245.238939 112.077128 
L 249.817749 117.123777 
L 254.396558 121.975531 
L 258.975368 126.42334 
L 263.554177 130.499158 
L 268.132986 133.354725 
L 272.711796 134.964581 
L 277.290605 134.811731 
L 281.869415 133.232945 
L 286.448224 130.265458 
L 291.027033 126.894382 
L 295.605843 122.016612 
L 300.184652 117.405651 
L 304.763462 114.655174 
L 313.92108 111.303122 
L 318.49989 110.460519 
L 323.078699 110.154382 
L 327.657509 110.355661 
L 332.236318 111.284559 
L 336.815127 114.019476 
L 341.393937 117.787902 
L 345.972746 122.911237 
L 350.551556 129.168539 
L 355.130365 134.507314 
L 359.709174 138.78846 
L 364.287984 142.307356 
L 368.866793 144.535724 
L 373.445603 145.492251 
L 378.024412 145.678209 
L 382.603222 145.449094 
L 387.182031 144.936612 
L 405.497269 145.716554 
L 410.076078 147.146153 
L 419.233697 149.621355 
L 423.812506 150.101272 
L 428.391316 150.108065 
L 432.970125 149.936568 
L 437.548934 148.290033 
L 442.127744 146.104365 
L 446.706553 143.662861 
L 451.285363 141.967841 
L 455.864172 141.44657 
L 460.442981 143.262024 
L 465.021791 146.743137 
L 469.6006 150.849901 
L 474.17941 156.245573 
L 478.758219 163.02506 
L 483.337028 170.579385 
L 487.915838 178.648763 
L 492.494647 187.02201 
L 497.073457 193.201368 
L 501.652266 197.258589 
L 506.231075 199.806322 
L 510.809885 201.732863 
L 515.388694 201.487848 
L 519.967504 199.822102 
L 524.546313 197.791142 
L 529.125123 195.363733 
L 533.703932 194.318596 
L 542.861551 190.72735 
L 547.44036 188.632745 
L 556.597979 182.996648 
L 561.176788 181.190099 
L 565.755598 179.790488 
L 570.334407 181.719171 
L 574.913217 185.359727 
L 579.492026 189.78495 
L 584.070835 195.681894 
L 588.649645 202.270736 
L 593.228454 209.999364 
L 597.807264 218.233914 
L 602.386073 228.57083 
L 616.122501 256.942396 
L 620.701311 266.083008 
L 625.28012 273.027153 
L 629.858929 278.141835 
L 634.437739 281.286707 
L 643.595358 284.86562 
L 648.174167 286.631152 
L 652.752976 287.671504 
L 657.331786 287.327626 
L 661.910595 286.14059 
L 666.489405 283.888082 
L 675.647024 276.541434 
L 680.225833 273.336378 
L 684.804642 270.277803 
L 689.383452 268.157126 
L 693.962261 266.559674 
L 698.541071 263.670564 
L 703.11988 260.178198 
L 707.698689 256.072376 
L 712.277499 252.328309 
L 716.856308 247.458846 
L 721.435118 241.420438 
L 726.013927 234.956621 
L 730.592736 229.161747 
L 735.171546 224.077442 
L 739.750355 220.510386 
L 744.329165 218.068705 
L 748.907974 216.347282 
L 753.486783 216.597733 
L 762.644402 218.698818 
L 767.223212 219.134353 
L 776.38083 221.471137 
L 780.95964 221.611445 
L 785.538449 221.05246 
L 790.117259 219.452147 
L 794.696068 217.503217 
L 808.432496 212.787793 
L 813.011306 210.703309 
L 822.168925 207.437472 
L 826.747734 206.077112 
L 840.484162 203.551463 
L 845.062972 202.506394 
L 849.641781 201.729607 
L 854.22059 201.294957 
L 858.7994 200.999472 
L 863.378209 201.175724 
L 877.114637 202.891018 
L 881.693447 203.642417 
L 886.272256 204.836595 
L 890.851066 205.287453 
L 895.429875 205.121556 
L 900.008684 204.023328 
L 904.587494 202.073357 
L 909.166303 199.220892 
L 913.745113 195.152061 
L 918.323922 189.69093 
L 922.902731 183.390306 
L 927.481541 176.884821 
L 932.06035 169.743754 
L 936.63916 162.817133 
L 941.217969 157.069744 
L 945.796778 152.727513 
L 950.375588 149.964899 
L 959.533207 145.70996 
L 964.112016 143.14294 
L 973.269635 136.511871 
L 977.848444 132.591044 
L 982.427254 128.857798 
L 987.006063 125.553265 
L 991.584873 123.277227 
L 996.163682 120.571189 
L 1000.742491 118.15261 
L 1005.321301 116.203632 
L 1009.90011 115.212612 
L 1014.47892 115.538442 
L 1023.636538 117.889552 
L 1028.215348 118.018523 
L 1032.794157 117.814162 
L 1041.951776 116.938414 
L 1046.530585 117.310722 
L 1051.109395 117.851786 
L 1055.688204 119.390305 
L 1064.845823 122.252783 
L 1069.424632 123.822402 
L 1074.003442 126.182255 
L 1078.582251 129.005025 
L 1083.161061 131.425082 
L 1087.73987 133.396042 
L 1092.318679 134.814886 
L 1096.897489 135.950423 
L 1101.476298 136.243684 
L 1106.055108 135.741593 
L 1110.633917 137.141393 
L 1115.212727 140.040718 
L 1119.791536 143.706621 
L 1119.791536 143.706621 
" style="fill:none;stroke:#4169e1;stroke-dasharray:7.4,3.2;stroke-dashoffset:0;stroke-width:2;"/>
   </g>
   <g id="line2d_32">
    <path clip-path="url(#p86b5a4793e)" d="M 162 180.032068 
L 1166.4 180.032068 
" style="fill:none;stroke:#000000;stroke-linecap:square;stroke-width:2;"/>
   </g>
   <g id="patch_207">
    <path d="M 162 315 
L 162 43.2 
" style="fill:none;stroke:#000000;stroke-linecap:square;stroke-linejoin:miter;stroke-width:0.8;"/>
   </g>
   <g id="patch_208">
    <path d="M 1166.4 315 
L 1166.4 43.2 
" style="fill:none;stroke:#000000;stroke-linecap:square;stroke-linejoin:miter;stroke-width:0.8;"/>
   </g>
   <g id="patch_209">
    <path d="M 162 315 
L 1166.4 315 
" style="fill:none;stroke:#000000;stroke-linecap:square;stroke-linejoin:miter;stroke-width:0.8;"/>
   </g>
   <g id="patch_210">
    <path d="M 162 43.2 
L 1166.4 43.2 
" style="fill:none;stroke:#000000;stroke-linecap:square;stroke-linejoin:miter;stroke-width:0.8;"/>
   </g>
   <g id="legend_1">
    <g id="patch_211">
     <path d="M 1032.96875 305 
L 1152.4 305 
Q 1156.4 305 1156.4 301 
L 1156.4 214.93125 
Q 1156.4 210.93125 1152.4 210.93125 
L 1032.96875 210.93125 
Q 1028.96875 210.93125 1028.96875 214.93125 
L 1028.96875 301 
Q 1028.96875 305 1032.96875 305 
z
" style="fill:#ffffff;opacity:0.8;stroke:#cccccc;stroke-linejoin:miter;"/>
    </g>
    <g id="line2d_33">
     <path d="M 1036.96875 227.128125 
L 1076.96875 227.128125 
" style="fill:none;stroke:#ffa500;stroke-dasharray:7.4,3.2;stroke-dashoffset:0;stroke-width:2;"/>
    </g>
    <g id="line2d_34"/>
    <g id="text_24">
     <!-- DIF -->
     <defs>
      <path d="M 19.671875 64.796875 
L 19.671875 8.109375 
L 31.59375 8.109375 
Q 46.6875 8.109375 53.6875 14.9375 
Q 60.6875 21.78125 60.6875 36.53125 
Q 60.6875 51.171875 53.6875 57.984375 
Q 46.6875 64.796875 31.59375 64.796875 
z
M 9.8125 72.90625 
L 30.078125 72.90625 
Q 51.265625 72.90625 61.171875 64.09375 
Q 71.09375 55.28125 71.09375 36.53125 
Q 71.09375 17.671875 61.125 8.828125 
Q 51.171875 0 30.078125 0 
L 9.8125 0 
z
" id="DejaVuSans-44"/>
      <path d="M 9.8125 72.90625 
L 19.671875 72.90625 
L 19.671875 0 
L 9.8125 0 
z
" id="DejaVuSans-49"/>
      <path d="M 9.8125 72.90625 
L 51.703125 72.90625 
L 51.703125 64.59375 
L 19.671875 64.59375 
L 19.671875 43.109375 
L 48.578125 43.109375 
L 48.578125 34.8125 
L 19.671875 34.8125 
L 19.671875 0 
L 9.8125 0 
z
" id="DejaVuSans-46"/>
     </defs>
     <g transform="translate(1092.96875 234.128125)scale(0.2 -0.2)">
      <use xlink:href="#DejaVuSans-44"/>
      <use x="77.001953" xlink:href="#DejaVuSans-49"/>
      <use x="106.494141" xlink:href="#DejaVuSans-46"/>
     </g>
    </g>
    <g id="line2d_35">
     <path d="M 1036.96875 256.484375 
L 1076.96875 256.484375 
" style="fill:none;stroke:#4169e1;stroke-dasharray:7.4,3.2;stroke-dashoffset:0;stroke-width:2;"/>
    </g>
    <g id="line2d_36"/>
    <g id="text_25">
     <!-- DEA -->
     <defs>
      <path d="M 9.8125 72.90625 
L 55.90625 72.90625 
L 55.90625 64.59375 
L 19.671875 64.59375 
L 19.671875 43.015625 
L 54.390625 43.015625 
L 54.390625 34.71875 
L 19.671875 34.71875 
L 19.671875 8.296875 
L 56.78125 8.296875 
L 56.78125 0 
L 9.8125 0 
z
" id="DejaVuSans-45"/>
      <path d="M 34.1875 63.1875 
L 20.796875 26.90625 
L 47.609375 26.90625 
z
M 28.609375 72.90625 
L 39.796875 72.90625 
L 67.578125 0 
L 57.328125 0 
L 50.6875 18.703125 
L 17.828125 18.703125 
L 11.1875 0 
L 0.78125 0 
z
" id="DejaVuSans-41"/>
     </defs>
     <g transform="translate(1092.96875 263.484375)scale(0.2 -0.2)">
      <use xlink:href="#DejaVuSans-44"/>
      <use x="77.001953" xlink:href="#DejaVuSans-45"/>
      <use x="140.185547" xlink:href="#DejaVuSans-41"/>
     </g>
    </g>
    <g id="patch_212">
     <path d="M 1036.96875 292.840625 
L 1076.96875 292.840625 
L 1076.96875 278.840625 
L 1036.96875 278.840625 
z
" style="fill:#008000;"/>
    </g>
    <g id="text_26">
     <!-- macd -->
     <g transform="translate(1092.96875 292.840625)scale(0.2 -0.2)">
      <use xlink:href="#DejaVuSans-6d"/>
      <use x="97.412109" xlink:href="#DejaVuSans-61"/>
      <use x="158.691406" xlink:href="#DejaVuSans-63"/>
      <use x="213.671875" xlink:href="#DejaVuSans-64"/>
     </g>
    </g>
   </g>
  </g>
 </g>
 <defs>
  <clipPath id="p86b5a4793e">
   <rect height="271.8" width="1004.4" x="162" y="43.2"/>
  </clipPath>
 </defs>
</svg>
