<?xml version="1.0" encoding="utf-8" standalone="no"?>
<!DOCTYPE svg PUBLIC "-//W3C//DTD SVG 1.1//EN"
  "http://www.w3.org/Graphics/SVG/1.1/DTD/svg11.dtd">
<!-- Created with matplotlib (http://matplotlib.org/) -->
<svg height="265.69625pt" version="1.1" viewBox="0 0 491.657813 265.69625" width="491.657813pt" xmlns="http://www.w3.org/2000/svg" xmlns:xlink="http://www.w3.org/1999/xlink">
 <defs>
  <style type="text/css">
*{stroke-linecap:butt;stroke-linejoin:round;}
  </style>
 </defs>
 <g id="figure_1">
  <g id="patch_1">
   <path d="M 0 265.69625 
L 491.657813 265.69625 
L 491.657813 0 
L 0 0 
z
" style="fill:#ffffff;"/>
  </g>
  <g id="axes_1">
   <g id="patch_2">
    <path d="M 26.925 228.14 
L 473.325 228.14 
L 473.325 10.7 
L 26.925 10.7 
z
" style="fill:#ffffff;"/>
   </g>
   <g id="patch_3">
    <path clip-path="url(#p814d8bb9b7)" d="M 171.788174 228.14 
L 174.882618 228.14 
L 174.882618 225.745945 
L 171.788174 225.745945 
z
" style="fill:#4169e1;opacity:0.4;"/>
   </g>
   <g id="patch_4">
    <path clip-path="url(#p814d8bb9b7)" d="M 174.882618 228.14 
L 177.977063 228.14 
L 177.977063 226.942973 
L 174.882618 226.942973 
z
" style="fill:#4169e1;opacity:0.4;"/>
   </g>
   <g id="patch_5">
    <path clip-path="url(#p814d8bb9b7)" d="M 177.977063 228.14 
L 181.071507 228.14 
L 181.071507 228.14 
L 177.977063 228.14 
z
" style="fill:#4169e1;opacity:0.4;"/>
   </g>
   <g id="patch_6">
    <path clip-path="url(#p814d8bb9b7)" d="M 181.071507 228.14 
L 184.165951 228.14 
L 184.165951 226.942973 
L 181.071507 226.942973 
z
" style="fill:#4169e1;opacity:0.4;"/>
   </g>
   <g id="patch_7">
    <path clip-path="url(#p814d8bb9b7)" d="M 184.165951 228.14 
L 187.260395 228.14 
L 187.260395 228.14 
L 184.165951 228.14 
z
" style="fill:#4169e1;opacity:0.4;"/>
   </g>
   <g id="patch_8">
    <path clip-path="url(#p814d8bb9b7)" d="M 187.260395 228.14 
L 190.35484 228.14 
L 190.35484 228.14 
L 187.260395 228.14 
z
" style="fill:#4169e1;opacity:0.4;"/>
   </g>
   <g id="patch_9">
    <path clip-path="url(#p814d8bb9b7)" d="M 190.35484 228.14 
L 193.449284 228.14 
L 193.449284 226.942973 
L 190.35484 226.942973 
z
" style="fill:#4169e1;opacity:0.4;"/>
   </g>
   <g id="patch_10">
    <path clip-path="url(#p814d8bb9b7)" d="M 193.449284 228.14 
L 196.543728 228.14 
L 196.543728 228.14 
L 193.449284 228.14 
z
" style="fill:#4169e1;opacity:0.4;"/>
   </g>
   <g id="patch_11">
    <path clip-path="url(#p814d8bb9b7)" d="M 196.543728 228.14 
L 199.638173 228.14 
L 199.638173 228.14 
L 196.543728 228.14 
z
" style="fill:#4169e1;opacity:0.4;"/>
   </g>
   <g id="patch_12">
    <path clip-path="url(#p814d8bb9b7)" d="M 199.638173 228.14 
L 202.732617 228.14 
L 202.732617 228.14 
L 199.638173 228.14 
z
" style="fill:#4169e1;opacity:0.4;"/>
   </g>
   <g id="patch_13">
    <path clip-path="url(#p814d8bb9b7)" d="M 202.732617 228.14 
L 205.827061 228.14 
L 205.827061 225.745945 
L 202.732617 225.745945 
z
" style="fill:#4169e1;opacity:0.4;"/>
   </g>
   <g id="patch_14">
    <path clip-path="url(#p814d8bb9b7)" d="M 205.827061 228.14 
L 208.921505 228.14 
L 208.921505 228.14 
L 205.827061 228.14 
z
" style="fill:#4169e1;opacity:0.4;"/>
   </g>
   <g id="patch_15">
    <path clip-path="url(#p814d8bb9b7)" d="M 208.921505 228.14 
L 212.01595 228.14 
L 212.01595 224.548918 
L 208.921505 224.548918 
z
" style="fill:#4169e1;opacity:0.4;"/>
   </g>
   <g id="patch_16">
    <path clip-path="url(#p814d8bb9b7)" d="M 212.01595 228.14 
L 215.110394 228.14 
L 215.110394 225.745945 
L 212.01595 225.745945 
z
" style="fill:#4169e1;opacity:0.4;"/>
   </g>
   <g id="patch_17">
    <path clip-path="url(#p814d8bb9b7)" d="M 215.110394 228.14 
L 218.204838 228.14 
L 218.204838 222.154864 
L 215.110394 222.154864 
z
" style="fill:#4169e1;opacity:0.4;"/>
   </g>
   <g id="patch_18">
    <path clip-path="url(#p814d8bb9b7)" d="M 218.204838 228.14 
L 221.299283 228.14 
L 221.299283 222.154864 
L 218.204838 222.154864 
z
" style="fill:#4169e1;opacity:0.4;"/>
   </g>
   <g id="patch_19">
    <path clip-path="url(#p814d8bb9b7)" d="M 221.299283 228.14 
L 224.393727 228.14 
L 224.393727 214.9727 
L 221.299283 214.9727 
z
" style="fill:#4169e1;opacity:0.4;"/>
   </g>
   <g id="patch_20">
    <path clip-path="url(#p814d8bb9b7)" d="M 224.393727 228.14 
L 227.488171 228.14 
L 227.488171 216.169727 
L 224.393727 216.169727 
z
" style="fill:#4169e1;opacity:0.4;"/>
   </g>
   <g id="patch_21">
    <path clip-path="url(#p814d8bb9b7)" d="M 227.488171 228.14 
L 230.582615 228.14 
L 230.582615 199.411346 
L 227.488171 199.411346 
z
" style="fill:#4169e1;opacity:0.4;"/>
   </g>
   <g id="patch_22">
    <path clip-path="url(#p814d8bb9b7)" d="M 230.582615 228.14 
L 233.67706 228.14 
L 233.67706 200.608373 
L 230.582615 200.608373 
z
" style="fill:#4169e1;opacity:0.4;"/>
   </g>
   <g id="patch_23">
    <path clip-path="url(#p814d8bb9b7)" d="M 233.67706 228.14 
L 236.771504 228.14 
L 236.771504 181.455937 
L 233.67706 181.455937 
z
" style="fill:#4169e1;opacity:0.4;"/>
   </g>
   <g id="patch_24">
    <path clip-path="url(#p814d8bb9b7)" d="M 236.771504 228.14 
L 239.865948 228.14 
L 239.865948 162.303501 
L 236.771504 162.303501 
z
" style="fill:#4169e1;opacity:0.4;"/>
   </g>
   <g id="patch_25">
    <path clip-path="url(#p814d8bb9b7)" d="M 239.865948 228.14 
L 242.960393 228.14 
L 242.960393 116.816466 
L 239.865948 116.816466 
z
" style="fill:#4169e1;opacity:0.4;"/>
   </g>
   <g id="patch_26">
    <path clip-path="url(#p814d8bb9b7)" d="M 242.960393 228.14 
L 246.054837 228.14 
L 246.054837 83.299703 
L 242.960393 83.299703 
z
" style="fill:#4169e1;opacity:0.4;"/>
   </g>
   <g id="patch_27">
    <path clip-path="url(#p814d8bb9b7)" d="M 246.054837 228.14 
L 249.149281 228.14 
L 249.149281 42.600776 
L 246.054837 42.600776 
z
" style="fill:#4169e1;opacity:0.4;"/>
   </g>
   <g id="patch_28">
    <path clip-path="url(#p814d8bb9b7)" d="M 249.149281 228.14 
L 252.243725 228.14 
L 252.243725 21.054286 
L 249.149281 21.054286 
z
" style="fill:#4169e1;opacity:0.4;"/>
   </g>
   <g id="patch_29">
    <path clip-path="url(#p814d8bb9b7)" d="M 252.243725 228.14 
L 255.33817 228.14 
L 255.33817 39.009694 
L 252.243725 39.009694 
z
" style="fill:#4169e1;opacity:0.4;"/>
   </g>
   <g id="patch_30">
    <path clip-path="url(#p814d8bb9b7)" d="M 255.33817 228.14 
L 258.432614 228.14 
L 258.432614 108.437275 
L 255.33817 108.437275 
z
" style="fill:#4169e1;opacity:0.4;"/>
   </g>
   <g id="patch_31">
    <path clip-path="url(#p814d8bb9b7)" d="M 258.432614 228.14 
L 261.527058 228.14 
L 261.527058 140.757011 
L 258.432614 140.757011 
z
" style="fill:#4169e1;opacity:0.4;"/>
   </g>
   <g id="patch_32">
    <path clip-path="url(#p814d8bb9b7)" d="M 261.527058 228.14 
L 264.621503 228.14 
L 264.621503 156.318365 
L 261.527058 156.318365 
z
" style="fill:#4169e1;opacity:0.4;"/>
   </g>
   <g id="patch_33">
    <path clip-path="url(#p814d8bb9b7)" d="M 264.621503 228.14 
L 267.715947 228.14 
L 267.715947 170.682692 
L 264.621503 170.682692 
z
" style="fill:#4169e1;opacity:0.4;"/>
   </g>
   <g id="patch_34">
    <path clip-path="url(#p814d8bb9b7)" d="M 267.715947 228.14 
L 270.810391 228.14 
L 270.810391 191.032155 
L 267.715947 191.032155 
z
" style="fill:#4169e1;opacity:0.4;"/>
   </g>
   <g id="patch_35">
    <path clip-path="url(#p814d8bb9b7)" d="M 270.810391 228.14 
L 273.904836 228.14 
L 273.904836 212.578646 
L 270.810391 212.578646 
z
" style="fill:#4169e1;opacity:0.4;"/>
   </g>
   <g id="patch_36">
    <path clip-path="url(#p814d8bb9b7)" d="M 273.904836 228.14 
L 276.99928 228.14 
L 276.99928 205.396482 
L 273.904836 205.396482 
z
" style="fill:#4169e1;opacity:0.4;"/>
   </g>
   <g id="patch_37">
    <path clip-path="url(#p814d8bb9b7)" d="M 276.99928 228.14 
L 280.093724 228.14 
L 280.093724 217.366755 
L 276.99928 217.366755 
z
" style="fill:#4169e1;opacity:0.4;"/>
   </g>
   <g id="patch_38">
    <path clip-path="url(#p814d8bb9b7)" d="M 280.093724 228.14 
L 283.188168 228.14 
L 283.188168 223.351891 
L 280.093724 223.351891 
z
" style="fill:#4169e1;opacity:0.4;"/>
   </g>
   <g id="patch_39">
    <path clip-path="url(#p814d8bb9b7)" d="M 283.188168 228.14 
L 286.282613 228.14 
L 286.282613 226.942973 
L 283.188168 226.942973 
z
" style="fill:#4169e1;opacity:0.4;"/>
   </g>
   <g id="patch_40">
    <path clip-path="url(#p814d8bb9b7)" d="M 286.282613 228.14 
L 289.377057 228.14 
L 289.377057 222.154864 
L 286.282613 222.154864 
z
" style="fill:#4169e1;opacity:0.4;"/>
   </g>
   <g id="patch_41">
    <path clip-path="url(#p814d8bb9b7)" d="M 289.377057 228.14 
L 292.471501 228.14 
L 292.471501 225.745945 
L 289.377057 225.745945 
z
" style="fill:#4169e1;opacity:0.4;"/>
   </g>
   <g id="patch_42">
    <path clip-path="url(#p814d8bb9b7)" d="M 292.471501 228.14 
L 295.565946 228.14 
L 295.565946 226.942973 
L 292.471501 226.942973 
z
" style="fill:#4169e1;opacity:0.4;"/>
   </g>
   <g id="patch_43">
    <path clip-path="url(#p814d8bb9b7)" d="M 295.565946 228.14 
L 298.66039 228.14 
L 298.66039 226.942973 
L 295.565946 226.942973 
z
" style="fill:#4169e1;opacity:0.4;"/>
   </g>
   <g id="patch_44">
    <path clip-path="url(#p814d8bb9b7)" d="M 298.66039 228.14 
L 301.754834 228.14 
L 301.754834 228.14 
L 298.66039 228.14 
z
" style="fill:#4169e1;opacity:0.4;"/>
   </g>
   <g id="patch_45">
    <path clip-path="url(#p814d8bb9b7)" d="M 301.754834 228.14 
L 304.849278 228.14 
L 304.849278 225.745945 
L 301.754834 225.745945 
z
" style="fill:#4169e1;opacity:0.4;"/>
   </g>
   <g id="patch_46">
    <path clip-path="url(#p814d8bb9b7)" d="M 304.849278 228.14 
L 307.943723 228.14 
L 307.943723 228.14 
L 304.849278 228.14 
z
" style="fill:#4169e1;opacity:0.4;"/>
   </g>
   <g id="patch_47">
    <path clip-path="url(#p814d8bb9b7)" d="M 307.943723 228.14 
L 311.038167 228.14 
L 311.038167 228.14 
L 307.943723 228.14 
z
" style="fill:#4169e1;opacity:0.4;"/>
   </g>
   <g id="patch_48">
    <path clip-path="url(#p814d8bb9b7)" d="M 311.038167 228.14 
L 314.132611 228.14 
L 314.132611 228.14 
L 311.038167 228.14 
z
" style="fill:#4169e1;opacity:0.4;"/>
   </g>
   <g id="patch_49">
    <path clip-path="url(#p814d8bb9b7)" d="M 314.132611 228.14 
L 317.227056 228.14 
L 317.227056 228.14 
L 314.132611 228.14 
z
" style="fill:#4169e1;opacity:0.4;"/>
   </g>
   <g id="patch_50">
    <path clip-path="url(#p814d8bb9b7)" d="M 317.227056 228.14 
L 320.3215 228.14 
L 320.3215 228.14 
L 317.227056 228.14 
z
" style="fill:#4169e1;opacity:0.4;"/>
   </g>
   <g id="patch_51">
    <path clip-path="url(#p814d8bb9b7)" d="M 320.3215 228.14 
L 323.415944 228.14 
L 323.415944 228.14 
L 320.3215 228.14 
z
" style="fill:#4169e1;opacity:0.4;"/>
   </g>
   <g id="patch_52">
    <path clip-path="url(#p814d8bb9b7)" d="M 323.415944 228.14 
L 326.510388 228.14 
L 326.510388 226.942973 
L 323.415944 226.942973 
z
" style="fill:#4169e1;opacity:0.4;"/>
   </g>
   <g id="matplotlib.axis_1">
    <g id="xtick_1">
     <g id="line2d_1">
      <defs>
       <path d="M 0 0 
L 0 3.5 
" id="mc20d9da578" style="stroke:#000000;stroke-width:0.8;"/>
      </defs>
      <g>
       <use style="stroke:#000000;stroke-width:0.8;" x="26.925" xlink:href="#mc20d9da578" y="228.14"/>
      </g>
     </g>
     <g id="text_1">
      <!-- −0.15 -->
      <defs>
       <path d="M 10.59375 35.5 
L 73.1875 35.5 
L 73.1875 27.203125 
L 10.59375 27.203125 
z
" id="DejaVuSans-2212"/>
       <path d="M 31.78125 66.40625 
Q 24.171875 66.40625 20.328125 58.90625 
Q 16.5 51.421875 16.5 36.375 
Q 16.5 21.390625 20.328125 13.890625 
Q 24.171875 6.390625 31.78125 6.390625 
Q 39.453125 6.390625 43.28125 13.890625 
Q 47.125 21.390625 47.125 36.375 
Q 47.125 51.421875 43.28125 58.90625 
Q 39.453125 66.40625 31.78125 66.40625 
z
M 31.78125 74.21875 
Q 44.046875 74.21875 50.515625 64.515625 
Q 56.984375 54.828125 56.984375 36.375 
Q 56.984375 17.96875 50.515625 8.265625 
Q 44.046875 -1.421875 31.78125 -1.421875 
Q 19.53125 -1.421875 13.0625 8.265625 
Q 6.59375 17.96875 6.59375 36.375 
Q 6.59375 54.828125 13.0625 64.515625 
Q 19.53125 74.21875 31.78125 74.21875 
z
" id="DejaVuSans-30"/>
       <path d="M 10.6875 12.40625 
L 21 12.40625 
L 21 0 
L 10.6875 0 
z
" id="DejaVuSans-2e"/>
       <path d="M 12.40625 8.296875 
L 28.515625 8.296875 
L 28.515625 63.921875 
L 10.984375 60.40625 
L 10.984375 69.390625 
L 28.421875 72.90625 
L 38.28125 72.90625 
L 38.28125 8.296875 
L 54.390625 8.296875 
L 54.390625 0 
L 12.40625 0 
z
" id="DejaVuSans-31"/>
       <path d="M 10.796875 72.90625 
L 49.515625 72.90625 
L 49.515625 64.59375 
L 19.828125 64.59375 
L 19.828125 46.734375 
Q 21.96875 47.46875 24.109375 47.828125 
Q 26.265625 48.1875 28.421875 48.1875 
Q 40.625 48.1875 47.75 41.5 
Q 54.890625 34.8125 54.890625 23.390625 
Q 54.890625 11.625 47.5625 5.09375 
Q 40.234375 -1.421875 26.90625 -1.421875 
Q 22.3125 -1.421875 17.546875 -0.640625 
Q 12.796875 0.140625 7.71875 1.703125 
L 7.71875 11.625 
Q 12.109375 9.234375 16.796875 8.0625 
Q 21.484375 6.890625 26.703125 6.890625 
Q 35.15625 6.890625 40.078125 11.328125 
Q 45.015625 15.765625 45.015625 23.390625 
Q 45.015625 31 40.078125 35.4375 
Q 35.15625 39.890625 26.703125 39.890625 
Q 22.75 39.890625 18.8125 39.015625 
Q 14.890625 38.140625 10.796875 36.28125 
z
" id="DejaVuSans-35"/>
      </defs>
      <g transform="translate(11.602344 242.738437)scale(0.1 -0.1)">
       <use xlink:href="#DejaVuSans-2212"/>
       <use x="83.789062" xlink:href="#DejaVuSans-30"/>
       <use x="147.412109" xlink:href="#DejaVuSans-2e"/>
       <use x="179.199219" xlink:href="#DejaVuSans-31"/>
       <use x="242.822266" xlink:href="#DejaVuSans-35"/>
      </g>
     </g>
    </g>
    <g id="xtick_2">
     <g id="line2d_2">
      <g>
       <use style="stroke:#000000;stroke-width:0.8;" x="101.325" xlink:href="#mc20d9da578" y="228.14"/>
      </g>
     </g>
     <g id="text_2">
      <!-- −0.10 -->
      <g transform="translate(86.002344 242.738437)scale(0.1 -0.1)">
       <use xlink:href="#DejaVuSans-2212"/>
       <use x="83.789062" xlink:href="#DejaVuSans-30"/>
       <use x="147.412109" xlink:href="#DejaVuSans-2e"/>
       <use x="179.199219" xlink:href="#DejaVuSans-31"/>
       <use x="242.822266" xlink:href="#DejaVuSans-30"/>
      </g>
     </g>
    </g>
    <g id="xtick_3">
     <g id="line2d_3">
      <g>
       <use style="stroke:#000000;stroke-width:0.8;" x="175.725" xlink:href="#mc20d9da578" y="228.14"/>
      </g>
     </g>
     <g id="text_3">
      <!-- −0.05 -->
      <g transform="translate(160.402344 242.738437)scale(0.1 -0.1)">
       <use xlink:href="#DejaVuSans-2212"/>
       <use x="83.789062" xlink:href="#DejaVuSans-30"/>
       <use x="147.412109" xlink:href="#DejaVuSans-2e"/>
       <use x="179.199219" xlink:href="#DejaVuSans-30"/>
       <use x="242.822266" xlink:href="#DejaVuSans-35"/>
      </g>
     </g>
    </g>
    <g id="xtick_4">
     <g id="line2d_4">
      <g>
       <use style="stroke:#000000;stroke-width:0.8;" x="250.125" xlink:href="#mc20d9da578" y="228.14"/>
      </g>
     </g>
     <g id="text_4">
      <!-- 0.00 -->
      <g transform="translate(238.992188 242.738437)scale(0.1 -0.1)">
       <use xlink:href="#DejaVuSans-30"/>
       <use x="63.623047" xlink:href="#DejaVuSans-2e"/>
       <use x="95.410156" xlink:href="#DejaVuSans-30"/>
       <use x="159.033203" xlink:href="#DejaVuSans-30"/>
      </g>
     </g>
    </g>
    <g id="xtick_5">
     <g id="line2d_5">
      <g>
       <use style="stroke:#000000;stroke-width:0.8;" x="324.525" xlink:href="#mc20d9da578" y="228.14"/>
      </g>
     </g>
     <g id="text_5">
      <!-- 0.05 -->
      <g transform="translate(313.392187 242.738437)scale(0.1 -0.1)">
       <use xlink:href="#DejaVuSans-30"/>
       <use x="63.623047" xlink:href="#DejaVuSans-2e"/>
       <use x="95.410156" xlink:href="#DejaVuSans-30"/>
       <use x="159.033203" xlink:href="#DejaVuSans-35"/>
      </g>
     </g>
    </g>
    <g id="xtick_6">
     <g id="line2d_6">
      <g>
       <use style="stroke:#000000;stroke-width:0.8;" x="398.925" xlink:href="#mc20d9da578" y="228.14"/>
      </g>
     </g>
     <g id="text_6">
      <!-- 0.10 -->
      <g transform="translate(387.792187 242.738437)scale(0.1 -0.1)">
       <use xlink:href="#DejaVuSans-30"/>
       <use x="63.623047" xlink:href="#DejaVuSans-2e"/>
       <use x="95.410156" xlink:href="#DejaVuSans-31"/>
       <use x="159.033203" xlink:href="#DejaVuSans-30"/>
      </g>
     </g>
    </g>
    <g id="xtick_7">
     <g id="line2d_7">
      <g>
       <use style="stroke:#000000;stroke-width:0.8;" x="473.325" xlink:href="#mc20d9da578" y="228.14"/>
      </g>
     </g>
     <g id="text_7">
      <!-- 0.15 -->
      <g transform="translate(462.192188 242.738437)scale(0.1 -0.1)">
       <use xlink:href="#DejaVuSans-30"/>
       <use x="63.623047" xlink:href="#DejaVuSans-2e"/>
       <use x="95.410156" xlink:href="#DejaVuSans-31"/>
       <use x="159.033203" xlink:href="#DejaVuSans-35"/>
      </g>
     </g>
    </g>
    <g id="text_8">
     <!-- USD (PM) -->
     <defs>
      <path d="M 8.6875 72.90625 
L 18.609375 72.90625 
L 18.609375 28.609375 
Q 18.609375 16.890625 22.84375 11.734375 
Q 27.09375 6.59375 36.625 6.59375 
Q 46.09375 6.59375 50.34375 11.734375 
Q 54.59375 16.890625 54.59375 28.609375 
L 54.59375 72.90625 
L 64.5 72.90625 
L 64.5 27.390625 
Q 64.5 13.140625 57.4375 5.859375 
Q 50.390625 -1.421875 36.625 -1.421875 
Q 22.796875 -1.421875 15.734375 5.859375 
Q 8.6875 13.140625 8.6875 27.390625 
z
" id="DejaVuSans-55"/>
      <path d="M 53.515625 70.515625 
L 53.515625 60.890625 
Q 47.90625 63.578125 42.921875 64.890625 
Q 37.9375 66.21875 33.296875 66.21875 
Q 25.25 66.21875 20.875 63.09375 
Q 16.5 59.96875 16.5 54.203125 
Q 16.5 49.359375 19.40625 46.890625 
Q 22.3125 44.4375 30.421875 42.921875 
L 36.375 41.703125 
Q 47.40625 39.59375 52.65625 34.296875 
Q 57.90625 29 57.90625 20.125 
Q 57.90625 9.515625 50.796875 4.046875 
Q 43.703125 -1.421875 29.984375 -1.421875 
Q 24.8125 -1.421875 18.96875 -0.25 
Q 13.140625 0.921875 6.890625 3.21875 
L 6.890625 13.375 
Q 12.890625 10.015625 18.65625 8.296875 
Q 24.421875 6.59375 29.984375 6.59375 
Q 38.421875 6.59375 43.015625 9.90625 
Q 47.609375 13.234375 47.609375 19.390625 
Q 47.609375 24.75 44.3125 27.78125 
Q 41.015625 30.8125 33.5 32.328125 
L 27.484375 33.5 
Q 16.453125 35.6875 11.515625 40.375 
Q 6.59375 45.0625 6.59375 53.421875 
Q 6.59375 63.09375 13.40625 68.65625 
Q 20.21875 74.21875 32.171875 74.21875 
Q 37.3125 74.21875 42.625 73.28125 
Q 47.953125 72.359375 53.515625 70.515625 
z
" id="DejaVuSans-53"/>
      <path d="M 19.671875 64.796875 
L 19.671875 8.109375 
L 31.59375 8.109375 
Q 46.6875 8.109375 53.6875 14.9375 
Q 60.6875 21.78125 60.6875 36.53125 
Q 60.6875 51.171875 53.6875 57.984375 
Q 46.6875 64.796875 31.59375 64.796875 
z
M 9.8125 72.90625 
L 30.078125 72.90625 
Q 51.265625 72.90625 61.171875 64.09375 
Q 71.09375 55.28125 71.09375 36.53125 
Q 71.09375 17.671875 61.125 8.828125 
Q 51.171875 0 30.078125 0 
L 9.8125 0 
z
" id="DejaVuSans-44"/>
      <path id="DejaVuSans-20"/>
      <path d="M 31 75.875 
Q 24.46875 64.65625 21.28125 53.65625 
Q 18.109375 42.671875 18.109375 31.390625 
Q 18.109375 20.125 21.3125 9.0625 
Q 24.515625 -2 31 -13.1875 
L 23.1875 -13.1875 
Q 15.875 -1.703125 12.234375 9.375 
Q 8.59375 20.453125 8.59375 31.390625 
Q 8.59375 42.28125 12.203125 53.3125 
Q 15.828125 64.359375 23.1875 75.875 
z
" id="DejaVuSans-28"/>
      <path d="M 19.671875 64.796875 
L 19.671875 37.40625 
L 32.078125 37.40625 
Q 38.96875 37.40625 42.71875 40.96875 
Q 46.484375 44.53125 46.484375 51.125 
Q 46.484375 57.671875 42.71875 61.234375 
Q 38.96875 64.796875 32.078125 64.796875 
z
M 9.8125 72.90625 
L 32.078125 72.90625 
Q 44.34375 72.90625 50.609375 67.359375 
Q 56.890625 61.8125 56.890625 51.125 
Q 56.890625 40.328125 50.609375 34.8125 
Q 44.34375 29.296875 32.078125 29.296875 
L 19.671875 29.296875 
L 19.671875 0 
L 9.8125 0 
z
" id="DejaVuSans-50"/>
      <path d="M 9.8125 72.90625 
L 24.515625 72.90625 
L 43.109375 23.296875 
L 61.8125 72.90625 
L 76.515625 72.90625 
L 76.515625 0 
L 66.890625 0 
L 66.890625 64.015625 
L 48.09375 14.015625 
L 38.1875 14.015625 
L 19.390625 64.015625 
L 19.390625 0 
L 9.8125 0 
z
" id="DejaVuSans-4d"/>
      <path d="M 8.015625 75.875 
L 15.828125 75.875 
Q 23.140625 64.359375 26.78125 53.3125 
Q 30.421875 42.28125 30.421875 31.390625 
Q 30.421875 20.453125 26.78125 9.375 
Q 23.140625 -1.703125 15.828125 -13.1875 
L 8.015625 -13.1875 
Q 14.5 -2 17.703125 9.0625 
Q 20.90625 20.125 20.90625 31.390625 
Q 20.90625 42.671875 17.703125 53.65625 
Q 14.5 64.65625 8.015625 75.875 
z
" id="DejaVuSans-29"/>
     </defs>
     <g transform="translate(226.621875 256.416562)scale(0.1 -0.1)">
      <use xlink:href="#DejaVuSans-55"/>
      <use x="73.193359" xlink:href="#DejaVuSans-53"/>
      <use x="136.669922" xlink:href="#DejaVuSans-44"/>
      <use x="213.671875" xlink:href="#DejaVuSans-20"/>
      <use x="245.458984" xlink:href="#DejaVuSans-28"/>
      <use x="284.472656" xlink:href="#DejaVuSans-50"/>
      <use x="344.775391" xlink:href="#DejaVuSans-4d"/>
      <use x="431.054688" xlink:href="#DejaVuSans-29"/>
     </g>
    </g>
   </g>
   <g id="matplotlib.axis_2">
    <g id="ytick_1">
     <g id="line2d_8">
      <path clip-path="url(#p814d8bb9b7)" d="M 26.925 228.14 
L 473.325 228.14 
" style="fill:none;stroke:#b0b0b0;stroke-linecap:square;stroke-width:0.8;"/>
     </g>
     <g id="line2d_9">
      <defs>
       <path d="M 0 0 
L -3.5 0 
" id="mfdca63938d" style="stroke:#000000;stroke-width:0.8;"/>
      </defs>
      <g>
       <use style="stroke:#000000;stroke-width:0.8;" x="26.925" xlink:href="#mfdca63938d" y="228.14"/>
      </g>
     </g>
     <g id="text_9">
      <!-- 0 -->
      <g transform="translate(13.5625 231.939219)scale(0.1 -0.1)">
       <use xlink:href="#DejaVuSans-30"/>
      </g>
     </g>
    </g>
    <g id="ytick_2">
     <g id="line2d_10">
      <path clip-path="url(#p814d8bb9b7)" d="M 26.925 196.923708 
L 473.325 196.923708 
" style="fill:none;stroke:#b0b0b0;stroke-linecap:square;stroke-width:0.8;"/>
     </g>
     <g id="line2d_11">
      <g>
       <use style="stroke:#000000;stroke-width:0.8;" x="26.925" xlink:href="#mfdca63938d" y="196.923708"/>
      </g>
     </g>
     <g id="text_10">
      <!-- 10 -->
      <g transform="translate(7.2 200.722927)scale(0.1 -0.1)">
       <use xlink:href="#DejaVuSans-31"/>
       <use x="63.623047" xlink:href="#DejaVuSans-30"/>
      </g>
     </g>
    </g>
    <g id="ytick_3">
     <g id="line2d_12">
      <path clip-path="url(#p814d8bb9b7)" d="M 26.925 165.707417 
L 473.325 165.707417 
" style="fill:none;stroke:#b0b0b0;stroke-linecap:square;stroke-width:0.8;"/>
     </g>
     <g id="line2d_13">
      <g>
       <use style="stroke:#000000;stroke-width:0.8;" x="26.925" xlink:href="#mfdca63938d" y="165.707417"/>
      </g>
     </g>
     <g id="text_11">
      <!-- 20 -->
      <defs>
       <path d="M 19.1875 8.296875 
L 53.609375 8.296875 
L 53.609375 0 
L 7.328125 0 
L 7.328125 8.296875 
Q 12.9375 14.109375 22.625 23.890625 
Q 32.328125 33.6875 34.8125 36.53125 
Q 39.546875 41.84375 41.421875 45.53125 
Q 43.3125 49.21875 43.3125 52.78125 
Q 43.3125 58.59375 39.234375 62.25 
Q 35.15625 65.921875 28.609375 65.921875 
Q 23.96875 65.921875 18.8125 64.3125 
Q 13.671875 62.703125 7.8125 59.421875 
L 7.8125 69.390625 
Q 13.765625 71.78125 18.9375 73 
Q 24.125 74.21875 28.421875 74.21875 
Q 39.75 74.21875 46.484375 68.546875 
Q 53.21875 62.890625 53.21875 53.421875 
Q 53.21875 48.921875 51.53125 44.890625 
Q 49.859375 40.875 45.40625 35.40625 
Q 44.1875 33.984375 37.640625 27.21875 
Q 31.109375 20.453125 19.1875 8.296875 
z
" id="DejaVuSans-32"/>
      </defs>
      <g transform="translate(7.2 169.506635)scale(0.1 -0.1)">
       <use xlink:href="#DejaVuSans-32"/>
       <use x="63.623047" xlink:href="#DejaVuSans-30"/>
      </g>
     </g>
    </g>
    <g id="ytick_4">
     <g id="line2d_14">
      <path clip-path="url(#p814d8bb9b7)" d="M 26.925 134.491125 
L 473.325 134.491125 
" style="fill:none;stroke:#b0b0b0;stroke-linecap:square;stroke-width:0.8;"/>
     </g>
     <g id="line2d_15">
      <g>
       <use style="stroke:#000000;stroke-width:0.8;" x="26.925" xlink:href="#mfdca63938d" y="134.491125"/>
      </g>
     </g>
     <g id="text_12">
      <!-- 30 -->
      <defs>
       <path d="M 40.578125 39.3125 
Q 47.65625 37.796875 51.625 33 
Q 55.609375 28.21875 55.609375 21.1875 
Q 55.609375 10.40625 48.1875 4.484375 
Q 40.765625 -1.421875 27.09375 -1.421875 
Q 22.515625 -1.421875 17.65625 -0.515625 
Q 12.796875 0.390625 7.625 2.203125 
L 7.625 11.71875 
Q 11.71875 9.328125 16.59375 8.109375 
Q 21.484375 6.890625 26.8125 6.890625 
Q 36.078125 6.890625 40.9375 10.546875 
Q 45.796875 14.203125 45.796875 21.1875 
Q 45.796875 27.640625 41.28125 31.265625 
Q 36.765625 34.90625 28.71875 34.90625 
L 20.21875 34.90625 
L 20.21875 43.015625 
L 29.109375 43.015625 
Q 36.375 43.015625 40.234375 45.921875 
Q 44.09375 48.828125 44.09375 54.296875 
Q 44.09375 59.90625 40.109375 62.90625 
Q 36.140625 65.921875 28.71875 65.921875 
Q 24.65625 65.921875 20.015625 65.03125 
Q 15.375 64.15625 9.8125 62.3125 
L 9.8125 71.09375 
Q 15.4375 72.65625 20.34375 73.4375 
Q 25.25 74.21875 29.59375 74.21875 
Q 40.828125 74.21875 47.359375 69.109375 
Q 53.90625 64.015625 53.90625 55.328125 
Q 53.90625 49.265625 50.4375 45.09375 
Q 46.96875 40.921875 40.578125 39.3125 
z
" id="DejaVuSans-33"/>
      </defs>
      <g transform="translate(7.2 138.290344)scale(0.1 -0.1)">
       <use xlink:href="#DejaVuSans-33"/>
       <use x="63.623047" xlink:href="#DejaVuSans-30"/>
      </g>
     </g>
    </g>
    <g id="ytick_5">
     <g id="line2d_16">
      <path clip-path="url(#p814d8bb9b7)" d="M 26.925 103.274833 
L 473.325 103.274833 
" style="fill:none;stroke:#b0b0b0;stroke-linecap:square;stroke-width:0.8;"/>
     </g>
     <g id="line2d_17">
      <g>
       <use style="stroke:#000000;stroke-width:0.8;" x="26.925" xlink:href="#mfdca63938d" y="103.274833"/>
      </g>
     </g>
     <g id="text_13">
      <!-- 40 -->
      <defs>
       <path d="M 37.796875 64.3125 
L 12.890625 25.390625 
L 37.796875 25.390625 
z
M 35.203125 72.90625 
L 47.609375 72.90625 
L 47.609375 25.390625 
L 58.015625 25.390625 
L 58.015625 17.1875 
L 47.609375 17.1875 
L 47.609375 0 
L 37.796875 0 
L 37.796875 17.1875 
L 4.890625 17.1875 
L 4.890625 26.703125 
z
" id="DejaVuSans-34"/>
      </defs>
      <g transform="translate(7.2 107.074052)scale(0.1 -0.1)">
       <use xlink:href="#DejaVuSans-34"/>
       <use x="63.623047" xlink:href="#DejaVuSans-30"/>
      </g>
     </g>
    </g>
    <g id="ytick_6">
     <g id="line2d_18">
      <path clip-path="url(#p814d8bb9b7)" d="M 26.925 72.058541 
L 473.325 72.058541 
" style="fill:none;stroke:#b0b0b0;stroke-linecap:square;stroke-width:0.8;"/>
     </g>
     <g id="line2d_19">
      <g>
       <use style="stroke:#000000;stroke-width:0.8;" x="26.925" xlink:href="#mfdca63938d" y="72.058541"/>
      </g>
     </g>
     <g id="text_14">
      <!-- 50 -->
      <g transform="translate(7.2 75.85776)scale(0.1 -0.1)">
       <use xlink:href="#DejaVuSans-35"/>
       <use x="63.623047" xlink:href="#DejaVuSans-30"/>
      </g>
     </g>
    </g>
    <g id="ytick_7">
     <g id="line2d_20">
      <path clip-path="url(#p814d8bb9b7)" d="M 26.925 40.84225 
L 473.325 40.84225 
" style="fill:none;stroke:#b0b0b0;stroke-linecap:square;stroke-width:0.8;"/>
     </g>
     <g id="line2d_21">
      <g>
       <use style="stroke:#000000;stroke-width:0.8;" x="26.925" xlink:href="#mfdca63938d" y="40.84225"/>
      </g>
     </g>
     <g id="text_15">
      <!-- 60 -->
      <defs>
       <path d="M 33.015625 40.375 
Q 26.375 40.375 22.484375 35.828125 
Q 18.609375 31.296875 18.609375 23.390625 
Q 18.609375 15.53125 22.484375 10.953125 
Q 26.375 6.390625 33.015625 6.390625 
Q 39.65625 6.390625 43.53125 10.953125 
Q 47.40625 15.53125 47.40625 23.390625 
Q 47.40625 31.296875 43.53125 35.828125 
Q 39.65625 40.375 33.015625 40.375 
z
M 52.59375 71.296875 
L 52.59375 62.3125 
Q 48.875 64.0625 45.09375 64.984375 
Q 41.3125 65.921875 37.59375 65.921875 
Q 27.828125 65.921875 22.671875 59.328125 
Q 17.53125 52.734375 16.796875 39.40625 
Q 19.671875 43.65625 24.015625 45.921875 
Q 28.375 48.1875 33.59375 48.1875 
Q 44.578125 48.1875 50.953125 41.515625 
Q 57.328125 34.859375 57.328125 23.390625 
Q 57.328125 12.15625 50.6875 5.359375 
Q 44.046875 -1.421875 33.015625 -1.421875 
Q 20.359375 -1.421875 13.671875 8.265625 
Q 6.984375 17.96875 6.984375 36.375 
Q 6.984375 53.65625 15.1875 63.9375 
Q 23.390625 74.21875 37.203125 74.21875 
Q 40.921875 74.21875 44.703125 73.484375 
Q 48.484375 72.75 52.59375 71.296875 
z
" id="DejaVuSans-36"/>
      </defs>
      <g transform="translate(7.2 44.641468)scale(0.1 -0.1)">
       <use xlink:href="#DejaVuSans-36"/>
       <use x="63.623047" xlink:href="#DejaVuSans-30"/>
      </g>
     </g>
    </g>
   </g>
   <g id="line2d_22">
    <path clip-path="url(#p814d8bb9b7)" d="M 164.584669 228.130035 
L 167.248121 228.00756 
L 168.579848 227.799362 
L 172.575026 226.873296 
L 173.906752 226.83602 
L 176.570205 227.1551 
L 179.233657 227.547717 
L 181.897109 227.51995 
L 183.228836 227.50733 
L 188.55574 227.957622 
L 192.550919 227.521268 
L 193.882645 227.596504 
L 196.546097 227.968198 
L 197.877823 228.053854 
L 199.20955 228.020162 
L 200.541276 227.839444 
L 205.868181 226.562196 
L 208.531633 226.132461 
L 213.858538 224.738123 
L 215.190264 223.886562 
L 219.185442 220.122669 
L 220.517168 219.141952 
L 223.180621 217.501577 
L 224.512347 216.155068 
L 225.844073 213.484874 
L 227.175799 209.281696 
L 228.507526 204.498757 
L 229.839252 200.619098 
L 232.502704 195.418369 
L 233.83443 190.739204 
L 235.166156 183.105761 
L 236.497883 172.774604 
L 237.829609 160.333603 
L 240.493061 131.653935 
L 243.156513 101.696021 
L 245.819966 67.985892 
L 247.151692 50.742223 
L 248.483418 36.676652 
L 249.815144 28.213988 
L 251.14687 26.841429 
L 252.478597 33.838057 
L 253.810323 49.609801 
L 257.805501 114.787777 
L 259.137228 129.457013 
L 260.468954 140.284531 
L 261.80068 148.774028 
L 265.795858 170.265169 
L 268.459311 186.976801 
L 269.791037 194.429287 
L 271.122763 200.476058 
L 272.454489 204.803412 
L 273.786215 207.588316 
L 276.449668 211.858984 
L 279.11312 217.391047 
L 280.444846 220.111431 
L 281.776572 222.437287 
L 283.108299 224.134136 
L 284.440025 224.976015 
L 285.771751 224.977408 
L 287.103477 224.56551 
L 288.435203 224.342006 
L 289.76693 224.621015 
L 293.762108 226.682355 
L 295.093834 227.070832 
L 296.42556 227.22026 
L 299.089013 227.143736 
L 301.752465 226.881597 
L 303.084191 226.921261 
L 305.747644 227.56917 
L 307.07937 227.877255 
L 309.742822 228.115495 
L 317.733179 228.139 
L 321.728358 228.050221 
L 327.055262 227.550625 
L 333.713893 228.130801 
L 333.713893 228.130801 
" style="fill:none;stroke:#4169e1;stroke-linecap:square;stroke-width:1.5;"/>
   </g>
   <g id="line2d_23">
    <path clip-path="url(#p814d8bb9b7)" d="M 162.457567 228.14 
L 200.793601 228.049135 
L 205.149969 227.827815 
L 207.763789 227.519945 
L 210.37761 226.95762 
L 212.120157 226.36249 
L 213.862704 225.515757 
L 215.605251 224.335192 
L 217.347798 222.722509 
L 219.090345 220.564692 
L 220.832892 217.737467 
L 222.575439 214.111389 
L 224.317986 209.560801 
L 226.060533 203.975601 
L 227.80308 197.275323 
L 229.545627 189.42456 
L 231.288174 180.448236 
L 233.030721 170.444851 
L 235.644542 153.933914 
L 241.743456 114.201701 
L 243.486003 104.492314 
L 245.22855 96.363193 
L 246.099824 93.020899 
L 246.971097 90.219542 
L 247.842371 87.9959 
L 248.713644 86.379536 
L 249.584918 85.392137 
L 250.456191 85.047034 
L 251.327465 85.3489 
L 252.198738 86.293648 
L 253.070012 87.868518 
L 253.941286 90.052368 
L 254.812559 92.816146 
L 255.683833 96.12353 
L 257.42638 104.192385 
L 259.168927 113.856125 
L 261.782747 130.334902 
L 267.881662 170.094341 
L 269.624209 180.129428 
L 271.366756 189.142144 
L 273.109303 197.031339 
L 274.85185 203.769826 
L 276.594397 209.391236 
L 278.336944 213.974777 
L 280.079491 217.629802 
L 281.822038 220.481652 
L 283.564585 222.659805 
L 285.307132 224.288821 
L 287.049679 225.482165 
L 288.792226 226.338646 
L 290.534773 226.941034 
L 293.148593 227.510675 
L 295.762414 227.82286 
L 300.118782 228.047553 
L 307.960243 228.132442 
L 335.840995 228.14 
L 335.840995 228.14 
" style="fill:none;stroke:#282828;stroke-linecap:square;stroke-width:1.5;"/>
   </g>
   <g id="patch_53">
    <path d="M 26.925 228.14 
L 26.925 10.7 
" style="fill:none;stroke:#000000;stroke-linecap:square;stroke-linejoin:miter;stroke-width:0.8;"/>
   </g>
   <g id="patch_54">
    <path d="M 473.325 228.14 
L 473.325 10.7 
" style="fill:none;stroke:#000000;stroke-linecap:square;stroke-linejoin:miter;stroke-width:0.8;"/>
   </g>
   <g id="patch_55">
    <path d="M 26.925 228.14 
L 473.325 228.14 
" style="fill:none;stroke:#000000;stroke-linecap:square;stroke-linejoin:miter;stroke-width:0.8;"/>
   </g>
   <g id="patch_56">
    <path d="M 26.925 10.7 
L 473.325 10.7 
" style="fill:none;stroke:#000000;stroke-linecap:square;stroke-linejoin:miter;stroke-width:0.8;"/>
   </g>
  </g>
 </g>
 <defs>
  <clipPath id="p814d8bb9b7">
   <rect height="217.44" width="446.4" x="26.925" y="10.7"/>
  </clipPath>
 </defs>
</svg>
