<?xml version="1.0" encoding="utf-8" standalone="no"?>
<!DOCTYPE svg PUBLIC "-//W3C//DTD SVG 1.1//EN"
  "http://www.w3.org/Graphics/SVG/1.1/DTD/svg11.dtd">
<!-- Created with matplotlib (http://matplotlib.org/) -->
<svg height="360pt" version="1.1" viewBox="0 0 1296 360" width="1296pt" xmlns="http://www.w3.org/2000/svg" xmlns:xlink="http://www.w3.org/1999/xlink">
 <defs>
  <style type="text/css">
*{stroke-linecap:butt;stroke-linejoin:round;}
  </style>
 </defs>
 <g id="figure_1">
  <g id="patch_1">
   <path d="M 0 360 
L 1296 360 
L 1296 0 
L 0 0 
z
" style="fill:#ffffff;"/>
  </g>
  <g id="axes_1">
   <g id="patch_2">
    <path d="M 162 315 
L 1166.4 315 
L 1166.4 43.2 
L 162 43.2 
z
" style="fill:#ffffff;"/>
   </g>
   <g id="matplotlib.axis_1">
    <g id="xtick_1">
     <g id="line2d_1">
      <defs>
       <path d="M 0 0 
L 0 3.5 
" id="mb94c2136fc" style="stroke:#000000;stroke-width:0.8;"/>
      </defs>
      <g>
       <use style="stroke:#000000;stroke-width:0.8;" x="235.184925" xlink:href="#mb94c2136fc" y="315"/>
      </g>
     </g>
     <g id="text_1">
      <!-- 2021-03 -->
      <defs>
       <path d="M 19.1875 8.296875 
L 53.609375 8.296875 
L 53.609375 0 
L 7.328125 0 
L 7.328125 8.296875 
Q 12.9375 14.109375 22.625 23.890625 
Q 32.328125 33.6875 34.8125 36.53125 
Q 39.546875 41.84375 41.421875 45.53125 
Q 43.3125 49.21875 43.3125 52.78125 
Q 43.3125 58.59375 39.234375 62.25 
Q 35.15625 65.921875 28.609375 65.921875 
Q 23.96875 65.921875 18.8125 64.3125 
Q 13.671875 62.703125 7.8125 59.421875 
L 7.8125 69.390625 
Q 13.765625 71.78125 18.9375 73 
Q 24.125 74.21875 28.421875 74.21875 
Q 39.75 74.21875 46.484375 68.546875 
Q 53.21875 62.890625 53.21875 53.421875 
Q 53.21875 48.921875 51.53125 44.890625 
Q 49.859375 40.875 45.40625 35.40625 
Q 44.1875 33.984375 37.640625 27.21875 
Q 31.109375 20.453125 19.1875 8.296875 
z
" id="DejaVuSans-32"/>
       <path d="M 31.78125 66.40625 
Q 24.171875 66.40625 20.328125 58.90625 
Q 16.5 51.421875 16.5 36.375 
Q 16.5 21.390625 20.328125 13.890625 
Q 24.171875 6.390625 31.78125 6.390625 
Q 39.453125 6.390625 43.28125 13.890625 
Q 47.125 21.390625 47.125 36.375 
Q 47.125 51.421875 43.28125 58.90625 
Q 39.453125 66.40625 31.78125 66.40625 
z
M 31.78125 74.21875 
Q 44.046875 74.21875 50.515625 64.515625 
Q 56.984375 54.828125 56.984375 36.375 
Q 56.984375 17.96875 50.515625 8.265625 
Q 44.046875 -1.421875 31.78125 -1.421875 
Q 19.53125 -1.421875 13.0625 8.265625 
Q 6.59375 17.96875 6.59375 36.375 
Q 6.59375 54.828125 13.0625 64.515625 
Q 19.53125 74.21875 31.78125 74.21875 
z
" id="DejaVuSans-30"/>
       <path d="M 12.40625 8.296875 
L 28.515625 8.296875 
L 28.515625 63.921875 
L 10.984375 60.40625 
L 10.984375 69.390625 
L 28.421875 72.90625 
L 38.28125 72.90625 
L 38.28125 8.296875 
L 54.390625 8.296875 
L 54.390625 0 
L 12.40625 0 
z
" id="DejaVuSans-31"/>
       <path d="M 4.890625 31.390625 
L 31.203125 31.390625 
L 31.203125 23.390625 
L 4.890625 23.390625 
z
" id="DejaVuSans-2d"/>
       <path d="M 40.578125 39.3125 
Q 47.65625 37.796875 51.625 33 
Q 55.609375 28.21875 55.609375 21.1875 
Q 55.609375 10.40625 48.1875 4.484375 
Q 40.765625 -1.421875 27.09375 -1.421875 
Q 22.515625 -1.421875 17.65625 -0.515625 
Q 12.796875 0.390625 7.625 2.203125 
L 7.625 11.71875 
Q 11.71875 9.328125 16.59375 8.109375 
Q 21.484375 6.890625 26.8125 6.890625 
Q 36.078125 6.890625 40.9375 10.546875 
Q 45.796875 14.203125 45.796875 21.1875 
Q 45.796875 27.640625 41.28125 31.265625 
Q 36.765625 34.90625 28.71875 34.90625 
L 20.21875 34.90625 
L 20.21875 43.015625 
L 29.109375 43.015625 
Q 36.375 43.015625 40.234375 45.921875 
Q 44.09375 48.828125 44.09375 54.296875 
Q 44.09375 59.90625 40.109375 62.90625 
Q 36.140625 65.921875 28.71875 65.921875 
Q 24.65625 65.921875 20.015625 65.03125 
Q 15.375 64.15625 9.8125 62.3125 
L 9.8125 71.09375 
Q 15.4375 72.65625 20.34375 73.4375 
Q 25.25 74.21875 29.59375 74.21875 
Q 40.828125 74.21875 47.359375 69.109375 
Q 53.90625 64.015625 53.90625 55.328125 
Q 53.90625 49.265625 50.4375 45.09375 
Q 46.96875 40.921875 40.578125 39.3125 
z
" id="DejaVuSans-33"/>
      </defs>
      <g transform="translate(214.293518 329.598437)scale(0.1 -0.1)">
       <use xlink:href="#DejaVuSans-32"/>
       <use x="63.623047" xlink:href="#DejaVuSans-30"/>
       <use x="127.246094" xlink:href="#DejaVuSans-32"/>
       <use x="190.869141" xlink:href="#DejaVuSans-31"/>
       <use x="254.492188" xlink:href="#DejaVuSans-2d"/>
       <use x="290.576172" xlink:href="#DejaVuSans-30"/>
       <use x="354.199219" xlink:href="#DejaVuSans-33"/>
      </g>
     </g>
    </g>
    <g id="xtick_2">
     <g id="line2d_2">
      <g>
       <use style="stroke:#000000;stroke-width:0.8;" x="377.425217" xlink:href="#mb94c2136fc" y="315"/>
      </g>
     </g>
     <g id="text_2">
      <!-- 2021-04 -->
      <defs>
       <path d="M 37.796875 64.3125 
L 12.890625 25.390625 
L 37.796875 25.390625 
z
M 35.203125 72.90625 
L 47.609375 72.90625 
L 47.609375 25.390625 
L 58.015625 25.390625 
L 58.015625 17.1875 
L 47.609375 17.1875 
L 47.609375 0 
L 37.796875 0 
L 37.796875 17.1875 
L 4.890625 17.1875 
L 4.890625 26.703125 
z
" id="DejaVuSans-34"/>
      </defs>
      <g transform="translate(356.533811 329.598437)scale(0.1 -0.1)">
       <use xlink:href="#DejaVuSans-32"/>
       <use x="63.623047" xlink:href="#DejaVuSans-30"/>
       <use x="127.246094" xlink:href="#DejaVuSans-32"/>
       <use x="190.869141" xlink:href="#DejaVuSans-31"/>
       <use x="254.492188" xlink:href="#DejaVuSans-2d"/>
       <use x="290.576172" xlink:href="#DejaVuSans-30"/>
       <use x="354.199219" xlink:href="#DejaVuSans-34"/>
      </g>
     </g>
    </g>
    <g id="xtick_3">
     <g id="line2d_3">
      <g>
       <use style="stroke:#000000;stroke-width:0.8;" x="515.077113" xlink:href="#mb94c2136fc" y="315"/>
      </g>
     </g>
     <g id="text_3">
      <!-- 2021-05 -->
      <defs>
       <path d="M 10.796875 72.90625 
L 49.515625 72.90625 
L 49.515625 64.59375 
L 19.828125 64.59375 
L 19.828125 46.734375 
Q 21.96875 47.46875 24.109375 47.828125 
Q 26.265625 48.1875 28.421875 48.1875 
Q 40.625 48.1875 47.75 41.5 
Q 54.890625 34.8125 54.890625 23.390625 
Q 54.890625 11.625 47.5625 5.09375 
Q 40.234375 -1.421875 26.90625 -1.421875 
Q 22.3125 -1.421875 17.546875 -0.640625 
Q 12.796875 0.140625 7.71875 1.703125 
L 7.71875 11.625 
Q 12.109375 9.234375 16.796875 8.0625 
Q 21.484375 6.890625 26.703125 6.890625 
Q 35.15625 6.890625 40.078125 11.328125 
Q 45.015625 15.765625 45.015625 23.390625 
Q 45.015625 31 40.078125 35.4375 
Q 35.15625 39.890625 26.703125 39.890625 
Q 22.75 39.890625 18.8125 39.015625 
Q 14.890625 38.140625 10.796875 36.28125 
z
" id="DejaVuSans-35"/>
      </defs>
      <g transform="translate(494.185707 329.598437)scale(0.1 -0.1)">
       <use xlink:href="#DejaVuSans-32"/>
       <use x="63.623047" xlink:href="#DejaVuSans-30"/>
       <use x="127.246094" xlink:href="#DejaVuSans-32"/>
       <use x="190.869141" xlink:href="#DejaVuSans-31"/>
       <use x="254.492188" xlink:href="#DejaVuSans-2d"/>
       <use x="290.576172" xlink:href="#DejaVuSans-30"/>
       <use x="354.199219" xlink:href="#DejaVuSans-35"/>
      </g>
     </g>
    </g>
    <g id="xtick_4">
     <g id="line2d_4">
      <g>
       <use style="stroke:#000000;stroke-width:0.8;" x="657.317405" xlink:href="#mb94c2136fc" y="315"/>
      </g>
     </g>
     <g id="text_4">
      <!-- 2021-06 -->
      <defs>
       <path d="M 33.015625 40.375 
Q 26.375 40.375 22.484375 35.828125 
Q 18.609375 31.296875 18.609375 23.390625 
Q 18.609375 15.53125 22.484375 10.953125 
Q 26.375 6.390625 33.015625 6.390625 
Q 39.65625 6.390625 43.53125 10.953125 
Q 47.40625 15.53125 47.40625 23.390625 
Q 47.40625 31.296875 43.53125 35.828125 
Q 39.65625 40.375 33.015625 40.375 
z
M 52.59375 71.296875 
L 52.59375 62.3125 
Q 48.875 64.0625 45.09375 64.984375 
Q 41.3125 65.921875 37.59375 65.921875 
Q 27.828125 65.921875 22.671875 59.328125 
Q 17.53125 52.734375 16.796875 39.40625 
Q 19.671875 43.65625 24.015625 45.921875 
Q 28.375 48.1875 33.59375 48.1875 
Q 44.578125 48.1875 50.953125 41.515625 
Q 57.328125 34.859375 57.328125 23.390625 
Q 57.328125 12.15625 50.6875 5.359375 
Q 44.046875 -1.421875 33.015625 -1.421875 
Q 20.359375 -1.421875 13.671875 8.265625 
Q 6.984375 17.96875 6.984375 36.375 
Q 6.984375 53.65625 15.1875 63.9375 
Q 23.390625 74.21875 37.203125 74.21875 
Q 40.921875 74.21875 44.703125 73.484375 
Q 48.484375 72.75 52.59375 71.296875 
z
" id="DejaVuSans-36"/>
      </defs>
      <g transform="translate(636.425999 329.598437)scale(0.1 -0.1)">
       <use xlink:href="#DejaVuSans-32"/>
       <use x="63.623047" xlink:href="#DejaVuSans-30"/>
       <use x="127.246094" xlink:href="#DejaVuSans-32"/>
       <use x="190.869141" xlink:href="#DejaVuSans-31"/>
       <use x="254.492188" xlink:href="#DejaVuSans-2d"/>
       <use x="290.576172" xlink:href="#DejaVuSans-30"/>
       <use x="354.199219" xlink:href="#DejaVuSans-36"/>
      </g>
     </g>
    </g>
    <g id="xtick_5">
     <g id="line2d_5">
      <g>
       <use style="stroke:#000000;stroke-width:0.8;" x="794.969301" xlink:href="#mb94c2136fc" y="315"/>
      </g>
     </g>
     <g id="text_5">
      <!-- 2021-07 -->
      <defs>
       <path d="M 8.203125 72.90625 
L 55.078125 72.90625 
L 55.078125 68.703125 
L 28.609375 0 
L 18.3125 0 
L 43.21875 64.59375 
L 8.203125 64.59375 
z
" id="DejaVuSans-37"/>
      </defs>
      <g transform="translate(774.077895 329.598437)scale(0.1 -0.1)">
       <use xlink:href="#DejaVuSans-32"/>
       <use x="63.623047" xlink:href="#DejaVuSans-30"/>
       <use x="127.246094" xlink:href="#DejaVuSans-32"/>
       <use x="190.869141" xlink:href="#DejaVuSans-31"/>
       <use x="254.492188" xlink:href="#DejaVuSans-2d"/>
       <use x="290.576172" xlink:href="#DejaVuSans-30"/>
       <use x="354.199219" xlink:href="#DejaVuSans-37"/>
      </g>
     </g>
    </g>
    <g id="xtick_6">
     <g id="line2d_6">
      <g>
       <use style="stroke:#000000;stroke-width:0.8;" x="937.209593" xlink:href="#mb94c2136fc" y="315"/>
      </g>
     </g>
     <g id="text_6">
      <!-- 2021-08 -->
      <defs>
       <path d="M 31.78125 34.625 
Q 24.75 34.625 20.71875 30.859375 
Q 16.703125 27.09375 16.703125 20.515625 
Q 16.703125 13.921875 20.71875 10.15625 
Q 24.75 6.390625 31.78125 6.390625 
Q 38.8125 6.390625 42.859375 10.171875 
Q 46.921875 13.96875 46.921875 20.515625 
Q 46.921875 27.09375 42.890625 30.859375 
Q 38.875 34.625 31.78125 34.625 
z
M 21.921875 38.8125 
Q 15.578125 40.375 12.03125 44.71875 
Q 8.5 49.078125 8.5 55.328125 
Q 8.5 64.0625 14.71875 69.140625 
Q 20.953125 74.21875 31.78125 74.21875 
Q 42.671875 74.21875 48.875 69.140625 
Q 55.078125 64.0625 55.078125 55.328125 
Q 55.078125 49.078125 51.53125 44.71875 
Q 48 40.375 41.703125 38.8125 
Q 48.828125 37.15625 52.796875 32.3125 
Q 56.78125 27.484375 56.78125 20.515625 
Q 56.78125 9.90625 50.3125 4.234375 
Q 43.84375 -1.421875 31.78125 -1.421875 
Q 19.734375 -1.421875 13.25 4.234375 
Q 6.78125 9.90625 6.78125 20.515625 
Q 6.78125 27.484375 10.78125 32.3125 
Q 14.796875 37.15625 21.921875 38.8125 
z
M 18.3125 54.390625 
Q 18.3125 48.734375 21.84375 45.5625 
Q 25.390625 42.390625 31.78125 42.390625 
Q 38.140625 42.390625 41.71875 45.5625 
Q 45.3125 48.734375 45.3125 54.390625 
Q 45.3125 60.0625 41.71875 63.234375 
Q 38.140625 66.40625 31.78125 66.40625 
Q 25.390625 66.40625 21.84375 63.234375 
Q 18.3125 60.0625 18.3125 54.390625 
z
" id="DejaVuSans-38"/>
      </defs>
      <g transform="translate(916.318187 329.598437)scale(0.1 -0.1)">
       <use xlink:href="#DejaVuSans-32"/>
       <use x="63.623047" xlink:href="#DejaVuSans-30"/>
       <use x="127.246094" xlink:href="#DejaVuSans-32"/>
       <use x="190.869141" xlink:href="#DejaVuSans-31"/>
       <use x="254.492188" xlink:href="#DejaVuSans-2d"/>
       <use x="290.576172" xlink:href="#DejaVuSans-30"/>
       <use x="354.199219" xlink:href="#DejaVuSans-38"/>
      </g>
     </g>
    </g>
    <g id="xtick_7">
     <g id="line2d_7">
      <g>
       <use style="stroke:#000000;stroke-width:0.8;" x="1079.449886" xlink:href="#mb94c2136fc" y="315"/>
      </g>
     </g>
     <g id="text_7">
      <!-- 2021-09 -->
      <defs>
       <path d="M 10.984375 1.515625 
L 10.984375 10.5 
Q 14.703125 8.734375 18.5 7.8125 
Q 22.3125 6.890625 25.984375 6.890625 
Q 35.75 6.890625 40.890625 13.453125 
Q 46.046875 20.015625 46.78125 33.40625 
Q 43.953125 29.203125 39.59375 26.953125 
Q 35.25 24.703125 29.984375 24.703125 
Q 19.046875 24.703125 12.671875 31.3125 
Q 6.296875 37.9375 6.296875 49.421875 
Q 6.296875 60.640625 12.9375 67.421875 
Q 19.578125 74.21875 30.609375 74.21875 
Q 43.265625 74.21875 49.921875 64.515625 
Q 56.59375 54.828125 56.59375 36.375 
Q 56.59375 19.140625 48.40625 8.859375 
Q 40.234375 -1.421875 26.421875 -1.421875 
Q 22.703125 -1.421875 18.890625 -0.6875 
Q 15.09375 0.046875 10.984375 1.515625 
z
M 30.609375 32.421875 
Q 37.25 32.421875 41.125 36.953125 
Q 45.015625 41.5 45.015625 49.421875 
Q 45.015625 57.28125 41.125 61.84375 
Q 37.25 66.40625 30.609375 66.40625 
Q 23.96875 66.40625 20.09375 61.84375 
Q 16.21875 57.28125 16.21875 49.421875 
Q 16.21875 41.5 20.09375 36.953125 
Q 23.96875 32.421875 30.609375 32.421875 
z
" id="DejaVuSans-39"/>
      </defs>
      <g transform="translate(1058.55848 329.598437)scale(0.1 -0.1)">
       <use xlink:href="#DejaVuSans-32"/>
       <use x="63.623047" xlink:href="#DejaVuSans-30"/>
       <use x="127.246094" xlink:href="#DejaVuSans-32"/>
       <use x="190.869141" xlink:href="#DejaVuSans-31"/>
       <use x="254.492188" xlink:href="#DejaVuSans-2d"/>
       <use x="290.576172" xlink:href="#DejaVuSans-30"/>
       <use x="354.199219" xlink:href="#DejaVuSans-39"/>
      </g>
     </g>
    </g>
   </g>
   <g id="matplotlib.axis_2">
    <g id="ytick_1">
     <g id="line2d_8">
      <path clip-path="url(#pbdf3497e0a)" d="M 162 301.110403 
L 1166.4 301.110403 
" style="fill:none;stroke:#b0b0b0;stroke-linecap:square;stroke-width:0.8;"/>
     </g>
     <g id="line2d_9">
      <defs>
       <path d="M 0 0 
L -3.5 0 
" id="mfc2aa112e3" style="stroke:#000000;stroke-width:0.8;"/>
      </defs>
      <g>
       <use style="stroke:#000000;stroke-width:0.8;" x="162" xlink:href="#mfc2aa112e3" y="301.110403"/>
      </g>
     </g>
     <g id="text_8">
      <!-- 30000 -->
      <g transform="translate(123.1875 304.909622)scale(0.1 -0.1)">
       <use xlink:href="#DejaVuSans-33"/>
       <use x="63.623047" xlink:href="#DejaVuSans-30"/>
       <use x="127.246094" xlink:href="#DejaVuSans-30"/>
       <use x="190.869141" xlink:href="#DejaVuSans-30"/>
       <use x="254.492188" xlink:href="#DejaVuSans-30"/>
      </g>
     </g>
    </g>
    <g id="ytick_2">
     <g id="line2d_10">
      <path clip-path="url(#pbdf3497e0a)" d="M 162 264.519738 
L 1166.4 264.519738 
" style="fill:none;stroke:#b0b0b0;stroke-linecap:square;stroke-width:0.8;"/>
     </g>
     <g id="line2d_11">
      <g>
       <use style="stroke:#000000;stroke-width:0.8;" x="162" xlink:href="#mfc2aa112e3" y="264.519738"/>
      </g>
     </g>
     <g id="text_9">
      <!-- 35000 -->
      <g transform="translate(123.1875 268.318956)scale(0.1 -0.1)">
       <use xlink:href="#DejaVuSans-33"/>
       <use x="63.623047" xlink:href="#DejaVuSans-35"/>
       <use x="127.246094" xlink:href="#DejaVuSans-30"/>
       <use x="190.869141" xlink:href="#DejaVuSans-30"/>
       <use x="254.492188" xlink:href="#DejaVuSans-30"/>
      </g>
     </g>
    </g>
    <g id="ytick_3">
     <g id="line2d_12">
      <path clip-path="url(#pbdf3497e0a)" d="M 162 227.929072 
L 1166.4 227.929072 
" style="fill:none;stroke:#b0b0b0;stroke-linecap:square;stroke-width:0.8;"/>
     </g>
     <g id="line2d_13">
      <g>
       <use style="stroke:#000000;stroke-width:0.8;" x="162" xlink:href="#mfc2aa112e3" y="227.929072"/>
      </g>
     </g>
     <g id="text_10">
      <!-- 40000 -->
      <g transform="translate(123.1875 231.728291)scale(0.1 -0.1)">
       <use xlink:href="#DejaVuSans-34"/>
       <use x="63.623047" xlink:href="#DejaVuSans-30"/>
       <use x="127.246094" xlink:href="#DejaVuSans-30"/>
       <use x="190.869141" xlink:href="#DejaVuSans-30"/>
       <use x="254.492188" xlink:href="#DejaVuSans-30"/>
      </g>
     </g>
    </g>
    <g id="ytick_4">
     <g id="line2d_14">
      <path clip-path="url(#pbdf3497e0a)" d="M 162 191.338407 
L 1166.4 191.338407 
" style="fill:none;stroke:#b0b0b0;stroke-linecap:square;stroke-width:0.8;"/>
     </g>
     <g id="line2d_15">
      <g>
       <use style="stroke:#000000;stroke-width:0.8;" x="162" xlink:href="#mfc2aa112e3" y="191.338407"/>
      </g>
     </g>
     <g id="text_11">
      <!-- 45000 -->
      <g transform="translate(123.1875 195.137625)scale(0.1 -0.1)">
       <use xlink:href="#DejaVuSans-34"/>
       <use x="63.623047" xlink:href="#DejaVuSans-35"/>
       <use x="127.246094" xlink:href="#DejaVuSans-30"/>
       <use x="190.869141" xlink:href="#DejaVuSans-30"/>
       <use x="254.492188" xlink:href="#DejaVuSans-30"/>
      </g>
     </g>
    </g>
    <g id="ytick_5">
     <g id="line2d_16">
      <path clip-path="url(#pbdf3497e0a)" d="M 162 154.747741 
L 1166.4 154.747741 
" style="fill:none;stroke:#b0b0b0;stroke-linecap:square;stroke-width:0.8;"/>
     </g>
     <g id="line2d_17">
      <g>
       <use style="stroke:#000000;stroke-width:0.8;" x="162" xlink:href="#mfc2aa112e3" y="154.747741"/>
      </g>
     </g>
     <g id="text_12">
      <!-- 50000 -->
      <g transform="translate(123.1875 158.54696)scale(0.1 -0.1)">
       <use xlink:href="#DejaVuSans-35"/>
       <use x="63.623047" xlink:href="#DejaVuSans-30"/>
       <use x="127.246094" xlink:href="#DejaVuSans-30"/>
       <use x="190.869141" xlink:href="#DejaVuSans-30"/>
       <use x="254.492188" xlink:href="#DejaVuSans-30"/>
      </g>
     </g>
    </g>
    <g id="ytick_6">
     <g id="line2d_18">
      <path clip-path="url(#pbdf3497e0a)" d="M 162 118.157076 
L 1166.4 118.157076 
" style="fill:none;stroke:#b0b0b0;stroke-linecap:square;stroke-width:0.8;"/>
     </g>
     <g id="line2d_19">
      <g>
       <use style="stroke:#000000;stroke-width:0.8;" x="162" xlink:href="#mfc2aa112e3" y="118.157076"/>
      </g>
     </g>
     <g id="text_13">
      <!-- 55000 -->
      <g transform="translate(123.1875 121.956295)scale(0.1 -0.1)">
       <use xlink:href="#DejaVuSans-35"/>
       <use x="63.623047" xlink:href="#DejaVuSans-35"/>
       <use x="127.246094" xlink:href="#DejaVuSans-30"/>
       <use x="190.869141" xlink:href="#DejaVuSans-30"/>
       <use x="254.492188" xlink:href="#DejaVuSans-30"/>
      </g>
     </g>
    </g>
    <g id="ytick_7">
     <g id="line2d_20">
      <path clip-path="url(#pbdf3497e0a)" d="M 162 81.56641 
L 1166.4 81.56641 
" style="fill:none;stroke:#b0b0b0;stroke-linecap:square;stroke-width:0.8;"/>
     </g>
     <g id="line2d_21">
      <g>
       <use style="stroke:#000000;stroke-width:0.8;" x="162" xlink:href="#mfc2aa112e3" y="81.56641"/>
      </g>
     </g>
     <g id="text_14">
      <!-- 60000 -->
      <g transform="translate(123.1875 85.365629)scale(0.1 -0.1)">
       <use xlink:href="#DejaVuSans-36"/>
       <use x="63.623047" xlink:href="#DejaVuSans-30"/>
       <use x="127.246094" xlink:href="#DejaVuSans-30"/>
       <use x="190.869141" xlink:href="#DejaVuSans-30"/>
       <use x="254.492188" xlink:href="#DejaVuSans-30"/>
      </g>
     </g>
    </g>
    <g id="ytick_8">
     <g id="line2d_22">
      <path clip-path="url(#pbdf3497e0a)" d="M 162 44.975745 
L 1166.4 44.975745 
" style="fill:none;stroke:#b0b0b0;stroke-linecap:square;stroke-width:0.8;"/>
     </g>
     <g id="line2d_23">
      <g>
       <use style="stroke:#000000;stroke-width:0.8;" x="162" xlink:href="#mfc2aa112e3" y="44.975745"/>
      </g>
     </g>
     <g id="text_15">
      <!-- 65000 -->
      <g transform="translate(123.1875 48.774964)scale(0.1 -0.1)">
       <use xlink:href="#DejaVuSans-36"/>
       <use x="63.623047" xlink:href="#DejaVuSans-35"/>
       <use x="127.246094" xlink:href="#DejaVuSans-30"/>
       <use x="190.869141" xlink:href="#DejaVuSans-30"/>
       <use x="254.492188" xlink:href="#DejaVuSans-30"/>
      </g>
     </g>
    </g>
    <g id="text_16">
     <!-- Value -->
     <defs>
      <path d="M 28.609375 0 
L 0.78125 72.90625 
L 11.078125 72.90625 
L 34.1875 11.53125 
L 57.328125 72.90625 
L 67.578125 72.90625 
L 39.796875 0 
z
" id="DejaVuSans-56"/>
      <path d="M 34.28125 27.484375 
Q 23.390625 27.484375 19.1875 25 
Q 14.984375 22.515625 14.984375 16.5 
Q 14.984375 11.71875 18.140625 8.90625 
Q 21.296875 6.109375 26.703125 6.109375 
Q 34.1875 6.109375 38.703125 11.40625 
Q 43.21875 16.703125 43.21875 25.484375 
L 43.21875 27.484375 
z
M 52.203125 31.203125 
L 52.203125 0 
L 43.21875 0 
L 43.21875 8.296875 
Q 40.140625 3.328125 35.546875 0.953125 
Q 30.953125 -1.421875 24.3125 -1.421875 
Q 15.921875 -1.421875 10.953125 3.296875 
Q 6 8.015625 6 15.921875 
Q 6 25.140625 12.171875 29.828125 
Q 18.359375 34.515625 30.609375 34.515625 
L 43.21875 34.515625 
L 43.21875 35.40625 
Q 43.21875 41.609375 39.140625 45 
Q 35.0625 48.390625 27.6875 48.390625 
Q 23 48.390625 18.546875 47.265625 
Q 14.109375 46.140625 10.015625 43.890625 
L 10.015625 52.203125 
Q 14.9375 54.109375 19.578125 55.046875 
Q 24.21875 56 28.609375 56 
Q 40.484375 56 46.34375 49.84375 
Q 52.203125 43.703125 52.203125 31.203125 
z
" id="DejaVuSans-61"/>
      <path d="M 9.421875 75.984375 
L 18.40625 75.984375 
L 18.40625 0 
L 9.421875 0 
z
" id="DejaVuSans-6c"/>
      <path d="M 8.5 21.578125 
L 8.5 54.6875 
L 17.484375 54.6875 
L 17.484375 21.921875 
Q 17.484375 14.15625 20.5 10.265625 
Q 23.53125 6.390625 29.59375 6.390625 
Q 36.859375 6.390625 41.078125 11.03125 
Q 45.3125 15.671875 45.3125 23.6875 
L 45.3125 54.6875 
L 54.296875 54.6875 
L 54.296875 0 
L 45.3125 0 
L 45.3125 8.40625 
Q 42.046875 3.421875 37.71875 1 
Q 33.40625 -1.421875 27.6875 -1.421875 
Q 18.265625 -1.421875 13.375 4.4375 
Q 8.5 10.296875 8.5 21.578125 
z
M 31.109375 56 
z
" id="DejaVuSans-75"/>
      <path d="M 56.203125 29.59375 
L 56.203125 25.203125 
L 14.890625 25.203125 
Q 15.484375 15.921875 20.484375 11.0625 
Q 25.484375 6.203125 34.421875 6.203125 
Q 39.59375 6.203125 44.453125 7.46875 
Q 49.3125 8.734375 54.109375 11.28125 
L 54.109375 2.78125 
Q 49.265625 0.734375 44.1875 -0.34375 
Q 39.109375 -1.421875 33.890625 -1.421875 
Q 20.796875 -1.421875 13.15625 6.1875 
Q 5.515625 13.8125 5.515625 26.8125 
Q 5.515625 40.234375 12.765625 48.109375 
Q 20.015625 56 32.328125 56 
Q 43.359375 56 49.78125 48.890625 
Q 56.203125 41.796875 56.203125 29.59375 
z
M 47.21875 32.234375 
Q 47.125 39.59375 43.09375 43.984375 
Q 39.0625 48.390625 32.421875 48.390625 
Q 24.90625 48.390625 20.390625 44.140625 
Q 15.875 39.890625 15.1875 32.171875 
z
" id="DejaVuSans-65"/>
     </defs>
     <g transform="translate(117.107812 193.213281)rotate(-90)scale(0.1 -0.1)">
      <use xlink:href="#DejaVuSans-56"/>
      <use x="68.298828" xlink:href="#DejaVuSans-61"/>
      <use x="129.578125" xlink:href="#DejaVuSans-6c"/>
      <use x="157.361328" xlink:href="#DejaVuSans-75"/>
      <use x="220.740234" xlink:href="#DejaVuSans-65"/>
     </g>
    </g>
   </g>
   <g id="line2d_24">
    <path clip-path="url(#pbdf3497e0a)" d="M 207.654545 124.572151 
L 212.242942 162.940904 
L 216.831339 150.175079 
L 221.419735 178.162694 
L 226.008132 181.52984 
L 230.596528 182.879596 
L 235.184925 190.504725 
L 239.773321 157.540121 
L 244.361718 166.778459 
L 248.950114 151.251869 
L 253.538511 166.098824 
L 258.126907 163.080314 
L 262.715304 162.932414 
L 267.3037 146.187721 
L 271.892097 137.920938 
L 276.480493 119.024128 
L 281.06889 110.859214 
L 285.657286 97.929756 
L 290.245683 101.667273 
L 294.834079 72.354857 
L 299.422476 87.907792 
L 304.010873 112.633934 
L 308.599269 104.45475 
L 313.187666 89.521221 
L 317.776062 98.647665 
L 322.364459 95.653085 
L 326.952855 95.574781 
L 331.541252 100.511813 
L 336.129648 123.975284 
L 340.718045 121.981093 
L 345.306441 136.39218 
L 349.894838 144.38585 
L 354.483234 117.612094 
L 359.071631 111.834721 
L 363.660027 112.421782 
L 368.248424 98.927437 
L 372.83682 90.859488 
L 382.013614 90.809798 
L 386.60201 88.65534 
L 391.190407 102.961046 
L 395.778803 94.691116 
L 400.3672 88.488632 
L 404.955596 96.052948 
L 409.543993 111.224828 
L 414.132389 95.847088 
L 418.720786 95.451982 
L 423.309182 83.220308 
L 427.897579 81.823496 
L 432.485975 82.775805 
L 437.074372 55.554545 
L 441.662768 59.837995 
L 446.251165 57.763231 
L 450.839561 70.911355 
L 455.427958 80.929074 
L 460.016354 108.998579 
L 464.604751 113.011404 
L 469.193148 107.12199 
L 473.781544 126.874436 
L 478.369941 142.074857 
L 482.958337 146.308982 
L 492.13513 161.51277 
L 496.723527 125.06071 
L 501.311923 117.634122 
L 505.90032 119.005247 
L 510.488716 128.518455 
L 515.077113 97.691038 
L 519.665509 97.245511 
L 524.253906 106.371515 
L 528.842302 101.959632 
L 533.430699 131.024403 
L 538.019095 100.05765 
L 542.607492 107.705611 
L 547.195889 100.737943 
L 551.784285 89.405521 
L 556.372682 94.148257 
L 560.961078 111.691505 
L 565.549475 105.350343 
L 570.137871 162.013989 
L 574.726268 156.926569 
L 579.314664 155.31475 
L 583.903061 178.629883 
L 588.491457 180.788293 
L 593.079854 201.611309 
L 597.66825 206.617278 
L 602.256647 250.144948 
L 606.845043 222.189314 
L 611.43344 247.831833 
L 616.021836 246.017302 
L 620.610233 266.316046 
L 625.19863 237.23342 
L 629.787026 239.561245 
L 634.375423 233.300289 
L 638.963819 239.306647 
L 643.552216 259.473007 
L 648.140612 267.098135 
L 652.729009 259.509817 
L 657.317405 247.610898 
L 661.905802 252.352317 
L 666.494198 245.600607 
L 671.082595 233.867078 
L 675.670991 250.721324 
L 680.259388 260.638346 
L 684.847784 258.546897 
L 689.436181 275.388117 
L 694.024577 275.861453 
L 698.612974 247.407308 
L 703.20137 252.045467 
L 707.789767 247.591578 
L 712.378164 260.897993 
L 716.96656 234.758208 
L 721.554957 224.081198 
L 726.143353 226.549165 
L 730.73175 240.187896 
L 735.320146 242.067412 
L 739.908543 259.178818 
L 744.496939 260.683792 
L 749.085336 260.184841 
L 753.673732 288.768006 
L 758.262129 283.198614 
L 762.850525 274.218752 
L 767.438922 267.158803 
L 772.027318 289.10442 
L 776.615715 285.296576 
L 781.204111 267.1217 
L 785.792508 268.495899 
L 790.380905 258.316156 
L 794.969301 264.173151 
L 799.557698 275.227044 
L 804.146094 272.885388 
L 808.734491 266.795823 
L 813.322887 262.256239 
L 817.911284 273.68226 
L 822.49968 270.293671 
L 827.088077 273.015797 
L 831.676473 280.053134 
L 836.26487 273.165965 
L 840.853266 275.382994 
L 845.441663 270.171971 
L 850.030059 277.997909 
L 854.618456 281.449799 
L 859.206852 280.512712 
L 863.795249 288.38717 
L 868.383646 290.709506 
L 872.972042 289.982011 
L 877.560439 288.058586 
L 882.148835 295.139245 
L 886.737232 302.645455 
L 891.325628 285.610158 
L 895.914025 284.294138 
L 900.502421 274.899558 
L 905.090818 269.793623 
L 909.679214 261.847155 
L 914.267611 247.55528 
L 918.856007 232.276409 
L 923.444404 227.910557 
L 928.0328 227.885676 
L 932.621197 211.725628 
L 937.209593 215.78785 
L 941.79799 227.925706 
L 946.386386 233.827926 
L 950.974783 241.555436 
L 955.56318 229.757581 
L 960.151576 221.474479 
L 964.739973 207.248394 
L 969.328369 194.015892 
L 973.916766 200.002052 
L 978.505162 181.579969 
L 983.093559 186.886274 
L 987.681955 186.863661 
L 992.270352 195.59917 
L 996.858748 170.598964 
L 1001.447145 175.881119 
L 1006.035541 176.289325 
L 1010.623938 184.147975 
L 1015.212334 193.910218 
L 1019.800731 192.964057 
L 1024.389127 178.644007 
L 1028.977524 159.667356 
L 1033.565921 162.563361 
L 1038.154317 159.609323 
L 1042.742714 158.234832 
L 1047.33111 171.253205 
L 1051.919507 162.270123 
L 1056.507903 176.974375 
L 1061.0963 161.649765 
L 1065.684696 162.814885 
L 1070.273093 163.479884 
L 1074.861489 176.154964 
L 1079.449886 175.561463 
L 1084.038282 163.070215 
L 1088.626679 159.658135 
L 1093.215075 154.489192 
L 1097.803472 155.132821 
L 1102.391868 141.801525 
L 1106.980265 135.154172 
L 1111.568661 178.09866 
L 1116.157058 183.446678 
L 1120.745455 181.322151 
L 1120.745455 181.322151 
" style="fill:none;stroke:#000000;stroke-linecap:square;stroke-width:2;"/>
   </g>
   <g id="patch_3">
    <path d="M 162 315 
L 162 43.2 
" style="fill:none;stroke:#000000;stroke-linecap:square;stroke-linejoin:miter;stroke-width:0.8;"/>
   </g>
   <g id="patch_4">
    <path d="M 1166.4 315 
L 1166.4 43.2 
" style="fill:none;stroke:#000000;stroke-linecap:square;stroke-linejoin:miter;stroke-width:0.8;"/>
   </g>
   <g id="patch_5">
    <path d="M 162 315 
L 1166.4 315 
" style="fill:none;stroke:#000000;stroke-linecap:square;stroke-linejoin:miter;stroke-width:0.8;"/>
   </g>
   <g id="patch_6">
    <path d="M 162 43.2 
L 1166.4 43.2 
" style="fill:none;stroke:#000000;stroke-linecap:square;stroke-linejoin:miter;stroke-width:0.8;"/>
   </g>
  </g>
  <g id="axes_2">
   <g id="matplotlib.axis_3">
    <g id="ytick_9">
     <g id="line2d_25">
      <defs>
       <path d="M 0 0 
L 3.5 0 
" id="m0e3fc9b571" style="stroke:#000000;stroke-width:0.8;"/>
      </defs>
      <g>
       <use style="stroke:#000000;stroke-width:0.8;" x="1166.4" xlink:href="#m0e3fc9b571" y="272.350688"/>
      </g>
     </g>
     <g id="text_17">
      <!-- 30 -->
      <g transform="translate(1173.4 276.149907)scale(0.1 -0.1)">
       <use xlink:href="#DejaVuSans-33"/>
       <use x="63.623047" xlink:href="#DejaVuSans-30"/>
      </g>
     </g>
    </g>
    <g id="ytick_10">
     <g id="line2d_26">
      <g>
       <use style="stroke:#000000;stroke-width:0.8;" x="1166.4" xlink:href="#m0e3fc9b571" y="224.148461"/>
      </g>
     </g>
     <g id="text_18">
      <!-- 40 -->
      <g transform="translate(1173.4 227.94768)scale(0.1 -0.1)">
       <use xlink:href="#DejaVuSans-34"/>
       <use x="63.623047" xlink:href="#DejaVuSans-30"/>
      </g>
     </g>
    </g>
    <g id="ytick_11">
     <g id="line2d_27">
      <g>
       <use style="stroke:#000000;stroke-width:0.8;" x="1166.4" xlink:href="#m0e3fc9b571" y="175.946234"/>
      </g>
     </g>
     <g id="text_19">
      <!-- 50 -->
      <g transform="translate(1173.4 179.745453)scale(0.1 -0.1)">
       <use xlink:href="#DejaVuSans-35"/>
       <use x="63.623047" xlink:href="#DejaVuSans-30"/>
      </g>
     </g>
    </g>
    <g id="ytick_12">
     <g id="line2d_28">
      <g>
       <use style="stroke:#000000;stroke-width:0.8;" x="1166.4" xlink:href="#m0e3fc9b571" y="127.744007"/>
      </g>
     </g>
     <g id="text_20">
      <!-- 60 -->
      <g transform="translate(1173.4 131.543226)scale(0.1 -0.1)">
       <use xlink:href="#DejaVuSans-36"/>
       <use x="63.623047" xlink:href="#DejaVuSans-30"/>
      </g>
     </g>
    </g>
    <g id="ytick_13">
     <g id="line2d_29">
      <g>
       <use style="stroke:#000000;stroke-width:0.8;" x="1166.4" xlink:href="#m0e3fc9b571" y="79.54178"/>
      </g>
     </g>
     <g id="text_21">
      <!-- 70 -->
      <g transform="translate(1173.4 83.340999)scale(0.1 -0.1)">
       <use xlink:href="#DejaVuSans-37"/>
       <use x="63.623047" xlink:href="#DejaVuSans-30"/>
      </g>
     </g>
    </g>
    <g id="text_22">
     <!-- RSI -->
     <defs>
      <path d="M 44.390625 34.1875 
Q 47.5625 33.109375 50.5625 29.59375 
Q 53.5625 26.078125 56.59375 19.921875 
L 66.609375 0 
L 56 0 
L 46.6875 18.703125 
Q 43.0625 26.03125 39.671875 28.421875 
Q 36.28125 30.8125 30.421875 30.8125 
L 19.671875 30.8125 
L 19.671875 0 
L 9.8125 0 
L 9.8125 72.90625 
L 32.078125 72.90625 
Q 44.578125 72.90625 50.734375 67.671875 
Q 56.890625 62.453125 56.890625 51.90625 
Q 56.890625 45.015625 53.6875 40.46875 
Q 50.484375 35.9375 44.390625 34.1875 
z
M 19.671875 64.796875 
L 19.671875 38.921875 
L 32.078125 38.921875 
Q 39.203125 38.921875 42.84375 42.21875 
Q 46.484375 45.515625 46.484375 51.90625 
Q 46.484375 58.296875 42.84375 61.546875 
Q 39.203125 64.796875 32.078125 64.796875 
z
" id="DejaVuSans-52"/>
      <path d="M 53.515625 70.515625 
L 53.515625 60.890625 
Q 47.90625 63.578125 42.921875 64.890625 
Q 37.9375 66.21875 33.296875 66.21875 
Q 25.25 66.21875 20.875 63.09375 
Q 16.5 59.96875 16.5 54.203125 
Q 16.5 49.359375 19.40625 46.890625 
Q 22.3125 44.4375 30.421875 42.921875 
L 36.375 41.703125 
Q 47.40625 39.59375 52.65625 34.296875 
Q 57.90625 29 57.90625 20.125 
Q 57.90625 9.515625 50.796875 4.046875 
Q 43.703125 -1.421875 29.984375 -1.421875 
Q 24.8125 -1.421875 18.96875 -0.25 
Q 13.140625 0.921875 6.890625 3.21875 
L 6.890625 13.375 
Q 12.890625 10.015625 18.65625 8.296875 
Q 24.421875 6.59375 29.984375 6.59375 
Q 38.421875 6.59375 43.015625 9.90625 
Q 47.609375 13.234375 47.609375 19.390625 
Q 47.609375 24.75 44.3125 27.78125 
Q 41.015625 30.8125 33.5 32.328125 
L 27.484375 33.5 
Q 16.453125 35.6875 11.515625 40.375 
Q 6.59375 45.0625 6.59375 53.421875 
Q 6.59375 63.09375 13.40625 68.65625 
Q 20.21875 74.21875 32.171875 74.21875 
Q 37.3125 74.21875 42.625 73.28125 
Q 47.953125 72.359375 53.515625 70.515625 
z
" id="DejaVuSans-53"/>
      <path d="M 9.8125 72.90625 
L 19.671875 72.90625 
L 19.671875 0 
L 9.8125 0 
z
" id="DejaVuSans-49"/>
     </defs>
     <g transform="translate(1197.723438 187.223437)rotate(-90)scale(0.1 -0.1)">
      <use xlink:href="#DejaVuSans-52"/>
      <use x="69.482422" xlink:href="#DejaVuSans-53"/>
      <use x="132.958984" xlink:href="#DejaVuSans-49"/>
     </g>
    </g>
   </g>
   <g id="line2d_30">
    <path clip-path="url(#pbdf3497e0a)" d="M 207.654545 85.542429 
L 212.242942 149.676217 
L 216.831339 135.751995 
L 221.419735 173.087018 
L 226.008132 177.211083 
L 230.596528 178.948634 
L 235.184925 188.999791 
L 239.773321 147.255244 
L 244.361718 159.997643 
L 248.950114 142.267926 
L 253.538511 162.879511 
L 258.126907 159.195157 
L 262.715304 159.004052 
L 267.3037 137.914473 
L 271.892097 128.24115 
L 276.480493 107.944258 
L 281.06889 99.885197 
L 285.657286 87.746178 
L 290.245683 95.119375 
L 294.834079 69.638568 
L 299.422476 98.577612 
L 304.010873 138.325604 
L 308.599269 129.665142 
L 313.187666 114.62119 
L 317.776062 129.249833 
L 322.364459 125.983383 
L 326.952855 125.892988 
L 331.541252 134.952824 
L 336.129648 173.705249 
L 340.718045 170.739369 
L 345.306441 192.443 
L 349.894838 203.673639 
L 354.483234 162.596715 
L 359.071631 154.787541 
L 363.660027 155.767952 
L 368.248424 137.057144 
L 372.83682 126.601041 
L 382.013614 126.534056 
L 386.60201 123.285429 
L 391.190407 155.041339 
L 395.778803 141.158531 
L 400.3672 131.161941 
L 404.955596 148.268113 
L 409.543993 179.028963 
L 414.132389 151.914317 
L 418.720786 151.249445 
L 423.309182 131.199274 
L 427.897579 128.98726 
L 432.485975 131.350674 
L 437.074372 91.736 
L 441.662768 102.484156 
L 446.251165 99.64471 
L 450.839561 132.539574 
L 455.427958 154.835887 
L 460.016354 204.979665 
L 464.604751 211.044216 
L 469.193148 199.099145 
L 473.781544 228.540704 
L 478.369941 247.51746 
L 482.958337 252.486632 
L 487.546734 261.343027 
L 492.13513 269.813301 
L 496.723527 196.125961 
L 501.311923 184.096698 
L 505.90032 186.209656 
L 510.488716 200.860979 
L 515.077113 152.624867 
L 519.665509 152.012026 
L 524.253906 167.503425 
L 528.842302 160.632904 
L 533.430699 205.046838 
L 538.019095 160.251274 
L 542.607492 171.095951 
L 547.195889 161.69705 
L 551.784285 146.919799 
L 556.372682 154.624694 
L 560.961078 181.39837 
L 565.549475 171.980959 
L 570.137871 237.842435 
L 574.726268 230.167943 
L 579.314664 227.637657 
L 583.903061 249.936489 
L 588.491457 251.874998 
L 593.079854 269.63927 
L 597.66825 273.63226 
L 602.256647 302.645455 
L 606.845043 257.484955 
L 611.43344 274.738775 
L 616.021836 271.960021 
L 620.610233 284.963656 
L 625.19863 242.416315 
L 629.787026 244.226159 
L 634.375423 235.207662 
L 638.963819 240.522695 
L 643.552216 257.394626 
L 648.140612 263.374976 
L 652.729009 250.691723 
L 657.317405 231.361441 
L 661.905802 236.112361 
L 666.494198 224.736106 
L 671.082595 205.601849 
L 675.670991 225.188296 
L 680.259388 235.824715 
L 684.847784 232.081557 
L 689.436181 250.083905 
L 694.024577 250.574293 
L 698.612974 200.123614 
L 703.20137 206.041547 
L 707.789767 198.599823 
L 712.378164 216.319395 
L 716.96656 175.090391 
L 721.554957 160.549152 
L 726.143353 164.356465 
L 730.73175 184.866395 
L 735.320146 187.629786 
L 739.908543 211.602312 
L 744.496939 213.615628 
L 749.085336 212.643533 
L 753.673732 248.825337 
L 758.262129 237.579114 
L 762.850525 219.853706 
L 767.438922 206.392545 
L 772.027318 235.14735 
L 776.615715 227.677259 
L 781.204111 194.481032 
L 785.792508 196.516473 
L 790.380905 178.723079 
L 794.969301 188.358033 
L 799.557698 205.721564 
L 804.146094 201.109222 
L 808.734491 188.99013 
L 813.322887 180.031219 
L 817.911284 200.702045 
L 822.49968 193.497304 
L 827.088077 198.617937 
L 831.676473 211.712211 
L 836.26487 195.257942 
L 840.853266 199.734753 
L 845.441663 186.857947 
L 850.030059 203.635342 
L 854.618456 210.776404 
L 859.206852 208.103002 
L 863.795249 224.943791 
L 868.383646 229.738451 
L 872.972042 227.275788 
L 877.560439 220.484022 
L 882.148835 237.053789 
L 886.737232 252.853967 
L 891.325628 196.671584 
L 895.914025 192.879247 
L 900.502421 167.026786 
L 905.090818 154.166195 
L 909.679214 135.535985 
L 914.267611 107.184653 
L 918.856007 83.079371 
L 923.444404 76.963049 
L 928.0328 76.927068 
L 932.621197 55.554545 
L 937.209593 69.704142 
L 941.79799 108.557585 
L 946.386386 125.627316 
L 950.974783 146.717069 
L 955.56318 124.191073 
L 960.151576 110.103823 
L 964.739973 88.905953 
L 969.328369 72.259401 
L 973.916766 89.50676 
L 978.505162 67.520355 
L 983.093559 82.286933 
L 987.681955 82.258361 
L 992.270352 107.241957 
L 996.858748 75.015175 
L 1001.447145 88.973063 
L 1006.035541 90.083514 
L 1010.623938 111.523176 
L 1015.212334 136.161691 
L 1019.800731 134.481567 
L 1024.389127 110.578596 
L 1028.977524 84.936028 
L 1033.565921 92.715724 
L 1038.154317 88.756458 
L 1042.742714 86.846334 
L 1047.33111 123.958043 
L 1051.919507 109.384235 
L 1056.507903 146.185618 
L 1061.0963 121.175242 
L 1065.684696 124.01493 
L 1070.273093 125.733474 
L 1074.861489 157.033134 
L 1079.449886 155.835938 
L 1084.038282 131.785348 
L 1088.626679 125.676336 
L 1093.215075 116.484603 
L 1097.803472 118.413813 
L 1102.391868 95.428403 
L 1106.980265 85.31238 
L 1111.568661 186.412512 
L 1116.157058 195.467789 
L 1120.745455 191.162269 
L 1120.745455 191.162269 
" style="fill:none;stroke:#ffa500;stroke-linecap:square;"/>
   </g>
   <g id="line2d_31">
    <path clip-path="url(#pbdf3497e0a)" d="M 207.654545 88.884642 
L 212.242942 125.326221 
L 216.831339 118.315318 
L 221.419735 141.334154 
L 226.008132 143.953068 
L 230.596528 145.024547 
L 235.184925 151.121913 
L 239.773321 131.418956 
L 244.361718 138.769338 
L 248.950114 130.03735 
L 253.538511 141.701604 
L 258.126907 139.948703 
L 262.715304 139.860645 
L 267.3037 130.045386 
L 271.892097 125.386601 
L 276.480493 115.207776 
L 281.06889 111.001705 
L 285.657286 104.52005 
L 290.245683 107.922118 
L 294.834079 93.88042 
L 299.422476 107.660923 
L 304.010873 127.935729 
L 308.599269 123.701413 
L 313.187666 116.190528 
L 317.776062 123.570749 
L 322.364459 122.012565 
L 326.952855 121.970774 
L 331.541252 126.207148 
L 336.129648 145.381997 
L 340.718045 144.168772 
L 345.306441 155.439533 
L 349.894838 161.496077 
L 354.483234 144.666495 
L 359.071631 141.245489 
L 363.660027 141.717419 
L 368.248424 133.630163 
L 372.83682 128.937392 
L 382.013614 128.907956 
L 386.60201 127.563209 
L 391.190407 140.717879 
L 395.778803 135.272013 
L 400.3672 131.241326 
L 404.955596 138.314165 
L 409.543993 151.926978 
L 414.132389 141.353354 
L 418.720786 141.086354 
L 423.309182 132.886307 
L 427.897579 131.960484 
L 432.485975 132.897491 
L 437.074372 115.356861 
L 441.662768 119.645149 
L 446.251165 118.338504 
L 450.839561 131.573238 
L 455.427958 141.205853 
L 460.016354 165.780288 
L 464.604751 169.047655 
L 469.193148 164.513524 
L 473.781544 180.408584 
L 478.369941 191.699653 
L 482.958337 194.755928 
L 492.13513 205.591598 
L 496.723527 175.945681 
L 501.311923 170.507405 
L 505.90032 171.564947 
L 510.488716 178.897051 
L 515.077113 156.686131 
L 519.665509 156.384705 
L 524.253906 163.679956 
L 528.842302 160.521385 
L 533.430699 182.57735 
L 538.019095 161.134136 
L 542.607492 166.671147 
L 547.195889 162.038554 
L 551.784285 154.648533 
L 556.372682 158.292619 
L 560.961078 171.349011 
L 565.549475 166.969552 
L 570.137871 203.518862 
L 574.726268 199.920551 
L 579.314664 198.762094 
L 583.903061 212.159722 
L 588.491457 213.35696 
L 593.079854 224.580781 
L 597.66825 227.182549 
L 602.256647 247.765019 
L 606.845043 226.738091 
L 611.43344 238.14282 
L 616.021836 236.817881 
L 620.610233 245.488856 
L 625.19863 224.808631 
L 629.787026 225.862308 
L 634.375423 221.490189 
L 638.963819 224.362596 
L 643.552216 233.715295 
L 648.140612 237.131065 
L 652.729009 231.440985 
L 657.317405 222.653148 
L 661.905802 224.998355 
L 666.494198 219.931172 
L 671.082595 211.25314 
L 675.670991 220.157665 
L 680.259388 225.210001 
L 684.847784 223.593258 
L 689.436181 232.166807 
L 694.024577 232.404724 
L 698.612974 210.35331 
L 703.20137 212.904019 
L 707.789767 209.536257 
L 712.378164 217.022745 
L 716.96656 197.746039 
L 721.554957 190.370386 
L 726.143353 191.880815 
L 730.73175 200.1433 
L 735.320146 201.272046 
L 739.908543 211.353055 
L 744.496939 212.223696 
L 749.085336 211.821572 
L 753.673732 228.056092 
L 758.262129 223.453607 
L 762.850525 216.090236 
L 767.438922 210.373055 
L 772.027318 223.052333 
L 776.615715 219.912817 
L 781.204111 205.362905 
L 785.792508 206.204541 
L 790.380905 198.180535 
L 794.969301 201.965602 
L 799.557698 208.990343 
L 804.146094 207.041939 
L 808.734491 201.935256 
L 813.322887 198.126145 
L 817.911284 205.963754 
L 822.49968 203.01804 
L 827.088077 204.933062 
L 831.676473 209.89005 
L 836.26487 203.532501 
L 840.853266 205.163283 
L 845.441663 200.234251 
L 850.030059 206.206489 
L 854.618456 208.823576 
L 859.206852 207.871752 
L 863.795249 214.002954 
L 868.383646 215.802569 
L 872.972042 214.997812 
L 877.560439 212.820118 
L 882.148835 218.691117 
L 886.737232 224.753211 
L 891.325628 205.342362 
L 895.914025 203.902718 
L 900.502421 193.727891 
L 905.090818 188.338246 
L 909.679214 180.11735 
L 918.856007 152.466405 
L 923.444404 148.723671 
L 928.0328 148.701987 
L 932.621197 135.063915 
L 937.209593 139.664318 
L 941.79799 152.980457 
L 946.386386 159.206837 
L 950.974783 167.186042 
L 955.56318 156.359915 
L 960.151576 149.108958 
L 964.739973 137.333143 
L 969.328369 127.16314 
L 973.916766 133.82108 
L 978.505162 120.265721 
L 983.093559 126.17123 
L 987.681955 126.15445 
L 992.270352 136.005627 
L 996.858748 117.677913 
L 1001.447145 123.523934 
L 1006.035541 123.98145 
L 1010.623938 132.80494 
L 1015.212334 143.392449 
L 1019.800731 142.616597 
L 1024.389127 131.180846 
L 1028.977524 117.406824 
L 1033.565921 120.689649 
L 1038.154317 118.566094 
L 1042.742714 117.561162 
L 1047.33111 132.797845 
L 1051.919507 125.861942 
L 1056.507903 142.172635 
L 1061.0963 130.36667 
L 1065.684696 131.645044 
L 1070.273093 132.394503 
L 1074.861489 146.407395 
L 1079.449886 145.90417 
L 1084.038282 135.512201 
L 1088.626679 132.758647 
L 1093.215075 128.592333 
L 1097.803472 129.372518 
L 1102.391868 118.718331 
L 1106.980265 113.66659 
L 1111.568661 160.735432 
L 1116.157058 165.757725 
L 1120.745455 163.913251 
L 1120.745455 163.913251 
" style="fill:none;stroke:#4169e1;stroke-linecap:square;stroke-width:1.5;"/>
   </g>
   <g id="patch_7">
    <path d="M 162 315 
L 162 43.2 
" style="fill:none;stroke:#000000;stroke-linecap:square;stroke-linejoin:miter;stroke-width:0.8;"/>
   </g>
   <g id="patch_8">
    <path d="M 1166.4 315 
L 1166.4 43.2 
" style="fill:none;stroke:#000000;stroke-linecap:square;stroke-linejoin:miter;stroke-width:0.8;"/>
   </g>
   <g id="patch_9">
    <path d="M 162 315 
L 1166.4 315 
" style="fill:none;stroke:#000000;stroke-linecap:square;stroke-linejoin:miter;stroke-width:0.8;"/>
   </g>
   <g id="patch_10">
    <path d="M 162 43.2 
L 1166.4 43.2 
" style="fill:none;stroke:#000000;stroke-linecap:square;stroke-linejoin:miter;stroke-width:0.8;"/>
   </g>
   <g id="legend_1">
    <g id="patch_11">
     <path d="M 176 305 
L 307.94375 305 
Q 311.94375 305 311.94375 301 
L 311.94375 243.175 
Q 311.94375 239.175 307.94375 239.175 
L 176 239.175 
Q 172 239.175 172 243.175 
L 172 301 
Q 172 305 176 305 
z
" style="fill:#ffffff;opacity:0.8;stroke:#cccccc;stroke-linejoin:miter;"/>
    </g>
    <g id="line2d_32">
     <path d="M 180 255.371875 
L 220 255.371875 
" style="fill:none;stroke:#ffa500;stroke-linecap:square;"/>
    </g>
    <g id="line2d_33"/>
    <g id="text_23">
     <!-- RSI_14 -->
     <defs>
      <path d="M 50.984375 -16.609375 
L 50.984375 -23.578125 
L -0.984375 -23.578125 
L -0.984375 -16.609375 
z
" id="DejaVuSans-5f"/>
     </defs>
     <g transform="translate(236 262.371875)scale(0.2 -0.2)">
      <use xlink:href="#DejaVuSans-52"/>
      <use x="69.482422" xlink:href="#DejaVuSans-53"/>
      <use x="132.958984" xlink:href="#DejaVuSans-49"/>
      <use x="162.451172" xlink:href="#DejaVuSans-5f"/>
      <use x="212.451172" xlink:href="#DejaVuSans-31"/>
      <use x="276.074219" xlink:href="#DejaVuSans-34"/>
     </g>
    </g>
    <g id="line2d_34">
     <path d="M 180 285.284375 
L 220 285.284375 
" style="fill:none;stroke:#4169e1;stroke-linecap:square;stroke-width:1.5;"/>
    </g>
    <g id="line2d_35"/>
    <g id="text_24">
     <!-- RSI_30 -->
     <g transform="translate(236 292.284375)scale(0.2 -0.2)">
      <use xlink:href="#DejaVuSans-52"/>
      <use x="69.482422" xlink:href="#DejaVuSans-53"/>
      <use x="132.958984" xlink:href="#DejaVuSans-49"/>
      <use x="162.451172" xlink:href="#DejaVuSans-5f"/>
      <use x="212.451172" xlink:href="#DejaVuSans-33"/>
      <use x="276.074219" xlink:href="#DejaVuSans-30"/>
     </g>
    </g>
   </g>
  </g>
 </g>
 <defs>
  <clipPath id="pbdf3497e0a">
   <rect height="271.8" width="1004.4" x="162" y="43.2"/>
  </clipPath>
 </defs>
</svg>
