<?xml version="1.0" encoding="utf-8" standalone="no"?>
<!DOCTYPE svg PUBLIC "-//W3C//DTD SVG 1.1//EN"
  "http://www.w3.org/Graphics/SVG/1.1/DTD/svg11.dtd">
<!-- Created with matplotlib (http://matplotlib.org/) -->
<svg height="288pt" version="1.1" viewBox="0 0 1296 288" width="1296pt" xmlns="http://www.w3.org/2000/svg" xmlns:xlink="http://www.w3.org/1999/xlink">
 <defs>
  <style type="text/css">
*{stroke-linecap:butt;stroke-linejoin:round;}
  </style>
 </defs>
 <g id="figure_1">
  <g id="patch_1">
   <path d="M 0 288 
L 1296 288 
L 1296 0 
L 0 0 
z
" style="fill:#ffffff;"/>
  </g>
  <g id="axes_1">
   <g id="patch_2">
    <path d="M 162 252 
L 618.545455 252 
L 618.545455 34.56 
L 162 34.56 
z
" style="fill:#ffffff;"/>
   </g>
   <g id="matplotlib.axis_1">
    <g id="xtick_1">
     <g id="line2d_1">
      <defs>
       <path d="M 0 0 
L 0 3.5 
" id="mf7b5321b44" style="stroke:#000000;stroke-width:0.8;"/>
      </defs>
      <g>
       <use style="stroke:#000000;stroke-width:0.8;" x="213.599732" xlink:href="#mf7b5321b44" y="252"/>
      </g>
     </g>
     <g id="text_1">
      <!-- 2017-12 -->
      <defs>
       <path d="M 19.1875 8.296875 
L 53.609375 8.296875 
L 53.609375 0 
L 7.328125 0 
L 7.328125 8.296875 
Q 12.9375 14.109375 22.625 23.890625 
Q 32.328125 33.6875 34.8125 36.53125 
Q 39.546875 41.84375 41.421875 45.53125 
Q 43.3125 49.21875 43.3125 52.78125 
Q 43.3125 58.59375 39.234375 62.25 
Q 35.15625 65.921875 28.609375 65.921875 
Q 23.96875 65.921875 18.8125 64.3125 
Q 13.671875 62.703125 7.8125 59.421875 
L 7.8125 69.390625 
Q 13.765625 71.78125 18.9375 73 
Q 24.125 74.21875 28.421875 74.21875 
Q 39.75 74.21875 46.484375 68.546875 
Q 53.21875 62.890625 53.21875 53.421875 
Q 53.21875 48.921875 51.53125 44.890625 
Q 49.859375 40.875 45.40625 35.40625 
Q 44.1875 33.984375 37.640625 27.21875 
Q 31.109375 20.453125 19.1875 8.296875 
z
" id="DejaVuSans-32"/>
       <path d="M 31.78125 66.40625 
Q 24.171875 66.40625 20.328125 58.90625 
Q 16.5 51.421875 16.5 36.375 
Q 16.5 21.390625 20.328125 13.890625 
Q 24.171875 6.390625 31.78125 6.390625 
Q 39.453125 6.390625 43.28125 13.890625 
Q 47.125 21.390625 47.125 36.375 
Q 47.125 51.421875 43.28125 58.90625 
Q 39.453125 66.40625 31.78125 66.40625 
z
M 31.78125 74.21875 
Q 44.046875 74.21875 50.515625 64.515625 
Q 56.984375 54.828125 56.984375 36.375 
Q 56.984375 17.96875 50.515625 8.265625 
Q 44.046875 -1.421875 31.78125 -1.421875 
Q 19.53125 -1.421875 13.0625 8.265625 
Q 6.59375 17.96875 6.59375 36.375 
Q 6.59375 54.828125 13.0625 64.515625 
Q 19.53125 74.21875 31.78125 74.21875 
z
" id="DejaVuSans-30"/>
       <path d="M 12.40625 8.296875 
L 28.515625 8.296875 
L 28.515625 63.921875 
L 10.984375 60.40625 
L 10.984375 69.390625 
L 28.421875 72.90625 
L 38.28125 72.90625 
L 38.28125 8.296875 
L 54.390625 8.296875 
L 54.390625 0 
L 12.40625 0 
z
" id="DejaVuSans-31"/>
       <path d="M 8.203125 72.90625 
L 55.078125 72.90625 
L 55.078125 68.703125 
L 28.609375 0 
L 18.3125 0 
L 43.21875 64.59375 
L 8.203125 64.59375 
z
" id="DejaVuSans-37"/>
       <path d="M 4.890625 31.390625 
L 31.203125 31.390625 
L 31.203125 23.390625 
L 4.890625 23.390625 
z
" id="DejaVuSans-2d"/>
      </defs>
      <g transform="translate(192.708326 266.598437)scale(0.1 -0.1)">
       <use xlink:href="#DejaVuSans-32"/>
       <use x="63.623047" xlink:href="#DejaVuSans-30"/>
       <use x="127.246094" xlink:href="#DejaVuSans-31"/>
       <use x="190.869141" xlink:href="#DejaVuSans-37"/>
       <use x="254.492188" xlink:href="#DejaVuSans-2d"/>
       <use x="290.576172" xlink:href="#DejaVuSans-31"/>
       <use x="354.199219" xlink:href="#DejaVuSans-32"/>
      </g>
     </g>
    </g>
    <g id="xtick_2">
     <g id="line2d_2">
      <g>
       <use style="stroke:#000000;stroke-width:0.8;" x="300.534063" xlink:href="#mf7b5321b44" y="252"/>
      </g>
     </g>
     <g id="text_2">
      <!-- 2018-01 -->
      <defs>
       <path d="M 31.78125 34.625 
Q 24.75 34.625 20.71875 30.859375 
Q 16.703125 27.09375 16.703125 20.515625 
Q 16.703125 13.921875 20.71875 10.15625 
Q 24.75 6.390625 31.78125 6.390625 
Q 38.8125 6.390625 42.859375 10.171875 
Q 46.921875 13.96875 46.921875 20.515625 
Q 46.921875 27.09375 42.890625 30.859375 
Q 38.875 34.625 31.78125 34.625 
z
M 21.921875 38.8125 
Q 15.578125 40.375 12.03125 44.71875 
Q 8.5 49.078125 8.5 55.328125 
Q 8.5 64.0625 14.71875 69.140625 
Q 20.953125 74.21875 31.78125 74.21875 
Q 42.671875 74.21875 48.875 69.140625 
Q 55.078125 64.0625 55.078125 55.328125 
Q 55.078125 49.078125 51.53125 44.71875 
Q 48 40.375 41.703125 38.8125 
Q 48.828125 37.15625 52.796875 32.3125 
Q 56.78125 27.484375 56.78125 20.515625 
Q 56.78125 9.90625 50.3125 4.234375 
Q 43.84375 -1.421875 31.78125 -1.421875 
Q 19.734375 -1.421875 13.25 4.234375 
Q 6.78125 9.90625 6.78125 20.515625 
Q 6.78125 27.484375 10.78125 32.3125 
Q 14.796875 37.15625 21.921875 38.8125 
z
M 18.3125 54.390625 
Q 18.3125 48.734375 21.84375 45.5625 
Q 25.390625 42.390625 31.78125 42.390625 
Q 38.140625 42.390625 41.71875 45.5625 
Q 45.3125 48.734375 45.3125 54.390625 
Q 45.3125 60.0625 41.71875 63.234375 
Q 38.140625 66.40625 31.78125 66.40625 
Q 25.390625 66.40625 21.84375 63.234375 
Q 18.3125 60.0625 18.3125 54.390625 
z
" id="DejaVuSans-38"/>
      </defs>
      <g transform="translate(279.642657 266.598437)scale(0.1 -0.1)">
       <use xlink:href="#DejaVuSans-32"/>
       <use x="63.623047" xlink:href="#DejaVuSans-30"/>
       <use x="127.246094" xlink:href="#DejaVuSans-31"/>
       <use x="190.869141" xlink:href="#DejaVuSans-38"/>
       <use x="254.492188" xlink:href="#DejaVuSans-2d"/>
       <use x="290.576172" xlink:href="#DejaVuSans-30"/>
       <use x="354.199219" xlink:href="#DejaVuSans-31"/>
      </g>
     </g>
    </g>
    <g id="xtick_3">
     <g id="line2d_3">
      <g>
       <use style="stroke:#000000;stroke-width:0.8;" x="387.468394" xlink:href="#mf7b5321b44" y="252"/>
      </g>
     </g>
     <g id="text_3">
      <!-- 2018-02 -->
      <g transform="translate(366.576988 266.598437)scale(0.1 -0.1)">
       <use xlink:href="#DejaVuSans-32"/>
       <use x="63.623047" xlink:href="#DejaVuSans-30"/>
       <use x="127.246094" xlink:href="#DejaVuSans-31"/>
       <use x="190.869141" xlink:href="#DejaVuSans-38"/>
       <use x="254.492188" xlink:href="#DejaVuSans-2d"/>
       <use x="290.576172" xlink:href="#DejaVuSans-30"/>
       <use x="354.199219" xlink:href="#DejaVuSans-32"/>
      </g>
     </g>
    </g>
    <g id="xtick_4">
     <g id="line2d_4">
      <g>
       <use style="stroke:#000000;stroke-width:0.8;" x="465.989725" xlink:href="#mf7b5321b44" y="252"/>
      </g>
     </g>
     <g id="text_4">
      <!-- 2018-03 -->
      <defs>
       <path d="M 40.578125 39.3125 
Q 47.65625 37.796875 51.625 33 
Q 55.609375 28.21875 55.609375 21.1875 
Q 55.609375 10.40625 48.1875 4.484375 
Q 40.765625 -1.421875 27.09375 -1.421875 
Q 22.515625 -1.421875 17.65625 -0.515625 
Q 12.796875 0.390625 7.625 2.203125 
L 7.625 11.71875 
Q 11.71875 9.328125 16.59375 8.109375 
Q 21.484375 6.890625 26.8125 6.890625 
Q 36.078125 6.890625 40.9375 10.546875 
Q 45.796875 14.203125 45.796875 21.1875 
Q 45.796875 27.640625 41.28125 31.265625 
Q 36.765625 34.90625 28.71875 34.90625 
L 20.21875 34.90625 
L 20.21875 43.015625 
L 29.109375 43.015625 
Q 36.375 43.015625 40.234375 45.921875 
Q 44.09375 48.828125 44.09375 54.296875 
Q 44.09375 59.90625 40.109375 62.90625 
Q 36.140625 65.921875 28.71875 65.921875 
Q 24.65625 65.921875 20.015625 65.03125 
Q 15.375 64.15625 9.8125 62.3125 
L 9.8125 71.09375 
Q 15.4375 72.65625 20.34375 73.4375 
Q 25.25 74.21875 29.59375 74.21875 
Q 40.828125 74.21875 47.359375 69.109375 
Q 53.90625 64.015625 53.90625 55.328125 
Q 53.90625 49.265625 50.4375 45.09375 
Q 46.96875 40.921875 40.578125 39.3125 
z
" id="DejaVuSans-33"/>
      </defs>
      <g transform="translate(445.098319 266.598437)scale(0.1 -0.1)">
       <use xlink:href="#DejaVuSans-32"/>
       <use x="63.623047" xlink:href="#DejaVuSans-30"/>
       <use x="127.246094" xlink:href="#DejaVuSans-31"/>
       <use x="190.869141" xlink:href="#DejaVuSans-38"/>
       <use x="254.492188" xlink:href="#DejaVuSans-2d"/>
       <use x="290.576172" xlink:href="#DejaVuSans-30"/>
       <use x="354.199219" xlink:href="#DejaVuSans-33"/>
      </g>
     </g>
    </g>
    <g id="xtick_5">
     <g id="line2d_5">
      <g>
       <use style="stroke:#000000;stroke-width:0.8;" x="552.924056" xlink:href="#mf7b5321b44" y="252"/>
      </g>
     </g>
     <g id="text_5">
      <!-- 2018-04 -->
      <defs>
       <path d="M 37.796875 64.3125 
L 12.890625 25.390625 
L 37.796875 25.390625 
z
M 35.203125 72.90625 
L 47.609375 72.90625 
L 47.609375 25.390625 
L 58.015625 25.390625 
L 58.015625 17.1875 
L 47.609375 17.1875 
L 47.609375 0 
L 37.796875 0 
L 37.796875 17.1875 
L 4.890625 17.1875 
L 4.890625 26.703125 
z
" id="DejaVuSans-34"/>
      </defs>
      <g transform="translate(532.03265 266.598437)scale(0.1 -0.1)">
       <use xlink:href="#DejaVuSans-32"/>
       <use x="63.623047" xlink:href="#DejaVuSans-30"/>
       <use x="127.246094" xlink:href="#DejaVuSans-31"/>
       <use x="190.869141" xlink:href="#DejaVuSans-38"/>
       <use x="254.492188" xlink:href="#DejaVuSans-2d"/>
       <use x="290.576172" xlink:href="#DejaVuSans-30"/>
       <use x="354.199219" xlink:href="#DejaVuSans-34"/>
      </g>
     </g>
    </g>
   </g>
   <g id="matplotlib.axis_2">
    <g id="ytick_1">
     <g id="line2d_6">
      <path clip-path="url(#p49494e05b3)" d="M 162 243.676254 
L 618.545455 243.676254 
" style="fill:none;stroke:#b0b0b0;stroke-linecap:square;stroke-width:0.8;"/>
     </g>
     <g id="line2d_7">
      <defs>
       <path d="M 0 0 
L -3.5 0 
" id="mc0231e5602" style="stroke:#000000;stroke-width:0.8;"/>
      </defs>
      <g>
       <use style="stroke:#000000;stroke-width:0.8;" x="162" xlink:href="#mc0231e5602" y="243.676254"/>
      </g>
     </g>
     <g id="text_6">
      <!-- 1240 -->
      <g transform="translate(129.55 247.475472)scale(0.1 -0.1)">
       <use xlink:href="#DejaVuSans-31"/>
       <use x="63.623047" xlink:href="#DejaVuSans-32"/>
       <use x="127.246094" xlink:href="#DejaVuSans-34"/>
       <use x="190.869141" xlink:href="#DejaVuSans-30"/>
      </g>
     </g>
    </g>
    <g id="ytick_2">
     <g id="line2d_8">
      <path clip-path="url(#p49494e05b3)" d="M 162 209.012031 
L 618.545455 209.012031 
" style="fill:none;stroke:#b0b0b0;stroke-linecap:square;stroke-width:0.8;"/>
     </g>
     <g id="line2d_9">
      <g>
       <use style="stroke:#000000;stroke-width:0.8;" x="162" xlink:href="#mc0231e5602" y="209.012031"/>
      </g>
     </g>
     <g id="text_7">
      <!-- 1260 -->
      <defs>
       <path d="M 33.015625 40.375 
Q 26.375 40.375 22.484375 35.828125 
Q 18.609375 31.296875 18.609375 23.390625 
Q 18.609375 15.53125 22.484375 10.953125 
Q 26.375 6.390625 33.015625 6.390625 
Q 39.65625 6.390625 43.53125 10.953125 
Q 47.40625 15.53125 47.40625 23.390625 
Q 47.40625 31.296875 43.53125 35.828125 
Q 39.65625 40.375 33.015625 40.375 
z
M 52.59375 71.296875 
L 52.59375 62.3125 
Q 48.875 64.0625 45.09375 64.984375 
Q 41.3125 65.921875 37.59375 65.921875 
Q 27.828125 65.921875 22.671875 59.328125 
Q 17.53125 52.734375 16.796875 39.40625 
Q 19.671875 43.65625 24.015625 45.921875 
Q 28.375 48.1875 33.59375 48.1875 
Q 44.578125 48.1875 50.953125 41.515625 
Q 57.328125 34.859375 57.328125 23.390625 
Q 57.328125 12.15625 50.6875 5.359375 
Q 44.046875 -1.421875 33.015625 -1.421875 
Q 20.359375 -1.421875 13.671875 8.265625 
Q 6.984375 17.96875 6.984375 36.375 
Q 6.984375 53.65625 15.1875 63.9375 
Q 23.390625 74.21875 37.203125 74.21875 
Q 40.921875 74.21875 44.703125 73.484375 
Q 48.484375 72.75 52.59375 71.296875 
z
" id="DejaVuSans-36"/>
      </defs>
      <g transform="translate(129.55 212.81125)scale(0.1 -0.1)">
       <use xlink:href="#DejaVuSans-31"/>
       <use x="63.623047" xlink:href="#DejaVuSans-32"/>
       <use x="127.246094" xlink:href="#DejaVuSans-36"/>
       <use x="190.869141" xlink:href="#DejaVuSans-30"/>
      </g>
     </g>
    </g>
    <g id="ytick_3">
     <g id="line2d_10">
      <path clip-path="url(#p49494e05b3)" d="M 162 174.347809 
L 618.545455 174.347809 
" style="fill:none;stroke:#b0b0b0;stroke-linecap:square;stroke-width:0.8;"/>
     </g>
     <g id="line2d_11">
      <g>
       <use style="stroke:#000000;stroke-width:0.8;" x="162" xlink:href="#mc0231e5602" y="174.347809"/>
      </g>
     </g>
     <g id="text_8">
      <!-- 1280 -->
      <g transform="translate(129.55 178.147028)scale(0.1 -0.1)">
       <use xlink:href="#DejaVuSans-31"/>
       <use x="63.623047" xlink:href="#DejaVuSans-32"/>
       <use x="127.246094" xlink:href="#DejaVuSans-38"/>
       <use x="190.869141" xlink:href="#DejaVuSans-30"/>
      </g>
     </g>
    </g>
    <g id="ytick_4">
     <g id="line2d_12">
      <path clip-path="url(#p49494e05b3)" d="M 162 139.683587 
L 618.545455 139.683587 
" style="fill:none;stroke:#b0b0b0;stroke-linecap:square;stroke-width:0.8;"/>
     </g>
     <g id="line2d_13">
      <g>
       <use style="stroke:#000000;stroke-width:0.8;" x="162" xlink:href="#mc0231e5602" y="139.683587"/>
      </g>
     </g>
     <g id="text_9">
      <!-- 1300 -->
      <g transform="translate(129.55 143.482806)scale(0.1 -0.1)">
       <use xlink:href="#DejaVuSans-31"/>
       <use x="63.623047" xlink:href="#DejaVuSans-33"/>
       <use x="127.246094" xlink:href="#DejaVuSans-30"/>
       <use x="190.869141" xlink:href="#DejaVuSans-30"/>
      </g>
     </g>
    </g>
    <g id="ytick_5">
     <g id="line2d_14">
      <path clip-path="url(#p49494e05b3)" d="M 162 105.019365 
L 618.545455 105.019365 
" style="fill:none;stroke:#b0b0b0;stroke-linecap:square;stroke-width:0.8;"/>
     </g>
     <g id="line2d_15">
      <g>
       <use style="stroke:#000000;stroke-width:0.8;" x="162" xlink:href="#mc0231e5602" y="105.019365"/>
      </g>
     </g>
     <g id="text_10">
      <!-- 1320 -->
      <g transform="translate(129.55 108.818583)scale(0.1 -0.1)">
       <use xlink:href="#DejaVuSans-31"/>
       <use x="63.623047" xlink:href="#DejaVuSans-33"/>
       <use x="127.246094" xlink:href="#DejaVuSans-32"/>
       <use x="190.869141" xlink:href="#DejaVuSans-30"/>
      </g>
     </g>
    </g>
    <g id="ytick_6">
     <g id="line2d_16">
      <path clip-path="url(#p49494e05b3)" d="M 162 70.355142 
L 618.545455 70.355142 
" style="fill:none;stroke:#b0b0b0;stroke-linecap:square;stroke-width:0.8;"/>
     </g>
     <g id="line2d_17">
      <g>
       <use style="stroke:#000000;stroke-width:0.8;" x="162" xlink:href="#mc0231e5602" y="70.355142"/>
      </g>
     </g>
     <g id="text_11">
      <!-- 1340 -->
      <g transform="translate(129.55 74.154361)scale(0.1 -0.1)">
       <use xlink:href="#DejaVuSans-31"/>
       <use x="63.623047" xlink:href="#DejaVuSans-33"/>
       <use x="127.246094" xlink:href="#DejaVuSans-34"/>
       <use x="190.869141" xlink:href="#DejaVuSans-30"/>
      </g>
     </g>
    </g>
    <g id="ytick_7">
     <g id="line2d_18">
      <path clip-path="url(#p49494e05b3)" d="M 162 35.69092 
L 618.545455 35.69092 
" style="fill:none;stroke:#b0b0b0;stroke-linecap:square;stroke-width:0.8;"/>
     </g>
     <g id="line2d_19">
      <g>
       <use style="stroke:#000000;stroke-width:0.8;" x="162" xlink:href="#mc0231e5602" y="35.69092"/>
      </g>
     </g>
     <g id="text_12">
      <!-- 1360 -->
      <g transform="translate(129.55 39.490139)scale(0.1 -0.1)">
       <use xlink:href="#DejaVuSans-31"/>
       <use x="63.623047" xlink:href="#DejaVuSans-33"/>
       <use x="127.246094" xlink:href="#DejaVuSans-36"/>
       <use x="190.869141" xlink:href="#DejaVuSans-30"/>
      </g>
     </g>
    </g>
   </g>
   <g id="line2d_20">
    <path clip-path="url(#p49494e05b3)" d="M 182.752066 163.6019 
L 185.556399 168.628213 
L 188.360733 162.301992 
L 191.165066 156.409074 
L 193.969399 156.149093 
L 202.382399 148.522964 
L 205.186732 153.809258 
L 207.991065 167.674946 
L 210.795399 174.001167 
L 213.599732 182.147259 
L 222.012732 185.700342 
L 224.817065 198.092801 
L 227.621398 202.59915 
L 230.425732 217.678087 
L 233.230065 225.217555 
L 241.643065 231.283794 
L 244.447398 242.116364 
L 247.251731 239.083244 
L 250.056064 224.610931 
L 252.860398 218.371371 
L 261.273397 207.972105 
L 264.077731 208.405408 
L 266.882064 201.125921 
L 269.686397 201.125921 
L 286.512397 175.387736 
L 289.31673 155.282487 
L 303.338396 118.798393 
L 306.14273 113.858741 
L 308.947063 114.552026 
L 311.751396 109.959016 
L 320.164396 105.106025 
L 322.968729 120.618265 
L 325.773062 105.452667 
L 328.577396 99.733071 
L 331.381729 93.233529 
L 339.794729 71.655051 
L 342.599062 81.014391 
L 345.403395 77.894611 
L 348.207728 83.874189 
L 351.012062 79.107859 
L 359.425061 83.180905 
L 362.229395 81.794336 
L 365.033728 46.61015 
L 367.838061 44.443636 
L 370.642394 47.563416 
L 379.055394 63.68228 
L 381.859727 61.862408 
L 384.664061 61.602426 
L 387.468394 68.015307 
L 390.272727 85.694061 
L 398.685727 81.447694 
L 401.49006 85.260758 
L 404.294394 96.959933 
L 407.098727 112.905475 
L 409.90306 115.24531 
L 418.31606 101.032979 
L 421.120393 95.746685 
L 423.924726 76.854684 
L 426.72906 48.776664 
L 429.533393 49.383288 
L 437.946393 58.915949 
L 440.750726 70.615124 
L 443.555059 86.820648 
L 446.359392 90.547052 
L 449.163726 91.240336 
L 457.576725 81.621015 
L 460.381059 95.053401 
L 463.185392 108.745769 
L 465.989725 126.251201 
L 468.794059 101.032979 
L 477.207058 104.32608 
L 480.011392 85.260758 
L 482.815725 88.72718 
L 485.620058 103.286154 
L 488.424391 103.979438 
L 496.837391 106.492594 
L 499.641724 100.253034 
L 502.446058 98.866465 
L 505.250391 107.185879 
L 508.054724 122.178155 
L 516.467724 118.191769 
L 519.272057 120.618265 
L 522.07639 102.67953 
L 524.880724 89.160483 
L 527.685057 58.915949 
L 536.098057 48.863325 
L 538.90239 67.841986 
L 541.706723 83.440886 
L 544.511057 98.346502 
L 558.532723 81.707675 
L 561.337056 75.034812 
L 564.141389 91.673639 
L 566.945723 85.6074 
L 575.358722 84.307492 
L 578.163056 72.175014 
L 580.967389 51.723123 
L 583.771722 68.015307 
L 586.576055 63.942261 
L 594.989055 54.149619 
L 597.793388 66.715399 
" style="fill:none;stroke:#1f77b4;stroke-linecap:square;stroke-width:2;"/>
   </g>
   <g id="line2d_21">
    <defs>
     <path d="M 0 5 
C 1.326016 5 2.597899 4.473168 3.535534 3.535534 
C 4.473168 2.597899 5 1.326016 5 0 
C 5 -1.326016 4.473168 -2.597899 3.535534 -3.535534 
C 2.597899 -4.473168 1.326016 -5 0 -5 
C -1.326016 -5 -2.597899 -4.473168 -3.535534 -3.535534 
C -4.473168 -2.597899 -5 -1.326016 -5 0 
C -5 1.326016 -4.473168 2.597899 -3.535534 3.535534 
C -2.597899 4.473168 -1.326016 5 0 5 
z
" id="mb4a8e90d17" style="stroke:#008000;stroke-opacity:0.5;"/>
    </defs>
    <g clip-path="url(#p49494e05b3)">
     <use style="fill:#008000;fill-opacity:0.5;stroke:#008000;stroke-opacity:0.5;" x="460.381059" xlink:href="#mb4a8e90d17" y="95.053401"/>
     <use style="fill:#008000;fill-opacity:0.5;stroke:#008000;stroke-opacity:0.5;" x="597.793388" xlink:href="#mb4a8e90d17" y="66.715399"/>
     <use style="fill:#008000;fill-opacity:0.5;stroke:#008000;stroke-opacity:0.5;" x="320.164396" xlink:href="#mb4a8e90d17" y="105.106025"/>
     <use style="fill:#008000;fill-opacity:0.5;stroke:#008000;stroke-opacity:0.5;" x="345.403395" xlink:href="#mb4a8e90d17" y="77.894611"/>
     <use style="fill:#008000;fill-opacity:0.5;stroke:#008000;stroke-opacity:0.5;" x="437.946393" xlink:href="#mb4a8e90d17" y="58.915949"/>
     <use style="fill:#008000;fill-opacity:0.5;stroke:#008000;stroke-opacity:0.5;" x="401.49006" xlink:href="#mb4a8e90d17" y="85.260758"/>
     <use style="fill:#008000;fill-opacity:0.5;stroke:#008000;stroke-opacity:0.5;" x="230.425732" xlink:href="#mb4a8e90d17" y="217.678087"/>
     <use style="fill:#008000;fill-opacity:0.5;stroke:#008000;stroke-opacity:0.5;" x="446.359392" xlink:href="#mb4a8e90d17" y="90.547052"/>
     <use style="fill:#008000;fill-opacity:0.5;stroke:#008000;stroke-opacity:0.5;" x="244.447398" xlink:href="#mb4a8e90d17" y="242.116364"/>
     <use style="fill:#008000;fill-opacity:0.5;stroke:#008000;stroke-opacity:0.5;" x="387.468394" xlink:href="#mb4a8e90d17" y="68.015307"/>
     <use style="fill:#008000;fill-opacity:0.5;stroke:#008000;stroke-opacity:0.5;" x="367.838061" xlink:href="#mb4a8e90d17" y="44.443636"/>
     <use style="fill:#008000;fill-opacity:0.5;stroke:#008000;stroke-opacity:0.5;" x="191.165066" xlink:href="#mb4a8e90d17" y="156.409074"/>
     <use style="fill:#008000;fill-opacity:0.5;stroke:#008000;stroke-opacity:0.5;" x="586.576055" xlink:href="#mb4a8e90d17" y="63.942261"/>
     <use style="fill:#008000;fill-opacity:0.5;stroke:#008000;stroke-opacity:0.5;" x="266.882064" xlink:href="#mb4a8e90d17" y="201.125921"/>
     <use style="fill:#008000;fill-opacity:0.5;stroke:#008000;stroke-opacity:0.5;" x="213.599732" xlink:href="#mb4a8e90d17" y="182.147259"/>
     <use style="fill:#008000;fill-opacity:0.5;stroke:#008000;stroke-opacity:0.5;" x="398.685727" xlink:href="#mb4a8e90d17" y="81.447694"/>
     <use style="fill:#008000;fill-opacity:0.5;stroke:#008000;stroke-opacity:0.5;" x="508.054724" xlink:href="#mb4a8e90d17" y="122.178155"/>
     <use style="fill:#008000;fill-opacity:0.5;stroke:#008000;stroke-opacity:0.5;" x="339.794729" xlink:href="#mb4a8e90d17" y="71.655051"/>
     <use style="fill:#008000;fill-opacity:0.5;stroke:#008000;stroke-opacity:0.5;" x="502.446058" xlink:href="#mb4a8e90d17" y="98.866465"/>
     <use style="fill:#008000;fill-opacity:0.5;stroke:#008000;stroke-opacity:0.5;" x="564.141389" xlink:href="#mb4a8e90d17" y="91.673639"/>
     <use style="fill:#008000;fill-opacity:0.5;stroke:#008000;stroke-opacity:0.5;" x="443.555059" xlink:href="#mb4a8e90d17" y="86.820648"/>
     <use style="fill:#008000;fill-opacity:0.5;stroke:#008000;stroke-opacity:0.5;" x="594.989055" xlink:href="#mb4a8e90d17" y="54.149619"/>
     <use style="fill:#008000;fill-opacity:0.5;stroke:#008000;stroke-opacity:0.5;" x="558.532723" xlink:href="#mb4a8e90d17" y="81.707675"/>
     <use style="fill:#008000;fill-opacity:0.5;stroke:#008000;stroke-opacity:0.5;" x="463.185392" xlink:href="#mb4a8e90d17" y="108.745769"/>
     <use style="fill:#008000;fill-opacity:0.5;stroke:#008000;stroke-opacity:0.5;" x="261.273397" xlink:href="#mb4a8e90d17" y="207.972105"/>
    </g>
   </g>
   <g id="line2d_22">
    <defs>
     <path d="M 0 2.5 
C 0.663008 2.5 1.29895 2.236584 1.767767 1.767767 
C 2.236584 1.29895 2.5 0.663008 2.5 0 
C 2.5 -0.663008 2.236584 -1.29895 1.767767 -1.767767 
C 1.29895 -2.236584 0.663008 -2.5 0 -2.5 
C -0.663008 -2.5 -1.29895 -2.236584 -1.767767 -1.767767 
C -2.236584 -1.29895 -2.5 -0.663008 -2.5 0 
C -2.5 0.663008 -2.236584 1.29895 -1.767767 1.767767 
C -1.29895 2.236584 -0.663008 2.5 0 2.5 
z
" id="me0f077c843" style="stroke:#000000;"/>
    </defs>
    <g clip-path="url(#p49494e05b3)">
     <use style="stroke:#000000;" x="437.946393" xlink:href="#me0f077c843" y="58.915949"/>
     <use style="stroke:#000000;" x="558.532723" xlink:href="#me0f077c843" y="81.707675"/>
     <use style="stroke:#000000;" x="367.838061" xlink:href="#me0f077c843" y="44.443636"/>
     <use style="stroke:#000000;" x="191.165066" xlink:href="#me0f077c843" y="156.409074"/>
     <use style="stroke:#000000;" x="460.381059" xlink:href="#me0f077c843" y="95.053401"/>
     <use style="stroke:#000000;" x="594.989055" xlink:href="#me0f077c843" y="54.149619"/>
     <use style="stroke:#000000;" x="508.054724" xlink:href="#me0f077c843" y="122.178155"/>
     <use style="stroke:#000000;" x="564.141389" xlink:href="#me0f077c843" y="91.673639"/>
     <use style="stroke:#000000;" x="387.468394" xlink:href="#me0f077c843" y="68.015307"/>
     <use style="stroke:#000000;" x="244.447398" xlink:href="#me0f077c843" y="242.116364"/>
    </g>
   </g>
   <g id="line2d_23">
    <g clip-path="url(#p49494e05b3)">
     <use style="stroke:#000000;" x="457.576725" xlink:href="#me0f077c843" y="81.621015"/>
     <use style="stroke:#000000;" x="398.685727" xlink:href="#me0f077c843" y="81.447694"/>
     <use style="stroke:#000000;" x="331.381729" xlink:href="#me0f077c843" y="93.233529"/>
     <use style="stroke:#000000;" x="538.90239" xlink:href="#me0f077c843" y="67.841986"/>
     <use style="stroke:#000000;" x="580.967389" xlink:href="#me0f077c843" y="51.723123"/>
    </g>
   </g>
   <g id="patch_3">
    <path d="M 162 252 
L 162 34.56 
" style="fill:none;stroke:#000000;stroke-linecap:square;stroke-linejoin:miter;stroke-width:0.8;"/>
   </g>
   <g id="patch_4">
    <path d="M 618.545455 252 
L 618.545455 34.56 
" style="fill:none;stroke:#000000;stroke-linecap:square;stroke-linejoin:miter;stroke-width:0.8;"/>
   </g>
   <g id="patch_5">
    <path d="M 162 252 
L 618.545455 252 
" style="fill:none;stroke:#000000;stroke-linecap:square;stroke-linejoin:miter;stroke-width:0.8;"/>
   </g>
   <g id="patch_6">
    <path d="M 162 34.56 
L 618.545455 34.56 
" style="fill:none;stroke:#000000;stroke-linecap:square;stroke-linejoin:miter;stroke-width:0.8;"/>
   </g>
   <g id="legend_1">
    <g id="patch_7">
     <path d="M 464.39858 247 
L 611.545455 247 
Q 613.545455 247 613.545455 245 
L 613.545455 201.6875 
Q 613.545455 199.6875 611.545455 199.6875 
L 464.39858 199.6875 
Q 462.39858 199.6875 462.39858 201.6875 
L 462.39858 245 
Q 462.39858 247 464.39858 247 
z
" style="fill:#ffffff;opacity:0.8;stroke:#cccccc;stroke-linejoin:miter;"/>
    </g>
    <g id="line2d_24">
     <path d="M 466.39858 207.785937 
L 486.39858 207.785937 
" style="fill:none;stroke:#1f77b4;stroke-linecap:square;stroke-width:2;"/>
    </g>
    <g id="line2d_25"/>
    <g id="text_13">
     <!-- price -->
     <defs>
      <path d="M 18.109375 8.203125 
L 18.109375 -20.796875 
L 9.078125 -20.796875 
L 9.078125 54.6875 
L 18.109375 54.6875 
L 18.109375 46.390625 
Q 20.953125 51.265625 25.265625 53.625 
Q 29.59375 56 35.59375 56 
Q 45.5625 56 51.78125 48.09375 
Q 58.015625 40.1875 58.015625 27.296875 
Q 58.015625 14.40625 51.78125 6.484375 
Q 45.5625 -1.421875 35.59375 -1.421875 
Q 29.59375 -1.421875 25.265625 0.953125 
Q 20.953125 3.328125 18.109375 8.203125 
z
M 48.6875 27.296875 
Q 48.6875 37.203125 44.609375 42.84375 
Q 40.53125 48.484375 33.40625 48.484375 
Q 26.265625 48.484375 22.1875 42.84375 
Q 18.109375 37.203125 18.109375 27.296875 
Q 18.109375 17.390625 22.1875 11.75 
Q 26.265625 6.109375 33.40625 6.109375 
Q 40.53125 6.109375 44.609375 11.75 
Q 48.6875 17.390625 48.6875 27.296875 
z
" id="DejaVuSans-70"/>
      <path d="M 41.109375 46.296875 
Q 39.59375 47.171875 37.8125 47.578125 
Q 36.03125 48 33.890625 48 
Q 26.265625 48 22.1875 43.046875 
Q 18.109375 38.09375 18.109375 28.8125 
L 18.109375 0 
L 9.078125 0 
L 9.078125 54.6875 
L 18.109375 54.6875 
L 18.109375 46.1875 
Q 20.953125 51.171875 25.484375 53.578125 
Q 30.03125 56 36.53125 56 
Q 37.453125 56 38.578125 55.875 
Q 39.703125 55.765625 41.0625 55.515625 
z
" id="DejaVuSans-72"/>
      <path d="M 9.421875 54.6875 
L 18.40625 54.6875 
L 18.40625 0 
L 9.421875 0 
z
M 9.421875 75.984375 
L 18.40625 75.984375 
L 18.40625 64.59375 
L 9.421875 64.59375 
z
" id="DejaVuSans-69"/>
      <path d="M 48.78125 52.59375 
L 48.78125 44.1875 
Q 44.96875 46.296875 41.140625 47.34375 
Q 37.3125 48.390625 33.40625 48.390625 
Q 24.65625 48.390625 19.8125 42.84375 
Q 14.984375 37.3125 14.984375 27.296875 
Q 14.984375 17.28125 19.8125 11.734375 
Q 24.65625 6.203125 33.40625 6.203125 
Q 37.3125 6.203125 41.140625 7.25 
Q 44.96875 8.296875 48.78125 10.40625 
L 48.78125 2.09375 
Q 45.015625 0.34375 40.984375 -0.53125 
Q 36.96875 -1.421875 32.421875 -1.421875 
Q 20.0625 -1.421875 12.78125 6.34375 
Q 5.515625 14.109375 5.515625 27.296875 
Q 5.515625 40.671875 12.859375 48.328125 
Q 20.21875 56 33.015625 56 
Q 37.15625 56 41.109375 55.140625 
Q 45.0625 54.296875 48.78125 52.59375 
z
" id="DejaVuSans-63"/>
      <path d="M 56.203125 29.59375 
L 56.203125 25.203125 
L 14.890625 25.203125 
Q 15.484375 15.921875 20.484375 11.0625 
Q 25.484375 6.203125 34.421875 6.203125 
Q 39.59375 6.203125 44.453125 7.46875 
Q 49.3125 8.734375 54.109375 11.28125 
L 54.109375 2.78125 
Q 49.265625 0.734375 44.1875 -0.34375 
Q 39.109375 -1.421875 33.890625 -1.421875 
Q 20.796875 -1.421875 13.15625 6.1875 
Q 5.515625 13.8125 5.515625 26.8125 
Q 5.515625 40.234375 12.765625 48.109375 
Q 20.015625 56 32.328125 56 
Q 43.359375 56 49.78125 48.890625 
Q 56.203125 41.796875 56.203125 29.59375 
z
M 47.21875 32.234375 
Q 47.125 39.59375 43.09375 43.984375 
Q 39.0625 48.390625 32.421875 48.390625 
Q 24.90625 48.390625 20.390625 44.140625 
Q 15.875 39.890625 15.1875 32.171875 
z
" id="DejaVuSans-65"/>
     </defs>
     <g transform="translate(494.39858 211.285937)scale(0.1 -0.1)">
      <use xlink:href="#DejaVuSans-70"/>
      <use x="63.476562" xlink:href="#DejaVuSans-72"/>
      <use x="104.589844" xlink:href="#DejaVuSans-69"/>
      <use x="132.373047" xlink:href="#DejaVuSans-63"/>
      <use x="187.353516" xlink:href="#DejaVuSans-65"/>
     </g>
    </g>
    <g id="line2d_26"/>
    <g id="line2d_27">
     <g>
      <use style="fill:#008000;fill-opacity:0.5;stroke:#008000;stroke-opacity:0.5;" x="476.39858" xlink:href="#mb4a8e90d17" y="222.464063"/>
     </g>
    </g>
    <g id="text_14">
     <!-- operating point -->
     <defs>
      <path d="M 30.609375 48.390625 
Q 23.390625 48.390625 19.1875 42.75 
Q 14.984375 37.109375 14.984375 27.296875 
Q 14.984375 17.484375 19.15625 11.84375 
Q 23.34375 6.203125 30.609375 6.203125 
Q 37.796875 6.203125 41.984375 11.859375 
Q 46.1875 17.53125 46.1875 27.296875 
Q 46.1875 37.015625 41.984375 42.703125 
Q 37.796875 48.390625 30.609375 48.390625 
z
M 30.609375 56 
Q 42.328125 56 49.015625 48.375 
Q 55.71875 40.765625 55.71875 27.296875 
Q 55.71875 13.875 49.015625 6.21875 
Q 42.328125 -1.421875 30.609375 -1.421875 
Q 18.84375 -1.421875 12.171875 6.21875 
Q 5.515625 13.875 5.515625 27.296875 
Q 5.515625 40.765625 12.171875 48.375 
Q 18.84375 56 30.609375 56 
z
" id="DejaVuSans-6f"/>
      <path d="M 34.28125 27.484375 
Q 23.390625 27.484375 19.1875 25 
Q 14.984375 22.515625 14.984375 16.5 
Q 14.984375 11.71875 18.140625 8.90625 
Q 21.296875 6.109375 26.703125 6.109375 
Q 34.1875 6.109375 38.703125 11.40625 
Q 43.21875 16.703125 43.21875 25.484375 
L 43.21875 27.484375 
z
M 52.203125 31.203125 
L 52.203125 0 
L 43.21875 0 
L 43.21875 8.296875 
Q 40.140625 3.328125 35.546875 0.953125 
Q 30.953125 -1.421875 24.3125 -1.421875 
Q 15.921875 -1.421875 10.953125 3.296875 
Q 6 8.015625 6 15.921875 
Q 6 25.140625 12.171875 29.828125 
Q 18.359375 34.515625 30.609375 34.515625 
L 43.21875 34.515625 
L 43.21875 35.40625 
Q 43.21875 41.609375 39.140625 45 
Q 35.0625 48.390625 27.6875 48.390625 
Q 23 48.390625 18.546875 47.265625 
Q 14.109375 46.140625 10.015625 43.890625 
L 10.015625 52.203125 
Q 14.9375 54.109375 19.578125 55.046875 
Q 24.21875 56 28.609375 56 
Q 40.484375 56 46.34375 49.84375 
Q 52.203125 43.703125 52.203125 31.203125 
z
" id="DejaVuSans-61"/>
      <path d="M 18.3125 70.21875 
L 18.3125 54.6875 
L 36.8125 54.6875 
L 36.8125 47.703125 
L 18.3125 47.703125 
L 18.3125 18.015625 
Q 18.3125 11.328125 20.140625 9.421875 
Q 21.96875 7.515625 27.59375 7.515625 
L 36.8125 7.515625 
L 36.8125 0 
L 27.59375 0 
Q 17.1875 0 13.234375 3.875 
Q 9.28125 7.765625 9.28125 18.015625 
L 9.28125 47.703125 
L 2.6875 47.703125 
L 2.6875 54.6875 
L 9.28125 54.6875 
L 9.28125 70.21875 
z
" id="DejaVuSans-74"/>
      <path d="M 54.890625 33.015625 
L 54.890625 0 
L 45.90625 0 
L 45.90625 32.71875 
Q 45.90625 40.484375 42.875 44.328125 
Q 39.84375 48.1875 33.796875 48.1875 
Q 26.515625 48.1875 22.3125 43.546875 
Q 18.109375 38.921875 18.109375 30.90625 
L 18.109375 0 
L 9.078125 0 
L 9.078125 54.6875 
L 18.109375 54.6875 
L 18.109375 46.1875 
Q 21.34375 51.125 25.703125 53.5625 
Q 30.078125 56 35.796875 56 
Q 45.21875 56 50.046875 50.171875 
Q 54.890625 44.34375 54.890625 33.015625 
z
" id="DejaVuSans-6e"/>
      <path d="M 45.40625 27.984375 
Q 45.40625 37.75 41.375 43.109375 
Q 37.359375 48.484375 30.078125 48.484375 
Q 22.859375 48.484375 18.828125 43.109375 
Q 14.796875 37.75 14.796875 27.984375 
Q 14.796875 18.265625 18.828125 12.890625 
Q 22.859375 7.515625 30.078125 7.515625 
Q 37.359375 7.515625 41.375 12.890625 
Q 45.40625 18.265625 45.40625 27.984375 
z
M 54.390625 6.78125 
Q 54.390625 -7.171875 48.1875 -13.984375 
Q 42 -20.796875 29.203125 -20.796875 
Q 24.46875 -20.796875 20.265625 -20.09375 
Q 16.0625 -19.390625 12.109375 -17.921875 
L 12.109375 -9.1875 
Q 16.0625 -11.328125 19.921875 -12.34375 
Q 23.78125 -13.375 27.78125 -13.375 
Q 36.625 -13.375 41.015625 -8.765625 
Q 45.40625 -4.15625 45.40625 5.171875 
L 45.40625 9.625 
Q 42.625 4.78125 38.28125 2.390625 
Q 33.9375 0 27.875 0 
Q 17.828125 0 11.671875 7.65625 
Q 5.515625 15.328125 5.515625 27.984375 
Q 5.515625 40.671875 11.671875 48.328125 
Q 17.828125 56 27.875 56 
Q 33.9375 56 38.28125 53.609375 
Q 42.625 51.21875 45.40625 46.390625 
L 45.40625 54.6875 
L 54.390625 54.6875 
z
" id="DejaVuSans-67"/>
      <path id="DejaVuSans-20"/>
     </defs>
     <g transform="translate(494.39858 225.964063)scale(0.1 -0.1)">
      <use xlink:href="#DejaVuSans-6f"/>
      <use x="61.181641" xlink:href="#DejaVuSans-70"/>
      <use x="124.658203" xlink:href="#DejaVuSans-65"/>
      <use x="186.181641" xlink:href="#DejaVuSans-72"/>
      <use x="227.294922" xlink:href="#DejaVuSans-61"/>
      <use x="288.574219" xlink:href="#DejaVuSans-74"/>
      <use x="327.783203" xlink:href="#DejaVuSans-69"/>
      <use x="355.566406" xlink:href="#DejaVuSans-6e"/>
      <use x="418.945312" xlink:href="#DejaVuSans-67"/>
      <use x="482.421875" xlink:href="#DejaVuSans-20"/>
      <use x="514.208984" xlink:href="#DejaVuSans-70"/>
      <use x="577.685547" xlink:href="#DejaVuSans-6f"/>
      <use x="638.867188" xlink:href="#DejaVuSans-69"/>
      <use x="666.650391" xlink:href="#DejaVuSans-6e"/>
      <use x="730.029297" xlink:href="#DejaVuSans-74"/>
     </g>
    </g>
    <g id="line2d_28"/>
    <g id="line2d_29">
     <g>
      <use style="stroke:#000000;" x="476.39858" xlink:href="#me0f077c843" y="237.142188"/>
     </g>
    </g>
    <g id="text_15">
     <!-- after α_bitcon increase -->
     <defs>
      <path d="M 37.109375 75.984375 
L 37.109375 68.5 
L 28.515625 68.5 
Q 23.6875 68.5 21.796875 66.546875 
Q 19.921875 64.59375 19.921875 59.515625 
L 19.921875 54.6875 
L 34.71875 54.6875 
L 34.71875 47.703125 
L 19.921875 47.703125 
L 19.921875 0 
L 10.890625 0 
L 10.890625 47.703125 
L 2.296875 47.703125 
L 2.296875 54.6875 
L 10.890625 54.6875 
L 10.890625 58.5 
Q 10.890625 67.625 15.140625 71.796875 
Q 19.390625 75.984375 28.609375 75.984375 
z
" id="DejaVuSans-66"/>
      <path d="M 41.3125 25.4375 
L 39.15625 36.71875 
Q 36.96875 48.296875 28.265625 48.296875 
Q 21.734375 48.296875 18.75 42.921875 
Q 14.984375 36.1875 14.984375 27.296875 
Q 14.984375 16.546875 18.65625 11.421875 
Q 22.359375 6.203125 28.265625 6.203125 
Q 34.8125 6.203125 38.328125 16.609375 
z
M 46.34375 40.375 
L 51.171875 54.6875 
L 59.1875 54.6875 
L 49.171875 25.046875 
L 51.125 14.359375 
Q 51.5625 11.96875 53.265625 9.96875 
Q 55.28125 7.625 56.84375 7.625 
L 61.140625 7.625 
L 61.140625 0 
L 55.765625 0 
Q 51.171875 0 47.078125 4.109375 
Q 45.0625 6.15625 44.234375 10.453125 
Q 42 5.03125 37.40625 0.78125 
Q 35.25 -1.21875 28.265625 -1.21875 
Q 16.796875 -1.21875 11.234375 6.203125 
Q 5.515625 13.875 5.515625 27.296875 
Q 5.515625 41.65625 11.71875 48.390625 
Q 18.609375 55.90625 28.265625 55.90625 
Q 43.453125 55.90625 46.34375 40.375 
z
" id="DejaVuSans-3b1"/>
      <path d="M 50.984375 -16.609375 
L 50.984375 -23.578125 
L -0.984375 -23.578125 
L -0.984375 -16.609375 
z
" id="DejaVuSans-5f"/>
      <path d="M 48.6875 27.296875 
Q 48.6875 37.203125 44.609375 42.84375 
Q 40.53125 48.484375 33.40625 48.484375 
Q 26.265625 48.484375 22.1875 42.84375 
Q 18.109375 37.203125 18.109375 27.296875 
Q 18.109375 17.390625 22.1875 11.75 
Q 26.265625 6.109375 33.40625 6.109375 
Q 40.53125 6.109375 44.609375 11.75 
Q 48.6875 17.390625 48.6875 27.296875 
z
M 18.109375 46.390625 
Q 20.953125 51.265625 25.265625 53.625 
Q 29.59375 56 35.59375 56 
Q 45.5625 56 51.78125 48.09375 
Q 58.015625 40.1875 58.015625 27.296875 
Q 58.015625 14.40625 51.78125 6.484375 
Q 45.5625 -1.421875 35.59375 -1.421875 
Q 29.59375 -1.421875 25.265625 0.953125 
Q 20.953125 3.328125 18.109375 8.203125 
L 18.109375 0 
L 9.078125 0 
L 9.078125 75.984375 
L 18.109375 75.984375 
z
" id="DejaVuSans-62"/>
      <path d="M 44.28125 53.078125 
L 44.28125 44.578125 
Q 40.484375 46.53125 36.375 47.5 
Q 32.28125 48.484375 27.875 48.484375 
Q 21.1875 48.484375 17.84375 46.4375 
Q 14.5 44.390625 14.5 40.28125 
Q 14.5 37.15625 16.890625 35.375 
Q 19.28125 33.59375 26.515625 31.984375 
L 29.59375 31.296875 
Q 39.15625 29.25 43.1875 25.515625 
Q 47.21875 21.78125 47.21875 15.09375 
Q 47.21875 7.46875 41.1875 3.015625 
Q 35.15625 -1.421875 24.609375 -1.421875 
Q 20.21875 -1.421875 15.453125 -0.5625 
Q 10.6875 0.296875 5.421875 2 
L 5.421875 11.28125 
Q 10.40625 8.6875 15.234375 7.390625 
Q 20.0625 6.109375 24.8125 6.109375 
Q 31.15625 6.109375 34.5625 8.28125 
Q 37.984375 10.453125 37.984375 14.40625 
Q 37.984375 18.0625 35.515625 20.015625 
Q 33.0625 21.96875 24.703125 23.78125 
L 21.578125 24.515625 
Q 13.234375 26.265625 9.515625 29.90625 
Q 5.8125 33.546875 5.8125 39.890625 
Q 5.8125 47.609375 11.28125 51.796875 
Q 16.75 56 26.8125 56 
Q 31.78125 56 36.171875 55.265625 
Q 40.578125 54.546875 44.28125 53.078125 
z
" id="DejaVuSans-73"/>
     </defs>
     <g transform="translate(494.39858 240.642188)scale(0.1 -0.1)">
      <use xlink:href="#DejaVuSans-61"/>
      <use x="61.279297" xlink:href="#DejaVuSans-66"/>
      <use x="96.46875" xlink:href="#DejaVuSans-74"/>
      <use x="135.677734" xlink:href="#DejaVuSans-65"/>
      <use x="197.201172" xlink:href="#DejaVuSans-72"/>
      <use x="238.314453" xlink:href="#DejaVuSans-20"/>
      <use x="270.101562" xlink:href="#DejaVuSans-3b1"/>
      <use x="336.019531" xlink:href="#DejaVuSans-5f"/>
      <use x="386.019531" xlink:href="#DejaVuSans-62"/>
      <use x="449.496094" xlink:href="#DejaVuSans-69"/>
      <use x="477.279297" xlink:href="#DejaVuSans-74"/>
      <use x="516.488281" xlink:href="#DejaVuSans-63"/>
      <use x="571.46875" xlink:href="#DejaVuSans-6f"/>
      <use x="632.650391" xlink:href="#DejaVuSans-6e"/>
      <use x="696.029297" xlink:href="#DejaVuSans-20"/>
      <use x="727.816406" xlink:href="#DejaVuSans-69"/>
      <use x="755.599609" xlink:href="#DejaVuSans-6e"/>
      <use x="818.978516" xlink:href="#DejaVuSans-63"/>
      <use x="873.958984" xlink:href="#DejaVuSans-72"/>
      <use x="915.041016" xlink:href="#DejaVuSans-65"/>
      <use x="976.564453" xlink:href="#DejaVuSans-61"/>
      <use x="1037.84375" xlink:href="#DejaVuSans-73"/>
      <use x="1089.943359" xlink:href="#DejaVuSans-65"/>
     </g>
    </g>
   </g>
  </g>
  <g id="axes_2">
   <g id="patch_8">
    <path d="M 709.854545 252 
L 1166.4 252 
L 1166.4 34.56 
L 709.854545 34.56 
z
" style="fill:#ffffff;"/>
   </g>
   <g id="matplotlib.axis_3">
    <g id="xtick_6">
     <g id="line2d_30">
      <g>
       <use style="stroke:#000000;stroke-width:0.8;" x="761.454277" xlink:href="#mf7b5321b44" y="252"/>
      </g>
     </g>
     <g id="text_16">
      <!-- 2017-12 -->
      <g transform="translate(740.562871 266.598437)scale(0.1 -0.1)">
       <use xlink:href="#DejaVuSans-32"/>
       <use x="63.623047" xlink:href="#DejaVuSans-30"/>
       <use x="127.246094" xlink:href="#DejaVuSans-31"/>
       <use x="190.869141" xlink:href="#DejaVuSans-37"/>
       <use x="254.492188" xlink:href="#DejaVuSans-2d"/>
       <use x="290.576172" xlink:href="#DejaVuSans-31"/>
       <use x="354.199219" xlink:href="#DejaVuSans-32"/>
      </g>
     </g>
    </g>
    <g id="xtick_7">
     <g id="line2d_31">
      <g>
       <use style="stroke:#000000;stroke-width:0.8;" x="848.388608" xlink:href="#mf7b5321b44" y="252"/>
      </g>
     </g>
     <g id="text_17">
      <!-- 2018-01 -->
      <g transform="translate(827.497202 266.598437)scale(0.1 -0.1)">
       <use xlink:href="#DejaVuSans-32"/>
       <use x="63.623047" xlink:href="#DejaVuSans-30"/>
       <use x="127.246094" xlink:href="#DejaVuSans-31"/>
       <use x="190.869141" xlink:href="#DejaVuSans-38"/>
       <use x="254.492188" xlink:href="#DejaVuSans-2d"/>
       <use x="290.576172" xlink:href="#DejaVuSans-30"/>
       <use x="354.199219" xlink:href="#DejaVuSans-31"/>
      </g>
     </g>
    </g>
    <g id="xtick_8">
     <g id="line2d_32">
      <g>
       <use style="stroke:#000000;stroke-width:0.8;" x="935.322939" xlink:href="#mf7b5321b44" y="252"/>
      </g>
     </g>
     <g id="text_18">
      <!-- 2018-02 -->
      <g transform="translate(914.431533 266.598437)scale(0.1 -0.1)">
       <use xlink:href="#DejaVuSans-32"/>
       <use x="63.623047" xlink:href="#DejaVuSans-30"/>
       <use x="127.246094" xlink:href="#DejaVuSans-31"/>
       <use x="190.869141" xlink:href="#DejaVuSans-38"/>
       <use x="254.492188" xlink:href="#DejaVuSans-2d"/>
       <use x="290.576172" xlink:href="#DejaVuSans-30"/>
       <use x="354.199219" xlink:href="#DejaVuSans-32"/>
      </g>
     </g>
    </g>
    <g id="xtick_9">
     <g id="line2d_33">
      <g>
       <use style="stroke:#000000;stroke-width:0.8;" x="1013.844271" xlink:href="#mf7b5321b44" y="252"/>
      </g>
     </g>
     <g id="text_19">
      <!-- 2018-03 -->
      <g transform="translate(992.952864 266.598437)scale(0.1 -0.1)">
       <use xlink:href="#DejaVuSans-32"/>
       <use x="63.623047" xlink:href="#DejaVuSans-30"/>
       <use x="127.246094" xlink:href="#DejaVuSans-31"/>
       <use x="190.869141" xlink:href="#DejaVuSans-38"/>
       <use x="254.492188" xlink:href="#DejaVuSans-2d"/>
       <use x="290.576172" xlink:href="#DejaVuSans-30"/>
       <use x="354.199219" xlink:href="#DejaVuSans-33"/>
      </g>
     </g>
    </g>
    <g id="xtick_10">
     <g id="line2d_34">
      <g>
       <use style="stroke:#000000;stroke-width:0.8;" x="1100.778602" xlink:href="#mf7b5321b44" y="252"/>
      </g>
     </g>
     <g id="text_20">
      <!-- 2018-04 -->
      <g transform="translate(1079.887195 266.598437)scale(0.1 -0.1)">
       <use xlink:href="#DejaVuSans-32"/>
       <use x="63.623047" xlink:href="#DejaVuSans-30"/>
       <use x="127.246094" xlink:href="#DejaVuSans-31"/>
       <use x="190.869141" xlink:href="#DejaVuSans-38"/>
       <use x="254.492188" xlink:href="#DejaVuSans-2d"/>
       <use x="290.576172" xlink:href="#DejaVuSans-30"/>
       <use x="354.199219" xlink:href="#DejaVuSans-34"/>
      </g>
     </g>
    </g>
   </g>
   <g id="matplotlib.axis_4">
    <g id="ytick_8">
     <g id="line2d_35">
      <path clip-path="url(#p0d6a3e95bc)" d="M 709.854545 243.676254 
L 1166.4 243.676254 
" style="fill:none;stroke:#b0b0b0;stroke-linecap:square;stroke-width:0.8;"/>
     </g>
     <g id="line2d_36">
      <g>
       <use style="stroke:#000000;stroke-width:0.8;" x="709.854545" xlink:href="#mc0231e5602" y="243.676254"/>
      </g>
     </g>
     <g id="text_21">
      <!-- 1240 -->
      <g transform="translate(677.404545 247.475472)scale(0.1 -0.1)">
       <use xlink:href="#DejaVuSans-31"/>
       <use x="63.623047" xlink:href="#DejaVuSans-32"/>
       <use x="127.246094" xlink:href="#DejaVuSans-34"/>
       <use x="190.869141" xlink:href="#DejaVuSans-30"/>
      </g>
     </g>
    </g>
    <g id="ytick_9">
     <g id="line2d_37">
      <path clip-path="url(#p0d6a3e95bc)" d="M 709.854545 209.012031 
L 1166.4 209.012031 
" style="fill:none;stroke:#b0b0b0;stroke-linecap:square;stroke-width:0.8;"/>
     </g>
     <g id="line2d_38">
      <g>
       <use style="stroke:#000000;stroke-width:0.8;" x="709.854545" xlink:href="#mc0231e5602" y="209.012031"/>
      </g>
     </g>
     <g id="text_22">
      <!-- 1260 -->
      <g transform="translate(677.404545 212.81125)scale(0.1 -0.1)">
       <use xlink:href="#DejaVuSans-31"/>
       <use x="63.623047" xlink:href="#DejaVuSans-32"/>
       <use x="127.246094" xlink:href="#DejaVuSans-36"/>
       <use x="190.869141" xlink:href="#DejaVuSans-30"/>
      </g>
     </g>
    </g>
    <g id="ytick_10">
     <g id="line2d_39">
      <path clip-path="url(#p0d6a3e95bc)" d="M 709.854545 174.347809 
L 1166.4 174.347809 
" style="fill:none;stroke:#b0b0b0;stroke-linecap:square;stroke-width:0.8;"/>
     </g>
     <g id="line2d_40">
      <g>
       <use style="stroke:#000000;stroke-width:0.8;" x="709.854545" xlink:href="#mc0231e5602" y="174.347809"/>
      </g>
     </g>
     <g id="text_23">
      <!-- 1280 -->
      <g transform="translate(677.404545 178.147028)scale(0.1 -0.1)">
       <use xlink:href="#DejaVuSans-31"/>
       <use x="63.623047" xlink:href="#DejaVuSans-32"/>
       <use x="127.246094" xlink:href="#DejaVuSans-38"/>
       <use x="190.869141" xlink:href="#DejaVuSans-30"/>
      </g>
     </g>
    </g>
    <g id="ytick_11">
     <g id="line2d_41">
      <path clip-path="url(#p0d6a3e95bc)" d="M 709.854545 139.683587 
L 1166.4 139.683587 
" style="fill:none;stroke:#b0b0b0;stroke-linecap:square;stroke-width:0.8;"/>
     </g>
     <g id="line2d_42">
      <g>
       <use style="stroke:#000000;stroke-width:0.8;" x="709.854545" xlink:href="#mc0231e5602" y="139.683587"/>
      </g>
     </g>
     <g id="text_24">
      <!-- 1300 -->
      <g transform="translate(677.404545 143.482806)scale(0.1 -0.1)">
       <use xlink:href="#DejaVuSans-31"/>
       <use x="63.623047" xlink:href="#DejaVuSans-33"/>
       <use x="127.246094" xlink:href="#DejaVuSans-30"/>
       <use x="190.869141" xlink:href="#DejaVuSans-30"/>
      </g>
     </g>
    </g>
    <g id="ytick_12">
     <g id="line2d_43">
      <path clip-path="url(#p0d6a3e95bc)" d="M 709.854545 105.019365 
L 1166.4 105.019365 
" style="fill:none;stroke:#b0b0b0;stroke-linecap:square;stroke-width:0.8;"/>
     </g>
     <g id="line2d_44">
      <g>
       <use style="stroke:#000000;stroke-width:0.8;" x="709.854545" xlink:href="#mc0231e5602" y="105.019365"/>
      </g>
     </g>
     <g id="text_25">
      <!-- 1320 -->
      <g transform="translate(677.404545 108.818583)scale(0.1 -0.1)">
       <use xlink:href="#DejaVuSans-31"/>
       <use x="63.623047" xlink:href="#DejaVuSans-33"/>
       <use x="127.246094" xlink:href="#DejaVuSans-32"/>
       <use x="190.869141" xlink:href="#DejaVuSans-30"/>
      </g>
     </g>
    </g>
    <g id="ytick_13">
     <g id="line2d_45">
      <path clip-path="url(#p0d6a3e95bc)" d="M 709.854545 70.355142 
L 1166.4 70.355142 
" style="fill:none;stroke:#b0b0b0;stroke-linecap:square;stroke-width:0.8;"/>
     </g>
     <g id="line2d_46">
      <g>
       <use style="stroke:#000000;stroke-width:0.8;" x="709.854545" xlink:href="#mc0231e5602" y="70.355142"/>
      </g>
     </g>
     <g id="text_26">
      <!-- 1340 -->
      <g transform="translate(677.404545 74.154361)scale(0.1 -0.1)">
       <use xlink:href="#DejaVuSans-31"/>
       <use x="63.623047" xlink:href="#DejaVuSans-33"/>
       <use x="127.246094" xlink:href="#DejaVuSans-34"/>
       <use x="190.869141" xlink:href="#DejaVuSans-30"/>
      </g>
     </g>
    </g>
    <g id="ytick_14">
     <g id="line2d_47">
      <path clip-path="url(#p0d6a3e95bc)" d="M 709.854545 35.69092 
L 1166.4 35.69092 
" style="fill:none;stroke:#b0b0b0;stroke-linecap:square;stroke-width:0.8;"/>
     </g>
     <g id="line2d_48">
      <g>
       <use style="stroke:#000000;stroke-width:0.8;" x="709.854545" xlink:href="#mc0231e5602" y="35.69092"/>
      </g>
     </g>
     <g id="text_27">
      <!-- 1360 -->
      <g transform="translate(677.404545 39.490139)scale(0.1 -0.1)">
       <use xlink:href="#DejaVuSans-31"/>
       <use x="63.623047" xlink:href="#DejaVuSans-33"/>
       <use x="127.246094" xlink:href="#DejaVuSans-36"/>
       <use x="190.869141" xlink:href="#DejaVuSans-30"/>
      </g>
     </g>
    </g>
   </g>
   <g id="line2d_49">
    <path clip-path="url(#p0d6a3e95bc)" d="M 730.606612 163.6019 
L 733.410945 168.628213 
L 736.215278 162.301992 
L 739.019611 156.409074 
L 741.823945 156.149093 
L 750.236944 148.522964 
L 753.041278 153.809258 
L 755.845611 167.674946 
L 758.649944 174.001167 
L 761.454277 182.147259 
L 769.867277 185.700342 
L 772.67161 198.092801 
L 775.475944 202.59915 
L 778.280277 217.678087 
L 781.08461 225.217555 
L 789.49761 231.283794 
L 792.301943 242.116364 
L 795.106277 239.083244 
L 797.91061 224.610931 
L 800.714943 218.371371 
L 809.127943 207.972105 
L 811.932276 208.405408 
L 814.736609 201.125921 
L 817.540943 201.125921 
L 834.366942 175.387736 
L 837.171275 155.282487 
L 851.192942 118.798393 
L 853.997275 113.858741 
L 856.801608 114.552026 
L 859.605941 109.959016 
L 868.018941 105.106025 
L 870.823275 120.618265 
L 873.627608 105.452667 
L 876.431941 99.733071 
L 879.236274 93.233529 
L 887.649274 71.655051 
L 890.453607 81.014391 
L 893.257941 77.894611 
L 896.062274 83.874189 
L 898.866607 79.107859 
L 907.279607 83.180905 
L 910.08394 81.794336 
L 912.888273 46.61015 
L 915.692607 44.443636 
L 918.49694 47.563416 
L 926.90994 63.68228 
L 929.714273 61.862408 
L 932.518606 61.602426 
L 935.322939 68.015307 
L 938.127273 85.694061 
L 946.540273 81.447694 
L 949.344606 85.260758 
L 952.148939 96.959933 
L 954.953272 112.905475 
L 957.757606 115.24531 
L 966.170605 101.032979 
L 968.974939 95.746685 
L 971.779272 76.854684 
L 974.583605 48.776664 
L 977.387938 49.383288 
L 985.800938 58.915949 
L 988.605271 70.615124 
L 991.409605 86.820648 
L 994.213938 90.547052 
L 997.018271 91.240336 
L 1005.431271 81.621015 
L 1008.235604 95.053401 
L 1011.039937 108.745769 
L 1013.844271 126.251201 
L 1016.648604 101.032979 
L 1025.061604 104.32608 
L 1027.865937 85.260758 
L 1030.67027 88.72718 
L 1033.474604 103.286154 
L 1036.278937 103.979438 
L 1044.691937 106.492594 
L 1047.49627 100.253034 
L 1050.300603 98.866465 
L 1053.104936 107.185879 
L 1055.90927 122.178155 
L 1064.322269 118.191769 
L 1067.126603 120.618265 
L 1069.930936 102.67953 
L 1072.735269 89.160483 
L 1075.539602 58.915949 
L 1083.952602 48.863325 
L 1086.756935 67.841986 
L 1089.561269 83.440886 
L 1092.365602 98.346502 
L 1106.387268 81.707675 
L 1109.191602 75.034812 
L 1111.995935 91.673639 
L 1114.800268 85.6074 
L 1123.213268 84.307492 
L 1126.017601 72.175014 
L 1128.821934 51.723123 
L 1131.626268 68.015307 
L 1134.430601 63.942261 
L 1142.843601 54.149619 
L 1145.647934 66.715399 
" style="fill:none;stroke:#1f77b4;stroke-linecap:square;stroke-width:2;"/>
   </g>
   <g id="line2d_50">
    <g clip-path="url(#p0d6a3e95bc)">
     <use style="fill:#008000;fill-opacity:0.5;stroke:#008000;stroke-opacity:0.5;" x="1008.235604" xlink:href="#mb4a8e90d17" y="95.053401"/>
     <use style="fill:#008000;fill-opacity:0.5;stroke:#008000;stroke-opacity:0.5;" x="1145.647934" xlink:href="#mb4a8e90d17" y="66.715399"/>
     <use style="fill:#008000;fill-opacity:0.5;stroke:#008000;stroke-opacity:0.5;" x="868.018941" xlink:href="#mb4a8e90d17" y="105.106025"/>
     <use style="fill:#008000;fill-opacity:0.5;stroke:#008000;stroke-opacity:0.5;" x="893.257941" xlink:href="#mb4a8e90d17" y="77.894611"/>
     <use style="fill:#008000;fill-opacity:0.5;stroke:#008000;stroke-opacity:0.5;" x="985.800938" xlink:href="#mb4a8e90d17" y="58.915949"/>
     <use style="fill:#008000;fill-opacity:0.5;stroke:#008000;stroke-opacity:0.5;" x="949.344606" xlink:href="#mb4a8e90d17" y="85.260758"/>
     <use style="fill:#008000;fill-opacity:0.5;stroke:#008000;stroke-opacity:0.5;" x="778.280277" xlink:href="#mb4a8e90d17" y="217.678087"/>
     <use style="fill:#008000;fill-opacity:0.5;stroke:#008000;stroke-opacity:0.5;" x="994.213938" xlink:href="#mb4a8e90d17" y="90.547052"/>
     <use style="fill:#008000;fill-opacity:0.5;stroke:#008000;stroke-opacity:0.5;" x="792.301943" xlink:href="#mb4a8e90d17" y="242.116364"/>
     <use style="fill:#008000;fill-opacity:0.5;stroke:#008000;stroke-opacity:0.5;" x="935.322939" xlink:href="#mb4a8e90d17" y="68.015307"/>
     <use style="fill:#008000;fill-opacity:0.5;stroke:#008000;stroke-opacity:0.5;" x="915.692607" xlink:href="#mb4a8e90d17" y="44.443636"/>
     <use style="fill:#008000;fill-opacity:0.5;stroke:#008000;stroke-opacity:0.5;" x="739.019611" xlink:href="#mb4a8e90d17" y="156.409074"/>
     <use style="fill:#008000;fill-opacity:0.5;stroke:#008000;stroke-opacity:0.5;" x="1134.430601" xlink:href="#mb4a8e90d17" y="63.942261"/>
     <use style="fill:#008000;fill-opacity:0.5;stroke:#008000;stroke-opacity:0.5;" x="814.736609" xlink:href="#mb4a8e90d17" y="201.125921"/>
     <use style="fill:#008000;fill-opacity:0.5;stroke:#008000;stroke-opacity:0.5;" x="761.454277" xlink:href="#mb4a8e90d17" y="182.147259"/>
     <use style="fill:#008000;fill-opacity:0.5;stroke:#008000;stroke-opacity:0.5;" x="946.540273" xlink:href="#mb4a8e90d17" y="81.447694"/>
     <use style="fill:#008000;fill-opacity:0.5;stroke:#008000;stroke-opacity:0.5;" x="1055.90927" xlink:href="#mb4a8e90d17" y="122.178155"/>
     <use style="fill:#008000;fill-opacity:0.5;stroke:#008000;stroke-opacity:0.5;" x="887.649274" xlink:href="#mb4a8e90d17" y="71.655051"/>
     <use style="fill:#008000;fill-opacity:0.5;stroke:#008000;stroke-opacity:0.5;" x="1050.300603" xlink:href="#mb4a8e90d17" y="98.866465"/>
     <use style="fill:#008000;fill-opacity:0.5;stroke:#008000;stroke-opacity:0.5;" x="1111.995935" xlink:href="#mb4a8e90d17" y="91.673639"/>
     <use style="fill:#008000;fill-opacity:0.5;stroke:#008000;stroke-opacity:0.5;" x="991.409605" xlink:href="#mb4a8e90d17" y="86.820648"/>
     <use style="fill:#008000;fill-opacity:0.5;stroke:#008000;stroke-opacity:0.5;" x="1142.843601" xlink:href="#mb4a8e90d17" y="54.149619"/>
     <use style="fill:#008000;fill-opacity:0.5;stroke:#008000;stroke-opacity:0.5;" x="1106.387268" xlink:href="#mb4a8e90d17" y="81.707675"/>
     <use style="fill:#008000;fill-opacity:0.5;stroke:#008000;stroke-opacity:0.5;" x="1011.039937" xlink:href="#mb4a8e90d17" y="108.745769"/>
     <use style="fill:#008000;fill-opacity:0.5;stroke:#008000;stroke-opacity:0.5;" x="809.127943" xlink:href="#mb4a8e90d17" y="207.972105"/>
    </g>
   </g>
   <g id="line2d_51">
    <g clip-path="url(#p0d6a3e95bc)">
     <use style="stroke:#000000;" x="991.409605" xlink:href="#me0f077c843" y="86.820648"/>
     <use style="stroke:#000000;" x="868.018941" xlink:href="#me0f077c843" y="105.106025"/>
     <use style="stroke:#000000;" x="1134.430601" xlink:href="#me0f077c843" y="63.942261"/>
     <use style="stroke:#000000;" x="1011.039937" xlink:href="#me0f077c843" y="108.745769"/>
     <use style="stroke:#000000;" x="935.322939" xlink:href="#me0f077c843" y="68.015307"/>
     <use style="stroke:#000000;" x="1145.647934" xlink:href="#me0f077c843" y="66.715399"/>
     <use style="stroke:#000000;" x="985.800938" xlink:href="#me0f077c843" y="58.915949"/>
     <use style="stroke:#000000;" x="761.454277" xlink:href="#me0f077c843" y="182.147259"/>
     <use style="stroke:#000000;" x="792.301943" xlink:href="#me0f077c843" y="242.116364"/>
     <use style="stroke:#000000;" x="1142.843601" xlink:href="#me0f077c843" y="54.149619"/>
     <use style="stroke:#000000;" x="949.344606" xlink:href="#me0f077c843" y="85.260758"/>
     <use style="stroke:#000000;" x="915.692607" xlink:href="#me0f077c843" y="44.443636"/>
     <use style="stroke:#000000;" x="1111.995935" xlink:href="#me0f077c843" y="91.673639"/>
     <use style="stroke:#000000;" x="809.127943" xlink:href="#me0f077c843" y="207.972105"/>
     <use style="stroke:#000000;" x="1106.387268" xlink:href="#me0f077c843" y="81.707675"/>
     <use style="stroke:#000000;" x="994.213938" xlink:href="#me0f077c843" y="90.547052"/>
     <use style="stroke:#000000;" x="946.540273" xlink:href="#me0f077c843" y="81.447694"/>
     <use style="stroke:#000000;" x="814.736609" xlink:href="#me0f077c843" y="201.125921"/>
     <use style="stroke:#000000;" x="1008.235604" xlink:href="#me0f077c843" y="95.053401"/>
     <use style="stroke:#000000;" x="887.649274" xlink:href="#me0f077c843" y="71.655051"/>
    </g>
   </g>
   <g id="line2d_52">
    <g clip-path="url(#p0d6a3e95bc)">
     <use style="stroke:#000000;" x="834.366942" xlink:href="#me0f077c843" y="175.387736"/>
     <use style="stroke:#000000;" x="1128.821934" xlink:href="#me0f077c843" y="51.723123"/>
     <use style="stroke:#000000;" x="851.192942" xlink:href="#me0f077c843" y="118.798393"/>
     <use style="stroke:#000000;" x="811.932276" xlink:href="#me0f077c843" y="208.405408"/>
     <use style="stroke:#000000;" x="761.454277" xlink:href="#me0f077c843" y="182.147259"/>
     <use style="stroke:#000000;" x="991.409605" xlink:href="#me0f077c843" y="86.820648"/>
     <use style="stroke:#000000;" x="853.997275" xlink:href="#me0f077c843" y="113.858741"/>
     <use style="stroke:#000000;" x="1027.865937" xlink:href="#me0f077c843" y="85.260758"/>
     <use style="stroke:#000000;" x="907.279607" xlink:href="#me0f077c843" y="83.180905"/>
     <use style="stroke:#000000;" x="1111.995935" xlink:href="#me0f077c843" y="91.673639"/>
     <use style="stroke:#000000;" x="1016.648604" xlink:href="#me0f077c843" y="101.032979"/>
     <use style="stroke:#000000;" x="837.171275" xlink:href="#me0f077c843" y="155.282487"/>
     <use style="stroke:#000000;" x="772.67161" xlink:href="#me0f077c843" y="198.092801"/>
     <use style="stroke:#000000;" x="753.041278" xlink:href="#me0f077c843" y="153.809258"/>
     <use style="stroke:#000000;" x="797.91061" xlink:href="#me0f077c843" y="224.610931"/>
    </g>
   </g>
   <g id="patch_9">
    <path d="M 709.854545 252 
L 709.854545 34.56 
" style="fill:none;stroke:#000000;stroke-linecap:square;stroke-linejoin:miter;stroke-width:0.8;"/>
   </g>
   <g id="patch_10">
    <path d="M 1166.4 252 
L 1166.4 34.56 
" style="fill:none;stroke:#000000;stroke-linecap:square;stroke-linejoin:miter;stroke-width:0.8;"/>
   </g>
   <g id="patch_11">
    <path d="M 709.854545 252 
L 1166.4 252 
" style="fill:none;stroke:#000000;stroke-linecap:square;stroke-linejoin:miter;stroke-width:0.8;"/>
   </g>
   <g id="patch_12">
    <path d="M 709.854545 34.56 
L 1166.4 34.56 
" style="fill:none;stroke:#000000;stroke-linecap:square;stroke-linejoin:miter;stroke-width:0.8;"/>
   </g>
   <g id="legend_2">
    <g id="patch_13">
     <path d="M 1018.275 247 
L 1159.4 247 
Q 1161.4 247 1161.4 245 
L 1161.4 201.6875 
Q 1161.4 199.6875 1159.4 199.6875 
L 1018.275 199.6875 
Q 1016.275 199.6875 1016.275 201.6875 
L 1016.275 245 
Q 1016.275 247 1018.275 247 
z
" style="fill:#ffffff;opacity:0.8;stroke:#cccccc;stroke-linejoin:miter;"/>
    </g>
    <g id="line2d_53">
     <path d="M 1020.275 207.785937 
L 1040.275 207.785937 
" style="fill:none;stroke:#1f77b4;stroke-linecap:square;stroke-width:2;"/>
    </g>
    <g id="line2d_54"/>
    <g id="text_28">
     <!-- price -->
     <g transform="translate(1048.275 211.285937)scale(0.1 -0.1)">
      <use xlink:href="#DejaVuSans-70"/>
      <use x="63.476562" xlink:href="#DejaVuSans-72"/>
      <use x="104.589844" xlink:href="#DejaVuSans-69"/>
      <use x="132.373047" xlink:href="#DejaVuSans-63"/>
      <use x="187.353516" xlink:href="#DejaVuSans-65"/>
     </g>
    </g>
    <g id="line2d_55"/>
    <g id="line2d_56">
     <g>
      <use style="fill:#008000;fill-opacity:0.5;stroke:#008000;stroke-opacity:0.5;" x="1030.275" xlink:href="#mb4a8e90d17" y="222.464063"/>
     </g>
    </g>
    <g id="text_29">
     <!-- operating point -->
     <g transform="translate(1048.275 225.964063)scale(0.1 -0.1)">
      <use xlink:href="#DejaVuSans-6f"/>
      <use x="61.181641" xlink:href="#DejaVuSans-70"/>
      <use x="124.658203" xlink:href="#DejaVuSans-65"/>
      <use x="186.181641" xlink:href="#DejaVuSans-72"/>
      <use x="227.294922" xlink:href="#DejaVuSans-61"/>
      <use x="288.574219" xlink:href="#DejaVuSans-74"/>
      <use x="327.783203" xlink:href="#DejaVuSans-69"/>
      <use x="355.566406" xlink:href="#DejaVuSans-6e"/>
      <use x="418.945312" xlink:href="#DejaVuSans-67"/>
      <use x="482.421875" xlink:href="#DejaVuSans-20"/>
      <use x="514.208984" xlink:href="#DejaVuSans-70"/>
      <use x="577.685547" xlink:href="#DejaVuSans-6f"/>
      <use x="638.867188" xlink:href="#DejaVuSans-69"/>
      <use x="666.650391" xlink:href="#DejaVuSans-6e"/>
      <use x="730.029297" xlink:href="#DejaVuSans-74"/>
     </g>
    </g>
    <g id="line2d_57"/>
    <g id="line2d_58">
     <g>
      <use style="stroke:#000000;" x="1030.275" xlink:href="#me0f077c843" y="237.142188"/>
     </g>
    </g>
    <g id="text_30">
     <!-- after α_gold decrease -->
     <defs>
      <path d="M 9.421875 75.984375 
L 18.40625 75.984375 
L 18.40625 0 
L 9.421875 0 
z
" id="DejaVuSans-6c"/>
      <path d="M 45.40625 46.390625 
L 45.40625 75.984375 
L 54.390625 75.984375 
L 54.390625 0 
L 45.40625 0 
L 45.40625 8.203125 
Q 42.578125 3.328125 38.25 0.953125 
Q 33.9375 -1.421875 27.875 -1.421875 
Q 17.96875 -1.421875 11.734375 6.484375 
Q 5.515625 14.40625 5.515625 27.296875 
Q 5.515625 40.1875 11.734375 48.09375 
Q 17.96875 56 27.875 56 
Q 33.9375 56 38.25 53.625 
Q 42.578125 51.265625 45.40625 46.390625 
z
M 14.796875 27.296875 
Q 14.796875 17.390625 18.875 11.75 
Q 22.953125 6.109375 30.078125 6.109375 
Q 37.203125 6.109375 41.296875 11.75 
Q 45.40625 17.390625 45.40625 27.296875 
Q 45.40625 37.203125 41.296875 42.84375 
Q 37.203125 48.484375 30.078125 48.484375 
Q 22.953125 48.484375 18.875 42.84375 
Q 14.796875 37.203125 14.796875 27.296875 
z
" id="DejaVuSans-64"/>
     </defs>
     <g transform="translate(1048.275 240.642188)scale(0.1 -0.1)">
      <use xlink:href="#DejaVuSans-61"/>
      <use x="61.279297" xlink:href="#DejaVuSans-66"/>
      <use x="96.46875" xlink:href="#DejaVuSans-74"/>
      <use x="135.677734" xlink:href="#DejaVuSans-65"/>
      <use x="197.201172" xlink:href="#DejaVuSans-72"/>
      <use x="238.314453" xlink:href="#DejaVuSans-20"/>
      <use x="270.101562" xlink:href="#DejaVuSans-3b1"/>
      <use x="336.019531" xlink:href="#DejaVuSans-5f"/>
      <use x="386.019531" xlink:href="#DejaVuSans-67"/>
      <use x="449.496094" xlink:href="#DejaVuSans-6f"/>
      <use x="510.677734" xlink:href="#DejaVuSans-6c"/>
      <use x="538.460938" xlink:href="#DejaVuSans-64"/>
      <use x="601.9375" xlink:href="#DejaVuSans-20"/>
      <use x="633.724609" xlink:href="#DejaVuSans-64"/>
      <use x="697.201172" xlink:href="#DejaVuSans-65"/>
      <use x="758.724609" xlink:href="#DejaVuSans-63"/>
      <use x="813.705078" xlink:href="#DejaVuSans-72"/>
      <use x="854.787109" xlink:href="#DejaVuSans-65"/>
      <use x="916.310547" xlink:href="#DejaVuSans-61"/>
      <use x="977.589844" xlink:href="#DejaVuSans-73"/>
      <use x="1029.689453" xlink:href="#DejaVuSans-65"/>
     </g>
    </g>
   </g>
  </g>
 </g>
 <defs>
  <clipPath id="p49494e05b3">
   <rect height="217.44" width="456.545455" x="162" y="34.56"/>
  </clipPath>
  <clipPath id="p0d6a3e95bc">
   <rect height="217.44" width="456.545455" x="709.854545" y="34.56"/>
  </clipPath>
 </defs>
</svg>
